<svg width="17" height="24" viewBox="0 0 17 24" fill="none" xmlns="http://www.w3.org/2000/svg">
<g clip-path="url(#clip0)">
<path d="M8.50004 12.71C10.8252 12.71 12.71 10.8251 12.71 8.50001C12.71 6.17489 10.8252 4.29001 8.50004 4.29001C6.17492 4.29001 4.29004 6.17489 4.29004 8.50001C4.29004 10.8251 6.17492 12.71 8.50004 12.71Z" stroke="white" stroke-miterlimit="10"/>
<path d="M16.5 8.5C16.5 17.37 9.34 23.24 8.92 23.24C8.5 23.24 0.5 16.37 0.5 8.5C0.5 6.37827 1.34285 4.34343 2.84314 2.84314C4.34343 1.34285 6.37827 0.5 8.5 0.5C10.6217 0.5 12.6566 1.34285 14.1569 2.84314C15.6572 4.34343 16.5 6.37827 16.5 8.5Z" stroke="white" stroke-miterlimit="10"/>
</g>
<defs>
<clipPath id="clip0">
<rect width="17" height="23.74" fill="white"/>
</clipPath>
</defs>
</svg>
