<svg width="2076" height="1269" viewBox="0 0 2076 1269" fill="none" xmlns="http://www.w3.org/2000/svg">
<g opacity="0.3">
<g opacity="0.05">
<path opacity="0.05" d="M2072.16 185.7L2073.16 187.45C2064.76 192.57 1884.53 284.04 1880.99 280.83C1878.33 278.42 1789.06 323.83 1786.11 326.45C1780.27 331.61 1571.22 455.15 1574.37 462.28C1576.63 467.38 1446.22 544.15 1444.7 547.28C1443.97 548.77 1387.21 579.8 1384.87 580.39C1379.81 581.67 1286.08 632.28 1285.26 633.56C1285.26 633.56 1284.51 633.99 1284.5 634.02C1284.03 634.81 1258.98 649.34 1259.24 650.27C1259.79 652.27 1157.24 710.86 1151.36 714.89C1149.3 716.3 1086.36 749.71 1084.46 748.95C1083.83 748.7 1062 759.85 1061.36 759.38C1059.03 757.66 955.87 809.49 953.61 806.3C948.61 799.3 698.26 924.12 688.79 928.24C684.96 929.91 609.74 971.24 609.72 972.61C609.72 974.36 539.28 1015.61 542.13 1016.89C544.8 1018.14 481.88 1054.89 481.96 1056.29C482.01 1057.04 451.64 1073.94 450.35 1074.73C445.19 1077.87 306.72 1148.31 303.08 1146.1C300.02 1144.24 203.15 1193.52 200.08 1195.31C196.36 1197.5 87.7196 1263.19 87.6196 1263.25C87.5196 1263.31 86.7196 1261.51 86.7296 1261.41C86.9296 1260.29 194 1196.49 197.44 1194.47C200.54 1192.64 298.53 1142.79 301.61 1144.66C305.23 1146.86 442.7 1076.93 447.81 1073.82C449.07 1073.05 478.46 1056.7 478.42 1055.99C478.34 1054.6 540.32 1018.42 537.68 1017.19C534.81 1015.85 606.31 974.03 606.33 972.19C606.33 970.76 682.71 928.81 686.57 927.13C696.11 922.98 947.99 797.33 953.02 804.4C955.28 807.58 1058.22 755.86 1060.54 757.57C1061.18 758.04 1082.95 746.92 1083.54 747.16C1085.46 747.9 1147.3 715.04 1149.33 713.66C1155.2 709.66 1256.61 651.74 1256.07 649.74C1255.81 648.79 1281.61 633.83 1282.07 633C1282.07 633 1282.9 632.52 1282.91 632.5C1283.75 631.18 1378.22 580.16 1383.37 578.86C1385.68 578.27 1441.65 547.68 1442.37 546.21C1443.87 543.12 1573.64 466.72 1571.37 461.65C1568.2 454.49 1778.7 330.12 1784.58 324.91C1787.58 322.24 1878.4 276.19 1881 278.54C1884.54 281.75 2063.78 190.77 2072.16 185.7Z" fill="#2746CF"/>
</g>
<g opacity="0.1">
<path opacity="0.1" d="M2069.53 181.71L2070.53 183.47C2053.73 193.69 1877.89 276.4 1870.81 269.99C1865.48 265.16 1778.46 306.3 1772.56 311.53C1760.89 321.86 1566.04 447.71 1572.35 461.97C1576.86 472.16 1455.21 550.14 1452.16 556.4C1450.71 559.4 1395.16 589.94 1390.52 591.12C1380.4 593.68 1288.59 642.97 1286.97 645.52C1286.97 645.57 1286.22 645.98 1286.2 646.03C1285.27 647.62 1261.7 662.27 1262.2 664.14C1263.3 668.2 1166.66 726.48 1154.8 734.54C1150.66 737.36 1088.89 769.44 1084.99 767.91C1083.73 767.42 1062.32 777.63 1061.04 776.69C1056.38 773.24 956.13 819.32 951.59 812.94C941.59 798.86 697.79 909.1 678.84 917.35C671.2 920.68 597.77 961.48 597.74 964.26C597.69 967.76 533.89 1008.35 539.58 1011C544.92 1013.49 487.8 1049.59 487.96 1052.5C488.04 1053.99 458.56 1070.83 455.96 1072.4C445.64 1078.69 309.75 1142.97 302.48 1138.55C296.36 1134.83 201.3 1179.8 195.16 1183.39C187.72 1187.76 83.3496 1257.85 83.1596 1257.97C82.8389 1257.35 82.5681 1256.7 82.3496 1256.04C82.7396 1253.8 185.74 1186.54 192.62 1182.5C198.82 1178.85 294.97 1133.35 301.13 1137.09C308.37 1141.49 443.27 1077.68 453.49 1071.46C456.01 1069.92 484.55 1053.63 484.49 1052.21C484.33 1049.42 540.6 1013.84 535.31 1011.37C529.56 1008.7 594.37 967.51 594.42 963.88C594.42 961.02 668.98 919.59 676.7 916.22C695.78 907.92 941.05 796.97 951.12 811.11C955.65 817.47 1055.68 771.49 1060.32 774.91C1061.59 775.86 1082.94 765.66 1084.2 766.15C1088.04 767.64 1148.78 736.08 1152.84 733.32C1164.59 725.32 1260.22 667.69 1259.13 663.68C1258.61 661.78 1282.88 646.68 1283.85 645.04C1283.85 644.99 1284.67 644.53 1284.7 644.49C1286.37 641.85 1378.82 592.21 1389.12 589.6C1393.75 588.43 1448.47 558.32 1449.9 555.38C1452.9 549.2 1573.97 471.58 1569.48 461.44C1563.14 447.11 1759.34 320.44 1771.12 310.03C1777.12 304.68 1865.77 263.03 1870.96 267.76C1877.99 274.13 2052.86 191.87 2069.53 181.71Z" fill="#2746CF"/>
</g>
<g opacity="0.14">
<path opacity="0.14" d="M2066.95 177.73L2067.95 179.48C2042.76 194.82 1871.3 268.77 1860.68 259.15C1852.68 251.9 1767.92 288.77 1759.05 296.61C1741.55 312.1 1560.91 440.27 1570.38 461.67C1577.14 476.94 1464.25 556.14 1459.67 565.53C1457.49 570.02 1403.26 600.08 1396.22 601.86C1381.05 605.7 1291.16 653.65 1288.72 657.49C1288.72 657.55 1287.99 657.97 1287.95 658.04C1286.55 660.43 1264.47 675.2 1265.23 678.04C1266.89 684.14 1176.09 742.15 1158.3 754.24C1152.09 758.45 1091.44 789.24 1085.58 786.91C1083.69 786.17 1062.71 795.45 1060.79 794.03C1053.79 788.87 956.46 829.19 949.65 819.63C934.65 798.51 697.39 894.12 668.97 906.49C657.5 911.49 585.88 951.78 585.83 955.94C585.76 961.2 528.56 1001.17 537.1 1005.15C545.1 1008.88 493.78 1044.38 494.02 1048.74C494.15 1050.98 465.55 1067.74 461.67 1070.12C446.16 1079.49 312.87 1137.63 301.95 1130.99C292.79 1125.42 199.54 1166.08 190.39 1171.46C179.23 1178.02 79.1198 1252.46 78.7998 1252.68C78.4843 1252.04 78.2395 1251.37 78.0698 1250.68C78.6398 1247.33 177.59 1176.6 187.91 1170.54C197.21 1165.07 291.51 1123.92 300.76 1129.54C311.6 1136.13 443.94 1078.43 459.27 1069.1C463.04 1066.8 490.74 1050.58 490.62 1048.45C490.39 1044.26 540.93 1009.26 533 1005.57C524.38 1001.57 582.49 961 582.56 955.57C582.62 951.28 655.3 910.35 666.89 905.31C695.51 892.85 934.18 796.59 949.28 817.8C956.07 827.35 1053.2 787.11 1060.16 792.25C1062.07 793.66 1082.99 784.4 1084.88 785.13C1090.64 787.36 1150.28 757.13 1156.38 752.97C1174 740.97 1263.84 683.63 1262.21 677.62C1261.43 674.76 1284.21 659.56 1285.64 657.07C1285.64 657 1286.44 656.54 1286.48 656.46C1288.99 652.52 1379.42 604.24 1394.87 600.33C1401.87 598.57 1455.28 568.95 1457.44 564.53C1461.95 555.26 1574.29 476.44 1567.56 461.22C1558.05 439.73 1739.96 310.76 1757.62 295.13C1766.62 287.13 1853.1 249.93 1860.89 256.98C1871.44 266.49 2041.94 192.96 2066.95 177.73Z" fill="#2746CF"/>
</g>
<g opacity="0.19">
<path opacity="0.19" d="M2064.37 173.75L2065.37 175.49C2031.78 195.94 1864.71 261.13 1850.55 248.3C1839.88 238.64 1757.37 271.24 1745.55 281.7C1722.21 302.35 1555.79 432.82 1568.41 461.36C1577.41 481.73 1473.28 562.14 1467.18 574.66C1464.27 580.66 1411.32 610.22 1401.93 612.59C1381.69 617.71 1293.73 664.34 1290.48 669.45C1290.42 669.54 1289.75 669.96 1289.7 670.05C1287.84 673.24 1267.23 688.13 1268.25 691.86C1270.47 699.99 1185.51 757.73 1161.79 773.86C1153.52 779.48 1093.98 808.86 1086.17 805.86C1083.65 804.86 1063.1 813.21 1060.53 811.32C1051.21 804.43 956.78 839 947.7 826.25C927.7 798.09 696.98 879.08 659.09 895.57C643.79 902.23 573.97 942.02 573.9 947.57C573.81 954.57 523.23 993.93 534.61 999.23C545.29 1004.23 499.75 1039.11 500.08 1044.92C500.24 1047.92 472.52 1064.63 467.35 1067.77C446.69 1080.32 315.99 1132.29 301.43 1123.49C289.21 1116.06 197.78 1152.42 185.57 1159.59C170.69 1168.33 74.8398 1247.21 74.4198 1247.45C74.1147 1246.78 73.893 1246.07 73.7598 1245.35C74.5298 1240.88 169.42 1166.69 183.18 1158.61C195.58 1151.32 288.04 1114.52 300.36 1122.01C314.82 1130.81 444.59 1079.22 465.02 1066.78C470.02 1063.71 496.91 1047.55 496.75 1044.71C496.44 1039.13 541.26 1004.71 530.69 999.79C519.2 994.43 570.61 954.52 570.69 947.26C570.76 941.55 641.61 901.13 657.06 894.4C695.23 877.79 927.29 796.23 947.41 824.51C956.47 837.24 1050.7 802.74 1059.98 809.6C1062.53 811.48 1082.98 803.15 1085.54 804.12C1093.22 807.12 1151.76 778.12 1159.9 772.63C1183.39 756.63 1267.45 699.57 1265.27 691.56C1264.27 687.75 1285.45 672.44 1287.4 669.11C1287.4 669.01 1288.19 668.55 1288.25 668.45C1291.59 663.19 1380 616.29 1400.6 611.07C1409.87 608.73 1462.08 579.58 1464.95 573.7C1470.95 561.33 1574.6 481.3 1565.62 461.01C1552.95 432.36 1720.56 301.08 1744.1 280.24C1756.17 269.56 1840.41 236.8 1850.8 246.24C1864.89 258.89 2031.02 194.05 2064.37 173.75Z" fill="#2746CF"/>
</g>
<g opacity="0.24">
<path opacity="0.24" d="M2061.78 169.76L2062.78 171.51C2020.78 197.07 1858.11 253.51 1840.41 237.46C1827.07 225.38 1746.81 253.71 1732.04 266.78C1702.87 292.59 1550.65 425.38 1566.43 461.05C1577.69 486.51 1482.31 568.13 1474.69 583.79C1471.04 591.27 1419.36 620.36 1407.62 623.33C1382.33 629.73 1296.29 675.02 1292.22 681.42C1292.15 681.53 1291.51 681.95 1291.44 682.07C1289.11 686.07 1269.99 701.07 1271.26 705.72C1274.03 715.89 1194.93 773.35 1165.26 793.5C1154.91 800.5 1096.49 828.62 1086.73 824.8C1083.57 823.56 1063.45 830.97 1060.24 828.61C1048.59 820 957.06 848.81 945.72 832.87C920.66 797.67 696.54 864.04 649.18 884.65C630.06 892.98 562.04 932.26 561.95 939.19C561.84 947.96 517.86 986.69 532.09 993.32C545.44 999.54 505.7 1033.84 506.09 1041.1C506.3 1044.84 479.46 1061.5 473 1065.43C447.2 1081.13 319.1 1126.95 300.9 1115.89C285.62 1106.6 196 1138.65 180.75 1147.61C162.15 1158.54 70.5597 1241.82 70.0397 1242.12C69.7382 1241.42 69.5395 1240.69 69.4497 1239.93C70.4497 1234.35 161.24 1156.7 178.45 1146.59C193.95 1137.48 284.57 1105.03 299.97 1114.4C318.05 1125.4 445.25 1079.92 470.79 1064.4C477.09 1060.57 503.09 1044.47 502.89 1040.92C502.5 1033.92 541.6 1000.12 528.39 993.92C514.02 987.23 558.75 947.92 558.86 938.92C558.95 931.77 627.97 891.86 647.28 883.46C694.99 862.69 920.44 795.83 945.6 831.18C956.92 847.09 1048.25 818.34 1059.85 826.9C1063.04 829.26 1083.11 821.9 1086.25 823.07C1095.85 826.79 1153.25 799.16 1163.46 792.25C1192.83 772.25 1271.11 715.48 1268.38 705.46C1267.08 700.7 1286.77 685.27 1289.21 681.11C1289.28 680.99 1289.99 680.53 1290.07 680.4C1294.25 673.83 1380.64 628.29 1406.38 621.78C1417.97 618.84 1468.93 590.18 1472.52 582.78C1480.04 567.33 1574.96 486.09 1563.74 460.73C1547.89 424.91 1701.2 291.32 1730.64 265.27C1745.72 251.92 1827.78 223.6 1840.76 235.35C1858.33 251.28 2020.1 195.14 2061.78 169.76Z" fill="#2746CF"/>
</g>
<g opacity="0.29">
<path opacity="0.29" d="M2059.16 165.78L2060.16 167.52C2009.78 198.19 1851.48 245.85 1830.24 226.62C1814.24 212.13 1736.24 236.17 1718.5 251.86C1683.5 282.86 1545.5 417.94 1564.42 460.74C1577.93 491.3 1491.31 574.13 1482.16 592.91C1477.79 601.91 1427.37 630.5 1413.29 634.06C1382.94 641.74 1298.81 685.71 1293.94 693.38C1293.85 693.51 1293.23 693.94 1293.15 694.08C1290.36 698.86 1272.72 713.99 1274.24 719.58C1277.57 731.78 1204.31 788.98 1168.73 813.16C1156.32 821.59 1099.01 848.34 1087.29 843.76C1083.51 842.28 1063.81 848.76 1059.97 845.91C1045.97 835.58 957.36 858.65 943.74 839.52C913.68 797.27 696.11 849.02 639.28 873.76C616.33 883.76 550.11 922.52 550.01 930.84C549.87 941.36 512.51 979.47 529.59 987.43C545.59 994.89 511.65 1028.59 512.13 1037.3C512.38 1041.79 486.42 1058.38 478.67 1063.11C447.72 1081.95 322.2 1121.62 300.37 1108.34C282.06 1097.19 194.25 1124.93 175.94 1135.69C153.62 1148.8 66.2999 1236.47 65.6699 1236.83C65.3772 1236.11 65.2017 1235.35 65.1499 1234.57C66.3099 1227.86 153.07 1146.75 173.71 1134.62C192.31 1123.69 281.08 1095.62 299.57 1106.83C321.26 1120.02 445.88 1080.66 476.57 1062C484.12 1057.4 509.28 1041.36 509.04 1037.11C508.58 1028.73 541.96 995.5 526.1 988.11C508.86 980.11 546.89 941.44 547.03 930.55C547.14 921.98 614.31 882.55 637.49 872.49C694.74 847.58 913.59 795.41 943.78 837.83C957.37 856.92 1045.78 833.91 1059.71 844.19C1063.54 847.01 1083.18 840.55 1086.95 842.01C1098.47 846.47 1154.82 820.14 1167.02 811.85C1202.26 787.85 1274.75 731.37 1271.48 719.35C1269.92 713.63 1288.08 698.08 1291.01 693.09C1291.1 692.95 1291.78 692.48 1291.87 692.33C1296.87 684.44 1381.26 640.28 1412.15 632.46C1426.05 628.94 1475.76 600.76 1480.07 591.93C1489.07 573.38 1575.3 490.93 1561.84 460.5C1542.84 417.5 1681.84 281.62 1717.16 250.37C1735.26 234.37 1815.16 210.46 1830.71 224.56C1851.78 243.66 2009.16 196.23 2059.16 165.78Z" fill="#2746CF"/>
</g>
<g opacity="0.33">
<path opacity="0.33" d="M2056.62 161.79L2057.62 163.53C1998.84 199.32 1844.93 238.22 1820.14 215.78C1801.47 198.87 1725.71 218.64 1705.04 236.94C1664.16 273.09 1540.38 410.49 1562.46 460.43C1578.24 496.08 1500.36 580.13 1489.69 602.04C1484.59 612.52 1435.44 640.64 1419.01 644.8C1383.6 653.8 1301.4 696.4 1295.71 705.34C1295.61 705.5 1295.01 705.93 1294.92 706.09C1291.66 711.67 1275.51 726.92 1277.29 733.44C1281.16 747.67 1213.75 804.6 1172.24 832.81C1157.76 842.65 1101.58 868.07 1087.9 862.72C1083.48 861 1064.21 866.53 1059.73 863.22C1043.41 851.16 957.73 868.48 941.81 846.16C906.74 796.88 695.72 834 629.42 862.86C602.65 874.51 538.23 912.78 538.1 922.49C537.95 934.76 507.19 972.25 527.1 981.49C545.78 990.2 517.62 1023.3 518.19 1033.49C518.48 1038.72 493.4 1055.25 484.35 1060.76C448.24 1082.76 325.35 1116.26 299.85 1100.76C278.46 1087.76 192.46 1111.18 171.11 1123.76C145.11 1139.06 62.0096 1231.13 61.2696 1231.55C60.9994 1230.79 60.8508 1230 60.8296 1229.2C62.1696 1221.38 144.88 1136.8 168.96 1122.65C190.66 1109.9 277.58 1086.15 299.15 1099.27C324.46 1114.66 446.51 1081.41 482.27 1059.63C491.09 1054.27 515.4 1038.3 515.12 1033.33C514.58 1023.56 542.24 990.91 523.74 982.33C503.63 972.95 534.96 934.95 535.12 922.25C535.25 912.25 600.59 873.36 627.63 861.59C694.42 832.52 906.63 795.05 941.89 844.54C957.74 866.81 1043.27 849.54 1059.5 861.54C1063.97 864.84 1083.18 859.3 1087.58 861.01C1101.02 866.21 1156.27 841.19 1170.5 831.52C1211.62 803.57 1278.33 747.32 1274.5 733.3C1272.68 726.63 1289.32 710.96 1292.73 705.15C1292.83 704.97 1293.49 704.5 1293.6 704.33C1299.45 695.13 1381.8 652.33 1417.84 643.21C1434.06 639.11 1482.52 611.4 1487.54 601.1C1498.08 579.47 1575.54 495.81 1559.86 460.3C1537.68 410.16 1662.39 271.96 1703.6 235.49C1724.73 216.79 1802.41 197.34 1820.6 213.79C1845.23 236.04 1998.26 197.32 2056.62 161.79Z" fill="#2746CF"/>
</g>
<g opacity="0.38">
<path opacity="0.38" d="M2054.04 157.81L2055.04 159.55C1987.87 200.45 1838.34 230.55 1810.04 204.93C1788.7 185.61 1715.2 201.11 1691.57 222.02C1644.89 263.33 1535.3 403.02 1560.57 460.12C1578.57 500.87 1509.48 586.12 1497.28 611.17C1491.45 623.17 1443.57 650.78 1424.79 655.53C1384.33 665.77 1304.05 707.08 1297.55 717.31C1297.44 717.49 1296.86 717.92 1296.75 718.1C1293.03 724.48 1278.35 739.84 1280.39 747.31C1284.82 763.57 1223.26 820.22 1175.81 852.46C1159.27 863.71 1104.2 887.8 1088.57 881.68C1083.52 879.68 1064.68 884.31 1059.57 880.53C1040.92 866.75 958.11 878.31 939.96 852.8C899.87 796.48 695.41 818.98 619.64 851.96C589.04 865.28 526.42 903.04 526.28 914.13C526.1 928.13 501.96 965.03 524.73 975.64C546.08 985.64 523.73 1018.09 524.36 1029.71C524.69 1035.71 500.49 1052.16 490.15 1058.46C448.89 1083.58 328.56 1110.94 299.45 1093.23C275 1078.37 190.82 1097.5 166.45 1111.84C136.7 1129.32 57.8899 1225.79 57.0499 1226.27C56.7993 1225.48 56.6744 1224.66 56.6799 1223.83C58.2199 1214.89 136.87 1126.83 164.38 1110.69C189.18 1096.11 274.27 1076.69 298.91 1091.69C327.84 1109.28 447.32 1082.14 488.19 1057.26C498.27 1051.12 521.73 1035.26 521.41 1029.54C520.79 1018.38 542.73 986.31 521.59 976.46C498.59 965.74 523.24 928.38 523.43 913.86C523.58 902.43 587.08 864.05 617.98 850.6C694.31 817.38 899.98 794.6 940.2 851.17C958.32 876.62 1040.95 865.09 1059.51 878.8C1064.61 882.57 1083.39 877.96 1088.42 879.91C1103.78 885.86 1157.93 862.14 1174.2 851.09C1221.2 819.15 1282.12 763.18 1277.75 747.15C1275.67 739.53 1290.75 723.74 1294.68 717.1C1294.8 716.9 1295.43 716.43 1295.55 716.23C1302.25 705.71 1382.55 664.29 1423.76 653.86C1442.3 649.17 1489.51 621.95 1495.25 610.18C1507.25 585.45 1576.06 500.58 1558.11 460C1532.76 402.7 1643.18 262.19 1690.27 220.51C1714.42 199.14 1789.91 184.13 1810.68 202.93C1838.67 228.42 1987.34 198.41 2054.04 157.81Z" fill="#2746CF"/>
</g>
<g opacity="0.43">
<path opacity="0.43" d="M2051.45 153.82L2052.45 155.56C1976.87 201.56 1831.72 222.94 1799.86 194.09C1775.86 172.35 1704.6 183.58 1678.02 207.09C1625.5 253.56 1530.12 395.59 1558.52 459.79C1578.8 505.63 1518.43 592.1 1504.71 620.28C1498.16 633.75 1451.54 660.9 1430.42 666.28C1384.89 677.8 1306.54 717.79 1299.22 729.28C1299.1 729.48 1298.54 729.92 1298.42 730.12C1294.23 737.3 1281.04 752.78 1283.33 761.18C1288.33 779.47 1232.6 835.85 1179.23 872.13C1160.61 884.78 1106.66 907.53 1089.07 900.66C1083.4 898.44 1064.98 902.1 1059.21 897.84C1038.21 882.34 958.33 888.15 937.91 859.46C892.81 796.09 694.91 803.98 609.66 841.07C575.24 856.07 514.42 893.31 514.26 905.79C514.05 921.57 496.52 957.79 522.14 969.79C546.14 980.98 529.59 1012.88 530.32 1025.95C530.69 1032.68 507.32 1049.09 495.74 1056.17C449.31 1084.44 331.58 1105.64 298.83 1085.72C271.33 1069 188.96 1083.82 161.5 1099.95C128.02 1119.62 53.4996 1220.49 52.4996 1221.02C52.271 1220.2 52.1731 1219.35 52.2096 1218.5C53.9396 1208.45 128.52 1116.95 159.48 1098.76C187.38 1082.36 270.62 1067.31 298.35 1084.18C330.89 1103.96 447.8 1082.94 493.78 1054.94C505.11 1048.04 527.78 1032.2 527.37 1025.81C526.68 1013.25 542.9 981.81 519.11 970.69C493.25 958.64 511.19 921.91 511.4 905.58C511.57 892.72 573.23 854.85 608 839.72C693.87 802.34 892.9 794.27 938.19 857.9C958.57 886.53 1038.3 880.74 1059.19 896.16C1064.93 900.4 1083.29 896.73 1088.94 898.92C1106.22 905.61 1159.27 883.21 1177.57 870.77C1230.44 834.84 1285.57 779.15 1280.67 761.12C1278.33 752.53 1291.91 736.63 1296.3 729.12C1296.43 728.9 1297.04 728.42 1297.18 728.2C1304.71 716.36 1383.01 676.31 1429.35 664.59C1450.21 659.31 1496.16 632.59 1502.62 619.33C1516.17 591.51 1576.23 505.42 1556.03 459.77C1527.51 395.3 1623.64 252.49 1676.62 205.6C1703.78 181.6 1777.09 170.98 1800.45 192.14C1832.16 220.8 1976.43 199.49 2051.45 153.82Z" fill="#2746CF"/>
</g>
<g opacity="0.48">
<path opacity="0.48" d="M2048.87 149.84L2049.87 151.57C1965.87 202.7 1825.13 215.31 1789.73 183.25C1763.06 159.09 1694.05 166.04 1664.51 192.19C1606.17 243.82 1525 388.19 1556.51 459.51C1579.04 510.43 1527.43 598.12 1512.18 629.42C1504.9 644.42 1459.55 671.06 1436.08 677C1385.5 689.8 1309.08 728.46 1300.94 741.24C1300.8 741.46 1300.26 741.9 1300.13 742.13C1295.48 750.13 1283.77 765.7 1286.31 775.03C1291.85 795.36 1241.98 851.47 1182.68 891.77C1161.99 905.82 1109.16 927.25 1089.62 919.61C1083.31 917.14 1065.32 919.87 1058.91 915.14C1035.59 897.92 958.61 897.97 935.91 866.14C885.8 795.73 694.44 789 599.73 830.21C561.48 846.86 502.46 883.6 502.28 897.48C502.06 915.01 491.14 950.64 519.6 963.9C546.29 976.35 535.52 1007.64 536.32 1022.16C536.73 1029.65 514.32 1045.99 501.37 1053.86C449.79 1085.27 334.65 1100.31 298.26 1078.18C267.7 1059.6 187.14 1070.11 156.63 1088.04C119.44 1109.9 49.1599 1215.15 48.1099 1215.75C47.9015 1214.9 47.8239 1214.02 47.8799 1213.14C49.8099 1201.97 120.33 1107.01 154.72 1086.8C185.72 1068.58 267.12 1057.88 297.93 1076.62C334.09 1098.62 448.43 1083.7 499.52 1052.62C512.11 1044.95 533.87 1029.18 533.52 1022.08C532.75 1008.08 543.25 977.23 516.82 964.91C488.09 951.52 499.34 915.43 499.57 897.28C499.75 882.99 559.57 845.63 598.21 828.82C693.62 787.29 886.05 793.91 936.37 864.62C959.02 896.43 1035.84 896.39 1059.04 913.52C1065.42 918.23 1083.35 915.52 1089.63 917.92C1108.83 925.36 1160.78 904.26 1181.12 890.44C1239.86 850.52 1289.22 795.1 1283.76 775.07C1281.16 765.53 1293.22 749.52 1298.09 741.21C1298.24 740.96 1298.82 740.48 1298.98 740.21C1307.34 727.06 1383.62 688.38 1435.11 675.35C1458.29 669.49 1502.99 643.23 1510.17 628.51C1525.17 597.6 1576.56 510.31 1554.17 459.59C1522.48 387.95 1604.3 242.83 1663.17 190.73C1693.35 164.03 1764.47 157.88 1790.43 181.38C1825.57 213.18 1965.51 200.6 2048.87 149.84Z" fill="#2746CF"/>
</g>
<g opacity="0.52">
<path opacity="0.52" d="M2046.29 145.85L2047.29 147.58C1954.92 203.82 1818.54 207.67 1779.6 172.4C1750.26 145.83 1683.5 148.51 1651.01 177.27C1586.83 234.07 1519.87 380.73 1554.58 459.2C1579.36 515.2 1536.51 604.11 1519.74 638.55C1511.74 655.02 1467.64 681.2 1441.83 687.73C1386.18 701.81 1311.67 739.14 1302.73 753.2C1302.58 753.45 1302.07 753.89 1301.92 754.14C1296.8 762.91 1286.58 778.63 1289.37 788.89C1295.47 811.25 1251.45 867.09 1186.21 911.42C1163.46 926.88 1111.74 946.97 1090.21 938.57C1083.27 935.86 1065.7 937.65 1058.65 932.45C1033 913.5 958.93 907.8 933.96 872.73C878.84 795.29 694.04 773.93 589.86 819.27C547.79 837.58 490.57 873.81 490.37 889.07C490.12 908.36 485.82 943.37 517.12 957.96C546.48 971.65 541.5 1002.34 542.38 1018.32C542.84 1026.55 521.28 1042.83 507.06 1051.48C450.32 1086.03 337.77 1094.92 297.75 1070.58C264.13 1050.14 185.39 1056.35 151.83 1076.06C110.91 1100.11 44.9 1209.76 43.74 1210.42C43.5553 1209.54 43.5047 1208.63 43.59 1207.73C45.71 1195.44 112.17 1097.01 150 1074.78C184.1 1054.78 263.65 1048.4 297.54 1069C337.36 1093.19 449.16 1084.39 505.32 1050.17C519.17 1041.74 540.09 1026.03 539.66 1018.17C538.81 1002.82 543.59 972.52 514.52 958.97C482.92 944.23 487.47 908.78 487.73 888.81C487.93 873.1 545.92 836.25 588.41 817.76C693.41 772.08 879.18 793.39 934.54 871.16C959.45 906.16 1033.37 911.86 1058.89 930.7C1065.89 935.89 1083.41 934.07 1090.32 936.75C1111.44 944.93 1162.32 925.14 1184.66 909.94C1249.28 866.03 1292.86 810.89 1286.85 788.85C1284 778.36 1294.52 762.23 1299.85 753.09C1300 752.82 1300.56 752.34 1300.73 752.09C1309.93 737.62 1384.2 700.32 1440.83 685.98C1466.32 679.53 1509.83 653.75 1517.67 637.57C1534.23 603.57 1576.86 515.06 1552.18 459.27C1517.32 380.47 1584.85 233.05 1649.6 175.74C1682.8 146.36 1751.73 144.64 1780.29 170.5C1819.01 205.56 1954.59 201.69 2046.29 145.85Z" fill="#2746CF"/>
</g>
<g opacity="0.57">
<path opacity="0.57" d="M2043.7 141.87L2044.7 143.6C1943.93 204.95 1811.94 200.03 1769.46 161.6C1737.46 132.6 1672.95 131.02 1637.46 162.39C1567.46 224.39 1514.69 373.33 1552.56 458.93C1579.56 520.04 1545.49 610.15 1527.2 647.72C1518.46 665.72 1475.64 691.38 1447.48 698.51C1386.78 713.87 1314.19 749.87 1304.48 765.211C1304.31 765.481 1303.82 765.921 1303.66 766.211C1298.08 775.781 1289.34 791.62 1292.39 802.81C1299.03 827.21 1260.86 882.81 1189.69 931.13C1164.87 948 1114.27 966.76 1090.82 957.59C1083.25 954.59 1066.12 955.49 1058.43 949.81C1030.43 929.15 959.27 917.69 932.04 879.43C871.91 794.95 693.66 758.97 580.04 808.43C534.14 828.43 478.72 864.13 478.51 880.78C478.24 901.78 480.51 936.21 514.69 952.13C546.69 967.06 547.53 997.13 548.5 1014.58C549 1023.58 528.31 1039.78 512.81 1049.22C450.9 1086.91 340.95 1089.64 297.28 1063.08C260.61 1040.79 183.68 1042.69 147.07 1064.2C102.44 1090.43 40.6797 1204.48 39.4197 1205.2C39.2635 1204.29 39.2366 1203.35 39.3397 1202.43C41.6497 1189.02 104.05 1087.13 145.34 1062.88C182.54 1041.02 260.24 1039.03 297.22 1061.51C340.6 1087.89 449.8 1085.21 511.11 1047.88C526.22 1038.68 546.29 1023.03 545.82 1014.51C544.9 997.77 543.96 968.05 512.24 953.27C477.76 937.2 475.62 902.38 475.9 880.6C476.12 863.45 532.27 827.12 578.63 806.94C693.12 757.11 872.34 793.12 932.73 877.94C959.9 916.13 1030.93 927.56 1058.73 948.12C1066.38 953.77 1083.46 952.89 1091 955.81C1114 964.74 1163.8 946.25 1188.2 929.67C1258.69 881.76 1296.48 826.9 1289.93 802.87C1286.82 791.42 1295.81 775.17 1301.67 765.2C1301.84 764.91 1302.37 764.42 1302.56 764.13C1312.56 748.35 1384.84 712.41 1446.62 696.77C1474.43 689.77 1516.62 664.44 1525.25 646.77C1543.31 609.68 1577.25 519.97 1550.3 459.1C1512.3 373.1 1565.51 223.41 1636.15 160.89C1672.36 128.89 1739.15 131.56 1770.26 159.76C1812.46 197.94 1943.67 202.78 2043.7 141.87Z" fill="#2746CF"/>
</g>
<g opacity="0.62">
<path opacity="0.62" d="M2041.16 137.881L2042.16 139.611C1933 206.081 1805.39 192.39 1759.36 150.72C1724.69 119.32 1662.44 113.45 1624.04 147.43C1548.19 214.56 1509.65 365.85 1550.67 458.58C1579.96 524.79 1554.61 616.111 1534.79 656.801C1525.32 676.271 1483.79 701.48 1453.27 709.2C1387.5 725.84 1316.84 760.521 1306.27 777.131C1306.08 777.421 1305.61 777.871 1305.44 778.131C1299.44 788.501 1292.13 804.461 1295.44 816.591C1302.64 843.011 1270.31 898.31 1193.22 950.7C1166.33 968.97 1116.84 986.4 1091.44 976.47C1083.24 973.26 1066.53 973.181 1058.2 967.031C1027.88 944.641 959.62 927.431 930.12 886.031C864.96 794.491 693.26 743.891 570.16 797.49C520.44 819.13 466.82 854.35 466.58 872.39C466.29 895.18 475.21 928.951 512.2 946.191C546.9 962.371 553.51 991.86 554.55 1010.74C555.09 1020.47 535.29 1036.62 518.49 1046.85C451.43 1087.68 344.07 1084.26 296.76 1055.49C257.04 1031.34 181.92 1028.93 142.26 1052.24C93.8996 1080.65 36.4096 1199.09 35.0396 1199.87C34.9217 1198.92 34.9217 1197.96 35.0396 1197.01C37.5396 1182.49 95.8796 1077.14 140.59 1050.86C180.89 1027.18 256.76 1029.54 296.81 1053.86C343.81 1082.45 450.44 1085.86 516.86 1045.43C533.23 1035.43 552.45 1019.88 551.94 1010.66C550.94 992.51 544.28 963.39 509.94 947.37C472.59 929.96 463.75 895.78 464.06 872.18C464.29 853.61 518.61 817.78 568.83 795.93C692.83 741.93 865.479 792.65 930.89 884.56C960.33 925.93 1028.46 943.1 1058.61 965.37C1066.9 971.5 1083.55 971.551 1091.72 974.711C1116.72 984.381 1165.34 967.201 1191.77 949.24C1268.14 897.34 1300.15 842.76 1293.06 816.72C1289.68 804.32 1297.15 787.951 1303.49 777.151C1303.67 776.831 1304.19 776.341 1304.39 776.031C1315.26 758.931 1385.48 724.37 1452.39 707.43C1482.52 699.8 1523.47 674.991 1532.8 655.861C1552.37 615.671 1577.57 524.75 1548.4 458.81C1507.2 365.69 1546.14 213.651 1622.67 145.921C1661.9 111.201 1726.46 118.351 1760.21 148.921C1805.91 190.321 1932.75 203.871 2041.16 137.881Z" fill="#2746CF"/>
</g>
<g opacity="0.67">
<path opacity="0.67" d="M2038.54 133.9L2039.54 135.62C1921.98 207.2 1798.76 184.76 1749.19 139.87C1711.85 106.06 1651.85 95.87 1610.5 132.52C1528.81 204.8 1504.5 358.4 1548.66 458.27C1580.2 529.57 1563.66 622.1 1542.26 665.93C1532.06 686.93 1491.78 711.62 1458.93 719.93C1388.11 737.85 1319.37 771.19 1307.99 789.08C1307.79 789.4 1307.35 789.85 1307.16 790.17C1300.64 801.33 1294.87 817.41 1298.43 830.47C1306.18 858.93 1279.71 913.95 1196.68 970.37C1167.68 990.05 1119.35 1006.14 1092 995.45C1083.16 991.99 1066.88 990.98 1057.91 984.36C1025.26 960.25 959.91 937.28 928.14 892.65C857.99 794.08 692.84 728.86 560.25 786.56C506.7 809.87 454.88 844.56 454.63 864C454.32 888.55 469.84 921.7 509.63 940.27C547 957.69 559.4 986.58 560.53 1006.91C561.16 1017.4 542.24 1033.49 524.16 1044.49C451.94 1088.49 347.16 1078.88 296.23 1047.9C253.45 1021.9 180.15 1015.17 137.43 1040.27C85.36 1070.87 32.13 1193.71 30.66 1194.55C30.5652 1193.57 30.5888 1192.58 30.73 1191.6C33.42 1175.96 87.73 1067.15 135.85 1038.85C179.25 1013.35 253.27 1020.06 296.4 1046.29C347.02 1077.07 451.08 1086.61 522.61 1043.06C540.23 1032.33 558.61 1016.81 558.06 1006.87C556.98 987.33 544.6 958.79 507.6 941.54C467.38 922.79 451.85 889.25 452.17 863.84C452.43 843.84 504.91 808.52 558.99 784.98C692.56 726.84 858.57 792.25 928.99 891.23C960.7 935.78 1025.92 958.7 1058.39 982.68C1067.32 989.27 1083.55 990.26 1092.39 993.68C1119.27 1004.1 1166.83 988.23 1195.3 968.88C1277.54 912.99 1303.77 858.69 1296.13 830.64C1292.49 817.29 1298.43 800.8 1305.26 789.17C1305.46 788.83 1305.95 788.34 1306.16 788C1317.87 769.58 1386.07 736.39 1458.16 718.15C1490.6 709.94 1530.29 685.6 1540.34 665C1561.42 621.73 1577.91 529.6 1546.49 458.58C1502.13 358.3 1526.77 203.95 1609.18 131.01C1651.43 93.6202 1713.81 105.21 1750.18 138.12C1799.35 182.7 1921.83 204.96 2038.54 133.9Z" fill="#2746CF"/>
</g>
<g opacity="0.71">
<path opacity="0.71" d="M2035.96 129.91L2036.96 131.64C1910.96 208.33 1792.17 177.12 1739.06 129.03C1699.06 92.8004 1641.3 78.3802 1597 117.6C1509.48 195.05 1499.35 350.961 1546.68 457.961C1580.48 534.361 1572.68 628.1 1549.77 675.06C1538.85 697.52 1499.83 721.761 1464.63 730.671C1388.75 749.871 1321.94 781.89 1309.75 801.06C1309.53 801.4 1309.11 801.851 1308.91 802.191C1301.91 814.191 1297.64 830.35 1301.45 844.34C1309.76 874.83 1289.13 929.58 1200.17 990.03C1169.17 1011.12 1121.89 1025.88 1092.58 1014.42C1083.12 1010.72 1067.26 1008.77 1057.65 1001.67C1022.65 975.841 960.22 947.13 926.19 899.3C851.02 793.7 692.43 713.851 550.37 775.671C493 800.671 442.98 834.851 442.71 855.671C442.37 881.971 464.51 914.5 507.2 934.401C547.2 953.06 565.42 981.401 566.63 1003.13C567.25 1014.36 549.21 1030.39 529.83 1042.19C452.45 1089.31 350.28 1073.57 295.69 1040.38C249.86 1012.49 178.37 1001.49 132.61 1028.37C76.8096 1061.15 27.8496 1188.37 26.2696 1189.28C26.2077 1188.28 26.2546 1187.27 26.4096 1186.28C29.2996 1169.53 79.5196 1057.28 131.11 1026.94C177.61 999.611 249.78 1010.67 295.99 1038.77C350.23 1071.77 451.72 1087.41 528.35 1040.77C547.24 1029.26 564.77 1013.77 564.18 1003.16C563.02 982.23 544.93 954.27 505.28 935.8C462.18 915.71 439.96 882.8 440.28 855.57C440.55 834.14 491.19 799.33 549.13 774.12C692.25 711.82 851.66 791.931 927.13 897.981C961.13 945.711 1023.42 974.37 1058.21 1000.06C1067.78 1007.13 1083.58 1009.06 1093 1012.7C1121.8 1023.85 1168.26 1009.29 1198.76 988.56C1286.88 928.68 1307.32 874.65 1299.14 844.56C1295.24 830.25 1299.65 813.64 1306.97 801.18C1307.18 800.82 1307.65 800.321 1307.88 799.961C1320.42 780.231 1386.6 748.41 1463.88 728.86C1498.64 720.07 1537.08 696.21 1547.88 674.14C1570.46 627.77 1578.23 534.43 1544.57 458.35C1497.04 350.9 1507.38 194.24 1595.69 116.1C1640.95 76.0302 1701.14 92.1002 1740.08 127.31C1792.8 175.08 1910.91 206.05 2035.96 129.91Z" fill="#2746CF"/>
</g>
<g opacity="0.76">
<path opacity="0.76" d="M2033.37 125.93L2034.37 127.65C1900.01 209.45 1785.56 169.48 1728.91 118.19C1686.23 79.5402 1630.74 60.85 1583.48 102.68C1490.12 185.3 1494.21 343.52 1544.69 457.68C1580.69 539.17 1581.69 634.13 1557.26 684.22C1545.61 708.17 1507.86 731.94 1470.32 741.44C1389.38 761.91 1324.48 792.61 1311.48 813.05C1311.25 813.41 1310.85 813.87 1310.64 814.23C1303.19 826.99 1300.39 843.31 1304.45 858.23C1313.31 890.75 1298.53 945.23 1203.65 1009.72C1170.55 1032.21 1124.41 1045.63 1093.15 1033.41C1083.06 1029.47 1067.63 1026.58 1057.37 1019.01C1020.06 991.46 960.52 957.01 924.21 906.01C844.04 793.36 692 698.89 540.47 764.84C479.27 791.47 431.05 825.17 430.76 847.37C430.4 875.42 459.15 907.37 504.69 928.55C547.4 948.46 571.38 976.15 572.69 999.39C573.36 1011.39 556.2 1027.33 535.52 1039.92C452.98 1090.17 353.4 1068.28 295.18 1032.92C246.29 1003.18 176.61 987.86 127.79 1016.54C68.2799 1051.54 23.5698 1183.14 21.8898 1184.1C21.8701 1183.06 21.9438 1182.02 22.1098 1180.99C25.1798 1163.11 71.3399 1047.37 126.37 1015.04C175.97 985.89 246.3 1001.3 295.6 1031.28C353.45 1066.45 452.37 1088.22 534.11 1038.45C554.26 1026.18 570.94 1010.79 570.31 999.45C569.08 977.12 545.31 949.75 502.97 930.04C456.97 908.61 428.08 876.34 428.45 847.3C428.75 824.44 477.55 790.14 539.35 763.24C692.02 696.8 844.81 791.6 925.35 904.72C961.58 955.63 1021 990.03 1058.11 1017.44C1068.32 1024.98 1083.69 1027.82 1093.74 1031.72C1124.46 1043.62 1169.83 1030.36 1202.36 1008.25C1296.36 944.38 1311.01 890.63 1302.28 858.58C1298.12 843.32 1301.01 826.58 1308.81 813.3C1309.04 812.91 1309.48 812.42 1309.73 812.03C1323.11 790.98 1387.26 760.53 1469.65 739.68C1506.72 730.3 1543.92 706.93 1555.4 683.38C1579.49 633.93 1578.55 539.38 1542.65 458.22C1491.94 343.61 1487.99 184.65 1582.18 101.29C1630.46 58.5599 1688.47 79.0099 1730 116.62C1786.25 167.49 1899.99 207.14 2033.37 125.93Z" fill="#2746CF"/>
</g>
<g opacity="0.81">
<path opacity="0.81" d="M2030.79 121.94L2031.79 123.66C1889.03 210.58 1778.96 161.85 1718.79 107.34C1673.45 66.2803 1620.2 43.3402 1569.98 87.7602C1470.8 175.54 1489.09 336.08 1542.73 457.34C1581.03 543.92 1590.73 640.09 1564.78 693.34C1552.4 718.8 1515.93 742.08 1476.03 752.17C1390.03 773.93 1327.03 803.29 1313.25 825.02C1313 825.4 1312.63 825.86 1312.4 826.24C1304.49 839.8 1303.16 856.24 1307.49 872.09C1316.9 906.65 1307.97 960.86 1207.15 1029.37C1171.98 1053.26 1126.96 1065.37 1093.75 1052.37C1083.02 1048.18 1068.02 1044.37 1057.12 1036.32C1017.48 1007.04 960.85 966.82 922.27 912.62C837.16 792.9 691.62 683.81 530.62 753.88C465.62 782.18 419.17 815.37 418.87 838.95C418.49 868.76 453.87 900.05 502.23 922.6C547.61 943.75 577.38 970.84 578.75 995.53C579.45 1008.25 563.17 1024.16 541.2 1037.53C453.51 1090.93 356.52 1062.88 294.66 1025.26C242.71 993.67 174.84 974.04 122.98 1004.52C59.7498 1041.67 19.2998 1177.7 17.5098 1178.72C17.53 1177.65 17.627 1176.58 17.7998 1175.52C21.0698 1156.52 63.1698 1037.33 121.64 1002.97C174.34 971.97 242.83 991.76 295.2 1023.61C356.67 1060.99 453.01 1088.87 539.87 1035.99C561.27 1022.99 577.11 1007.62 576.44 995.56C575.13 971.83 545.59 945.05 500.66 924.11C451.82 901.34 416.2 869.71 416.6 838.85C416.91 814.56 463.88 780.78 529.54 752.2C691.75 681.6 837.94 791.1 923.48 911.29C961.98 965.38 1018.48 1005.52 1057.94 1034.64C1068.78 1042.64 1083.72 1046.43 1094.4 1050.57C1127.04 1063.21 1171.31 1051.26 1205.87 1027.78C1305.74 959.91 1314.62 906.44 1305.34 872.38C1300.92 856.17 1302.28 839.33 1310.57 825.21C1310.82 824.79 1311.23 824.29 1311.49 823.88C1325.71 801.52 1387.85 772.44 1475.38 750.29C1514.77 740.29 1550.71 717.42 1562.92 692.41C1588.51 639.86 1578.86 544.1 1540.71 457.87C1486.84 336.09 1468.59 174.87 1568.71 86.2602C1620.01 40.8602 1675.83 65.7504 1719.96 105.71C1779.69 159.84 1889.07 208.23 2030.79 121.94Z" fill="#2746CF"/>
</g>
<g opacity="0.86">
<path opacity="0.86" d="M2028.21 117.96L2029.21 119.68C1878.06 211.68 1772.37 154.21 1708.65 96.4998C1660.65 53.0298 1609.65 25.7901 1556.47 72.8401C1451.47 165.79 1483.95 328.64 1540.75 457.04C1581.3 548.71 1599.75 646.09 1572.29 702.44C1559.17 729.39 1523.97 752.19 1481.73 762.87C1390.67 785.87 1329.62 813.95 1314.99 836.95C1314.73 837.36 1314.38 837.82 1314.14 838.22C1305.76 852.58 1305.92 869.14 1310.5 885.92C1320.5 922.51 1317.38 976.45 1210.63 1048.99C1173.4 1074.29 1129.49 1085.06 1094.32 1071.31C1082.97 1066.87 1068.39 1062.11 1056.86 1053.59C1014.86 1022.59 961.16 976.59 920.31 919.23C830.16 792.49 691.21 668.79 520.74 742.98C451.89 772.98 407.27 805.63 406.95 830.6C406.54 862.16 448.51 892.83 499.74 916.71C547.74 939.1 583.35 965.59 584.8 991.71C585.55 1005.18 570.15 1021.03 546.89 1035.19C454.03 1091.72 359.64 1057.52 294.14 1017.69C239.14 984.24 173.08 960.31 118.14 992.57C51.1897 1031.91 15.0096 1172.34 13.1396 1173.41C13.1901 1172.31 13.3103 1171.21 13.4996 1170.13C16.9596 1150.02 54.9997 1027.36 116.91 990.98C172.71 958.19 239.35 982.3 294.8 1015.98C359.89 1055.56 453.66 1089.55 545.62 1033.56C568.29 1019.76 583.28 1004.5 582.62 991.72C581.22 966.6 545.96 940.41 498.4 918.23C446.67 894.13 404.4 863.13 404.78 830.46C405.11 804.74 450.24 771.46 519.78 741.2C691.53 666.45 831.11 790.64 921.69 917.91C962.45 975.18 1016.08 1021.06 1057.83 1051.91C1069.31 1060.39 1083.83 1065.1 1095.13 1069.48C1129.69 1082.87 1172.86 1072.23 1209.46 1047.36C1315.2 975.49 1318.29 922.3 1308.46 886.25C1303.78 869.08 1303.61 852.12 1312.39 837.17C1312.65 836.73 1313.04 836.22 1313.32 835.79C1328.37 812.11 1388.49 784.4 1481.17 760.95C1522.88 750.39 1557.57 727.95 1570.49 701.49C1597.58 645.86 1579.22 548.88 1538.83 457.58C1481.83 328.64 1449.24 165.07 1555.21 71.2899C1609.52 23.2199 1663.15 52.5399 1709.88 94.8499C1773.16 152.22 1878.16 209.32 2028.21 117.96Z" fill="#2746CF"/>
</g>
<g opacity="0.9">
<path opacity="0.9" d="M2025.63 113.98L2026.63 115.69C1867.08 212.83 1765.78 146.57 1698.51 85.6902C1647.84 39.8002 1599.09 8.28023 1542.97 57.9602C1432.11 156.06 1478.83 321.22 1538.78 456.76C1581.58 553.52 1608.78 652.12 1579.78 711.6C1565.94 740.05 1532 762.36 1487.41 773.6C1391.3 797.92 1332.17 824.6 1316.73 848.91C1316.46 849.33 1316.12 849.8 1315.87 850.23C1307.03 865.38 1308.67 882.05 1313.5 899.78C1324.02 938.4 1326.78 992.06 1214.1 1068.64C1174.8 1095.34 1132.01 1104.77 1094.89 1090.26C1082.89 1085.57 1068.75 1079.88 1056.58 1070.89C1012.27 1038.17 961.45 986.44 918.34 925.89C823.16 792.1 690.8 653.77 510.86 732.08C438.19 763.71 395.36 795.89 395.03 822.25C394.6 855.56 443.18 885.61 497.25 910.82C547.97 934.46 589.33 960.34 590.86 987.93C591.64 1002.15 577.12 1017.93 552.57 1032.93C454.57 1092.61 362.76 1052.25 293.57 1010.21C235.51 974.9 171.27 946.66 113.3 980.72C42.63 1022.24 10.71 1167.06 8.70996 1168.2C8.70996 1168.08 8.79995 1166.8 9.13995 1164.83C12.8 1143.61 46.77 1017.48 112.14 979.08C171.04 944.47 235.84 972.93 294.38 1008.53C363.08 1050.3 454.28 1090.41 551.38 1031.31C575.31 1016.74 589.45 1001.54 588.71 988.05C587.24 961.54 546.26 935.93 496.05 912.53C441.45 887.08 392.45 856.72 392.89 822.23C393.24 795.09 436.53 762.32 509.89 730.38C691.18 651.47 824.16 790.38 919.77 924.69C962.77 985.15 1013.52 1036.78 1057.59 1069.33C1069.71 1078.28 1083.8 1083.92 1095.73 1088.54C1132.21 1102.67 1174.28 1093.34 1212.91 1067.09C1324.53 991.23 1321.84 938.32 1311.47 900.26C1306.53 882.14 1304.84 865.06 1314.1 849.26C1314.38 848.79 1314.74 848.26 1315.03 847.82C1330.92 822.82 1389.03 796.5 1486.85 771.74C1530.85 760.6 1564.32 738.67 1577.96 710.74C1606.55 652.01 1579.48 553.83 1536.84 457.46C1476.63 321.35 1429.84 155.46 1541.64 56.4602C1598.97 5.71023 1650.42 39.4601 1699.74 84.1301C1766.59 144.61 1867.23 210.42 2025.63 113.98Z" fill="#2746CF"/>
</g>
<g opacity="0.95">
<path opacity="0.95" d="M2023.04 109.99L2024.04 111.7C1856.1 213.96 1759.18 138.93 1688.37 74.8099C1635.03 26.5099 1588.53 -9.27995 1529.46 43.01C1412.77 146.28 1473.69 313.75 1536.8 456.42C1581.86 558.28 1617.8 658.08 1587.3 720.7C1572.73 750.64 1540.06 772.47 1493.12 784.34C1391.95 809.94 1334.75 835.34 1318.49 860.88C1318.21 861.33 1317.9 861.8 1317.63 862.25C1308.32 878.19 1311.45 894.99 1316.53 913.65C1327.61 954.3 1336.22 1007.7 1217.61 1088.3C1176.24 1116.41 1134.61 1124.51 1095.49 1109.23C1082.87 1104.3 1069.15 1097.67 1056.33 1088.23C1009.69 1053.78 961.78 996.3 916.4 932.54C816.18 791.73 690.4 638.77 500.94 721.21C424.44 754.5 383.42 786.21 383.06 813.91C382.61 848.98 437.8 878.41 494.72 904.91C548.11 929.8 595.26 955.08 596.87 984.13C597.7 999.13 584.06 1014.81 558.21 1030.55C455.04 1093.37 365.83 1046.85 293.06 1002.6C231.94 965.43 169.51 932.88 108.49 968.73C34.1599 1012.49 6.47988 1161.67 4.37988 1162.87C4.37988 1162.74 4.52988 1161.48 4.88988 1159.41C8.73988 1137.07 38.6499 1007.48 107.44 967.06C169.44 930.63 232.44 963.44 294.01 1000.91C366.33 1044.91 455.01 1091.11 557.14 1028.91C582.32 1013.58 595.62 998.44 594.84 984.25C593.29 956.34 546.59 931.32 493.74 906.68C436.27 879.89 380.57 850.17 381.03 813.87C381.4 785.29 422.86 753.03 500.11 719.41C690.94 636.35 817.32 789.94 917.96 931.34C963.25 994.98 1011.07 1052.34 1057.46 1086.61C1070.22 1096.03 1083.88 1102.61 1096.46 1107.47C1134.86 1122.35 1175.84 1114.32 1216.46 1086.69C1333.95 1006.84 1325.46 954.21 1314.56 914.14C1309.36 895.07 1306.14 877.87 1315.9 861.26C1316.18 860.77 1316.52 860.26 1316.83 859.77C1333.56 833.47 1389.63 808.5 1492.61 782.44C1538.96 770.72 1571.14 749.26 1585.5 719.83C1615.6 658.02 1579.81 558.62 1534.93 457.18C1471.56 313.91 1410.41 145.73 1528.15 41.5301C1588.5 -11.8899 1637.76 26.2999 1689.68 73.3099C1760.03 136.99 1856.32 211.49 2023.04 109.99Z" fill="#2746CF"/>
</g>
<path opacity="0.3" d="M2021.5 107.72C1845.16 215.08 1752.63 131.3 1678.28 63.9701C1622.28 13.2501 1578.03 -26.8098 1516 28.0902C1393.47 136.52 1468.6 306.31 1534.87 456.09C1582.18 563.04 1626.87 664.09 1594.87 729.8C1579.57 761.25 1548.17 782.59 1498.87 795.06C1392.64 821.94 1337.35 845.99 1320.29 872.83C1319.99 873.303 1319.7 873.773 1319.42 874.24C1309.65 890.98 1314.25 907.9 1319.59 927.49C1331.22 970.18 1345.68 1023.3 1221.14 1107.93C1163.67 1146.98 1111.23 1146.21 1056.14 1105.49C1007.14 1069.33 962.14 1006.09 914.51 939.14C809.28 791.29 690.01 623.71 491.13 710.27C410.81 745.27 371.58 776.39 371.21 805.52C370.74 842.34 432.54 871.15 492.3 899.01C548.36 925.14 601.3 949.82 602.99 980.32C603.86 996.03 591.1 1011.69 563.99 1028.21C455.66 1094.21 369.04 1041.5 292.62 995.03C228.45 956.03 167.84 919.15 103.77 956.8C25.6598 1002.7 2.25979 1156.31 2.02979 1157.85L0.0297852 1157.56C0.259785 1156 23.8098 1001.45 102.73 955.08C167.83 916.82 228.94 953.98 293.64 993.33C369.57 1039.5 455.64 1091.83 562.93 1026.51C589.37 1010.41 601.82 995.33 601 980.43C599.37 951.12 546.95 926.69 491.46 900.82C431.09 872.71 368.69 843.63 369.16 805.49C369.54 775.49 409.16 743.74 490.28 708.43C690.67 621.25 810.44 789.49 916.16 938C963.71 1004.82 1008.63 1067.93 1057.34 1103.91C1111.68 1144.04 1163.39 1144.8 1220.06 1106.3C1343.42 1022.46 1329.16 970.1 1317.7 928.04C1312.25 908.04 1307.54 890.72 1317.7 873.25C1318 872.74 1318.31 872.25 1318.64 871.71C1336.2 844.09 1390.25 820.5 1498.38 793.14C1547.04 780.82 1577.98 759.85 1593.05 728.95C1624.66 664.04 1580.16 563.43 1533.05 456.95C1466.5 306.52 1391.05 136.03 1514.68 26.62C1578.05 -29.47 1625.13 13.1599 1679.68 62.5199C1753.53 129.4 1845.45 212.63 2020.51 106.04L2021.5 107.72Z" fill="#2746CF"/>
</g>
</svg>
