<svg width="2075" height="1156" viewBox="0 0 2075 1156" fill="none" xmlns="http://www.w3.org/2000/svg">
<g clip-path="url(#clip0)">
<g opacity="0.3">
<g opacity="0.05">
<path opacity="0.05" d="M2.50983 177.74C2.57983 177.74 119.59 226.801 123.59 228.541C126.88 229.981 224.78 279.81 225.08 283.41C225.43 287.62 362.82 357.58 368.34 359.88C369.7 360.45 400.21 374.58 400.76 374.13C401.84 373.24 467.53 402.05 466.97 399.19C466.36 396.07 542.22 429.25 543.7 428.19C544.87 427.36 623.7 464.39 627.33 466.53C636.33 471.8 886.02 601.42 883.26 609.65C882.02 613.35 984.39 666.11 984.37 669C984.37 669.74 1004.91 680.16 1005.06 680.78C1005.56 682.78 1069.76 714.1 1072.12 714.95C1078.81 717.35 1185.27 765.22 1186.56 763.6C1187.18 762.82 1214.45 774.87 1215.4 774.78C1215.4 774.78 1216.27 775.16 1216.3 775.16C1217.86 775.06 1314.66 821.39 1318.75 824.78C1320.58 826.31 1378.22 853.54 1379.84 853.25C1383.22 852.651 1521.35 912.591 1524.13 907.791C1528.05 901.01 1752.36 997.93 1760.04 999.63C1763.97 1000.49 1854.59 1046.77 1854.22 1050.25C1853.72 1054.97 2031.87 1145.9 2040.88 1149.65L2040.03 1151.46C2030.95 1147.68 1850.77 1055.74 1851.27 1050.99C1851.66 1047.42 1762.27 1001.99 1758.47 1001.09C1750.86 999.41 1527.75 903.02 1523.84 909.77C1521.05 914.59 1382.11 854.29 1378.68 854.9C1377.04 855.19 1318.5 827.54 1316.68 825.99C1312.68 822.66 1216.5 776.63 1214.99 776.72C1214.99 776.72 1214.2 776.37 1214.17 776.37C1213.25 776.47 1186.74 764.75 1186.17 765.51C1184.86 767.15 1077.1 718.71 1070.35 716.28C1068.03 715.45 1004.83 684.7 1004.28 682.72C1004.09 682.04 981.28 670.49 981.33 669.66C981.33 666.77 878.64 613.84 879.88 610.13C882.63 601.93 634.12 472.93 625.21 467.7C621.62 465.59 543.88 429.06 542.75 429.86C541.32 430.86 466.5 398.16 467.1 401.25C467.66 404.14 400.9 374.85 399.78 375.77C399.2 376.24 367.64 361.63 366.24 361.05C360.66 358.73 222.14 288.2 221.79 283.96C221.49 280.39 124.52 231.02 121.28 229.61C117.28 227.89 1.87982 179.5 1.81982 179.53L2.50983 177.74Z" fill="#2746CF"/>
</g>
<g opacity="0.1">
<path opacity="0.1" d="M4.1698 171.17C4.2998 171.1 122.4 214.17 130.39 217.63C136.99 220.5 230.29 271.41 230.89 278.63C231.59 287.06 362.52 358.54 373.57 363.14C376.29 364.27 406.24 377.75 407.34 376.85C409.51 375.09 471.34 399.61 470.24 393.85C469.03 387.63 540.43 415.76 543.39 413.671C545.73 412.01 623.06 447.86 630.32 452.13C648.27 462.66 882.22 595.6 876.71 612.06C874.24 619.47 970.26 673.26 970.22 679.06C970.22 680.55 989.8 691.16 990.1 692.39C991.1 696.51 1053.55 727.67 1058.27 729.39C1071.64 734.19 1174.47 777.55 1177.07 774.31C1178.31 772.76 1204.77 783.51 1206.68 783.31C1206.74 783.31 1207.57 783.67 1207.68 783.66C1210.79 783.47 1305.3 828.97 1313.47 835.76C1317.14 838.82 1373.66 865.32 1376.88 864.76C1383.65 863.55 1517.63 915.76 1523.19 906.13C1531.04 892.58 1748.81 976.59 1764.19 979.97C1772.06 981.71 1857.81 1028.83 1857.06 1035.79C1856.06 1045.22 2024.64 1137.79 2042.66 1145.28L2041.81 1147.09C2023.66 1139.53 1853.15 1045.98 1854.17 1036.48C1854.93 1029.33 1770.38 983.16 1762.67 981.48C1747.46 978.13 1530.85 894.591 1523.03 908.081C1517.45 917.721 1382.69 865.22 1375.83 866.44C1372.56 867.02 1315.16 840.11 1311.43 837.02C1303.43 830.34 1209.43 785.09 1206.43 785.28C1206.37 785.28 1205.61 784.95 1205.56 784.95C1203.73 785.14 1177.99 774.7 1176.78 776.2C1174.15 779.49 1070.05 735.62 1056.56 730.77C1051.92 729.11 990.42 698.48 989.32 694.51C988.94 693.16 967.22 681.4 967.23 679.74C967.23 673.94 870.93 619.98 873.41 612.56C878.9 596.17 646.08 463.87 628.27 453.4C621.08 449.18 544.81 413.81 542.55 415.4C539.69 417.4 469.26 389.7 470.47 395.87C471.6 401.65 408.73 376.69 406.47 378.53C405.31 379.48 374.32 365.53 371.52 364.38C360.37 359.74 228.36 287.69 227.65 279.2C227.06 272.07 134.65 221.63 128.15 218.81C120.24 215.37 3.6798 172.971 3.5498 173.041L4.1698 171.17Z" fill="#2746CF"/>
</g>
<g opacity="0.14">
<path opacity="0.14" d="M5.81993 164.61C6.01993 164.51 125.21 201.51 137.2 206.72C147.09 211.02 235.79 263.011 236.69 273.791C237.69 286.441 362.23 359.441 378.79 366.341C382.87 368.041 412.28 380.87 413.93 379.52C417.18 376.87 475.19 397.12 473.51 388.52C471.69 379.19 538.64 402.29 543.08 399.14C546.58 396.66 622.42 431.32 633.32 437.72C660.24 453.53 878.43 589.78 870.17 614.47C866.45 625.58 956.17 680.41 956.06 689.06C956.06 691.29 974.69 702.06 975.14 703.95C976.65 710.12 1037.34 741.171 1044.42 743.711C1064.47 750.911 1163.68 789.71 1167.58 784.9C1169.43 782.59 1195.09 792.03 1197.96 791.74C1198.05 791.74 1198.87 792.08 1198.96 792.07C1203.63 791.78 1295.84 836.45 1308.09 846.64C1313.61 851.22 1369 877 1373.84 876.14C1383.99 874.33 1513.84 918.75 1522.16 904.36C1533.93 884.02 1745.16 955.12 1768.16 960.2C1779.96 962.8 1860.85 1010.76 1859.73 1021.2C1858.21 1035.35 2017.23 1129.52 2044.26 1140.78L2043.42 1142.59C2016.19 1131.25 1855.35 1036.09 1856.88 1021.85C1858.02 1011.11 1778.26 964.25 1766.7 961.7C1743.88 956.7 1533.77 885.98 1522.04 906.23C1513.67 920.69 1383.04 875.98 1372.8 877.81C1367.89 878.69 1311.63 852.51 1306.04 847.87C1294.04 837.87 1202.26 793.381 1197.72 793.671C1197.64 793.671 1196.89 793.36 1196.82 793.37C1194.06 793.64 1169.1 784.47 1167.29 786.73C1163.34 791.67 1062.91 752.361 1042.67 745.091C1035.67 742.591 975.9 712.091 974.26 706.091C973.69 704.091 953.01 692.09 953.03 689.6C953.09 680.9 863.12 625.91 866.84 614.78C875.07 590.19 657.94 454.58 631.22 438.89C620.43 432.55 545.64 398.341 542.22 400.751C537.92 403.751 471.9 381.041 473.7 390.291C475.4 398.961 416.43 378.291 413.05 381.091C411.31 382.511 380.89 369.26 376.7 367.51C359.97 360.51 234.47 286.97 233.41 274.24C232.52 263.54 144.66 212.04 134.92 207.81C123.05 202.64 5.35992 166.241 5.16992 166.341L5.81993 164.61Z" fill="#2746CF"/>
</g>
<g opacity="0.19">
<path opacity="0.19" d="M7.46986 158.101C7.73986 157.961 128.02 188.91 144.01 195.86C157.2 201.6 241.3 254.65 242.49 269.02C243.9 285.89 361.93 360.41 384.02 369.61C389.46 371.88 418.31 384.07 420.52 382.27C424.85 378.73 479.02 394.701 476.78 383.27C474.35 370.82 536.85 388.89 542.78 384.69C547.45 381.38 621.78 414.861 636.33 423.391C672.22 444.471 874.64 584.03 863.63 616.95C858.63 631.76 942 687.63 941.92 699.16C941.92 702.16 959.58 713.16 960.19 715.61C962.19 723.84 1021.19 754.781 1030.58 758.171C1057.32 767.771 1152.9 802.1 1158.09 795.62C1160.57 792.54 1185.42 800.671 1189.25 800.291C1189.37 800.291 1190.17 800.601 1190.25 800.601C1196.47 800.201 1286.39 844.051 1302.72 857.601C1310.07 863.721 1364.34 888.761 1370.79 887.601C1384.33 885.191 1510.01 921.86 1521.13 902.66C1536.83 875.55 1741.51 933.731 1772.22 940.501C1787.96 943.971 1863.97 992.781 1862.48 1006.71C1860.48 1025.58 2009.92 1121.37 2045.96 1136.37L2045.12 1138.19C2008.81 1123.07 1857.64 1026.3 1859.68 1007.31C1861.21 992.991 1786.23 945.441 1770.82 942.041C1740.38 935.331 1536.82 877.5 1521.14 904.49C1509.98 923.77 1383.58 886.861 1369.86 889.301C1363.31 890.471 1308.19 865.041 1300.74 858.841C1284.74 845.501 1195.15 801.841 1189.11 802.171C1189 802.171 1188.26 801.89 1188.11 801.9C1184.44 802.27 1160.26 794.361 1157.84 797.381C1152.57 803.961 1055.84 769.22 1028.84 759.53C1019.56 756.2 961.46 725.821 959.26 717.891C958.51 715.181 938.88 703.001 938.9 699.681C938.98 688.081 855.38 632.051 860.34 617.211C871.34 584.431 669.88 445.521 634.25 424.601C619.86 416.151 546.55 383.091 542.02 386.301C536.29 390.361 474.66 372.591 477.02 384.921C479.28 396.481 424.21 380.191 419.71 383.921C417.38 385.811 387.53 373.231 381.95 370.921C359.64 361.631 240.64 286.531 239.23 269.561C238.05 255.301 154.74 202.731 141.76 197.081C125.93 190.201 7.11986 159.791 6.85986 159.931L7.46986 158.101Z" fill="#2746CF"/>
</g>
<g opacity="0.24">
<path opacity="0.24" d="M9.12994 151.49C9.45994 151.31 130.83 176.21 150.82 184.9C167.3 192.07 246.82 246.2 248.3 264.16C250.05 285.25 361.63 361.291 389.24 372.791C396.05 375.621 424.35 387.16 427.1 384.92C432.52 380.5 482.85 392.19 480.1 377.92C477.1 362.36 535.1 375.39 542.5 370.14C548.33 366.01 621.19 398.31 639.35 408.97C684.22 435.32 870.88 578.19 857.11 619.34C850.91 637.86 927.89 694.76 927.79 709.18C927.79 712.9 944.5 724.08 945.26 727.18C947.78 737.46 1004.96 768.29 1016.76 772.53C1050.18 784.53 1142.14 814.35 1148.63 806.25C1151.72 802.401 1175.77 809.25 1180.56 808.76C1180.71 808.76 1181.5 809.04 1181.64 809.03C1189.42 808.54 1277.04 851.561 1297.46 868.541C1306.65 876.181 1359.8 900.54 1367.86 899.07C1384.78 896.07 1506.31 924.97 1520.21 900.97C1539.84 867.08 1737.97 912.36 1776.36 920.82C1796.03 925.16 1867.18 974.82 1865.36 992.22C1862.84 1015.8 2002.73 1113.22 2047.78 1131.97L2046.94 1133.79C2001.56 1114.89 1860.07 1016.51 1862.61 992.791C1864.52 974.901 1794.32 926.65 1775.06 922.4C1737.06 914.01 1539.92 869.03 1520.37 902.78C1506.37 926.87 1384.2 897.78 1367.05 900.78C1358.86 902.25 1304.88 877.56 1295.57 869.78C1275.51 853.1 1188.18 810.16 1180.57 810.64C1180.44 810.64 1179.71 810.38 1179.57 810.39C1174.98 810.85 1151.57 804.22 1148.57 807.99C1141.98 816.21 1048.88 786.05 1015.14 773.93C1003.54 769.77 947.14 739.52 944.39 729.6C943.45 726.22 924.86 713.82 924.89 709.67C924.99 695.17 847.75 638.11 853.96 619.56C867.68 578.56 681.96 436.37 637.4 410.22C619.4 399.65 547.57 367.76 541.91 371.77C534.75 376.84 477.51 364.05 480.53 379.46C483.35 393.91 432.18 381.95 426.53 386.55C423.63 388.92 394.34 377.01 387.36 374.1C359.48 362.49 246.99 285.87 245.22 264.65C243.72 246.82 165.02 193.19 148.75 186.1C128.96 177.5 9.01994 153.1 8.68994 153.25L9.12994 151.49Z" fill="#2746CF"/>
</g>
<g opacity="0.29">
<path opacity="0.29" d="M10.78 144.92C11.18 144.71 133.64 163.56 157.62 173.99C177.41 182.59 252.31 237.79 254.1 259.35C256.21 284.66 361.34 362.22 394.47 376.02C402.63 379.42 430.39 390.31 433.69 387.61C440.19 382.31 486.69 389.72 483.33 372.56C479.68 353.89 533.27 361.88 542.15 355.56C549.15 350.56 620.52 381.71 642.31 394.56C696.15 426.18 867.05 572.37 850.52 621.74C843.09 643.96 913.72 701.9 913.6 719.2C913.6 723.66 929.35 735.04 930.26 738.76C933.26 751.1 988.7 781.82 1002.87 786.9C1042.98 801.3 1131.31 826.62 1139.1 816.9C1142.8 812.28 1166.05 817.8 1171.8 817.24C1171.97 817.24 1172.8 817.5 1172.93 817.49C1182.26 816.9 1267.59 859.1 1292.09 879.49C1303.09 888.66 1355.09 912.25 1364.81 910.49C1385.12 906.88 1502.5 928.03 1519.18 899.24C1542.73 858.57 1734.33 890.93 1780.39 901.09C1804 906.29 1870.27 956.78 1868.04 977.68C1865.04 1005.98 1995.33 1105 2049.39 1127.52L2048.56 1129.34C1994.1 1106.66 1862.28 1006.67 1865.33 978.18C1867.63 956.71 1802.21 907.77 1779.1 902.67C1733.45 892.61 1542.85 860.48 1519.4 900.97C1502.65 929.89 1384.6 908.56 1364.03 912.22C1354.2 913.98 1301.36 890.03 1290.19 880.74C1266.12 860.74 1181 818.57 1171.93 819.14C1171.77 819.14 1171.05 818.899 1170.93 818.909C1165.42 819.469 1142.79 814.1 1139.16 818.63C1131.26 828.49 1041.83 802.9 1001.34 788.36C987.41 783.36 932.71 753.24 929.42 741.36C928.3 737.3 910.75 724.69 910.78 719.71C910.9 702.31 840.03 644.219 847.48 621.949C863.94 572.779 693.88 427.27 640.48 395.88C618.9 383.21 548.53 352.47 541.74 357.28C533.15 363.36 480.31 355.56 483.92 374.05C487.31 391.39 440.04 383.76 433.28 389.28C429.8 392.12 401.09 380.89 392.71 377.4C359.25 363.47 253.26 285.32 251.15 259.85C249.37 238.47 175.15 183.77 155.7 175.3C131.97 164.97 10.9 146.55 10.5 146.76L10.78 144.92Z" fill="#2746CF"/>
</g>
<g opacity="0.33">
<path opacity="0.33" d="M12.4401 138.36C12.9001 138.12 136.44 150.911 164.44 163.081C187.52 173.081 257.83 229.391 259.92 254.541C262.37 284.061 361.05 363.15 399.7 379.24C409.23 383.24 436.43 393.46 440.29 390.31C447.87 384.12 490.52 387.31 486.61 367.23C482.35 345.45 531.49 348.4 541.85 341.06C550.02 335.27 619.85 365.201 645.32 380.131C708.13 417.021 863.26 566.521 843.98 624.131C835.31 650.061 899.59 709.031 899.45 729.211C899.45 734.421 914.25 745.99 915.31 750.32C918.84 764.72 972.5 795.32 989.03 801.32C1035.82 818.11 1120.53 838.921 1129.61 827.581C1133.94 822.181 1156.38 826.4 1163.1 825.74C1163.29 825.74 1164.1 825.971 1164.26 825.961C1175.15 825.281 1258.18 866.651 1286.77 890.421C1299.63 901.121 1350.53 923.98 1361.77 921.98C1385.46 917.76 1498.69 931.16 1518.15 897.56C1545.63 850.11 1730.68 869.56 1784.41 881.41C1811.96 887.49 1873.41 938.82 1870.76 963.19C1867.23 996.19 1987.98 1096.86 2051.05 1123.12L2050.22 1124.95C1986.69 1098.49 1864.54 996.89 1868.1 963.65C1870.78 938.65 1810.15 888.97 1783.19 883.02C1729.93 871.28 1545.83 852.021 1518.47 899.251C1498.93 932.981 1385.06 919.451 1361.06 923.721C1349.59 925.771 1297.89 902.561 1284.86 891.721C1256.78 868.361 1173.86 826.98 1163.28 827.65C1163.1 827.65 1162.39 827.42 1162.21 827.44C1155.78 828.09 1133.93 824 1129.7 829.28C1120.48 840.79 1034.7 819.76 987.48 802.81C971.23 796.97 918.23 766.971 914.39 753.091C913.08 748.351 896.58 735.531 896.62 729.721C896.75 709.421 832.25 650.29 840.94 624.32C860.14 566.95 705.77 418.13 643.43 381.52C618.25 366.73 549.35 337.15 541.43 342.77C531.43 349.86 482.96 347.04 487.18 368.61C491.18 388.85 447.76 385.54 439.88 391.98C435.81 395.3 407.67 384.741 397.88 380.671C358.88 364.421 259.37 284.74 256.88 255.03C254.81 230.08 185.16 174.32 162.45 164.44C134.76 152.39 12.5601 139.961 12.1001 140.211L12.4401 138.36Z" fill="#2746CF"/>
</g>
<g opacity="0.38">
<path opacity="0.38" d="M14.0899 131.8C14.6199 131.52 139.26 138.26 171.24 152.17C197.62 163.64 263.32 220.98 265.71 249.73C268.52 283.47 360.71 364.07 404.92 382.47C415.8 387 442.46 396.6 446.87 393.01C455.53 385.94 494.34 384.799 489.87 361.899C485 337.009 529.69 334.899 541.53 326.529C550.86 319.929 619.24 348.67 648.3 365.73C720.09 407.89 859.46 560.729 837.43 626.529C827.51 656.159 885.43 716.169 885.29 739.239C885.29 745.239 899.13 756.949 900.34 761.899C904.34 778.359 956.28 808.9 975.17 815.64C1028.65 834.84 1109.72 851.13 1120.11 838.17C1125.05 832 1146.7 834.92 1154.37 834.17C1154.59 834.17 1155.37 834.379 1155.58 834.369C1168.02 833.579 1248.76 874.13 1281.43 901.29C1296.13 913.52 1345.9 935.649 1358.8 933.369C1385.88 928.549 1494.96 934.19 1517.2 895.8C1548.61 841.57 1727.11 848.109 1788.52 861.649C1820.01 868.589 1876.52 920.769 1873.52 948.649C1869.52 986.389 1980.67 1088.65 2052.75 1118.65L2051.93 1120.47C1979.32 1090.24 1866.85 987.03 1870.93 949.04C1873.99 920.42 1818.15 870.04 1787.33 863.29C1726.46 849.87 1548.88 843.45 1517.6 897.44C1495.27 936 1385.6 930.26 1358.15 935.14C1345.04 937.48 1294.48 915.01 1279.59 902.63C1247.49 875.94 1166.79 835.33 1154.7 836.09C1154.49 836.09 1153.79 835.889 1153.59 835.909C1146.24 836.659 1125.17 833.829 1120.33 839.909C1109.79 853.059 1027.69 836.61 973.71 817.23C955.14 810.56 903.84 780.679 899.45 764.819C897.95 759.399 882.45 746.37 882.54 739.72C882.7 716.53 824.54 656.37 834.54 626.72C856.54 561.16 717.8 409.039 646.54 367.199C617.77 350.299 550.34 321.87 541.29 328.29C529.84 336.4 485.78 338.56 490.61 363.22C495.13 386.34 455.66 387.37 446.61 394.73C441.97 398.52 414.39 388.63 403.22 383.98C358.62 365.41 265.64 284.21 262.82 250.25C260.45 221.74 195.36 164.899 169.4 153.609C137.75 139.849 14.3999 133.42 13.8999 133.69L14.0899 131.8Z" fill="#2746CF"/>
</g>
<g opacity="0.43">
<path opacity="0.43" d="M15.7399 125.24C16.3399 124.92 142.07 125.61 178.05 141.24C207.72 154.15 268.83 212.56 271.52 244.9C274.67 282.9 360.44 364.98 410.14 385.68C422.39 390.78 448.5 399.68 453.45 395.68C463.2 387.68 498.17 382.3 493.14 356.55C487.66 328.55 527.89 321.43 541.22 311.98C551.72 304.55 618.61 332.1 651.3 351.3C732.06 398.73 855.67 554.85 830.88 628.91C819.72 662.25 871.31 723.29 871.13 749.24C871.13 755.93 884.02 767.891 885.38 773.461C889.92 791.971 940.07 822.37 961.32 829.99C1021.48 851.59 1098.93 863.371 1110.62 848.791C1116.18 841.851 1137.02 843.46 1145.62 842.61C1145.87 842.61 1146.62 842.8 1146.87 842.78C1160.87 841.9 1239.31 881.62 1276.07 912.18C1292.61 925.94 1341.26 947.34 1355.77 944.77C1386.23 939.35 1491.16 937.231 1516.18 894.041C1551.51 833.041 1723.47 826.66 1792.56 841.89C1827.98 849.7 1879.65 902.73 1876.3 934.06C1871.76 976.52 1973.37 1080.4 2054.46 1114.17L2053.64 1115.99C1971.96 1081.99 1869.16 977.161 1873.73 934.421C1877.18 902.221 1826.12 851.201 1791.45 843.55C1722.97 828.451 1551.89 834.881 1516.7 895.631C1491.58 939.001 1386.07 941.06 1355.21 946.55C1340.46 949.18 1291.04 927.451 1274.29 913.55C1238.18 883.55 1159.69 843.69 1146.08 844.55C1145.85 844.55 1145.16 844.37 1144.93 844.4C1136.66 845.23 1116.37 843.68 1110.93 850.47C1099.07 865.26 1020.64 853.381 959.93 831.581C939.05 824.081 889.44 794.32 884.5 776.48C882.82 770.38 868.41 757.14 868.5 749.66C868.68 723.57 816.91 662.38 828.08 628.98C852.77 555.22 729.78 399.8 649.62 352.72C617.25 333.72 551.29 306.451 541.11 313.671C528.23 322.791 488.57 329.931 493.99 357.671C499.08 383.671 463.51 389.04 453.36 397.32C448.14 401.58 421.13 392.38 408.56 387.14C358.39 366.25 271.91 283.52 268.74 245.32C266.07 213.25 205.54 155.32 176.33 142.64C140.73 127.15 16.3299 126.72 15.6899 127.03L15.7399 125.24Z" fill="#2746CF"/>
</g>
<g opacity="0.48">
<path opacity="0.48" d="M17.4001 118.671C18.0601 118.321 144.88 112.96 184.85 130.35C217.85 144.69 274.34 204.17 277.32 240.11C280.83 282.28 360.15 365.931 415.37 388.921C428.98 394.591 454.53 402.92 460.04 398.4C470.87 389.57 502.04 379.871 496.41 351.251C490.33 320.141 526.1 307.98 540.91 297.49C552.57 289.23 617.97 315.6 654.3 336.93C744.03 389.63 851.87 549.06 824.3 631.36C811.91 668.36 857.15 730.471 856.95 759.301C856.9 766.741 868.87 778.891 870.39 785.081C875.39 805.651 923.83 835.93 947.44 844.4C1014.29 868.4 1088.11 875.671 1101.09 859.471C1107.27 851.76 1127.31 852.07 1136.9 851.12C1137.18 851.12 1137.9 851.29 1138.2 851.27C1153.75 850.27 1229.9 889.18 1270.73 923.14C1289.11 938.42 1336.64 959.14 1352.73 956.24C1386.58 950.24 1487.36 940.35 1515.16 892.35C1554.42 824.57 1719.84 805.281 1796.6 822.211C1835.95 830.891 1882.76 884.75 1879.03 919.57C1874.03 966.75 1966.03 1072.24 2056.13 1109.76L2055.32 1111.59C1964.56 1073.8 1871.43 967.371 1876.51 919.881C1880.34 884.101 1834.06 832.391 1795.51 823.881C1719.43 807.111 1554.85 826.391 1515.75 893.881C1487.84 942.071 1386.51 951.88 1352.22 958.02C1335.83 960.95 1287.55 939.97 1268.94 924.49C1228.82 891.13 1152.54 852.07 1137.42 853.02C1137.15 853.02 1136.48 852.86 1136.22 852.89C1127.04 853.82 1107.52 853.531 1101.48 861.081C1088.3 877.521 1013.54 870.2 946.05 845.98C922.84 837.64 874.94 807.98 869.45 788.19C867.58 781.42 854.21 767.96 854.27 759.65C854.47 730.65 809.06 668.43 821.48 631.32C848.91 549.37 741.61 390.65 652.54 338.32C616.54 317.2 552.1 291.09 540.77 299.11C526.47 309.25 491.2 321.37 497.23 352.19C502.88 381.09 471.23 390.78 459.94 399.98C454.13 404.72 427.7 396.19 413.73 390.37C357.98 367.15 278.01 282.901 274.48 240.461C271.48 204.821 215.54 145.85 183.09 131.74C143.62 114.56 18.0201 120.101 17.3901 120.461L17.4001 118.671Z" fill="#2746CF"/>
</g>
<g opacity="0.52">
<path opacity="0.52" d="M19.0199 112.1C19.7499 111.72 147.66 100.31 191.63 119.43C227.9 135.2 279.81 195.76 283.1 235.29C286.95 281.68 359.82 366.85 420.56 392.14C435.56 398.37 460.56 406.04 466.56 401.14C478.47 391.42 505.76 377.44 499.61 345.96C492.92 311.74 524.24 294.55 540.53 282.96C553.36 273.88 617.27 299.059 657.22 322.529C755.93 380.529 848.01 543.24 817.71 633.77C804.08 674.51 842.97 737.62 842.71 769.33C842.71 777.52 853.71 789.86 855.35 796.67C860.9 819.29 907.54 849.47 933.5 858.79C1007.04 885.18 1077.24 887.949 1091.5 870.119C1098.3 861.639 1117.5 860.65 1128.08 859.61C1128.39 859.61 1129.08 859.74 1129.42 859.72C1146.53 858.65 1220.42 896.72 1265.3 934.07C1285.52 950.88 1331.92 970.83 1349.65 967.69C1386.89 961.06 1483.52 943.43 1514.1 890.69C1557.28 816.13 1716.16 783.92 1800.6 802.55C1843.89 812.09 1885.82 866.8 1881.72 905.1C1876.17 956.99 1958.65 1064.1 2057.72 1105.38L2056.91 1107.21C1957.08 1065.63 1873.63 957.6 1879.22 905.36C1883.43 866.01 1841.93 813.6 1799.56 804.26C1715.87 785.8 1557.79 817.94 1514.78 892.18C1484.08 945.18 1386.92 962.83 1349.21 969.54C1331.21 972.76 1284.04 952.54 1263.57 935.54C1219.44 898.84 1145.36 860.54 1128.74 861.61C1128.44 861.61 1127.74 861.47 1127.5 861.5C1117.39 862.5 1098.65 863.5 1092.01 871.8C1077.51 889.89 1006.42 887.14 932.18 860.5C906.65 851.33 860.45 821.83 854.41 800.02C852.35 792.57 840.03 778.9 840.09 769.76C840.31 737.87 801.27 674.61 814.93 633.76C845.1 543.61 753.49 381.58 655.52 324.05C615.95 300.81 552.95 275.86 540.52 284.68C524.78 295.84 493.92 312.94 500.52 346.84C506.73 378.63 478.96 392.65 466.52 402.77C460.14 407.98 434.27 400.13 418.91 393.77C357.58 368.23 284.12 282.46 280.24 235.77C276.98 196.57 225.55 136.53 189.86 121.01C146.34 102.08 19.6399 113.63 18.9199 114.01L19.0199 112.1Z" fill="#2746CF"/>
</g>
<g opacity="0.57">
<path opacity="0.57" d="M20.71 105.55C21.5 105.13 150.5 87.67 198.47 108.55C238.04 125.76 285.35 187.39 288.93 230.55C293.14 281.15 359.55 367.84 425.82 395.44C442.15 402.24 466.61 409.25 473.21 403.86C486.21 393.25 509.67 374.999 502.95 340.659C495.65 303.319 522.52 281.09 540.29 268.5C554.29 258.59 616.7 282.59 660.29 308.19C767.97 371.42 844.29 537.48 811.23 636.19C796.36 680.63 828.91 744.78 828.67 779.38C828.61 788.3 838.67 800.84 840.5 808.26C846.5 832.95 891.44 863.01 919.76 873.18C999.99 901.98 1066.56 900.23 1082.14 880.78C1089.55 871.53 1107.98 869.23 1119.49 868.1C1119.82 868.1 1120.49 868.21 1120.88 868.19C1139.54 867.01 1211.09 904.26 1260.1 945.01C1282.16 963.35 1327.43 982.57 1346.78 979.14C1387.4 971.91 1479.88 946.52 1513.24 888.93C1560.35 807.59 1712.68 762.48 1804.8 782.79C1852.02 793.2 1889.09 848.79 1884.62 890.54C1878.56 947.15 1951.48 1055.88 2059.62 1100.91L2058.81 1102.74C1949.9 1057.38 1876.12 947.74 1882.22 890.74C1886.81 847.799 1850.1 794.74 1803.88 784.51C1712.57 764.37 1561 809.36 1514.08 890.35C1480.59 948.18 1387.61 973.62 1346.47 980.94C1326.8 984.45 1280.8 964.94 1258.47 946.38C1210.33 906.38 1138.47 868.83 1120.32 869.97C1120 869.97 1119.32 869.86 1119.04 869.89C1108.04 871.01 1090.04 873.26 1082.8 882.31C1066.99 902.04 999.56 903.87 918.58 874.8C890.73 864.8 846.22 835.42 839.64 811.63C837.39 803.5 826.11 789.63 826.18 779.63C826.42 744.84 793.75 680.54 808.65 636.01C841.57 537.67 765.65 372.34 658.77 309.57C615.6 284.23 554.07 260.43 540.48 270.06C523.31 282.23 496.84 304.31 504.07 341.29C510.85 375.97 486.98 394.289 473.45 405.369C466.45 411.049 441.19 403.87 424.45 396.89C357.55 369.03 290.59 281.73 286.36 230.8C282.76 188.1 235.89 126.96 196.96 110.02C149.48 89.3698 21.66 106.92 20.87 107.33L20.71 105.55Z" fill="#2746CF"/>
</g>
<g opacity="0.62">
<path opacity="0.62" d="M22.3599 98.9798C23.2199 98.5298 153.36 74.9794 205.28 97.6194C248.14 116.259 290.85 178.96 294.74 225.68C299.3 280.5 359.26 368.68 431.04 398.6C448.73 405.97 472.64 412.34 479.8 406.5C493.88 395.01 513.5 372.5 506.22 335.27C498.31 294.83 520.73 267.56 539.98 253.92C555.14 243.18 616.06 266 663.29 293.73C779.94 362.23 840.49 531.61 804.69 638.59C788.57 686.73 814.77 751.91 814.51 789.4C814.45 799.07 823.57 811.8 825.51 819.84C832.07 846.58 875.2 876.54 905.88 887.55C992.79 918.75 1055.74 912.49 1072.61 891.43C1080.61 881.43 1098.27 877.8 1110.74 876.57C1111.1 876.57 1111.8 876.66 1112.17 876.64C1132.39 875.36 1201.65 911.78 1254.74 955.92C1278.63 975.79 1322.74 994.28 1343.74 990.57C1387.74 982.74 1476.08 949.57 1512.22 887.21C1563.22 799.09 1709.04 741.06 1808.84 763.07C1860 774.35 1892.19 830.74 1887.35 876.01C1880.79 937.34 1944.14 1047.69 2061.27 1096.46L2060.47 1098.3C1942.47 1049.16 1878.37 937.91 1884.98 876.18C1889.98 829.66 1857.98 775.87 1807.98 764.83C1709.07 743.01 1563.98 800.83 1513.17 888.6C1476.89 951.25 1388.09 984.479 1343.52 992.409C1322.21 996.209 1277.36 977.41 1253.16 957.33C1201 913.96 1131.35 877.22 1111.7 878.46C1111.35 878.46 1110.7 878.37 1110.38 878.4C1098.38 879.61 1081.25 883.13 1073.38 892.94C1056.26 914.32 992.49 920.71 904.76 889.22C874.59 878.39 831.76 849.13 824.65 823.36C822.21 814.55 811.98 800.459 812.05 789.659C812.31 751.969 786.05 686.66 802.15 638.4C837.81 531.86 777.57 363.23 661.79 295.23C615.02 267.77 555.02 245.1 540.26 255.56C521.66 268.74 499.58 295.809 507.42 335.869C514.76 373.449 494.79 396.13 480.14 408.09C472.59 414.25 447.86 407.74 429.71 400.18C357.23 370 296.78 281.18 292.19 226C288.34 179.67 246.02 117.5 203.84 99.1497C152.41 76.7797 23.4599 100.32 22.6099 100.77L22.3599 98.9798Z" fill="#2746CF"/>
</g>
<g opacity="0.67">
<path opacity="0.67" d="M24.02 92.4208C24.95 91.9308 156.13 62.4209 212.09 86.7109C258.26 106.781 296.37 170.56 300.55 220.87C305.46 279.87 358.97 369.64 436.28 401.87C455.33 409.81 478.69 415.53 486.4 409.23C501.56 396.86 517.34 370.05 509.5 329.99C500.98 286.43 518.95 254.131 539.68 239.431C556.01 227.871 615.44 249.5 666.29 279.37C791.92 353.14 836.71 525.831 798.15 641.041C780.8 692.891 800.65 759.101 800.37 799.471C800.3 809.891 808.47 822.811 810.59 831.471C817.65 860.261 859.03 890.11 892.07 901.98C985.67 935.57 1044.98 924.8 1063.16 902.12C1071.81 891.32 1088.64 886.42 1102.06 885.12C1102.45 885.12 1103.14 885.19 1103.54 885.12C1125.32 883.75 1192.27 919.341 1249.45 966.881C1275.18 988.281 1318.21 1006.04 1340.78 1002.04C1388.17 993.611 1472.35 952.71 1511.27 885.52C1566.27 790.63 1705.48 719.681 1812.95 743.381C1868.04 755.531 1895.37 812.77 1890.15 861.52C1883.09 927.52 1936.87 1039.52 2063.01 1092.06L2062.21 1093.9C1935.15 1040.98 1880.71 928.121 1887.83 861.641C1893.19 811.551 1866.05 757.061 1812.12 745.171C1705.6 721.671 1567.03 792.37 1512.29 886.86C1473.22 954.33 1388.6 995.36 1340.6 1003.86C1317.6 1007.95 1273.94 989.931 1247.88 968.261C1191.71 921.561 1124.26 885.601 1103.1 886.931C1102.73 886.931 1102.1 886.861 1101.74 886.931C1088.88 888.231 1072.47 893.031 1064.01 903.591C1045.57 926.591 985.47 937.59 891.01 903.66C858.51 891.99 817.41 862.86 809.73 835.11C807.1 825.63 797.91 811.32 797.99 799.69C798.27 759.1 778.34 692.74 795.72 640.78C834.12 526.05 789.58 354.111 664.89 280.891C614.53 251.311 555.94 229.84 540.09 241.07C520.09 255.26 502.38 287.31 510.81 330.45C518.73 370.92 502.65 397.93 486.87 410.81C478.74 417.44 454.59 411.621 435.03 403.471C357.03 370.971 303.03 280.62 298.1 221.2C293.95 171.3 256.19 108.07 210.76 88.3105C155.37 64.2205 25.3 93.7504 24.38 94.2304L24.02 92.4208Z" fill="#2746CF"/>
</g>
<g opacity="0.71">
<path opacity="0.71" d="M25.6699 85.8598C26.6699 85.3398 158.93 49.7203 218.89 75.8003C268.35 97.3103 301.89 162.15 306.35 216.05C311.61 279.31 358.66 370.56 441.49 405.05C461.91 413.55 484.72 418.62 492.98 411.88C509.22 398.62 521.16 367.53 512.76 324.61C503.64 277.94 517.15 240.61 539.36 224.86C556.85 212.47 614.79 232.92 669.28 264.92C803.88 343.92 832.9 519.92 791.59 643.4C773 698.95 786.5 766.2 786.2 809.46C786.13 820.61 793.35 833.73 795.62 843.01C803.19 873.86 842.8 903.6 878.21 916.31C978.49 952.31 1034.21 937.02 1053.66 912.72C1062.92 901.15 1078.95 894.94 1093.33 893.52C1093.75 893.52 1094.42 893.52 1094.85 893.52C1118.19 892.05 1182.85 926.81 1244.11 977.75C1271.68 1000.67 1313.58 1017.75 1337.76 1013.42C1388.54 1004.42 1468.57 955.73 1510.27 883.74C1569.16 782.07 1701.86 698.22 1817.01 723.61C1876.01 736.61 1898.49 794.71 1892.91 846.94C1885.34 917.7 1929.55 1031.29 2064.7 1087.57L2063.91 1089.41C1927.77 1032.71 1883.01 918.24 1890.63 847.01C1896.37 793.34 1874.01 738.15 1816.23 725.42C1702.11 700.25 1570.04 783.801 1511.4 885.041C1469.53 957.321 1389.09 1006.15 1337.66 1015.29C1313.07 1019.68 1270.5 1002.4 1242.58 979.19C1182.4 929.14 1117.16 893.96 1094.49 895.39C1094.09 895.39 1093.49 895.39 1093.08 895.39C1079.31 896.78 1063.67 902.84 1054.61 914.16C1034.85 938.82 978.41 954.35 877.18 918.02C842.37 905.52 802.96 876.51 794.73 846.78C791.92 836.62 783.73 822.1 783.87 809.64C784.16 766.15 770.6 698.75 789.22 643.09C830.36 520.16 801.51 344.92 667.91 266.47C613.96 234.78 556.84 214.47 539.91 226.47C518.45 241.68 505.16 278.71 514.2 324.93C522.68 368.29 510.5 399.63 493.59 413.43C484.89 420.54 461.3 415.43 440.35 406.66C356.72 371.84 309.28 279.96 303.99 216.3C299.55 162.84 266.34 98.5396 217.67 77.3696C158.32 51.5496 27.1199 87.0801 26.1299 87.6001L25.6699 85.8598Z" fill="#2746CF"/>
</g>
<g opacity="0.76">
<path opacity="0.76" d="M27.3198 79.3005C28.3798 78.7405 161.74 37.0704 225.7 64.8904C278.45 87.8304 307.37 153.75 312.15 211.24C317.76 278.72 358.37 371.49 446.72 408.24C468.49 417.31 490.72 421.741 499.56 414.551C516.89 400.411 524.99 365.041 516.03 319.251C506.3 269.471 515.36 227.1 539.03 210.31C557.69 197.09 614.13 216.31 672.26 250.49C815.83 334.8 829.09 514.11 785.02 645.78C765.19 705.04 772.34 773.321 772.02 819.461C771.94 831.361 778.21 844.67 780.63 854.57C788.7 887.47 826.56 917.1 864.33 930.66C971.33 969.06 1023.33 949.271 1044.13 923.341C1054.02 911.001 1069.24 903.49 1084.58 901.98C1085.03 901.98 1085.69 901.98 1086.15 901.98C1111.04 900.41 1173.4 934.36 1238.75 988.69C1268.15 1013.14 1308.94 1029.45 1334.75 1024.88C1388.9 1015.24 1464.75 958.881 1509.27 882.041C1572.09 773.591 1698.27 676.82 1821.07 703.91C1884.07 717.79 1901.62 776.71 1895.66 832.43C1887.59 907.91 1922.23 1023.11 2066.39 1083.14L2065.6 1084.98C1920.39 1024.51 1885.3 908.44 1893.43 832.45C1899.56 775.2 1881.98 719.32 1820.35 705.74C1698.61 678.89 1573.05 775.29 1510.5 883.28C1465.84 960.39 1389.58 1017 1334.72 1026.76C1308.5 1031.44 1267.06 1014.91 1237.28 990.14C1173.09 936.76 1110.06 902.35 1085.87 903.87C1085.45 903.87 1084.87 903.87 1084.43 903.87C1069.73 905.35 1054.88 912.69 1045.21 924.76C1024.13 951.06 971.36 971.17 863.38 932.41C826.25 919.08 788.54 890.2 779.76 858.48C776.76 847.64 769.67 832.91 769.76 819.61C770.08 773.23 762.87 704.801 782.76 645.421C826.65 514.301 813.48 335.76 670.98 252.07C613.43 218.27 557.79 199.07 539.67 211.95C516.78 228.17 507.89 270.18 517.53 319.49C526.53 365.73 518.29 401.401 500.26 416.131C490.97 423.711 467.95 419.231 445.6 409.921C356.4 372.771 315.47 279.38 309.83 211.47C305.08 154.47 276.43 89.0705 224.51 66.4705C161.22 38.9405 28.8898 80.4705 27.8298 81.0105L27.3198 79.3005Z" fill="#2746CF"/>
</g>
<g opacity="0.81">
<path opacity="0.81" d="M29.02 72.7298C30.15 72.1398 164.6 24.4198 232.56 53.9798C288.61 78.3598 312.93 145.34 318.01 206.43C324.01 278.13 358.12 372.43 452.01 411.51C475.15 421.15 496.86 424.93 506.22 417.29C524.63 402.29 528.89 362.62 519.37 313.97C509.03 261.08 513.64 213.66 538.81 195.82C558.63 181.82 613.59 199.82 675.34 236.13C827.89 325.71 825.34 508.33 778.56 648.23C757.49 711.23 758.3 780.51 757.96 829.53C757.88 842.18 763.19 855.68 765.77 866.19C774.35 901.19 810.45 930.68 850.58 945.09C964.23 985.88 1012.67 961.58 1034.74 934.03C1045.24 920.92 1059.66 912.1 1075.96 910.5C1076.44 910.5 1077.08 910.5 1077.57 910.5C1104.02 908.83 1164.09 941.95 1233.51 999.67C1264.76 1025.67 1304.42 1041.23 1331.82 1036.38C1389.36 1026.14 1461.1 961.97 1508.36 880.38C1575.1 765.15 1694.71 655.47 1825.22 684.25C1892.12 699 1904.84 758.77 1898.5 817.96C1889.92 898.16 1915 1014.96 2068.17 1078.77L2067.39 1080.61C1913.1 1016.36 1887.68 898.68 1896.32 817.94C1902.83 757.12 1890.04 700.54 1824.56 686.11C1695.21 657.58 1576.15 766.84 1509.69 881.58C1462.23 963.5 1390.15 1027.91 1331.87 1038.28C1304.01 1043.28 1263.71 1027.46 1232.07 1001.15C1163.86 944.43 1103.07 910.789 1077.35 912.409C1076.9 912.409 1076.35 912.409 1075.86 912.409C1060.25 913.99 1046.17 922.589 1035.86 935.409C1013.47 963.409 964.37 988.03 849.64 946.85C810.19 932.68 774.18 903.93 764.85 870.23C761.66 858.71 755.61 843.77 755.71 829.64C756.05 780.36 755.21 710.9 776.32 647.81C822.95 508.5 825.47 326.65 674.06 237.73C612.92 201.82 558.75 183.82 539.5 197.45C515.18 214.69 510.68 261.68 520.92 314.07C530.53 363.2 526.15 403.21 506.99 418.85C497.12 426.85 474.67 423.1 450.93 413.21C356.15 373.74 321.73 278.82 315.73 206.67C310.73 146.08 286.59 79.6702 231.43 55.6702C164.18 26.4202 30.72 73.9299 29.6 74.5199L29.02 72.7298Z" fill="#2746CF"/>
</g>
<g opacity="0.86">
<path opacity="0.86" d="M30.6299 66.1709C31.8199 65.5409 167.37 11.7703 239.31 43.0703C298.66 68.8803 318.38 136.94 323.76 201.62C330.07 277.53 357.76 373.35 457.17 414.74C481.66 424.94 502.83 428.08 512.74 419.98C532.23 404.07 532.65 360.151 522.58 308.641C511.58 252.641 511.77 200.191 538.43 181.301C559.43 166.431 612.88 183.3 678.27 221.73C839.78 316.58 821.52 502.511 771.95 650.641C749.63 717.311 744.09 787.641 743.74 839.561C743.65 852.951 748.01 866.65 750.74 877.78C759.82 914.78 794.17 944.211 836.66 959.471C957 1002.66 1001.81 973.85 1025.18 944.69C1036.3 930.8 1049.91 920.69 1067.18 918.98C1067.68 918.98 1068.32 918.98 1068.84 918.91C1096.84 917.15 1154.61 949.441 1228.12 1010.56C1261.21 1038.07 1299.74 1052.92 1328.76 1047.78C1389.68 1036.94 1457.27 965.011 1507.31 878.631C1577.98 756.631 1691.05 634.031 1829.22 664.501C1900.06 680.121 1907.91 740.73 1901.22 803.4C1892.13 888.32 1907.64 1006.76 2069.82 1074.3L2069.04 1076.14C1905.68 1008.14 1889.94 888.821 1899.04 803.331C1905.93 738.931 1897.93 681.661 1828.59 666.381C1691.64 636.171 1579.08 758.281 1508.71 879.771C1458.46 966.521 1390.56 1038.77 1328.85 1049.7C1299.35 1054.96 1260.19 1039.91 1226.69 1012.05C1154.47 952.001 1095.86 919.131 1068.69 920.851C1068.21 920.851 1067.63 920.85 1067.17 920.91C1050.63 922.58 1037.33 932.451 1026.45 946.041C1002.74 975.631 957.3 1004.87 835.83 961.271C794.05 946.271 759.75 917.641 749.83 881.961C746.45 869.761 741.45 854.61 741.55 839.65C741.91 787.47 747.44 716.971 769.8 650.171C819.16 502.671 837.37 317.51 677.06 223.37C612.32 185.37 559.62 168.5 539.24 182.94C513.49 201.19 513.38 253.161 524.24 308.631C534.41 360.631 533.93 404.991 513.65 421.551C503.2 430.081 481.32 426.95 456.18 416.48C355.82 374.69 327.9 278.241 321.55 201.851C316.22 137.691 296.68 70.191 238.27 44.791C167.06 13.791 32.4799 67.3302 31.2699 67.9502L30.6299 66.1709Z" fill="#2746CF"/>
</g>
<g opacity="0.9">
<path opacity="0.9" d="M32.2798 59.6098C33.5398 58.9498 170.18 -0.880409 246.12 32.1596C308.77 59.3996 323.89 128.54 329.57 196.81C336.23 276.94 357.48 374.27 462.39 417.97C488.25 428.73 508.86 431.22 519.33 422.68C539.9 405.89 536.48 357.68 525.85 303.32C514.29 244.2 509.98 186.72 538.12 166.77C560.28 151.08 612.25 166.77 681.27 207.33C851.75 307.451 817.73 496.7 765.4 653.05C741.85 723.42 729.96 794.81 729.58 849.6C729.49 863.73 732.9 877.6 735.78 889.37C745.36 928.45 777.96 957.75 822.78 973.85C949.78 1019.44 990.99 986.12 1015.65 955.34C1027.39 940.68 1040.2 929.26 1058.42 927.46C1058.95 927.41 1059.58 927.4 1060.12 927.37C1089.68 925.51 1145.12 956.97 1222.75 1021.49C1257.67 1050.49 1295.08 1064.65 1325.75 1059.22C1390.06 1047.78 1453.5 968.1 1506.32 876.91C1580.92 748.13 1687.44 612.62 1833.32 644.78C1908.09 661.27 1911.08 722.73 1904 788.88C1894.41 878.52 1900.35 998.58 2071.54 1069.88L2070.77 1071.72C1898.33 999.91 1892.26 879.01 1901.91 788.72C1909.19 720.72 1905.97 662.78 1832.78 646.65C1688.22 614.77 1582.17 749.73 1507.88 877.97C1454.88 969.53 1391.12 1049.53 1325.98 1061.12C1294.84 1066.67 1256.82 1052.36 1221.46 1022.95C1145.23 959.56 1088.83 927.48 1060.11 929.29C1059.6 929.29 1059.03 929.29 1058.54 929.37C1041.09 931.14 1028.54 942.28 1017.08 956.61C992.08 987.85 950.28 1021.67 822.08 975.61C777.98 959.78 745.37 931.27 734.95 893.61C731.38 880.74 727.42 865.37 727.53 849.61C727.91 794.53 739.81 723 763.41 652.49C815.52 496.79 849.41 308.33 680.2 208.95C611.85 168.82 560.63 153.13 539.12 168.37C511.93 187.63 516.23 244.59 527.68 303.14C538.41 358.06 541.83 406.72 520.42 424.2C509.42 433.2 488.08 430.75 461.54 419.7C355.61 375.59 334.2 277.62 327.54 196.98C321.91 129.26 306.92 60.6903 245.27 33.8803C170.1 1.18029 34.3898 60.6903 33.1398 61.3403L32.2798 59.6098Z" fill="#2746CF"/>
</g>
<g opacity="0.95">
<path opacity="0.95" d="M33.9399 53.1005C35.2599 52.4005 172.99 -13.4693 252.94 21.3007C318.88 49.9807 329.41 120.181 335.38 192.051C342.38 276.391 357.19 375.25 467.63 421.24C494.85 432.58 514.91 434.421 525.92 425.431C547.58 407.751 540.32 355.271 529.13 298.041C516.96 235.821 508.2 173.291 537.82 152.301C561.14 135.781 611.62 150.301 684.27 192.971C863.73 298.361 813.94 490.971 758.86 655.511C734.07 729.591 715.86 802.011 715.44 859.681C715.34 874.561 717.8 888.681 720.83 901.011C730.92 942.141 761.76 971.34 808.97 988.28C942.67 1036.28 980.23 998.451 1006.2 966.041C1018.56 950.611 1030.56 937.881 1049.74 936.041C1050.3 936.041 1050.91 935.961 1051.49 935.921C1082.6 933.921 1135.78 964.6 1217.49 1032.52C1254.25 1063.08 1290.54 1076.52 1322.78 1070.76C1390.47 1058.76 1449.78 971.281 1505.36 875.291C1583.88 739.731 1683.86 591.291 1837.36 625.171C1916.07 642.521 1914.18 704.821 1906.73 774.461C1896.64 868.811 1893.02 990.46 2073.22 1065.53L2072.44 1067.38C1890.93 991.791 1894.53 869.281 1904.69 774.291C1912.35 702.741 1913.92 644.081 1836.87 627.101C1684.71 593.541 1585.16 741.361 1506.96 876.341C1451.13 972.721 1391.59 1060.52 1323.02 1072.71C1290.24 1078.56 1253.36 1064.99 1216.14 1034.04C1135.9 967.311 1081.7 936.04 1051.47 937.9C1050.94 937.9 1050.38 937.961 1049.86 938.011C1031.49 939.871 1019.75 952.28 1007.66 967.37C981.31 1000.26 943.21 1038.64 808.23 990.19C761.82 973.53 730.91 945.191 719.93 905.501C715.647 890.626 713.443 875.23 713.38 859.751C713.78 801.751 732.05 729.2 756.89 654.98C811.74 491.09 861.33 299.331 683.2 194.721C611.26 152.471 561.51 137.94 538.87 153.98C510.25 174.26 518.94 236.201 530.99 297.831C542.3 355.641 549.61 408.631 527.07 427.041C515.46 436.511 494.72 434.741 466.79 423.101C355.27 376.571 340.37 277.101 333.31 192.181C327.38 120.901 316.95 51.271 252.02 23.041C172.9 -11.369 36.0699 54.1303 34.7499 54.8203L33.9399 53.1005Z" fill="#2746CF"/>
</g>
<path opacity="0.3" d="M2074.14 1062.85C1883.55 983.481 1896.83 859.361 1907.5 759.631C1915.5 684.491 1921.88 625.141 1840.99 607.31C1681.21 572.07 1588.17 732.74 1506.06 874.48C1447.44 975.68 1392.06 1071.26 1320.06 1084.07C1285.64 1090.21 1249.9 1077.38 1210.82 1044.88C1126.56 974.821 1074.58 944.28 1042.82 946.28C1042.26 946.28 1041.71 946.361 1041.17 946.421C1021.88 948.421 1010.91 962.051 998.17 977.891C970.5 1012.42 936.06 1055.37 794.34 1004.5C728.95 981.021 698.71 938.18 699.18 869.65C699.6 808.77 724.23 735.17 750.32 657.24C807.91 485.15 873.19 290.09 686.16 180.24C610.62 135.88 562.34 122.511 538.57 139.351C508.52 160.641 521.57 227.56 534.26 292.27C546.13 352.97 557.34 410.27 533.68 429.62C521.49 439.57 501.31 438.471 471.98 426.251C354.9 377.501 346.5 276.471 339.09 187.341C332.87 112.501 326.99 41.8001 258.85 12.1601C175.77 -23.9799 37.85 47.5202 36.43 48.2402L35.5 46.4707C36.89 45.7407 175.71 -26.179 259.65 10.331C328.89 40.441 334.81 111.721 341.09 187.181C348.45 275.741 356.79 376.12 472.75 424.41C501.33 436.31 520.85 437.51 532.41 428.07C555.15 409.51 544.05 352.75 532.3 292.65C519.52 227.32 506.3 159.761 537.41 137.721C561.9 120.371 610.88 133.721 687.17 178.511C875.6 289.171 810.05 485.05 752.17 657.87C726.17 735.64 701.56 809.1 701.17 869.65C700.71 937.21 730.53 979.46 795.01 1002.65C935.4 1053.04 969.33 1010.65 996.6 976.65C1009.6 960.45 1020.78 946.471 1040.91 944.431L1042.7 944.291C1075.37 942.231 1126.26 972.051 1212.02 1043.35C1250.62 1075.45 1285.78 1088.12 1319.63 1082.12C1390.71 1069.47 1445.85 974.27 1504.23 873.49C1586.68 731.15 1680.11 569.82 1841.32 605.37C1923.96 623.59 1917.21 686.731 1909.39 759.851C1898.79 858.921 1885.6 982.211 2074.81 1061.01L2074.14 1062.85Z" fill="#2746CF"/>
</g>
</g>
<defs>
<clipPath id="clip0">
<rect width="2074.91" height="1155.9" fill="white"/>
</clipPath>
</defs>
</svg>
