<svg width="2054" height="648" viewBox="0 0 2054 648" fill="none" xmlns="http://www.w3.org/2000/svg">
<g opacity="0.3">
<g opacity="0.05">
<path opacity="0.05" d="M0.62965 141.88C0.62965 141.88 72.6997 163.43 76.5497 164.26C77.5497 164.47 102.27 170.17 102.79 169.85C103.79 169.23 146.02 177.85 146.11 176.24C146.2 174.39 200.11 185.4 201.59 184.48C201.87 184.3 213.44 186.85 213.81 186.76C214.64 186.57 248.93 194.57 250.22 194.83C251.51 195.09 279.42 202.03 279.68 202.65C280.25 203.97 348.8 222.88 346.96 225.3C344.53 228.47 467.18 262.56 468.17 266.15C468.8 268.44 564.28 292.7 568 294.26C570.27 295.26 640.85 311.8 642.88 311.18C647.73 309.7 839.3 348.94 842.78 343.29C844.88 339.87 968.16 365.38 970.57 362.91C971.75 361.69 1020.06 372.09 1021.27 371.51C1022.83 370.75 1076.13 382.9 1077.78 383.16C1084.78 384.25 1258.22 431.93 1257.64 438.23C1257.06 444.53 1441.32 495.34 1448.2 497.51C1450.6 498.27 1515.93 513.51 1517.53 512.93C1520.09 511.93 1610.08 530.63 1611.53 527.93C1612.66 525.81 1689.98 541.87 1691.8 540.23C1693.86 538.37 1786.43 559.11 1789.73 559.23C1793.53 559.4 1878.32 582.41 1878.28 585.48C1878.21 589.61 2042.39 634.13 2051.16 635.9L2050.47 637.41C2041.64 635.63 1875.87 590.69 1875.93 586.54C1875.93 583.38 1792.38 560.82 1788.67 560.65C1781.35 560.31 1614.14 525.25 1611.84 529.57C1610.38 532.32 1519.84 513.57 1517.22 514.51C1515.59 515.13 1449.59 499.7 1447.22 498.94C1440.29 496.75 1255.3 445.73 1255.88 439.42C1256.46 433.11 1084.4 385.83 1077.47 384.75C1075.81 384.49 1022.98 372.43 1021.47 373.19C1020.29 373.77 972.7 363.52 971.47 364.73C969.07 367.2 846.14 341.73 844.04 345.19C840.55 350.85 648.47 311.51 643.58 313C641.53 313.63 570.28 296.89 567.98 295.92C564.24 294.35 468.18 269.92 467.54 267.63C466.54 264.01 343.54 229.81 345.94 226.63C347.76 224.23 280 205.53 279.46 204.24C279.2 203.65 252 196.89 250.83 196.65C248.99 196.28 204.05 185.92 203.16 186.5C201.76 187.39 148.61 176.56 148.51 178.38C148.42 180 105.39 171.23 104.38 171.87C103.83 172.21 78.1696 166.3 77.1496 166.08C73.6196 165.31 1.47965 144.52 1.44965 143.82C1.23339 143.729 1.03925 143.593 0.880478 143.42C0.721705 143.248 0.602041 143.043 0.529652 142.82C0.443846 142.505 0.47954 142.17 0.62965 141.88Z" fill="#2746CF"/>
</g>
<g opacity="0.1">
<path opacity="0.1" d="M1.12999 140.77C1.12999 140.85 69.57 165.77 77.27 167.38C79.27 167.81 103.51 173.16 104.54 172.51C106.54 171.28 146.72 177.87 146.89 174.68C147.09 170.98 198.44 179.43 201.31 177.6C201.89 177.23 213.22 179.52 213.97 179.34C215.62 178.94 249.3 186.58 251.87 187.1C254.26 187.58 281.61 194.64 282.14 195.87C283.26 198.52 346.72 218.67 343.03 223.5C338.18 229.85 451.53 266.39 453.5 273.57C454.76 278.13 547.68 303.15 555.13 306.27C559.68 308.19 628.93 324.12 632.98 322.88C642.68 319.88 828.44 351.06 835.4 339.76C839.61 332.92 959.01 353.44 963.83 348.5C966.2 346.08 1013.34 355.02 1015.75 353.84C1018.88 352.32 1071.19 363.61 1074.5 364.12C1088.5 366.31 1252.68 417.85 1251.5 430.46C1250.32 443.07 1424.77 498.14 1438.5 502.46C1443.3 503.97 1507.4 518.55 1510.61 517.34C1515.74 515.41 1602.67 530.43 1605.61 524.97C1607.88 520.72 1682.55 533.67 1686.19 530.39C1690.31 526.66 1780.99 545.49 1787.6 545.8C1795.18 546.15 1875.7 570.8 1875.6 576.94C1875.47 585.19 2031.36 632.89 2048.9 636.41L2048.21 637.92C2030.55 634.37 1873.15 586.26 1873.28 577.92C1873.38 571.58 1794 547.53 1786.57 547.18C1771.94 546.51 1610.57 517.9 1606 526.54C1603.07 532.04 1515.58 516.91 1510.38 518.87C1507.13 520.1 1442.38 505.37 1437.52 503.87C1423.65 499.5 1248.52 444.17 1249.71 431.55C1250.9 418.93 1087.99 367.83 1074.13 365.67C1070.8 365.15 1018.96 353.94 1015.88 355.46C1013.52 356.62 967.09 347.82 964.72 350.24C959.91 355.17 840.85 334.72 836.64 341.55C829.64 352.88 643.41 321.66 633.64 324.64C629.54 325.89 559.64 309.81 555.04 307.88C547.55 304.73 454.04 279.56 452.79 274.95C450.79 267.72 337.08 231.05 341.95 224.67C345.61 219.88 282.9 199.94 281.8 197.36C281.3 196.17 254.73 189.36 252.39 188.86C248.71 188.12 204.62 178.38 202.83 179.52C200.04 181.31 149.44 173 149.24 176.66C149.07 179.9 108.1 173.17 106.07 174.44C104.99 175.13 79.82 169.57 77.78 169.13C70.7 167.61 1.84999 144.13 1.77999 142.69C1.38101 142.467 1.07044 142.114 0.899993 141.69C0.799993 141.39 0.969993 141.05 1.12999 140.77Z" fill="#2746CF"/>
</g>
<g opacity="0.14">
<path opacity="0.14" d="M1.62977 139.62C1.62977 139.75 66.4398 167.97 77.9898 170.46C80.9898 171.1 104.75 176.11 106.3 175.14C109.22 173.3 147.42 177.87 147.68 173.07C147.97 167.53 196.74 173.43 201.04 170.68C201.9 170.13 213.04 172.14 214.12 171.87C216.6 171.28 249.66 178.55 253.52 179.33C257.11 180.05 283.8 187.2 284.59 189.05C286.28 193.05 344.64 214.41 339.11 221.66C331.83 231.19 435.88 270.18 438.84 280.94C440.72 287.79 531.09 313.56 542.26 318.25C549.08 321.12 617 336.39 623.08 334.53C637.63 330.09 817.59 353.14 828.02 336.19C834.34 325.94 949.86 341.47 957.1 334.06C960.64 330.42 1006.62 337.9 1010.24 336.13C1014.93 333.85 1066.24 344.28 1071.24 345.05C1092.24 348.33 1247.18 403.74 1245.43 422.66C1243.68 441.58 1408.28 500.9 1428.92 507.4C1436.11 509.67 1498.99 523.57 1503.8 521.75C1511.49 518.85 1595.36 530.23 1599.72 522.03C1603.12 515.66 1675.16 525.5 1680.61 520.58C1686.8 514.99 1775.61 531.91 1785.49 532.37C1796.87 532.89 1873.1 559.17 1872.96 568.37C1872.76 580.75 2020.36 631.61 2046.66 636.9L2045.98 638.41C2019.49 633.08 1870.47 581.79 1870.66 569.34C1870.81 559.84 1795.66 534.28 1784.5 533.77C1762.56 532.77 1607.08 510.59 1600.18 523.56C1595.79 531.8 1511.38 520.34 1503.58 523.28C1498.7 525.13 1435.17 511.09 1427.9 508.8C1407.1 502.25 1241.9 442.62 1243.62 423.7C1245.34 404.78 1091.62 349.85 1070.87 346.6C1065.87 345.82 1015.03 335.46 1010.41 337.74C1006.87 339.49 961.59 332.13 958.05 335.74C950.83 343.13 835.63 327.66 829.32 337.91C818.86 354.91 638.42 331.79 623.76 336.27C617.59 338.15 549.03 322.73 542.14 319.83C530.91 315.11 439.98 289.18 438.08 282.27C435.08 271.41 330.72 232.27 338.02 222.72C343.51 215.53 285.85 194.35 284.2 190.49C283.44 188.7 257.51 181.77 254 181.06C248.48 179.95 205.24 170.83 202.55 172.55C198.36 175.23 150.31 169.45 150.02 174.93C149.77 179.79 110.86 175.1 107.82 177.02C106.2 178.02 81.5098 172.85 78.4598 172.19C67.8398 169.9 2.25977 143.68 2.17977 141.57C1.80072 141.286 1.50952 140.902 1.33977 140.46C1.21977 140.23 1.49977 139.91 1.62977 139.62Z" fill="#2746CF"/>
</g>
<g opacity="0.19">
<path opacity="0.19" d="M2.12964 138.49C2.12964 138.66 63.3096 170.24 78.6996 173.56C82.6996 174.41 105.99 179.09 108.05 177.78C111.95 175.33 148.12 177.88 148.46 171.49C148.85 164.1 195.03 167.44 200.76 163.78C201.91 163.04 212.76 164.78 214.28 164.43C217.58 163.64 250.02 170.55 255.17 171.58C259.96 172.58 285.99 179.78 287.05 182.25C289.3 187.54 342.56 210.18 335.18 219.83C325.48 232.55 420.23 273.98 424.18 288.33C426.69 297.47 514.51 323.99 529.4 330.24C538.5 334.07 605.08 348.68 613.19 346.24C632.58 340.32 806.75 355.24 820.66 332.67C829.08 319 940.72 329.54 950.37 319.67C955.1 314.83 999.91 320.84 1004.74 318.49C1010.99 315.44 1061.32 325 1067.94 326.04C1095.94 330.41 1241.62 389.69 1239.3 414.91C1236.98 440.13 1391.72 503.72 1419.24 512.39C1428.83 515.39 1490.48 528.62 1496.9 526.2C1507.16 522.33 1587.97 530.07 1593.79 519.14C1598.31 510.64 1667.71 517.37 1674.98 510.81C1683.23 503.36 1770.13 518.37 1783.34 518.98C1798.51 519.68 1870.46 547.6 1870.26 559.9C1870.01 576.41 2009.26 630.43 2044.38 637.49L2043.7 639C2008.38 631.89 1867.7 577.43 1867.99 560.82C1868.19 548.16 1797.25 521.1 1782.39 520.42C1753.13 519.07 1603.51 503.35 1594.31 520.63C1588.46 531.63 1507.13 523.83 1496.73 527.75C1490.22 530.21 1427.92 516.87 1418.24 513.82C1390.5 505.08 1235.16 441.16 1237.48 415.92C1239.79 390.83 1095.26 331.92 1067.55 327.62C1060.89 326.62 1011.05 317.07 1004.88 320.11C1000.16 322.43 956.04 316.52 951.32 321.36C941.69 331.22 830.32 320.73 821.95 334.36C807.95 357.02 633.37 342.03 613.83 347.99C605.61 350.5 538.39 335.75 529.2 331.89C514.2 325.59 425.87 298.89 423.34 289.68C419.34 275.21 324.34 233.63 334.05 220.87C341.37 211.28 288.75 188.87 286.56 183.71C285.56 181.33 260.25 174.31 255.56 173.37C248.2 171.89 205.81 163.37 202.22 165.68C196.64 169.25 151.14 166 150.76 173.31C150.41 179.78 113.58 177.14 109.52 179.69C107.36 181.06 83.1596 176.22 79.0796 175.34C64.9296 172.29 2.62964 143.34 2.51964 140.55C2.16481 140.218 1.89401 139.807 1.72964 139.35C1.63964 139.08 1.96964 138.77 2.12964 138.49Z" fill="#2746CF"/>
</g>
<g opacity="0.24">
<path opacity="0.24" d="M2.63006 137.36C2.63006 137.57 60.1801 172.51 79.4201 176.66C84.4201 177.72 107.22 182.06 109.81 180.43C114.68 177.36 148.81 177.9 149.25 169.91C149.74 160.67 193.32 161.46 200.49 156.91C201.93 155.99 212.56 157.46 214.43 157.01C218.56 156.01 250.43 162.57 256.82 163.86C262.82 165.07 288.19 172.39 289.5 175.47C292.32 182.09 340.5 205.97 331.26 218.04C319.13 233.93 404.58 277.82 409.5 295.76C412.64 307.18 497.91 334.45 516.5 342.27C527.87 347.05 593.12 361.01 603.26 357.91C627.5 350.51 795.86 357.37 813.26 329.12C823.79 312.03 931.55 317.59 943.61 305.24C949.53 299.18 993.17 303.73 999.21 300.79C1007.02 296.99 1056.36 305.68 1064.63 306.97C1099.63 312.44 1236.07 375.59 1233.16 407.11C1230.25 438.63 1375.16 506.49 1409.56 517.32C1421.56 521.1 1481.98 533.62 1490 530.6C1502.82 525.76 1580.58 529.86 1587.85 516.19C1593.5 505.57 1660.26 509.19 1669.34 500.99C1679.67 491.67 1764.67 504.77 1781.18 505.54C1800.18 506.41 1867.81 535.97 1867.57 551.35C1867.25 571.98 1998.26 629.18 2042.1 638L2041.42 639.51C1997.27 630.63 1864.99 572.98 1865.32 552.23C1865.56 536.39 1798.85 507.84 1780.32 506.98C1743.74 505.29 1599.99 495.98 1588.49 517.63C1581.18 531.37 1502.93 527.24 1489.93 532.15C1481.78 535.21 1420.72 522.57 1408.62 518.76C1373.94 507.83 1228.48 439.61 1231.39 408.07C1234.28 376.7 1098.93 313.96 1064.29 308.55C1055.97 307.25 1007.12 298.55 999.41 302.39C993.51 305.3 950.54 300.83 944.64 306.88C932.64 319.2 825.13 313.69 814.64 330.76C797.21 359.08 628.4 352.2 603.97 359.66C593.7 362.8 527.82 348.71 516.34 343.88C497.61 336.01 411.82 308.56 408.66 297.04C403.66 278.95 317.98 234.91 330.15 218.96C339.3 206.96 291.73 183.31 288.98 176.87C287.72 173.87 263.05 166.79 257.21 165.62C248.01 163.76 206.46 155.89 201.99 158.75C194.99 163.21 152.06 162.49 151.58 171.63C151.15 179.72 116.38 179.12 111.31 182.31C108.61 184.01 84.8901 179.54 79.8001 178.44C62.1101 174.62 3.09006 142.99 2.95006 139.44C2.6266 139.061 2.3727 138.628 2.20006 138.16C2.06006 137.92 2.51006 137.62 2.63006 137.36Z" fill="#2746CF"/>
</g>
<g opacity="0.29">
<path opacity="0.29" d="M3.12995 136.23C3.12995 136.49 57.0499 174.78 80.13 179.76C86.06 181.04 108.45 185.03 111.55 183.07C117.4 179.39 149.55 177.91 150.02 168.32C150.61 157.24 191.6 155.47 200.2 149.97C201.93 148.87 212.33 150.08 214.58 149.54C219.53 148.36 250.74 154.54 258.46 156.08C265.64 157.53 290.37 164.94 291.94 168.64C295.32 176.58 338.38 201.71 327.32 216.19C312.77 235.26 388.91 281.59 394.83 303.12C398.59 316.83 481.3 344.85 503.64 354.23C517.29 359.97 581.2 373.23 593.36 369.56C622.46 360.68 785.02 359.44 805.88 325.56C818.51 305.05 922.4 305.62 936.88 290.79C943.98 283.52 986.46 286.61 993.71 283.08C1003.08 278.52 1051.43 286.35 1061.35 287.9C1103.35 294.45 1230.54 361.48 1227.05 399.3C1223.56 437.12 1358.64 509.24 1399.91 522.25C1414.3 526.78 1473.51 538.62 1483.13 534.99C1498.51 529.19 1573.21 529.63 1581.94 513.24C1588.72 500.49 1652.84 501 1663.74 491.16C1676.13 479.98 1759.25 491.16 1779.05 492.09C1801.81 493.09 1865.19 524.33 1864.91 542.79C1864.52 567.55 1987.23 627.91 2039.84 638.49L2039.17 640.01C1986.17 629.35 1862.28 568.52 1862.67 543.62C1862.97 524.62 1800.48 494.57 1778.18 493.54C1734.29 491.54 1596.4 488.68 1582.6 514.62C1573.83 531.11 1498.66 530.62 1483.05 536.53C1473.28 540.21 1413.46 528.26 1398.93 523.68C1357.32 510.58 1221.74 438.06 1225.23 400.2C1228.7 362.56 1102.52 295.96 1060.95 289.47C1050.95 287.92 1003.11 280.11 993.87 284.66C986.79 288.15 944.98 285.13 937.87 292.39C923.43 307.17 819.87 306.64 807.21 327.13C786.29 361.13 623.3 362.35 593.98 371.3C581.65 375.06 517.12 361.63 503.34 355.84C480.87 346.4 397.65 318.19 393.85 304.36C387.85 282.65 311.51 236.15 326.12 217.01C337.12 202.63 294.58 177.73 291.28 170.01C289.76 166.44 265.73 159.25 258.72 157.84C247.72 155.62 206.98 148.36 201.61 151.84C193.23 157.19 152.84 158.99 152.26 169.96C151.75 179.67 119.04 181.12 112.96 184.96C109.71 187.01 86.4799 182.89 80.38 181.57C59.15 177 3.37995 142.65 3.23995 138.42C2.94438 138.003 2.70562 137.549 2.52995 137.07C2.46995 136.77 3.01995 136.47 3.12995 136.23Z" fill="#2746CF"/>
</g>
<g opacity="0.33">
<path opacity="0.33" d="M3.63988 135.1C3.63988 135.4 53.9199 177.05 80.8499 182.86C87.7799 184.35 109.7 188 113.32 185.72C120.14 181.42 150.22 177.93 150.82 166.72C151.5 153.8 189.9 149.47 199.94 143.05C201.94 141.77 212.12 142.7 214.74 142.05C220.53 140.67 251.11 146.48 260.12 148.29C268.49 149.98 292.57 157.48 294.41 161.8C298.35 171.06 336.31 197.43 323.41 214.33C306.41 236.58 373.27 285.33 380.17 310.48C384.56 326.48 464.72 355.24 490.78 366.19C506.7 372.88 569.28 385.52 583.47 381.19C617.47 370.83 774.17 361.5 798.47 321.96C813.2 298.03 913.21 293.61 930.1 276.32C938.38 267.84 979.69 269.46 988.15 265.32C999.08 260 1046.44 266.97 1058.02 268.78C1107.02 276.42 1224.96 347.31 1220.89 391.45C1216.83 435.45 1342.05 511.95 1390.2 527.12C1406.99 532.41 1464.97 543.56 1476.2 539.33C1494.2 532.56 1565.79 529.33 1575.97 510.23C1583.88 495.36 1645.37 492.76 1658.08 481.23C1672.53 468.23 1753.76 477.47 1776.87 478.53C1803.42 479.76 1862.52 512.6 1862.18 534.13C1861.73 563.02 1976.18 626.54 2037.53 638.89L2036.86 640.41C1975.05 627.97 1859.52 563.97 1859.97 534.91C1860.32 512.75 1802.04 481.2 1776.04 480C1724.83 477.63 1592.8 481.25 1576.7 511.5C1566.47 530.74 1494.37 533.94 1476.17 540.81C1464.77 545.1 1406.17 533.81 1389.23 528.51C1340.69 513.22 1214.99 436.4 1219.06 392.24C1223.06 348.32 1106.06 277.87 1057.61 270.3C1045.96 268.48 999.1 261.52 988.31 266.83C980.05 270.9 939.4 269.33 931.13 277.83C914.29 295.07 814.54 299.52 799.83 323.42C775.42 363.07 618.25 372.42 584.04 382.87C569.66 387.26 506.47 374.49 490.39 367.73C464.18 356.73 383.53 327.73 379.1 311.62C372.1 286.29 305.1 237.33 322.1 215C334.91 198.22 297.43 172.09 293.59 163.06C291.81 158.9 268.42 151.62 260.24 149.98C247.35 147.38 207.51 140.75 201.24 144.76C191.47 151.01 153.63 155.33 152.95 168.13C152.35 179.45 121.72 182.94 114.62 187.41C110.83 189.8 88.0899 186.03 80.9599 184.5C56.1999 179.16 3.72988 142.1 3.53988 137.17C3.26923 136.718 3.04796 136.239 2.87988 135.74C2.88988 135.61 3.52988 135.33 3.63988 135.1Z" fill="#2746CF"/>
</g>
<g opacity="0.38">
<path opacity="0.38" d="M4.13978 133.97C4.13978 134.31 50.7898 179.32 81.5698 185.97C89.4898 187.67 110.94 190.97 115.07 188.38C122.87 183.46 150.93 177.96 151.6 165.17C152.38 150.4 188.19 143.52 199.67 136.17C201.96 134.7 211.9 135.36 214.9 134.65C221.51 133.07 251.47 138.51 261.77 140.58C271.34 142.51 294.77 150.1 296.86 155.04C301.37 165.62 334.23 193.24 319.49 212.55C300.08 237.98 357.62 289.2 365.49 317.91C370.49 336.19 448.12 365.71 477.9 378.22C496.1 385.87 557.35 397.86 573.56 392.91C612.36 381.07 763.31 363.64 791.13 318.45C807.97 291.1 904.13 281.7 923.4 261.93C932.87 252.24 973.01 252.41 982.68 247.7C995.17 241.62 1041.53 247.7 1054.77 249.78C1110.77 258.52 1219.46 333.28 1214.77 383.72C1210.14 433.99 1325.51 514.79 1380.54 532.13C1399.73 538.13 1456.54 548.64 1469.32 543.8C1489.83 536.06 1558.42 529.22 1570.05 507.36C1579.05 490.36 1637.94 484.65 1652.47 471.53C1668.99 456.62 1748.32 463.99 1774.73 465.21C1805.08 466.62 1859.89 501.09 1859.51 525.7C1858.99 558.7 1965.12 625.41 2035.27 639.52L2034.6 641.03C1963.96 626.82 1856.8 559.64 1857.32 526.44C1857.72 501.1 1803.66 468.06 1773.94 466.68C1715.42 463.98 1589.25 474.04 1570.86 508.62C1559.16 530.62 1490.14 537.47 1469.34 545.32C1456.34 550.23 1398.95 539.67 1379.58 533.57C1324.11 516.09 1208.29 434.98 1212.94 384.5C1217.56 334.31 1109.74 260 1054.31 251.35C1041 249.27 995.14 243.16 982.81 249.24C973.37 253.89 933.87 253.76 924.42 263.44C905.17 283.15 809.29 292.57 792.42 319.89C764.53 365.2 613.17 382.67 574.08 394.6C557.65 399.6 495.8 387.52 477.43 379.8C447.43 367.21 369.43 337.48 364.32 319.04C356.37 290.04 298.66 238.68 318.14 213.16C332.78 193.98 300.35 166.61 295.96 156.29C293.96 151.53 271.17 144.17 261.82 142.29C247.09 139.29 208.1 133.29 200.94 137.9C189.76 145.04 154.48 151.9 153.7 166.51C153.02 179.46 124.45 184.99 116.34 190.1C112.01 192.82 89.7498 189.42 81.6098 187.66C53.3098 181.56 4.11978 141.79 3.89978 136.16C3.6586 135.672 3.45144 135.167 3.27979 134.65C3.30979 134.45 4.03978 134.18 4.13978 133.97Z" fill="#2746CF"/>
</g>
<g opacity="0.43">
<path opacity="0.43" d="M4.64002 132.84C4.64002 133.23 47.64 181.59 82.29 189.05C91.19 190.97 112.17 193.94 116.82 191.05C125.6 185.52 151.63 178 152.39 163.61C153.27 147 186.48 137.56 199.39 129.31C201.98 127.66 211.68 128.05 215.05 127.24C222.49 125.47 251.83 130.54 263.42 132.87C274.19 135.04 296.95 142.72 299.31 148.28C304.38 160.18 332.15 189.04 315.56 210.77C293.73 239.38 341.97 293.05 350.84 325.35C356.49 345.91 431.53 376.18 465.04 390.26C485.51 398.86 545.43 410.19 563.67 404.62C607.31 391.3 752.46 365.78 783.77 314.94C802.71 284.17 894.96 269.78 916.67 247.55C927.32 236.64 966.3 235.35 977.18 230.05C991.18 223.21 1036.6 228.44 1051.5 230.77C1114.5 240.6 1213.94 319.23 1208.71 375.97C1203.49 432.53 1309.02 517.61 1370.93 537.11C1392.52 543.91 1448.06 553.69 1462.49 548.25C1485.57 539.54 1551.09 529.06 1564.18 504.46C1574.35 485.34 1630.56 476.52 1646.91 461.76C1665.49 444.99 1742.91 450.45 1772.65 451.82C1806.79 453.4 1857.32 489.52 1856.88 517.2C1856.3 554.34 1954.14 624.2 2033.05 640.08L2032.39 641.59C1952.92 625.59 1854.13 555.25 1854.72 517.89C1855.16 489.39 1805.33 454.84 1771.89 453.3C1706.05 450.3 1585.75 466.77 1565.06 505.67C1551.9 530.4 1485.96 540.93 1462.56 549.76C1447.9 555.28 1391.78 545.42 1369.98 538.56C1307.57 518.9 1201.63 433.48 1206.87 376.7C1212.07 320.24 1113.42 242.07 1051.07 232.34C1036.07 230 991.23 224.74 977.36 231.57C966.73 236.8 928.36 238.12 917.77 249.01C896.11 271.18 804.09 285.58 785.17 316.31C753.79 367.31 608.25 392.87 564.27 406.31C545.79 411.95 485.27 400.52 464.61 391.83C430.91 377.66 355.39 347.18 349.7 326.44C340.7 293.87 292.38 240 314.29 211.28C330.76 189.71 303.37 161.1 298.43 149.49C296.15 144.14 274.03 136.69 263.51 134.58C246.94 131.24 208.8 125.85 200.74 131.01C188.17 139.01 155.44 148.42 154.57 164.87C153.8 179.43 127.29 187.01 118.17 192.75C113.3 195.82 91.53 192.75 82.36 190.75C50.53 183.88 5.71002 141.26 4.36002 135.07C4.20987 134.525 4.01591 133.994 3.78003 133.48C3.73003 133.3 4.55002 133.04 4.64002 132.84Z" fill="#2746CF"/>
</g>
<g opacity="0.48">
<path opacity="0.48" d="M5.13992 131.77C5.13992 132.19 44.5299 183.91 82.9999 192.2C92.8999 194.34 113.41 196.96 118.58 193.71C128.33 187.56 152.33 178.03 153.17 162.04C154.17 143.58 184.78 131.59 199.17 122.42C202.04 120.58 211.52 120.7 215.26 119.81C223.52 117.81 252.26 122.54 265.12 125.13C277.12 127.54 299.19 135.31 301.82 141.48C307.45 154.71 330.11 184.82 311.69 208.96C287.43 240.74 326.37 296.87 336.22 332.75C342.5 355.59 414.99 386.62 452.22 402.26C474.97 411.82 533.55 422.49 553.82 416.31C602.31 401.51 741.66 367.89 776.44 311.4C797.44 277.17 885.81 257.77 909.97 233.08C921.8 220.97 959.61 218.21 971.7 212.32C987.31 204.72 1031.7 209.09 1048.24 211.67C1118.24 222.6 1208.43 305.1 1202.62 368.14C1196.83 430.98 1292.52 520.35 1361.31 542.02C1385.31 549.57 1439.6 558.67 1455.64 552.61C1481.28 542.94 1543.75 528.82 1558.29 501.49C1569.59 480.24 1623.17 468.31 1641.29 451.91C1661.93 433.28 1737.49 436.83 1770.5 438.35C1808.43 440.1 1854.68 477.86 1854.2 508.62C1853.55 549.89 1943.09 622.91 2030.78 640.55L2030.12 642.07C1941.82 624.3 1851.41 550.77 1852.06 509.26C1852.55 477.6 1806.94 441.55 1769.78 439.84C1696.63 436.46 1582.19 459.41 1559.2 502.64C1544.58 530.12 1481.72 544.31 1455.72 554.12C1439.43 560.26 1384.54 551.12 1360.33 543.46C1290.97 521.62 1194.97 431.9 1200.75 368.77C1206.53 306.04 1117.06 224.01 1047.75 213.2C1031.1 210.6 987.23 206.2 971.82 213.78C960.02 219.6 922.82 222.36 911.03 234.46C886.97 259.09 798.81 278.46 777.79 312.62C742.92 369.26 603.2 402.96 554.33 417.88C533.79 424.15 474.64 413.38 451.66 403.72C414.21 387.98 341.27 356.72 334.94 333.72C325 297.54 285.94 241.2 310.31 209.3C328.6 185.3 306.31 155.48 300.78 142.58C298.25 136.64 276.78 129.1 265.07 126.75C246.66 123.05 209.36 118.28 200.41 124C186.41 132.93 156.26 144.83 155.3 163.11C154.44 179.3 130.01 188.91 119.87 195.3C114.46 198.71 93.1699 196.02 82.9899 193.82C47.6199 186.2 5.98993 140.89 4.70993 133.96C4.57797 133.393 4.40073 132.838 4.17992 132.3C4.14992 132.14 5.05992 131.89 5.13992 131.77Z" fill="#2746CF"/>
</g>
<g opacity="0.52">
<path opacity="0.52" d="M5.63967 130.59C5.63967 131.05 41.3997 186.13 83.7197 195.25C94.5997 197.6 114.65 199.88 120.33 196.3C131.06 189.54 153.03 177.99 153.96 160.41C155.03 140.1 183.07 125.55 198.84 115.47C202 113.47 211.25 113.3 215.36 112.31C224.45 110.15 252.56 114.48 266.72 117.31C279.88 119.96 301.33 127.82 304.22 134.61C310.42 149.16 327.98 180.51 307.71 207.07C281.03 242.07 310.66 300.6 321.5 340.07C328.41 365.2 398.35 396.98 439.3 414.19C464.3 424.7 521.57 434.72 543.87 427.91C597.21 411.63 730.76 369.91 769.01 307.78C792.17 270.18 876.66 245.78 903.2 218.64C916.2 205.31 952.86 201.09 966.2 194.64C983.37 186.28 1026.76 189.78 1044.97 192.64C1121.97 204.64 1202.91 291.03 1196.51 360.38C1190.14 429.5 1275.99 523.14 1351.66 546.98C1378.04 555.29 1431.13 563.7 1448.77 557.04C1476.97 546.41 1536.39 528.64 1552.38 498.57C1564.82 475.2 1615.75 460.16 1635.73 442.12C1658.44 421.63 1732.1 423.27 1768.42 424.94C1810.14 426.87 1852.1 466.26 1851.58 500.1C1850.87 545.49 1932.11 621.69 2028.58 641.1L2027.93 642.62C1930.8 623.08 1848.76 546.37 1849.47 500.71C1850.02 465.87 1808.63 428.33 1767.76 426.44C1687.29 422.73 1578.76 452.13 1553.42 499.67C1537.34 529.9 1477.56 547.76 1448.95 558.55C1431.04 565.3 1377.38 556.83 1350.75 548.44C1274.47 524.44 1188.29 430.44 1194.68 361C1201.05 292 1120.75 206.11 1044.54 194.21C1026.23 191.36 983.36 187.8 966.41 196.15C953.41 202.54 917.41 206.75 904.41 220.05C877.94 247.16 793.65 271.52 770.52 309.05C732.17 371.34 598.27 413.17 544.52 429.57C521.93 436.47 464.12 426.36 438.85 415.74C397.65 398.43 327.28 366.43 320.31 341.08C309.38 301.27 279.67 242.48 306.46 207.39C326.58 181.02 309.3 149.93 303.26 135.75C300.47 129.2 279.61 121.58 266.76 119C246.51 114.92 210.06 110.77 200.21 117.07C184.85 126.89 157.21 141.32 156.16 161.43C155.22 179.23 132.85 190.89 121.7 197.91C115.7 201.66 94.9497 199.33 83.7497 196.91C44.8397 188.52 6.43967 140.52 5.17967 132.91C5.0681 132.317 4.90413 131.734 4.68967 131.17C4.56967 130.99 5.56967 130.77 5.63967 130.59Z" fill="#2746CF"/>
</g>
<g opacity="0.57">
<path opacity="0.57" d="M6.14001 129.46C6.14001 129.97 38.27 188.4 84.44 198.35C96.31 200.91 115.89 202.85 122.09 198.95C133.79 191.58 153.73 178.01 154.74 158.82C155.91 136.67 181.36 119.57 198.57 108.57C202.01 106.37 211.03 105.94 215.57 104.87C225.48 102.5 252.97 106.47 268.42 109.58C282.77 112.47 303.57 120.42 306.73 127.83C313.48 143.7 325.95 176.3 303.84 205.27C274.73 243.41 295.06 304.43 306.89 347.49C314.42 374.9 381.81 407.43 426.48 426.2C453.78 437.67 509.69 447.03 534.02 439.61C592.21 421.85 719.95 372.04 761.69 304.25C786.94 263.25 867.56 233.88 896.51 204.25C910.71 189.72 946.19 184.03 960.69 176.97C979.43 167.85 1021.83 170.49 1041.69 173.59C1125.69 186.7 1197.38 276.93 1190.41 352.59C1183.41 428 1259.41 525.92 1342.01 551.93C1370.79 560.99 1422.66 568.71 1441.9 561.45C1472.67 549.85 1529.02 528.45 1546.47 495.64C1560.04 470.14 1608.33 451.99 1630.13 432.31C1654.9 409.95 1726.68 409.68 1766.29 411.51C1811.81 413.61 1849.49 454.65 1848.91 491.56C1848.14 541.08 1921.09 620.44 2026.31 641.56L2025.66 643.08C1919.66 621.76 1846.03 541.87 1846.81 492.08C1847.4 454.08 1810.24 415.08 1765.65 412.98C1677.87 408.93 1575.16 444.77 1547.56 496.64C1530.02 529.64 1473.31 551.14 1442.11 562.91C1422.57 570.28 1370.11 562.5 1341.11 553.35C1257.89 527.13 1181.6 428.82 1188.57 353.11C1195.51 277.83 1124.39 188.11 1041.26 175.11C1021.26 171.99 979.41 169.28 960.92 178.39C946.75 185.39 911.92 191.02 897.71 205.53C868.84 235.1 788.41 264.44 763.18 305.41C721.34 373.41 593.25 423.31 534.61 441.21C509.97 448.74 453.5 439.29 425.93 427.7C380.99 408.82 313.18 376.06 305.59 348.4C293.66 304.98 273.29 243.73 302.51 205.4C324.46 176.63 312.22 144.31 305.63 128.84C302.63 121.7 282.37 114 268.35 111.18C246.25 106.73 210.66 103.18 199.92 110.07C183.16 120.78 158.08 137.74 156.92 159.68C155.92 179.09 135.59 192.8 123.43 200.46C116.93 204.55 96.62 202.58 84.43 199.94C41.99 190.79 6.79001 140.09 5.58001 131.73C5.48208 131.112 5.33153 130.503 5.13001 129.91C4.97001 129.83 6.08001 129.6 6.14001 129.46Z" fill="#2746CF"/>
</g>
<g opacity="0.62">
<path opacity="0.62" d="M6.63996 128.33C6.63996 128.88 35.14 190.67 85.16 201.45C98.02 204.23 117.16 205.82 123.84 201.59C136.52 193.59 154.43 178.02 155.53 157.24C156.8 133.24 179.65 113.58 198.29 101.67C202.03 99.2801 210.81 98.5901 215.67 97.4201C226.41 94.8601 253.28 98.4703 270.02 101.83C285.57 104.96 305.71 113 309.13 121.03C316.45 138.22 323.82 172.03 299.86 203.45C268.33 244.77 279.36 308.23 292.17 354.88C300.33 384.58 365.17 417.88 413.56 438.2C443.13 450.63 497.71 459.32 524.07 451.28C587.07 432.04 709.07 374.14 754.26 300.7C781.62 256.26 858.36 221.93 889.73 189.81C905.11 174.06 939.42 166.91 955.13 159.26C975.43 149.38 1016.84 151.15 1038.35 154.51C1129.35 168.72 1191.8 262.82 1184.24 344.78C1176.71 426.47 1242.87 528.68 1332.3 556.85C1363.48 566.67 1414.12 573.71 1434.97 565.85C1468.3 553.28 1521.6 528.22 1540.5 492.69C1555.2 465.07 1600.85 443.81 1624.5 422.49C1651.33 398.27 1721.22 396.09 1764.14 398.07C1813.45 400.35 1846.84 443.02 1846.22 483.01C1845.38 536.66 1910.04 619.18 2024.03 642.12L2023.38 643.63C1908.59 620.54 1843.29 537.47 1844.14 483.51C1844.78 442.35 1811.84 401.81 1763.53 399.58C1668.44 395.19 1571.59 437.48 1541.7 493.67C1522.7 529.39 1469.06 554.58 1435.26 567.33C1414.09 575.33 1362.9 568.23 1331.42 558.33C1241.27 529.93 1174.85 427.33 1182.42 345.33C1189.94 263.77 1128 170.18 1037.93 156.12C1016.3 152.74 975.42 150.88 955.38 160.75C940.04 168.31 906.38 175.41 890.97 191.13C859.69 223.13 783.13 257.48 755.8 301.87C710.47 375.49 588.2 433.55 524.67 452.94C497.97 461.09 442.85 452.31 412.98 439.76C364.3 419.3 299.06 385.76 290.83 355.82C277.91 308.77 266.83 245.07 298.53 203.59C322.31 172.42 315.12 138.86 307.98 122.1C304.69 114.36 285.1 106.58 269.91 103.52C245.97 98.7002 211.23 95.8004 199.59 103.24C181.43 114.84 158.91 134.33 157.65 158.09C156.54 179.09 138.31 194.88 125.13 203.17C118.13 207.61 98.27 205.99 85.03 203.17C39.03 193.25 7.02996 139.86 5.88996 130.78C5.80897 130.136 5.67178 129.5 5.47996 128.88C5.39996 128.67 6.57996 128.46 6.63996 128.33Z" fill="#2746CF"/>
</g>
<g opacity="0.67">
<path opacity="0.67" d="M7.1496 127.2C7.1496 127.79 32.0096 192.94 85.8696 204.55C99.7196 207.55 118.36 208.79 125.59 204.24C139.25 195.64 155.13 178.04 156.31 155.66C157.68 129.81 177.94 107.6 198.02 94.7702C202.02 92.2002 210.59 91.2301 215.83 89.9801C227.39 87.2201 253.65 90.4602 271.67 94.0802C288.42 97.4502 307.9 105.58 311.58 114.23C319.47 132.74 321.74 167.83 295.94 201.63C261.94 246.12 263.71 312.04 277.51 362.28C286.29 394.28 348.57 428.28 400.69 450.19C432.54 463.58 485.79 471.62 514.16 462.96C582.05 442.24 698.16 376.24 746.88 297.16C776.35 249.3 849.21 209.97 882.99 175.38C899.55 158.38 932.7 149.82 949.62 141.58C971.48 130.93 1011.9 131.84 1035.07 135.46C1133.07 150.75 1186.26 248.73 1178.13 336.99C1170.02 424.99 1226.33 531.46 1322.64 561.8C1356.22 572.38 1405.64 578.72 1428.09 570.25C1463.99 556.71 1514.23 528.01 1534.58 489.75C1550.41 460 1593.43 435.63 1618.86 412.67C1647.76 386.59 1715.75 382.5 1761.97 384.67C1815.07 387.12 1844.19 431.43 1843.51 474.5C1842.61 532.28 1898.98 617.97 2021.73 642.66L2021.09 644.18C1897.46 619.31 1840.55 533.07 1841.46 474.96C1842.15 430.62 1813.46 388.59 1761.46 386.18C1659.04 381.46 1568.06 430.18 1535.87 490.7C1515.4 529.18 1464.87 558.03 1428.45 571.76C1405.65 580.36 1355.69 573.97 1321.79 563.29C1224.71 532.71 1168.17 425.8 1176.31 337.47C1184.41 249.64 1131.64 152.2 1034.65 137.05C1011.35 133.42 971.46 132.41 949.89 143.05C933.37 151.19 900.81 159.74 884.27 176.67C850.59 211.16 777.89 250.46 748.45 298.27C699.64 377.55 583.19 443.72 514.77 464.61C486.02 473.39 432.24 465.27 400.08 451.75C347.65 429.75 284.98 395.44 276.08 363.17C262.16 312.51 260.46 246.34 294.55 201.68C320.16 168.11 318.01 133.31 310.33 115.26C306.78 106.93 287.83 99.0602 271.47 95.7702C245.69 90.5802 211.8 88.2902 199.26 96.3102C179.71 108.81 159.74 130.82 158.39 156.41C157.19 179.06 141.02 196.85 126.83 205.79C119.25 210.56 99.9096 209.31 85.6596 206.23C36.1396 195.55 7.3196 139.47 6.2296 129.66C6.154 128.986 6.03373 128.318 5.8696 127.66C5.8196 127.52 7.0896 127.31 7.1496 127.2Z" fill="#2746CF"/>
</g>
<g opacity="0.71">
<path opacity="0.71" d="M7.65002 126.07C7.65002 126.71 28.87 195.21 86.59 207.65C101.43 210.85 119.59 211.76 127.35 206.88C141.98 197.67 155.83 178.05 157.1 154.07C158.56 126.38 176.23 101.61 197.75 87.8702C202.05 85.1102 210.37 83.8699 215.98 82.5299C228.38 79.5799 253.98 82.4502 273.32 86.3302C291.26 89.9402 310.09 98.16 314.04 107.42C322.48 127.27 319.65 163.59 292.04 199.81C255.66 247.48 248.04 315.81 262.87 369.67C272.28 403.94 332.01 438.72 387.87 462.19C422 476.53 473.87 483.91 504.31 474.63C577.05 452.43 687.39 378.34 739.56 293.63C771.13 242.35 840.11 198.04 876.3 160.98C893.97 142.77 925.97 132.77 944.11 123.89C967.53 112.49 1006.96 112.53 1031.78 116.4C1136.78 132.79 1180.78 234.64 1172.01 329.21C1163.32 423.47 1209.8 534.21 1313.01 566.74C1349.01 578.08 1397.19 583.74 1421.24 574.66C1459.7 560.15 1506.88 527.81 1528.69 486.81C1545.69 454.94 1586.03 427.46 1613.28 402.86C1644.28 374.91 1710.35 368.91 1759.86 371.2C1816.76 373.83 1841.59 419.78 1840.86 465.92C1839.86 527.82 1887.96 616.68 2019.49 643.14L2018.85 644.66C1886.39 618.01 1837.85 528.59 1838.85 466.33C1839.59 418.83 1815.08 375.33 1759.35 372.72C1649.62 367.65 1564.5 422.84 1530.01 487.67C1508.08 528.89 1460.61 561.41 1421.6 576.12C1397.18 585.33 1348.45 579.64 1312.13 568.2C1208.13 535.43 1161.46 424.2 1170.18 329.59C1178.86 235.48 1135.27 134.18 1031.34 117.96C1006.34 114.06 967.49 113.9 944.34 125.29C926.63 134.01 895.23 144 877.52 162.14C841.42 199.14 772.59 243.37 741.05 294.59C688.75 379.59 578.12 453.83 504.81 476.2C474.01 485.61 421.57 478.15 387.11 463.67C330.94 440.07 270.83 405.03 261.34 370.45C246.43 316.18 254.06 247.55 290.58 199.7C318.03 163.7 320.93 127.7 312.7 108.35C308.89 99.4302 290.58 91.4701 273.05 87.9401C245.43 82.3801 212.38 80.7202 198.95 89.3102C178.01 102.7 160.59 127.23 159.14 154.65C157.85 178.92 143.75 198.76 128.55 208.33C120.43 213.45 101.55 212.55 86.3 209.26C33.25 197.82 7.61002 139.03 6.59002 128.51C6.52176 127.818 6.41493 127.13 6.27002 126.45C6.24002 126.36 7.60002 126.17 7.65002 126.07Z" fill="#2746CF"/>
</g>
<g opacity="0.76">
<path opacity="0.76" d="M8.1499 124.94C8.1499 125.62 25.7399 197.48 87.3099 210.75C103.14 214.16 120.84 214.75 129.1 209.53C144.71 199.7 156.53 178.07 157.88 152.53C159.45 122.99 174.52 95.6698 197.47 80.9998C202.07 78.0698 210.15 76.5597 216.14 75.1297C229.36 71.9797 254.37 74.4799 274.96 78.6199C294.11 82.4699 312.29 90.7799 316.49 100.62C325.49 121.79 317.57 159.36 288.09 197.99C249.28 248.84 232.41 319.65 248.17 377.06C258.17 413.62 315.39 449.15 374.95 474.18C411.35 489.48 461.95 496.18 494.36 486.31C571.95 462.63 676.48 380.44 732.13 290.06C765.81 235.36 830.91 186.06 869.52 146.53C888.45 127.15 919.26 115.62 938.6 106.2C963.6 94.04 1002.02 93.1999 1028.5 97.3499C1140.5 114.83 1175.19 220.54 1165.89 321.42C1156.63 421.96 1193.26 537.02 1303.33 571.69C1341.69 583.78 1388.67 588.75 1414.33 579.07C1455.33 563.6 1499.48 527.61 1522.74 483.88C1540.83 449.88 1578.57 419.29 1607.64 393.05C1640.64 363.24 1704.88 355.33 1757.7 357.77C1818.39 360.57 1838.93 408.16 1838.17 457.38C1837.17 523.38 1876.91 615.43 2017.17 643.66L2016.54 645.18C1875.25 616.75 1835.08 524.18 1836.12 457.74C1836.91 407.08 1816.63 362.04 1757.18 359.3C1640.18 353.89 1560.88 415.52 1524.09 484.68C1500.7 528.68 1456.3 564.83 1414.7 580.53C1388.7 590.35 1341.16 585.35 1302.42 573.15C1191.42 538.2 1154.69 422.69 1163.99 321.74C1173.24 221.37 1138.83 116.21 1027.99 98.8997C1001.36 94.7497 963.47 95.4399 938.81 107.58C919.93 116.88 889.68 128.32 870.81 147.67C832.31 187.09 767.34 236.34 733.7 290.98C677.9 381.59 573.1 463.98 494.9 487.86C462.04 497.86 410.95 491.1 374.19 475.65C314.27 450.47 256.74 414.65 246.61 377.8C230.71 319.9 247.68 248.8 286.61 197.8C315.89 159.44 323.84 122.16 315.05 101.53C311 92.0096 293.31 83.9697 274.62 80.2097C245.16 74.2797 212.96 73.2097 198.62 82.3997C176.27 96.6797 161.41 123.74 159.86 152.99C158.49 178.88 146.46 200.76 130.24 210.99C121.57 216.45 103.24 215.91 86.9199 212.39C30.3299 200.19 7.8699 138.7 6.9199 127.47C6.87113 126.752 6.78098 126.037 6.6499 125.33C6.6599 125.21 8.1099 125.02 8.1499 124.94Z" fill="#2746CF"/>
</g>
<g opacity="0.81">
<path opacity="0.81" d="M8.65002 123.77C8.65002 124.5 22.65 199.71 88.02 213.77C104.84 217.4 122.08 217.63 130.86 212.09C147.44 201.65 157.23 178 158.67 150.83C160.33 119.44 172.82 89.5699 197.2 73.9799C202.08 70.8599 209.93 69.08 216.29 67.56C230.34 64.21 254.73 66.3499 276.61 70.7499C296.95 74.8399 314.48 83.2499 318.94 93.7499C328.52 116.24 315.49 155.05 284.16 196.1C242.93 250.1 216.75 323.39 233.51 384.39C244.17 423.23 298.79 459.51 362.08 486.11C400.76 502.36 450 508.43 484.46 497.91C566.9 472.75 665.63 382.47 724.75 286.44C760.54 228.33 821.75 174.04 862.75 132.04C882.86 111.45 912.51 98.4501 933.06 88.4501C959.61 75.5201 997.06 73.8399 1025.18 78.2299C1144.18 96.7999 1169.63 206.38 1159.75 313.56C1149.9 420.39 1176.69 539.72 1293.64 576.56C1334.4 589.41 1380.16 593.7 1407.42 583.41C1451.01 566.97 1492.08 527.33 1516.79 480.87C1536.01 444.75 1571.12 411.05 1602 383.17C1637.09 351.5 1699.41 341.68 1755.53 344.27C1820.02 347.27 1836.28 396.48 1835.46 448.77C1834.36 518.93 1865.85 614.12 2014.91 644.1L2014.28 645.63C1864.16 615.43 1832.37 519.63 1833.47 449.09C1834.31 395.25 1818.25 348.72 1755.09 345.8C1630.73 340.06 1557.33 408.13 1518.24 481.61C1493.39 528.33 1452.07 568.18 1407.87 584.86C1380.19 595.29 1333.93 590.99 1292.77 578.03C1174.88 540.89 1147.98 421.08 1157.87 313.83C1167.7 207.18 1142.46 98.1597 1024.69 79.7797C996.39 75.3597 959.5 76.8997 933.3 89.7797C913.23 99.6697 884.15 112.55 864.07 133.11C823.16 174.99 762.07 229.22 726.31 287.27C667.03 383.55 568.04 474.07 484.96 499.43C450.05 510.09 400.3 503.96 361.25 487.55C297.58 460.79 242.62 424.24 231.86 385.05C214.96 323.54 241.26 249.99 282.65 195.76C313.76 155 326.75 116.48 317.42 94.56C313.11 84.45 296.06 76.3197 276.2 72.3197C244.9 66.0197 213.55 65.5997 198.33 75.3197C174.59 90.4897 162.33 120.08 160.63 151.15C159.18 178.66 149.21 202.58 131.98 213.43C122.77 219.23 104.9 219.05 87.59 215.32C27.45 202.32 8.17001 138.16 7.29001 126.22C7.20001 124.93 7.09001 124.15 7.07001 124C7.05001 123.85 8.62002 123.88 8.65002 123.77Z" fill="#2746CF"/>
</g>
<g opacity="0.86">
<path opacity="0.86" d="M9.14995 122.68C9.14995 123.45 19.4799 202.02 88.74 216.95C106.55 220.79 123.31 220.68 132.61 214.82C150.17 203.76 157.93 178.1 159.45 149.32C161.21 116.09 171.11 83.6602 196.92 67.1602C202.09 63.8602 209.71 61.8102 216.45 60.1602C231.32 56.6102 255.09 58.3801 278.26 63.0401C299.8 67.3701 316.67 75.87 321.4 86.98C331.54 110.79 313.4 150.85 280.24 194.31C236.58 251.51 201.1 327.22 218.84 391.81C230.14 432.93 282.2 469.97 349.21 498.13C390.16 515.34 438.07 520.75 474.56 509.62C561.85 482.98 654.77 384.62 717.38 282.92C755.27 221.39 812.61 162.12 856.04 117.64C877.34 95.8402 905.82 81.3801 927.58 70.7901C955.69 57.1101 992.14 54.5502 1021.92 59.2002C1147.92 78.8702 1164.12 192.32 1153.66 305.8C1143.24 418.92 1160.18 542.53 1284.01 581.54C1327.17 595.14 1371.71 598.74 1400.57 587.85C1446.72 570.44 1484.73 527.16 1510.9 477.97C1531.25 439.72 1563.72 402.91 1596.42 373.39C1633.57 339.85 1694.01 328.12 1753.42 330.87C1821.7 334.02 1833.67 384.87 1832.81 440.26C1831.64 514.54 1854.81 612.9 2012.67 644.65L2012.04 646.17C1853.09 614.17 1829.67 515.25 1830.84 440.53C1831.73 383.53 1819.84 335.53 1753.01 332.41C1621.33 326.33 1553.8 400.85 1512.41 478.65C1486.1 528.12 1447.86 571.65 1401.06 589.29C1371.75 600.29 1326.72 596.73 1283.14 583C1158.31 543.68 1141.3 419.58 1151.77 306C1162.18 193.08 1146.12 80.2103 1021.41 60.7403C991.41 56.0603 955.55 58.4501 927.82 72.1201C906.57 82.5801 878.64 96.9102 857.38 118.68C814.07 163.03 756.82 222.24 718.98 283.68C656.21 385.62 563.04 484.25 475.08 511.1C438.08 522.39 389.7 516.93 348.35 499.55C280.94 471.22 228.55 433.91 217.15 392.42C199.27 327.29 234.9 251.28 278.72 193.86C311.65 150.7 329.72 110.94 319.82 87.7403C315.25 77.0303 298.82 68.8101 277.82 64.5801C244.67 57.9101 214.18 58.1102 198.06 68.4102C172.92 84.4802 163.16 116.6 161.43 149.5C159.88 178.62 151.98 204.59 133.74 216.08C123.99 222.22 106.6 222.4 88.27 218.44C24.6 204.71 8.49995 137.82 7.68995 125.16C7.60995 123.81 7.52995 123 7.50995 122.87C7.48995 122.74 9.12995 122.77 9.14995 122.68Z" fill="#2746CF"/>
</g>
<g opacity="0.9">
<path opacity="0.9" d="M9.64973 121.55C9.64973 122.36 16.3497 204.29 89.4597 220.05C108.25 224.1 124.55 223.65 134.37 217.46C152.9 205.79 158.63 178.11 160.24 147.74C162.09 112.66 169.4 77.6805 196.65 60.2605C202.1 56.7705 209.49 54.4502 216.6 52.7502C232.3 49.0102 255.46 50.4103 279.91 55.3303C302.65 59.9003 318.86 68.4905 323.85 80.2205C334.55 105.35 311.33 146.65 276.31 192.53C230.23 252.91 185.45 331.07 204.17 399.25C216.1 442.65 265.61 480.44 336.34 510.17C379.57 528.33 426.14 533.08 464.66 521.33C556.79 493.21 643.97 386.77 709.97 279.41C749.97 214.41 803.43 150.2 849.28 103.26C871.75 80.2605 899.07 64.3204 922.04 53.1404C951.71 38.7004 987.17 35.2802 1018.61 40.1902C1151.61 60.9502 1158.56 178.27 1147.51 298.06C1136.51 417.45 1143.62 545.35 1274.32 586.52C1319.88 600.88 1363.19 603.79 1393.66 592.3C1442.38 573.92 1477.33 527 1504.95 475.08C1526.44 434.7 1556.26 394.77 1590.77 363.62C1629.99 328.22 1688.54 314.62 1751.26 317.48C1823.33 320.8 1831.03 373.31 1830.11 431.76C1828.89 510.171 1843.79 611.69 2010.38 645.21L2009.76 646.73C1841.97 612.98 1826.97 510.85 1828.2 431.98C1829.14 371.82 1821.52 322.29 1750.92 319.03C1611.92 312.61 1550.27 393.57 1506.58 475.7C1478.79 527.91 1443.64 575.1 1394.24 593.7C1363.24 605.36 1319.51 602.45 1273.5 587.96C1141.74 546.45 1134.61 418.05 1145.66 298.18C1156.66 178.98 1149.76 62.2504 1018.13 41.7004C986.51 36.7704 951.6 40.0104 922.32 54.4304C899.9 65.4804 873.12 81.2502 850.68 104.23C804.96 151.04 751.58 215.23 711.68 280.11C645.42 387.71 558.07 494.46 465.22 522.8C426.22 534.72 379.13 529.92 335.48 511.57C264.33 481.67 214.48 443.57 202.48 399.8C183.6 331.05 228.56 252.59 274.82 191.97C309.58 146.42 332.67 105.42 322.24 80.9705C317.43 69.6604 301.65 61.3601 279.45 56.9001C244.45 49.8501 214.82 50.67 197.8 61.55C171.27 78.55 164.06 113.15 162.23 147.88C160.6 178.63 154.77 206.64 135.51 218.77C125.22 225.24 108.32 225.77 88.9697 221.61C21.7597 207.12 8.82972 137.52 8.09972 124.15C7.96972 122.77 7.96973 121.89 7.96973 121.77C7.96973 121.65 9.63973 121.59 9.64973 121.55Z" fill="#2746CF"/>
</g>
<g opacity="0.95">
<path opacity="0.95" d="M10.1498 120.43C10.1498 121.28 13.2198 206.56 90.1498 223.15C109.94 227.42 125.77 226.62 136.15 220.15C155.65 207.86 159.36 178.15 161.05 146.2C163.05 109.27 167.72 71.7301 196.4 53.4001C202.15 49.7301 209.3 47.1403 216.79 45.3503C233.31 41.4103 255.85 42.4403 281.59 47.6203C305.52 52.4403 321.08 61.1104 326.34 73.4504C337.6 99.9104 309.28 142.45 272.42 190.75C223.91 254.31 169.83 334.92 189.54 406.68C202.09 452.37 249.05 490.91 323.54 522.2C369.04 541.32 414.29 545.42 454.83 533.05C551.83 503.45 633.14 388.88 702.7 275.9C744.79 207.53 794.38 138.29 842.64 88.9001C864.073 67.0087 889.102 48.9567 916.64 35.53C947.87 20.32 982.33 16.0402 1015.43 21.2102C1155.43 43.0602 1153.13 164.21 1141.51 290.34C1129.93 416.02 1127.19 548.2 1264.77 591.54C1312.77 606.65 1354.77 608.88 1386.88 596.78C1438.17 577.43 1470.07 526.87 1499.15 472.21C1521.76 429.71 1548.94 386.67 1585.27 353.88C1626.56 316.62 1683.21 301.07 1749.27 304.12C1825.13 307.62 1828.54 361.77 1827.58 423.29C1826.29 505.83 1832.89 610.52 2008.26 645.8L2007.64 647.32C1831.03 611.79 1824.36 506.48 1825.64 423.47C1826.64 360.13 1823.24 309.11 1748.92 305.67C1602.62 298.92 1546.82 386.33 1500.83 472.77C1471.58 527.77 1439.51 578.59 1387.5 598.2C1354.93 610.48 1312.38 608.26 1263.95 593.01C1125.26 549.32 1128.01 416.61 1139.64 290.43C1151.2 164.96 1153.5 44.3802 1014.93 22.7502C981.65 17.5502 947.74 21.64 916.93 36.82C889.791 50.2171 865.12 68.1213 843.97 89.7702C795.84 139.04 746.32 208.21 704.27 276.5C634.53 389.77 553 504.64 455.27 534.5C414.19 547.04 368.47 542.9 322.52 523.59C247.63 492.12 200.37 453.28 187.71 407.19C167.84 334.82 222.13 253.9 270.83 190.09C307.42 142.09 335.56 99.9001 324.58 74.0901C319.51 62.1901 304.37 53.8001 281 49.0901C244.17 41.6801 215.37 43.09 197.47 54.57C169.54 72.42 164.88 109.57 162.95 146.15C161.24 178.51 157.47 208.56 137.2 221.33C126.37 228.15 109.95 229.04 89.5898 224.65C18.8398 209.4 9.07984 137.09 8.42984 123.02C8.35984 121.53 8.33984 120.67 8.33984 120.57C8.33984 120.47 10.1498 120.44 10.1498 120.43Z" fill="#2746CF"/>
</g>
<path opacity="0.3" d="M216.97 37.8601C234.31 33.7301 256.23 34.3901 283.26 39.8601C308.39 44.9201 323.26 53.6803 328.81 66.6403C340.64 94.4203 307.21 138.21 268.51 188.92C217.58 255.66 154.2 338.71 174.89 414.07C188.07 462.07 232.47 501.33 310.65 534.19C358.43 554.26 402.34 557.7 444.9 544.71C546.74 513.63 622.26 390.97 695.3 272.34C739.5 200.56 785.21 126.34 835.88 74.4401C892.82 16.1501 950.46 -7.55993 1012.12 2.11007C1159.12 25.0501 1147.57 150.11 1135.36 282.51C1123.2 414.51 1110.62 550.94 1255.08 596.44C1305.44 612.31 1346.3 613.85 1379.97 601.15C1433.82 580.84 1462.67 526.63 1493.2 469.24C1516.94 424.61 1541.49 378.46 1579.63 344.03C1622.98 304.91 1677.75 287.45 1747.07 290.65C1826.73 294.32 1825.85 350.11 1824.84 414.71C1823.49 501.37 1821.84 609.23 2005.93 646.27L2005.31 647.8C1819.88 610.49 1821.58 502.01 1822.94 414.8C1823.94 348.3 1824.8 295.8 1746.78 292.17C1593.16 285.08 1543.22 378.93 1494.93 469.7C1464.22 527.41 1435.22 581.93 1380.62 602.52C1346.42 615.41 1305.1 613.89 1254.25 597.88C1108.62 552 1121.25 415 1133.47 282.51C1145.61 150.76 1157.08 26.3201 1011.59 3.61007C949.87 -6.01993 894.5 16.7603 837.32 75.3103C786.78 127.04 741.13 201.19 696.98 272.9C623.75 391.83 547.98 514.81 445.41 546.14C402.28 559.31 357.9 555.83 309.66 535.56C230.97 502.52 186.28 462.92 172.97 414.52C152.1 338.52 215.73 255.15 266.86 188.16C305.28 137.81 338.47 94.3305 326.94 67.2605C321.62 54.7705 307.1 46.2601 282.57 41.3601C243.9 33.5701 215.95 35.6404 197.15 47.6604C167.82 66.4104 165.72 106.1 163.69 144.49C161.89 178.49 160.19 210.56 138.91 223.97C127.54 231.13 111.61 232.38 90.2198 227.77C8.13976 210.07 8.70976 120.33 8.72976 119.43L10.6398 119.3C10.6398 120.19 10.0697 208.82 90.8698 226.25C111.65 230.73 127.01 229.59 137.87 222.75C158.35 209.85 160.03 178.15 161.81 144.57C163.81 105.8 165.98 65.7102 196.1 46.4602C202.522 42.4373 209.578 39.5295 216.97 37.8601Z" fill="#2746CF"/>
</g>
</svg>
