<svg width="2076" height="1269" viewBox="0 0 2076 1269" fill="none" xmlns="http://www.w3.org/2000/svg">
<g opacity="0.3">
<g opacity="0.05">
<path opacity="0.05" d="M2072.07 185.673L2073.07 187.423C2064.64 192.533 1884.41 284.013 1880.85 280.773C1878.18 278.363 1788.92 323.773 1785.96 326.393C1780.15 331.583 1571.1 455.123 1574.25 462.253C1576.5 467.353 1446.1 544.113 1444.58 547.253C1443.85 548.773 1387.09 579.773 1384.74 580.363C1379.69 581.643 1285.95 632.253 1285.14 633.533C1285.14 633.533 1284.39 633.963 1284.38 633.993C1283.91 634.783 1258.86 649.313 1259.11 650.243C1259.67 652.243 1157.17 710.833 1151.24 714.863C1149.17 716.273 1086.29 749.683 1084.34 748.923C1083.71 748.673 1061.88 759.823 1061.24 759.353C1058.9 757.633 955.75 809.463 953.48 806.273C948.48 799.273 698.13 924.093 688.66 928.213C684.84 929.883 609.66 971.213 609.6 972.583C609.6 974.333 539.16 1015.58 542.01 1016.86C544.68 1018.1 481.76 1054.81 481.84 1056.26C481.84 1057.01 451.52 1073.91 450.23 1074.7C445.07 1077.84 306.59 1148.28 302.95 1146.07C299.9 1144.21 203.03 1193.49 199.95 1195.28C196.23 1197.46 87.5897 1263.16 87.4797 1263.22C87.3697 1263.28 86.5897 1261.48 86.5997 1261.38C86.7997 1260.26 193.87 1196.46 197.31 1194.38C200.41 1192.56 298.4 1142.71 301.48 1144.58C305.09 1146.78 442.57 1076.85 447.68 1073.74C448.94 1072.97 478.33 1056.62 478.29 1055.91C478.21 1054.52 540.19 1018.34 537.55 1017.11C534.67 1015.77 606.18 973.953 606.2 972.113C606.2 970.683 682.58 928.733 686.44 927.053C695.98 922.903 947.86 797.253 952.89 804.323C955.15 807.503 1058.09 755.773 1060.41 757.493C1061.04 757.963 1082.82 746.843 1083.41 747.083C1085.33 747.823 1147.16 714.963 1149.2 713.583C1155.07 709.583 1256.48 651.663 1255.93 649.663C1255.67 648.663 1281.47 633.753 1281.93 632.923C1281.93 632.923 1282.75 632.443 1282.77 632.413C1283.6 631.103 1378.08 580.083 1383.23 578.783C1385.54 578.193 1441.51 547.603 1442.23 546.133C1443.73 543.043 1573.5 466.643 1571.23 461.573C1568.19 454.483 1778.69 330.123 1784.57 324.913C1787.57 322.243 1878.39 276.193 1880.99 278.543C1884.5 281.773 2063.74 190.773 2072.07 185.673Z" fill="#2746CF"/>
</g>
<g opacity="0.1">
<path opacity="0.1" d="M2069.49 181.683L2070.49 183.443C2053.66 193.663 1877.85 276.373 1870.74 269.963C1865.41 265.133 1778.39 306.273 1772.48 311.503C1760.85 321.833 1565.97 447.683 1572.28 461.943C1576.79 472.133 1455.14 550.113 1452.09 556.373C1450.63 559.373 1395.14 589.913 1390.45 591.093C1380.33 593.653 1288.52 642.933 1286.9 645.493C1286.9 645.493 1286.15 645.953 1286.13 646.003C1285.2 647.593 1261.63 662.243 1262.13 664.103C1263.23 668.173 1166.59 726.453 1154.73 734.513C1150.59 737.323 1088.82 769.413 1084.92 767.883C1083.65 767.393 1062.25 777.603 1060.97 776.653C1056.3 773.213 956.06 819.293 951.52 812.913C941.52 798.833 697.71 909.073 678.77 917.323C671.12 920.643 597.7 961.453 597.67 964.223C597.62 967.733 533.82 1008.31 539.51 1010.97C544.85 1013.46 487.73 1049.56 487.89 1052.46C487.97 1053.96 458.49 1070.8 455.89 1072.37C445.58 1078.66 309.69 1142.94 302.41 1138.52C296.32 1134.77 201.26 1179.77 195.16 1183.35C187.72 1187.73 83.3501 1257.82 83.1601 1257.94C82.8412 1257.32 82.5704 1256.68 82.3501 1256.01C82.7301 1253.77 185.74 1186.51 192.62 1182.47C198.82 1178.82 294.97 1133.32 301.13 1137.06C308.36 1141.46 443.27 1077.65 453.49 1071.42C456.01 1069.89 484.55 1053.6 484.49 1052.18C484.33 1049.39 540.59 1013.81 535.31 1011.34C529.56 1008.67 594.37 967.483 594.41 963.853C594.41 960.993 668.97 919.563 676.7 916.193C695.78 907.893 941.05 796.933 951.12 811.073C955.65 817.443 1055.68 771.463 1060.32 774.883C1061.59 775.833 1082.94 765.633 1084.2 766.123C1088.04 767.613 1148.78 736.053 1152.84 733.293C1164.59 725.293 1260.22 667.663 1259.12 663.653C1258.6 661.743 1282.88 646.653 1283.85 645.013C1283.85 644.963 1284.66 644.503 1284.69 644.453C1286.37 641.823 1378.82 592.173 1389.12 589.573C1393.75 588.403 1448.47 558.293 1449.9 555.353C1452.9 549.163 1573.97 471.553 1569.48 461.413C1563.14 447.083 1759.34 320.413 1771.11 309.993C1777.11 304.653 1865.76 262.993 1870.96 267.733C1877.95 274.103 2052.85 191.833 2069.49 181.683Z" fill="#2746CF"/>
</g>
<g opacity="0.14">
<path opacity="0.14" d="M2066.91 177.703L2067.91 179.453C2042.68 194.773 1871.23 268.773 1860.61 259.123C1852.61 251.873 1767.85 288.773 1758.98 296.583C1741.48 312.073 1560.85 440.233 1570.31 461.633C1577.07 476.913 1464.18 556.113 1459.6 565.503C1457.42 569.993 1403.19 600.053 1396.15 601.833C1380.98 605.673 1291.09 653.623 1288.65 657.453C1288.65 657.523 1287.92 657.943 1287.88 658.013C1286.48 660.403 1264.39 675.173 1265.16 678.013C1266.82 684.103 1176.02 742.123 1158.23 754.213C1152.02 758.423 1091.37 789.213 1085.51 786.883C1083.62 786.143 1062.64 795.423 1060.72 794.003C1053.72 788.843 956.39 829.163 949.58 819.603C934.58 798.483 697.31 894.093 668.9 906.463C657.43 911.463 585.81 951.753 585.75 955.913C585.69 961.173 528.49 1001.13 537.03 1005.11C545.03 1008.85 493.71 1044.35 493.95 1048.71C494.07 1050.95 465.47 1067.71 461.6 1070.09C446.12 1079.51 312.83 1137.64 301.91 1131C292.75 1125.43 199.5 1166.09 190.35 1171.47C179.19 1178.03 79.07 1252.47 78.76 1252.69C78.4451 1252.05 78.1971 1251.38 78.02 1250.69C78.6 1247.34 177.55 1176.61 187.87 1170.55C197.17 1165.08 291.47 1123.93 300.72 1129.55C311.56 1136.14 443.9 1078.44 459.22 1069.11C463 1066.81 490.7 1050.59 490.58 1048.46C490.35 1044.27 540.89 1009.27 532.96 1005.58C524.34 1001.58 582.45 961.013 582.52 955.583C582.57 951.293 655.26 910.363 666.85 905.323C695.47 892.773 934.14 796.543 949.23 817.773C956.03 827.323 1053.16 787.083 1060.12 792.223C1062.03 793.633 1082.95 784.373 1084.84 785.103C1090.6 787.333 1150.24 757.103 1156.34 752.943C1173.96 740.943 1263.8 683.593 1262.16 677.593C1261.39 674.723 1284.16 659.533 1285.59 657.043C1285.59 656.973 1286.39 656.513 1286.44 656.433C1288.95 652.493 1379.38 604.213 1394.83 600.303C1401.78 598.543 1455.24 568.923 1457.4 564.503C1461.91 555.233 1574.25 476.413 1567.52 461.193C1558.01 439.683 1739.92 310.713 1757.58 295.083C1766.58 287.083 1853.06 249.883 1860.85 256.933C1871.4 266.483 2041.9 192.933 2066.91 177.703Z" fill="#2746CF"/>
</g>
<g opacity="0.19">
<path opacity="0.19" d="M2064.32 173.713L2065.32 175.463C2031.73 195.913 1864.66 261.103 1850.5 248.273C1839.83 238.613 1757.32 271.213 1745.5 281.663C1722.14 302.323 1555.72 432.773 1568.34 461.333C1577.34 481.703 1473.21 562.103 1467.11 574.633C1464.2 580.633 1411.24 610.193 1401.86 612.563C1381.62 617.683 1293.66 664.313 1290.41 669.423C1290.35 669.513 1289.68 669.933 1289.63 670.023C1287.77 673.213 1267.16 688.103 1268.18 691.833C1270.39 699.963 1185.44 757.703 1161.72 773.833C1153.45 779.453 1093.91 808.833 1086.1 805.833C1083.58 804.833 1063.02 813.193 1060.46 811.303C1051.13 804.413 956.7 838.983 947.63 826.233C927.63 798.073 696.9 879.063 659.02 895.553C643.72 902.213 573.9 942.003 573.83 947.553C573.74 954.553 523.16 993.903 534.54 999.213C545.22 1004.21 499.68 1039.09 500 1044.9C500.17 1047.9 472.45 1064.61 467.28 1067.75C446.65 1080.32 315.95 1132.29 301.39 1123.44C289.17 1116.01 197.73 1152.36 185.53 1159.54C170.65 1168.25 74.8498 1247.13 74.3798 1247.37C74.0778 1246.7 73.8562 1246 73.7197 1245.27C74.4897 1240.8 169.38 1166.61 183.13 1158.53C195.53 1151.24 287.99 1114.44 300.32 1121.93C314.78 1130.73 444.55 1079.14 464.98 1066.7C469.98 1063.63 496.87 1047.47 496.71 1044.63C496.4 1039.05 541.22 1004.63 530.65 999.713C519.15 994.353 570.57 954.443 570.65 947.183C570.72 941.463 641.57 901.053 657.02 894.323C695.18 877.713 927.24 796.153 947.37 824.433C956.43 837.163 1050.66 802.663 1059.94 809.513C1062.49 811.403 1082.94 803.073 1085.5 804.043C1093.18 807.043 1151.72 778.043 1159.85 772.553C1183.35 756.553 1267.41 699.493 1265.23 691.483C1264.23 687.663 1285.4 672.353 1287.36 669.033C1287.41 668.933 1288.15 668.473 1288.21 668.373C1291.55 663.113 1379.96 616.213 1400.56 610.993C1409.83 608.653 1462.04 579.503 1464.91 573.623C1470.91 561.253 1574.56 481.223 1565.58 460.933C1552.93 432.283 1720.53 301.003 1744.08 280.163C1756.15 269.483 1840.39 236.723 1850.78 246.163C1864.85 258.863 2030.98 194.023 2064.32 173.713Z" fill="#2746CF"/>
</g>
<g opacity="0.24">
<path opacity="0.24" d="M2061.74 169.773L2062.74 171.513C2020.74 197.083 1858.07 253.513 1840.37 237.513C1827.01 225.353 1746.75 253.673 1731.98 266.773C1702.85 292.563 1550.59 425.353 1566.37 461.023C1577.63 486.483 1482.25 568.103 1474.62 583.773C1470.98 591.263 1419.29 620.353 1407.56 623.323C1382.27 629.723 1296.23 675.013 1292.16 681.403C1292.09 681.523 1291.44 681.943 1291.38 682.053C1289.05 686.053 1269.93 701.053 1271.2 705.713C1273.97 715.873 1194.87 773.343 1165.2 793.493C1154.86 800.493 1096.44 828.613 1086.68 824.793C1083.52 823.553 1063.4 830.963 1060.19 828.603C1048.54 819.963 957.02 848.773 945.67 832.843C920.67 797.643 696.49 864.013 649.14 884.623C630.02 892.953 562 932.233 561.91 939.163C561.79 947.933 517.82 986.663 532.05 993.293C545.4 999.513 505.66 1033.81 506.05 1041.07C506.26 1044.81 479.41 1061.47 472.95 1065.4C447.16 1081.1 319.05 1126.92 300.86 1115.86C285.58 1106.57 195.96 1138.62 180.71 1147.58C162.11 1158.51 70.5199 1241.79 69.9899 1242.09C69.6991 1241.39 69.5007 1240.66 69.3999 1239.9C70.3999 1234.32 161.19 1156.67 178.4 1146.56C193.9 1137.45 284.52 1105 299.92 1114.37C318 1125.37 445.19 1079.88 470.74 1064.37C477.03 1060.54 503.03 1044.44 502.84 1040.89C502.45 1033.89 541.55 1000.09 528.34 993.893C513.97 987.193 558.69 947.893 558.81 938.893C558.9 931.753 627.91 891.843 647.23 883.443C694.93 862.673 920.39 795.813 945.55 831.163C956.85 847.023 1048.2 818.263 1059.85 826.833C1063.04 829.193 1083.11 821.833 1086.25 823.003C1095.85 826.723 1153.25 799.093 1163.46 792.183C1192.83 772.183 1271.11 715.413 1268.38 705.393C1267.08 700.623 1286.77 685.203 1289.21 681.043C1289.28 680.923 1289.99 680.453 1290.06 680.333C1294.25 673.763 1380.63 628.223 1406.38 621.713C1417.96 618.773 1468.92 590.113 1472.51 582.713C1480.04 567.263 1574.95 486.023 1563.73 460.713C1547.85 424.883 1701.15 291.293 1730.58 265.243C1745.67 251.893 1827.73 223.573 1840.71 235.323C1858.29 251.243 2020.06 195.113 2061.74 169.773Z" fill="#2746CF"/>
</g>
<g opacity="0.29">
<path opacity="0.29" d="M2059.16 165.773L2060.16 167.523C2009.78 198.193 1851.48 245.853 1830.23 226.623C1814.23 212.133 1736.23 236.173 1718.5 251.863C1683.5 282.863 1545.5 417.943 1564.41 460.743C1577.93 491.303 1491.3 574.133 1482.16 592.913C1477.79 601.913 1427.36 630.503 1413.28 634.063C1382.93 641.743 1298.81 685.713 1293.94 693.383C1293.85 693.513 1293.23 693.943 1293.15 694.083C1290.35 698.863 1272.72 713.993 1274.24 719.583C1277.57 731.783 1204.31 788.973 1168.73 813.163C1156.32 821.593 1099.01 848.343 1087.29 843.763C1083.51 842.283 1063.81 848.763 1059.96 845.913C1045.96 835.583 957.36 858.643 943.74 839.523C913.68 797.273 696.1 849.023 639.28 873.753C616.28 883.753 550.11 922.523 550 930.843C549.87 941.363 512.51 979.473 529.58 987.423C545.58 994.893 511.65 1028.59 512.13 1037.3C512.38 1041.79 486.42 1058.38 478.67 1063.1C447.72 1081.95 322.2 1121.61 300.37 1108.34C282.03 1097.19 194.23 1124.93 175.92 1135.69C153.58 1148.77 66.2599 1236.44 65.6299 1236.77C65.3373 1236.05 65.1618 1235.28 65.1099 1234.5C66.2599 1227.8 153.03 1146.69 173.67 1134.56C192.27 1123.63 281.04 1095.56 299.52 1106.77C321.22 1119.96 445.84 1080.6 476.52 1061.94C484.07 1057.34 509.22 1041.3 508.99 1037.05C508.52 1028.67 541.91 995.433 526.05 988.053C508.81 980.053 546.84 941.383 546.98 930.493C547.09 921.923 614.26 882.493 637.44 872.433C694.66 847.543 913.51 795.373 943.71 837.773C957.29 856.863 1045.71 833.853 1059.64 844.123C1063.47 846.953 1083.11 840.483 1086.88 841.943C1098.4 846.413 1154.74 820.083 1166.94 811.793C1202.19 787.793 1274.68 731.303 1271.41 719.293C1269.85 713.563 1288.01 698.023 1290.94 693.033C1291.02 692.893 1291.71 692.423 1291.8 692.273C1296.8 684.383 1381.19 640.273 1412.08 632.403C1425.98 628.883 1475.69 600.703 1480 591.873C1489 573.323 1575.23 490.873 1561.77 460.443C1542.77 417.443 1681.77 281.563 1717.09 250.303C1735.19 234.303 1815.09 210.393 1830.64 224.503C1851.74 243.623 2009.14 196.203 2059.16 165.773Z" fill="#2746CF"/>
</g>
<g opacity="0.33">
<path opacity="0.33" d="M2056.58 161.773L2057.58 163.513C1998.78 199.293 1844.85 238.193 1820.08 215.773C1801.41 198.873 1725.65 218.643 1704.98 236.943C1664.13 273.053 1540.33 410.473 1562.42 460.403C1578.19 496.053 1500.32 580.103 1489.65 602.013C1484.55 612.493 1435.4 640.613 1418.97 644.763C1383.56 653.763 1301.36 696.373 1295.67 705.313C1295.57 705.473 1294.97 705.903 1294.88 706.063C1291.62 711.643 1275.47 726.883 1277.24 733.413C1281.12 747.643 1213.71 804.573 1172.24 832.783C1157.76 842.623 1101.57 868.043 1087.9 862.693C1083.48 860.963 1064.21 866.503 1059.73 863.193C1043.4 851.133 957.73 868.453 941.81 846.133C906.73 796.843 695.72 833.973 629.42 862.833C602.65 874.483 538.23 912.753 538.1 922.463C537.94 934.733 507.19 972.223 527.1 981.463C545.79 990.173 517.63 1023.27 518.2 1033.46C518.49 1038.69 493.41 1055.22 484.36 1060.73C448.25 1082.73 325.36 1116.22 299.86 1100.73C278.47 1087.73 192.47 1111.16 171.12 1123.73C145.12 1139.03 62.0098 1231.1 61.2798 1231.52C61.0057 1230.77 60.8571 1229.98 60.8398 1229.17C62.1798 1221.35 144.84 1136.77 168.96 1122.62C190.66 1109.87 277.59 1086.12 299.16 1099.24C324.47 1114.63 446.52 1081.38 482.28 1059.6C491.1 1054.23 515.4 1038.27 515.13 1033.3C514.59 1023.53 542.25 990.883 523.75 982.303C503.64 972.923 534.97 934.923 535.13 922.213C535.26 912.213 600.6 873.333 627.64 861.563C694.43 832.493 906.64 795.023 941.89 844.513C957.75 866.783 1043.28 849.513 1059.51 861.513C1063.98 864.813 1083.19 859.273 1087.59 860.983C1101.03 866.183 1156.28 841.163 1170.51 831.493C1211.63 803.543 1278.34 747.293 1274.51 733.273C1272.69 726.593 1289.32 710.933 1292.74 705.113C1292.84 704.943 1293.5 704.473 1293.61 704.303C1299.46 695.093 1381.81 652.303 1417.85 643.183C1434.07 639.083 1482.53 611.373 1487.55 601.073C1498.09 579.443 1575.55 495.773 1559.87 460.273C1537.66 410.083 1662.38 271.883 1703.59 235.413C1724.71 216.713 1802.4 197.263 1820.59 213.713C1845.18 236.013 1998.22 197.293 2056.58 161.773Z" fill="#2746CF"/>
</g>
<g opacity="0.38">
<path opacity="0.38" d="M2053.99 157.773L2054.99 159.503C1987.81 200.413 1838.28 230.503 1809.99 204.893C1788.65 185.573 1715.14 201.073 1691.51 221.983C1644.84 263.293 1535.25 402.983 1560.51 460.083C1578.51 500.823 1509.42 586.083 1497.22 611.133C1491.39 623.133 1443.51 650.743 1424.73 655.493C1384.2 665.773 1303.93 707.053 1297.43 717.283C1297.31 717.463 1296.73 717.893 1296.63 718.073C1292.9 724.453 1278.23 739.813 1280.27 747.283C1284.7 763.543 1223.14 820.193 1175.69 852.433C1159.14 863.683 1104.07 887.773 1088.45 881.653C1083.4 879.653 1064.55 884.283 1059.45 880.503C1040.77 866.773 957.97 878.283 939.85 852.773C899.76 796.453 695.3 818.953 619.53 851.933C588.93 865.253 526.31 903.003 526.17 914.103C525.99 928.103 501.85 965.003 524.62 975.613C545.97 985.563 523.62 1018.06 524.25 1029.68C524.58 1035.68 500.38 1052.13 490.04 1058.42C448.77 1083.55 328.45 1110.91 299.34 1093.2C274.89 1078.34 190.71 1097.47 166.34 1111.81C136.51 1129.29 57.7101 1225.77 56.8501 1226.24C56.5996 1225.45 56.4747 1224.63 56.4801 1223.8C58.0201 1214.86 136.66 1126.8 164.18 1110.65C188.98 1096.08 274.06 1076.65 298.71 1091.65C327.64 1109.24 447.12 1082.1 487.99 1057.22C498.06 1051.08 521.52 1035.22 521.21 1029.5C520.59 1018.34 542.53 986.273 521.39 976.423C498.39 965.703 523.04 928.343 523.23 913.823C523.37 902.393 586.87 864.013 617.78 850.563C694.11 817.343 899.78 794.563 940 851.133C958.14 876.603 1040.77 865.073 1059.32 878.773C1064.43 882.533 1083.21 877.933 1088.24 879.883C1103.6 885.883 1157.75 862.113 1174.01 851.063C1221.01 819.123 1281.94 763.153 1277.57 747.123C1275.49 739.493 1290.57 723.713 1294.5 717.073C1294.61 716.873 1295.25 716.403 1295.37 716.203C1302.06 705.683 1382.37 664.263 1423.58 653.833C1442.12 649.143 1489.32 621.923 1495.07 610.153C1507.07 585.423 1575.88 500.553 1557.93 459.973C1532.58 402.673 1643 262.163 1690.09 220.483C1714.23 199.113 1789.73 184.103 1810.5 202.903C1838.63 228.393 1987.3 198.383 2053.99 157.773Z" fill="#2746CF"/>
</g>
<g opacity="0.43">
<path opacity="0.43" d="M2051.41 153.773L2052.41 155.513C1976.85 201.543 1831.68 222.913 1799.85 194.063C1775.85 172.323 1704.59 183.553 1678 207.063C1625.46 253.553 1530.08 395.583 1558.48 459.773C1578.76 505.613 1518.39 592.083 1504.67 620.253C1498.11 633.733 1451.5 660.883 1430.38 666.253C1384.85 677.773 1306.5 717.773 1299.18 729.243C1299.05 729.443 1298.5 729.883 1298.38 730.083C1294.19 737.263 1281 752.743 1283.29 761.143C1288.29 779.433 1232.56 835.813 1179.18 872.083C1160.57 884.773 1106.61 907.493 1089.03 900.623C1083.35 898.403 1064.94 902.063 1059.17 897.803C1038.17 882.303 958.29 888.113 937.87 859.413C892.77 796.053 694.87 803.933 609.62 841.033C575.2 856.033 514.38 893.263 514.21 905.753C514.01 921.533 496.48 957.753 522.1 969.753C546.1 980.943 529.55 1012.84 530.27 1025.91C530.65 1032.64 507.33 1049.05 495.7 1056.13C449.27 1084.4 331.54 1105.6 298.79 1085.68C271.28 1068.96 188.91 1083.78 161.46 1099.91C127.98 1119.58 53.46 1220.44 52.46 1220.98C52.2314 1220.16 52.1336 1219.31 52.17 1218.46C53.9 1208.46 128.48 1116.91 159.44 1098.72C187.34 1082.32 270.58 1067.27 298.3 1084.13C330.85 1103.92 447.76 1082.9 493.74 1054.9C505.07 1048 527.68 1032.16 527.33 1025.77C526.63 1013.21 542.85 981.773 519.07 970.653C493.21 958.603 511.15 921.873 511.36 905.533C511.53 892.683 573.19 854.813 607.96 839.683C693.85 802.273 892.85 794.193 938.18 857.833C958.56 886.463 1038.29 880.673 1059.18 896.093C1064.93 900.333 1083.28 896.663 1088.94 898.853C1106.22 905.543 1159.27 883.133 1177.57 870.703C1230.44 834.773 1285.57 779.073 1280.67 761.043C1278.33 752.463 1291.91 736.563 1296.3 729.093C1296.43 728.873 1297.04 728.393 1297.18 728.173C1304.71 716.333 1383.01 676.283 1429.35 664.563C1450.21 659.283 1496.16 632.563 1502.62 619.293C1516.15 591.483 1576.21 505.393 1556.01 459.773C1527.49 395.273 1623.61 252.463 1676.6 205.573C1703.75 181.573 1777.06 170.953 1800.43 192.113C1832.08 220.773 1976.38 199.473 2051.41 153.773Z" fill="#2746CF"/>
</g>
<g opacity="0.48">
<path opacity="0.48" d="M2048.85 149.773L2049.85 151.503C1965.85 202.633 1825.11 215.233 1789.71 183.173C1763.04 159.023 1694.03 165.973 1664.49 192.123C1606.13 243.773 1524.95 388.143 1556.51 459.473C1579.04 510.403 1527.43 598.093 1512.18 629.393C1504.9 644.393 1459.55 671.033 1436.08 676.973C1385.5 689.773 1309.08 728.433 1300.94 741.213C1300.8 741.433 1300.26 741.873 1300.13 742.103C1295.47 750.103 1283.77 765.673 1286.31 775.003C1291.85 795.333 1241.98 851.443 1182.68 891.773C1161.99 905.773 1109.15 927.253 1089.62 919.613C1083.31 917.143 1065.32 919.873 1058.91 915.143C1035.59 897.923 958.61 897.973 935.91 866.093C885.81 795.683 694.45 788.943 599.74 830.163C561.49 846.813 502.47 883.553 502.29 897.433C502.07 914.963 491.15 950.593 519.61 963.853C546.3 976.293 535.52 1007.59 536.33 1022.11C536.74 1029.59 514.33 1045.94 501.33 1053.81C449.74 1085.21 334.6 1100.26 298.21 1078.13C267.66 1059.55 187.1 1070.06 156.59 1087.99C119.44 1109.77 49.1702 1215.07 48.1202 1215.67C47.9006 1214.82 47.8229 1213.94 47.8902 1213.06C49.8502 1201.89 120.34 1106.93 154.73 1086.77C185.73 1068.55 267.13 1057.85 297.94 1076.59C334.09 1098.59 448.43 1083.66 499.52 1052.59C512.12 1044.92 533.88 1029.14 533.52 1022.05C532.75 1008.05 543.25 977.203 516.82 964.883C488.09 951.493 499.34 915.403 499.57 897.253C499.75 882.963 559.57 845.603 598.21 828.793C693.62 787.263 886.05 793.883 936.37 864.583C958.98 896.323 1035.85 896.283 1059.01 913.413C1065.38 918.123 1083.32 915.413 1089.6 917.813C1108.8 925.253 1160.75 904.153 1181.09 890.333C1239.83 850.413 1289.19 794.993 1283.73 774.963C1281.13 765.423 1293.18 749.403 1298.06 741.103C1298.21 740.853 1298.79 740.373 1298.95 740.103C1307.31 726.953 1383.59 688.273 1435.08 675.243C1458.25 669.373 1502.96 643.113 1510.14 628.403C1525.14 597.493 1576.53 510.203 1554.09 459.483C1522.4 387.873 1604.23 242.773 1663.1 190.653C1693.28 163.953 1764.4 157.803 1790.36 181.303C1825.52 213.153 1965.46 200.563 2048.85 149.773Z" fill="#2746CF"/>
</g>
<g opacity="0.52">
<path opacity="0.52" d="M2046.25 145.823L2047.25 147.553C1954.85 203.773 1818.5 207.643 1779.56 172.373C1750.22 145.803 1683.46 148.483 1650.97 177.243C1586.79 234.043 1519.85 380.703 1554.54 459.173C1579.32 515.173 1536.46 604.083 1519.69 638.523C1511.69 654.993 1467.6 681.173 1441.79 687.703C1386.14 701.773 1311.63 739.113 1302.69 753.173C1302.54 753.423 1302.02 753.863 1301.88 754.113C1296.76 762.883 1286.54 778.603 1289.33 788.863C1295.42 811.223 1251.4 867.063 1186.17 911.393C1163.42 926.853 1111.69 946.943 1090.17 938.543C1083.23 935.833 1065.66 937.623 1058.61 932.423C1033 913.473 958.92 907.773 933.96 872.703C878.85 795.253 694.04 773.893 589.85 819.243C547.78 837.553 490.55 873.783 490.36 889.043C490.11 908.333 485.8 943.343 517.11 957.933C546.47 971.623 541.49 1002.31 542.37 1018.28C542.83 1026.51 521.27 1042.8 507.05 1051.45C450.31 1086 337.76 1094.89 297.73 1070.55C264.12 1050.11 185.38 1056.31 151.82 1076.03C110.91 1100.07 44.8502 1209.77 43.7402 1210.39C43.5545 1209.51 43.5039 1208.6 43.5902 1207.69C45.7002 1195.41 112.17 1096.98 150 1074.75C184.1 1054.75 263.65 1048.36 297.54 1068.97C337.31 1093.16 449.08 1084.36 505.28 1050.14C519.13 1041.71 540.05 1026 539.62 1018.14C538.77 1002.79 543.55 972.493 514.48 958.943C482.87 944.203 487.48 908.753 487.68 888.783C487.88 873.073 545.87 836.223 588.36 817.783C693.36 772.093 879.14 793.413 934.5 871.183C959.41 906.183 1033.33 911.883 1058.85 930.773C1065.85 935.953 1083.37 934.143 1090.28 936.773C1111.39 944.953 1162.28 925.163 1184.62 909.963C1249.24 866.053 1292.85 810.913 1286.85 788.873C1283.99 778.383 1294.52 762.253 1299.85 753.113C1300.01 752.843 1300.57 752.363 1300.74 752.113C1309.94 737.643 1384.2 700.333 1440.84 686.003C1466.33 679.553 1509.78 653.773 1517.68 637.583C1534.24 603.583 1576.87 515.083 1552.19 459.293C1517.32 380.473 1584.85 233.043 1649.6 175.773C1682.8 146.393 1751.73 144.673 1780.29 170.533C1818.97 205.533 1954.55 201.663 2046.25 145.823Z" fill="#2746CF"/>
</g>
<g opacity="0.57">
<path opacity="0.57" d="M2043.66 141.843L2044.66 143.573C1943.89 204.923 1811.9 200.003 1769.41 161.573C1737.41 132.573 1672.9 130.993 1637.41 162.363C1567.41 224.363 1514.64 373.303 1552.51 458.903C1579.51 520.013 1545.44 610.123 1527.14 647.693C1518.4 665.693 1475.59 691.353 1447.43 698.483C1386.79 713.773 1314.2 749.773 1304.45 765.133C1304.28 765.403 1303.79 765.853 1303.63 766.133C1298.04 775.703 1289.3 791.543 1292.35 802.733C1299 827.133 1260.83 882.733 1189.66 931.053C1164.85 947.913 1114.23 966.673 1090.79 957.503C1083.22 954.503 1066.08 955.403 1058.39 949.723C1030.39 929.063 959.24 917.603 932.01 879.343C871.88 794.863 693.63 758.873 580.01 808.343C534.11 828.343 478.69 864.043 478.48 880.693C478.21 901.693 480.48 936.123 514.66 952.043C546.66 966.973 547.5 997.043 548.47 1014.49C548.96 1023.49 528.28 1039.68 512.78 1049.13C450.85 1086.82 340.85 1089.55 297.22 1062.99C260.55 1040.7 183.62 1042.6 147.01 1064.11C102.38 1090.34 40.6201 1204.38 39.3601 1205.11C39.204 1204.2 39.177 1203.27 39.2801 1202.34C41.5901 1188.93 103.99 1087.04 145.28 1062.79C182.48 1040.93 260.18 1038.94 297.15 1061.42C340.54 1087.8 449.74 1085.12 511.05 1047.79C526.16 1038.59 546.23 1022.94 545.76 1014.42C544.83 997.683 543.89 967.963 512.18 953.183C477.7 937.113 475.56 902.293 475.84 880.513C476.06 863.363 532.21 827.033 578.56 806.853C693.06 757.023 872.28 793.033 932.66 877.853C959.85 916.043 1030.85 927.483 1058.69 948.043C1066.34 953.693 1083.42 952.813 1090.96 955.733C1113.96 964.663 1163.76 946.173 1188.16 929.593C1258.65 881.683 1296.44 826.823 1289.85 802.773C1286.73 791.333 1295.73 775.083 1301.58 765.113C1301.76 764.823 1302.29 764.333 1302.48 764.043C1312.48 748.263 1384.76 712.323 1446.54 696.683C1474.35 689.683 1516.54 664.353 1525.16 646.683C1543.23 609.593 1577.16 519.883 1550.22 459.013C1512.22 373.013 1565.42 223.323 1636.07 160.803C1672.28 128.753 1739.07 131.473 1770.18 159.673C1812.42 197.913 1943.63 202.773 2043.66 141.843Z" fill="#2746CF"/>
</g>
<g opacity="0.62">
<path opacity="0.62" d="M2041.08 137.853L2042.08 139.583C1932.92 206.043 1805.31 192.363 1759.28 150.693C1724.61 119.293 1662.36 113.423 1623.96 147.403C1548.12 214.533 1509.57 365.823 1550.59 458.553C1579.85 524.773 1554.54 616.083 1534.72 656.773C1525.25 676.243 1483.72 701.453 1453.19 709.173C1387.43 725.813 1316.77 760.493 1306.19 777.103C1306.01 777.393 1305.54 777.843 1305.37 778.103C1299.37 788.473 1292.06 804.433 1295.37 816.553C1302.57 842.983 1270.24 898.273 1193.15 950.673C1166.26 968.943 1116.76 986.363 1091.37 976.433C1083.17 973.233 1066.46 973.153 1058.13 967.003C1027.81 944.613 959.55 927.403 930.05 886.003C864.91 794.473 693.21 743.873 570.05 797.453C520.33 819.093 466.7 854.313 466.47 872.353C466.18 895.143 475.09 928.913 512.09 946.153C546.79 962.333 553.39 991.823 554.44 1010.7C554.98 1020.43 535.18 1036.58 518.38 1046.81C451.32 1087.64 343.96 1084.22 296.65 1055.45C256.93 1031.29 181.81 1028.89 142.15 1052.19C93.8498 1080.6 36.3498 1199.04 34.9798 1199.82C34.8563 1198.87 34.8563 1197.91 34.9798 1196.96C37.4798 1182.44 95.8198 1077.09 140.53 1050.81C180.83 1027.13 256.69 1029.49 296.75 1053.81C343.75 1082.39 450.38 1085.81 516.8 1045.38C533.17 1035.38 552.39 1019.83 551.88 1010.61C550.88 992.463 544.22 963.333 509.88 947.323C472.53 929.913 463.69 895.733 463.99 872.133C464.23 853.563 518.55 817.733 568.76 795.883C692.76 741.883 865.41 792.603 930.83 884.513C960.27 925.873 1028.4 943.053 1058.55 965.323C1066.84 971.453 1083.49 971.503 1091.66 974.663C1116.61 984.333 1165.28 967.153 1191.71 949.193C1268.06 897.323 1300.07 842.773 1292.97 816.703C1289.6 804.303 1297.06 787.933 1303.41 777.133C1303.59 776.813 1304.1 776.323 1304.3 776.013C1315.18 758.913 1385.4 724.353 1452.3 707.413C1482.43 699.783 1523.38 674.963 1532.71 655.843C1552.28 615.653 1577.48 524.733 1548.31 458.843C1507.11 365.723 1546.05 213.683 1622.58 145.953C1661.81 111.233 1726.37 118.383 1760.12 148.953C1805.85 190.293 1932.71 203.843 2041.08 137.853Z" fill="#2746CF"/>
</g>
<g opacity="0.67">
<path opacity="0.67" d="M2038.5 133.873L2039.5 135.593C1921.95 207.173 1798.73 184.773 1749.16 139.843C1711.82 106.033 1651.82 95.8431 1610.47 132.493C1528.78 204.773 1504.45 358.373 1548.62 458.243C1580.16 529.543 1563.62 622.073 1542.23 665.903C1532.03 686.903 1491.75 711.593 1458.9 719.903C1388.08 737.813 1319.34 771.163 1307.96 789.053C1307.76 789.373 1307.32 789.823 1307.13 790.133C1300.61 801.303 1294.84 817.383 1298.4 830.443C1306.15 858.893 1279.67 913.923 1196.65 970.343C1167.65 990.023 1119.31 1006.11 1091.97 995.423C1083.13 991.973 1066.85 990.963 1057.85 984.343C1025.2 960.233 959.85 937.263 928.08 892.633C857.95 794.063 692.85 728.843 560.22 786.543C506.67 809.853 454.85 844.543 454.6 863.983C454.28 888.533 469.81 921.683 509.6 940.253C546.97 957.673 559.37 986.563 560.49 1006.89C561.07 1017.37 542.15 1033.46 524.06 1044.48C451.84 1088.48 347.06 1078.87 296.13 1047.89C253.35 1021.89 180.04 1015.16 137.33 1040.26C85.2602 1070.86 32.0302 1193.7 30.5502 1194.54C30.4615 1193.56 30.485 1192.57 30.6202 1191.59C33.3202 1175.95 87.6202 1067.14 135.75 1038.84C179.15 1013.34 253.17 1020.05 296.3 1046.28C346.92 1077.06 450.98 1086.6 522.5 1043.05C540.13 1032.31 558.5 1016.79 557.96 1006.86C556.88 987.323 544.5 958.783 507.5 941.533C467.27 922.783 451.74 889.243 452.07 863.833C452.33 843.833 504.81 808.513 558.88 784.973C692.46 726.833 858.47 792.243 928.88 891.223C960.58 935.773 1025.81 958.683 1058.28 982.673C1067.21 989.263 1083.44 990.253 1092.28 993.673C1119.15 1004.09 1166.72 988.223 1195.19 968.873C1277.43 912.983 1303.66 858.683 1296.01 830.633C1292.38 817.283 1298.32 800.793 1305.15 789.163C1305.35 788.823 1305.83 788.333 1306.05 787.993C1317.76 769.573 1385.96 736.383 1458.05 718.143C1490.5 709.933 1530.19 685.593 1540.24 664.993C1561.35 621.703 1577.85 529.563 1546.42 458.553C1502.06 358.273 1526.7 203.923 1609.11 130.983C1651.36 93.5931 1713.73 105.183 1750.11 138.093C1799.31 182.673 1921.79 204.933 2038.5 133.873Z" fill="#2746CF"/>
</g>
<g opacity="0.71">
<path opacity="0.71" d="M2035.91 129.883L2036.91 131.613C1910.91 208.303 1792.11 177.093 1739.01 129.003C1699.01 92.7731 1641.25 78.3531 1596.94 117.573C1509.45 195.023 1499.32 350.933 1546.65 457.933C1580.45 534.323 1572.65 628.073 1549.74 675.033C1538.85 697.493 1499.85 721.773 1464.6 730.643C1388.72 749.843 1321.9 781.863 1309.71 801.033C1309.5 801.363 1309.08 801.823 1308.88 802.163C1301.88 814.163 1297.61 830.323 1301.42 844.313C1309.73 874.803 1289.1 929.553 1200.14 990.003C1169.14 1011.09 1121.85 1025.85 1092.55 1014.39C1083.09 1010.69 1067.23 1008.74 1057.62 1001.64C1022.64 975.773 960.19 947.093 926.15 899.273C850.99 793.663 692.4 713.823 550.34 775.643C492.97 800.643 442.94 834.823 442.68 855.643C442.34 881.943 464.47 914.473 507.16 934.373C547.16 953.033 565.39 981.323 566.6 1003.1C567.22 1014.33 549.18 1030.36 529.79 1042.16C452.42 1089.27 350.24 1073.54 295.66 1040.35C249.82 1012.47 178.33 1001.46 132.57 1028.35C76.77 1061.13 27.8001 1188.35 26.2301 1189.26C26.1681 1188.26 26.2151 1187.26 26.3701 1186.26C29.2601 1169.51 79.4701 1057.26 131.06 1026.92C177.56 999.593 249.74 1010.65 295.95 1038.75C350.19 1071.75 451.68 1087.38 528.31 1040.75C547.2 1029.25 564.73 1013.8 564.14 1003.15C562.98 982.223 544.88 954.263 505.24 935.783C462.14 915.703 439.92 882.783 440.24 855.563C440.52 834.133 491.16 799.323 549.1 774.103C692.22 711.813 851.63 791.923 927.1 897.973C961.1 945.703 1023.39 974.363 1058.18 1000.05C1067.75 1007.12 1083.55 1009.05 1092.97 1012.68C1121.76 1023.84 1168.23 1009.28 1198.73 988.553C1286.85 928.673 1307.29 874.643 1299.1 844.553C1295.21 830.253 1299.62 813.643 1306.94 801.183C1307.15 800.823 1307.62 800.323 1307.85 799.963C1320.39 780.233 1386.57 748.413 1463.85 728.863C1498.61 720.063 1537.06 696.213 1547.85 674.143C1570.42 627.773 1578.2 534.433 1544.54 458.353C1496.97 350.873 1507.31 194.213 1595.61 116.073C1640.88 76.0031 1701.07 92.0231 1740.01 127.283C1792.76 175.053 1910.85 206.023 2035.91 129.883Z" fill="#2746CF"/>
</g>
<g opacity="0.76">
<path opacity="0.76" d="M2033.33 125.903L2034.33 127.623C1899.98 209.423 1785.52 169.453 1728.88 118.163C1686.2 79.5131 1630.7 60.8231 1583.44 102.653C1490.09 185.263 1494.17 343.493 1544.66 457.653C1580.71 539.143 1581.66 634.103 1557.23 684.193C1545.58 708.143 1507.83 731.903 1470.29 741.403C1389.35 761.883 1324.45 792.573 1311.45 813.023C1311.22 813.383 1310.82 813.843 1310.61 814.203C1303.16 826.963 1300.35 843.283 1304.42 858.203C1313.28 890.723 1298.5 945.203 1203.61 1009.69C1170.52 1032.17 1124.37 1045.6 1093.12 1033.38C1083.02 1029.38 1067.59 1026.55 1057.34 1018.98C1020.03 991.423 960.49 956.983 924.18 905.983C844.03 793.273 691.99 698.773 540.46 764.773C479.26 791.403 431.04 825.103 430.75 847.303C430.39 875.303 459.14 907.303 504.67 928.483C547.38 948.393 571.36 976.083 572.67 999.323C573.34 1011.32 556.17 1027.26 535.5 1039.85C452.96 1090.1 353.38 1068.21 295.16 1032.85C246.26 1003.12 176.59 987.853 127.77 1016.48C68.26 1051.48 23.55 1183.08 21.87 1184.04C21.844 1183 21.9143 1181.95 22.08 1180.92C25.16 1163.05 71.32 1047.31 126.35 1014.98C175.95 985.833 246.28 1001.24 295.58 1031.21C353.43 1066.39 452.34 1088.21 534.09 1038.39C554.23 1026.12 570.92 1010.73 570.29 999.393C569.06 977.063 545.24 949.703 502.95 929.993C456.95 908.563 428.06 876.293 428.43 847.253C428.72 824.393 477.53 790.093 539.33 763.193C691.99 696.743 844.79 791.553 925.33 904.673C961.57 955.583 1020.99 989.983 1058.1 1017.39C1068.31 1024.93 1083.68 1027.77 1093.73 1031.67C1124.44 1043.57 1169.81 1030.31 1202.35 1008.2C1296.35 944.333 1311 890.583 1302.27 858.533C1298.11 843.273 1300.99 826.533 1308.8 813.253C1309.03 812.863 1309.47 812.363 1309.71 811.983C1323.09 790.933 1387.25 760.483 1469.63 739.633C1506.71 730.253 1543.91 706.873 1555.39 683.333C1579.47 633.883 1578.54 539.333 1542.64 458.173C1491.85 343.463 1487.93 184.513 1582.12 101.153C1630.4 58.4231 1688.4 78.8731 1729.94 116.483C1786.21 167.433 1899.95 207.113 2033.33 125.903Z" fill="#2746CF"/>
</g>
<g opacity="0.81">
<path opacity="0.81" d="M2030.75 121.913L2031.75 123.633C1889 210.553 1778.93 161.813 1718.75 107.313C1673.4 66.2531 1620.16 43.3131 1569.94 87.7331C1470.75 175.513 1489.05 336.053 1542.69 457.313C1580.99 543.893 1590.69 640.063 1564.69 693.313C1552.31 718.773 1515.83 742.043 1475.94 752.143C1389.94 773.903 1326.94 803.263 1313.15 824.993C1312.91 825.373 1312.54 825.833 1312.31 826.213C1304.4 839.773 1303.07 856.213 1307.39 872.063C1316.81 906.623 1307.87 960.833 1207.06 1029.34C1171.89 1053.23 1126.86 1065.34 1093.66 1052.34C1082.93 1048.15 1067.93 1044.34 1057.03 1036.34C1017.46 1006.98 960.85 966.773 922.25 912.563C837.06 792.873 691.58 683.773 530.58 753.853C465.58 782.153 419.13 815.343 418.83 838.923C418.45 868.733 453.83 900.023 502.19 922.573C547.56 943.723 577.34 970.813 578.71 995.503C579.41 1008.22 563.13 1024.13 541.16 1037.5C453.47 1090.9 356.48 1062.85 294.62 1025.23C242.67 993.643 174.8 974.013 122.94 1004.49C59.6998 1041.64 19.2597 1177.67 17.4697 1178.68C17.4906 1177.61 17.5875 1176.55 17.7597 1175.49C21.0297 1156.49 63.1297 1037.3 121.6 1002.94C174.3 971.943 242.78 991.733 295.16 1023.58C356.63 1060.96 452.97 1088.84 539.83 1035.95C561.23 1022.95 577.07 1007.59 576.4 995.533C575.09 971.803 545.55 945.023 500.62 924.083C451.78 901.313 416.16 869.683 416.56 838.823C416.85 814.533 463.85 780.773 529.5 752.163C691.7 681.573 837.9 791.063 923.44 911.263C961.94 965.353 1018.44 1005.49 1057.89 1034.61C1068.74 1042.61 1083.68 1046.4 1094.36 1050.54C1126.99 1063.18 1171.27 1051.23 1205.83 1027.74C1305.7 959.873 1314.58 906.413 1305.3 872.353C1300.88 856.143 1302.24 839.303 1310.53 825.173C1310.77 824.763 1311.19 824.263 1311.45 823.843C1325.67 801.493 1387.8 772.413 1475.34 750.263C1514.73 740.263 1550.67 717.393 1562.88 692.383C1588.46 639.833 1578.85 544.073 1540.67 457.843C1486.79 336.063 1468.54 174.843 1568.62 86.2331C1619.92 40.8331 1675.74 65.7731 1719.85 105.673C1779.65 159.773 1889.03 208.203 2030.75 121.913Z" fill="#2746CF"/>
</g>
<g opacity="0.86">
<path opacity="0.86" d="M2028.17 117.933L2029.17 119.653C1878.02 211.653 1772.33 154.183 1708.6 96.4731C1660.6 52.9931 1609.6 25.7531 1556.43 72.8131C1451.43 165.763 1483.91 328.613 1540.71 457.003C1581.26 548.683 1599.71 646.063 1572.24 702.413C1559.13 729.363 1523.92 752.153 1481.68 762.843C1390.63 785.843 1329.58 813.923 1314.95 836.923C1314.69 837.333 1314.34 837.793 1314.1 838.193C1305.72 852.543 1305.88 869.103 1310.46 885.893C1320.46 922.483 1317.34 976.423 1210.59 1048.96C1173.36 1074.26 1129.44 1085.02 1094.28 1071.28C1082.93 1066.84 1068.35 1062.08 1056.81 1053.56C1014.81 1022.56 961.11 976.563 920.27 919.203C830.1 792.473 691.17 668.773 520.7 742.953C451.85 772.953 407.23 805.603 406.91 830.573C406.5 862.133 448.47 892.803 499.7 916.683C547.7 939.073 583.31 965.563 584.76 991.683C585.51 1005.15 570.1 1020.99 546.84 1035.16C453.99 1091.69 359.6 1057.49 294.1 1017.66C239.1 984.213 173.04 960.273 118.1 992.543C51.1501 1031.88 14.9701 1172.31 13.1001 1173.38C13.157 1172.28 13.2805 1171.19 13.4701 1170.1C16.9301 1149.99 54.9601 1027.33 116.87 990.953C172.67 958.163 239.32 982.273 294.77 1015.95C359.86 1055.53 453.63 1089.52 545.59 1033.53C568.26 1019.73 583.25 1004.46 582.54 991.693C581.15 966.573 545.89 940.383 498.32 918.203C446.6 894.093 404.32 863.103 404.71 830.433C405.04 804.713 450.17 771.433 519.71 741.173C691.46 666.423 831.04 790.613 921.62 917.873C962.38 975.153 1016 1021.03 1057.75 1051.87C1069.24 1060.35 1083.75 1065.06 1095.06 1069.44C1129.61 1082.83 1172.79 1072.18 1209.39 1047.31C1315.13 975.453 1318.22 922.263 1308.39 886.203C1303.71 869.043 1303.54 852.083 1312.32 837.133C1312.58 836.693 1312.97 836.183 1313.25 835.743C1328.3 812.073 1388.42 784.363 1481.1 760.913C1522.81 750.353 1557.5 727.913 1570.42 701.453C1597.51 645.823 1579.15 548.843 1538.76 457.543C1481.76 328.603 1449.17 165.033 1555.13 71.2531C1609.45 23.1831 1663.13 52.5031 1709.81 94.8131C1773.1 152.193 1878.11 209.293 2028.17 117.933Z" fill="#2746CF"/>
</g>
<g opacity="0.9">
<path opacity="0.9" d="M2025.58 113.943L2026.58 115.663C1867.03 212.803 1765.73 146.543 1698.46 85.6631C1647.85 39.7731 1599.08 8.2231 1542.96 57.9031C1432.1 156.003 1478.85 321.163 1538.77 456.703C1581.57 553.463 1608.77 652.063 1579.77 711.543C1565.93 739.993 1531.98 762.303 1487.4 773.543C1391.28 797.863 1332.16 824.543 1316.71 848.853C1316.44 849.273 1316.11 849.743 1315.86 850.173C1307.02 865.313 1308.66 881.993 1313.49 899.713C1324.01 938.343 1326.77 992.003 1214.09 1068.57C1174.85 1095.32 1132.01 1104.77 1094.9 1090.24C1082.9 1085.55 1068.76 1079.86 1056.59 1070.87C1012.28 1038.15 961.46 986.423 918.35 925.873C823.14 792.073 690.76 653.773 510.85 732.053C438.18 763.683 395.35 795.863 395.01 822.213C394.59 855.533 443.16 885.583 497.24 910.783C547.95 934.423 589.31 960.303 590.84 987.903C591.63 1002.12 577.11 1017.9 552.56 1032.9C454.56 1092.58 362.74 1052.22 293.56 1010.18C235.5 974.873 171.26 946.633 113.3 980.693C42.62 1022.21 10.7 1167.03 8.70996 1168.17C8.70996 1168.05 8.80001 1166.77 9.14001 1164.8C12.8 1143.58 46.77 1017.45 112.14 979.053C171.04 944.443 235.84 972.903 294.38 1008.5C363.08 1050.27 454.28 1090.38 551.38 1031.28C575.3 1016.71 589.45 1001.51 588.7 988.023C587.23 961.513 546.26 935.903 496.04 912.493C441.45 887.053 392.44 856.693 392.89 822.203C393.23 795.063 436.53 762.293 509.89 730.343C691.18 651.443 824.16 790.343 919.77 924.663C962.77 985.123 1013.52 1036.75 1057.59 1069.29C1069.71 1078.29 1083.8 1083.88 1095.73 1088.51C1132.2 1102.64 1174.28 1093.31 1212.91 1067.05C1324.52 991.153 1321.85 938.243 1311.46 900.183C1306.52 882.063 1304.83 864.983 1314.09 849.183C1314.37 848.713 1314.73 848.183 1315.02 847.743C1330.91 822.743 1389.02 796.423 1486.84 771.663C1530.84 760.523 1564.3 738.593 1577.94 710.663C1606.54 651.923 1579.46 553.773 1536.85 457.363C1476.64 321.263 1429.85 155.363 1541.65 56.3631C1598.98 5.61309 1650.43 39.3631 1699.75 84.0331C1766.55 144.573 1867.19 210.383 2025.58 113.943Z" fill="#2746CF"/>
</g>
<g opacity="0.95">
<path opacity="0.95" d="M2023 109.963L2024 111.673C1856 213.923 1759.14 138.903 1688.33 74.7832C1634.99 26.4832 1588.49 -9.30687 1529.42 42.9831C1412.77 146.253 1473.69 313.773 1536.85 456.393C1581.9 558.253 1617.85 658.053 1587.35 720.663C1572.78 750.613 1540.11 772.443 1493.17 784.313C1392 809.913 1334.79 835.313 1318.54 860.853C1318.25 861.303 1317.95 861.773 1317.68 862.223C1308.37 878.163 1311.49 894.963 1316.58 913.623C1327.65 954.273 1336.26 1007.62 1217.65 1088.27C1176.29 1116.38 1134.65 1124.48 1095.54 1109.2C1082.92 1104.27 1069.19 1097.64 1056.38 1088.2C1009.69 1053.77 961.78 996.253 916.39 932.493C816.18 791.683 690.35 638.773 500.94 721.153C424.44 754.453 383.42 786.153 383.06 813.863C382.61 848.933 437.8 878.363 494.72 904.863C548.1 929.773 595.26 955.053 596.85 984.103C597.68 999.103 584.04 1014.79 558.19 1030.53C455.02 1093.35 365.81 1046.83 293.03 1002.53C231.92 965.363 169.49 932.813 108.47 968.663C34.0798 1012.37 6.41982 1161.59 4.31982 1162.78C4.31982 1162.66 4.46983 1161.4 4.82983 1159.33C8.66983 1136.99 38.5899 1007.4 107.38 966.983C169.38 930.553 232.38 963.363 293.95 1000.83C366.26 1044.83 454.95 1091.02 557.08 1028.83C582.26 1013.5 595.56 998.363 594.77 984.173C593.23 956.253 546.53 931.233 493.67 906.603C436.21 879.813 380.51 850.093 380.97 813.793C381.34 785.213 422.8 752.953 500.05 719.333C690.88 636.273 817.25 789.863 917.9 931.263C963.19 994.903 1011.01 1052.26 1057.4 1086.53C1070.15 1095.95 1083.82 1102.53 1096.4 1107.39C1134.79 1122.27 1175.77 1114.24 1216.4 1086.61C1333.89 1006.76 1325.4 954.133 1314.5 914.063C1309.3 894.993 1306.08 877.793 1315.83 861.183C1316.12 860.693 1316.46 860.183 1316.77 859.693C1333.5 833.393 1389.57 808.423 1492.55 782.363C1538.89 770.633 1571.08 749.183 1585.44 719.753C1615.54 657.933 1579.75 558.543 1534.87 457.103C1471.53 313.863 1410.39 145.673 1528.13 41.4831C1588.48 -11.9369 1637.74 26.2531 1689.66 73.2631C1759.99 136.953 1856.27 211.483 2023 109.963Z" fill="#2746CF"/>
</g>
<path opacity="0.3" d="M2021.46 107.683C1845.12 215.053 1752.59 131.273 1678.24 63.9431C1622.24 13.2231 1577.99 -26.8369 1515.96 28.0631C1393.43 136.493 1468.56 306.283 1534.85 456.083C1582.17 563.083 1626.85 664.083 1594.85 729.793C1579.55 761.243 1548.15 782.583 1498.85 795.053C1392.6 821.923 1337.31 845.983 1320.25 872.773C1319.95 873.253 1319.66 873.723 1319.38 874.193C1309.61 890.933 1314.21 907.853 1319.55 927.443C1331.18 970.133 1345.64 1023.25 1221.1 1107.88C1163.63 1146.93 1111.19 1146.16 1056.1 1105.44C1007.1 1069.28 962.1 1006.04 914.47 939.093C809.24 791.243 689.97 623.663 491.09 710.223C410.77 745.173 371.54 776.333 371.17 805.473C370.69 842.293 432.49 871.103 492.26 898.963C548.32 925.093 601.26 949.763 602.95 980.273C603.82 995.983 591.06 1011.64 563.95 1028.16C455.62 1094.16 369.01 1041.45 292.59 994.983C228.42 955.983 167.81 919.103 103.74 956.753C25.63 1002.65 2.23 1156.26 2 1157.8L0 1157.51C0.23 1155.95 23.78 1001.4 102.7 955.023C167.76 916.773 228.85 953.973 293.57 993.323C369.5 1039.49 455.57 1091.82 562.85 1026.5C589.3 1010.4 601.75 995.323 600.92 980.423C599.3 951.113 546.92 926.683 491.38 900.813C431.04 872.683 368.65 843.603 369.14 805.483C369.52 775.483 409.14 743.733 490.26 708.423C690.63 621.213 810.4 789.503 916.07 937.973C963.63 1004.77 1008.55 1067.9 1057.26 1103.87C1111.6 1144.01 1163.31 1144.77 1219.97 1106.27C1343.34 1022.43 1329.08 970.073 1317.62 928.003C1312.16 908.003 1307.45 890.693 1317.62 873.223C1317.92 872.713 1318.23 872.223 1318.56 871.683C1336.12 844.063 1390.17 820.473 1498.3 793.113C1546.96 780.793 1577.9 759.823 1592.97 728.923C1624.58 664.013 1580.08 563.403 1532.97 456.923C1466.43 306.493 1390.97 136.003 1514.61 26.5931C1577.98 -29.4969 1625.05 13.1331 1679.61 62.4931C1753.46 129.373 1845.37 212.603 2020.44 106.013L2021.46 107.683Z" fill="#2746CF"/>
</g>
</svg>
