<svg width="1829" height="980" viewBox="0 0 1829 980" fill="none" xmlns="http://www.w3.org/2000/svg">
<g clip-path="url(#clip0)">
<g opacity="0.3">
<g opacity="0.05">
<path opacity="0.05" d="M3.2402 0.02005C11.1802 3.69005 157.72 83.53 156.73 87.44C155.96 90.44 229.89 130.59 233.36 131.59C240.19 133.59 390.36 204.39 393.46 200.83C395.46 198.56 476.81 236.74 479.46 236.4C481.14 236.19 540.03 265.65 542.14 266.91C548.2 270.54 711.48 360.45 709.51 366.28C707.54 372.11 859.51 455.59 865.8 458.17C867.3 458.79 914.11 481.91 915.72 481.55C916.98 481.27 960.05 501.88 961.46 500.99C964.29 499.21 1074.73 550.99 1077.46 548.21C1082.03 543.64 1254.69 624.14 1259.64 623.83C1261.73 623.7 1325.29 655.59 1327.24 657.02C1330.42 659.35 1415.71 704.08 1415.79 706.4C1415.91 710.05 1524.5 770.12 1521.48 772.58C1519.21 774.44 1579.03 807.38 1579.26 808.72C1579.36 809.34 1603.55 821.87 1604.6 822.35C1606.25 823.12 1646.39 843.04 1647.37 842.7C1648.89 842.18 1696.68 864.4 1697.19 862.7C1697.63 861.19 1736.33 879.18 1737.43 878.81C1738.02 878.61 1760.94 889.98 1761.85 890.42C1764.85 891.88 1827.69 927.17 1827.54 928.01C1827.7 928.122 1827.84 928.266 1827.95 928.432C1828.06 928.599 1828.13 928.785 1828.17 928.981C1828.2 929.176 1828.2 929.376 1828.16 929.57C1828.11 929.764 1828.03 929.948 1827.92 930.11L1827.03 929.69C1827.03 929.69 1763.83 893.1 1760.38 891.44C1759.49 891.02 1737.38 880.07 1736.87 880.26C1735.81 880.62 1697.87 862.98 1697.41 864.47C1696.9 866.19 1648.41 843.65 1646.88 844.19C1646.57 844.3 1636.22 839.28 1635.88 839.28C1635.05 839.28 1604.47 823.99 1603.32 823.46C1602.17 822.93 1577.32 810.08 1577.26 809.46C1577.03 808.08 1516.56 774.79 1518.84 772.92C1521.84 770.46 1413.73 710.65 1413.6 707.03C1413.53 704.74 1328.84 660.32 1325.68 658.03C1323.74 656.62 1260.83 625.03 1258.78 625.18C1253.87 625.49 1081.78 545.29 1077.26 549.84C1074.51 552.59 963.85 500.74 961.02 502.53C959.64 503.4 916.8 482.91 915.54 483.19C913.88 483.57 865.86 459.88 864.34 459.26C857.98 456.65 704.97 372.56 706.94 366.74C708.91 360.92 546.37 271.43 540.36 267.83C538.27 266.58 480.03 237.44 478.36 237.65C475.72 237.99 394.96 200.09 392.97 202.35C391.42 204.1 322.04 171.52 319.97 172.66C317.6 173.95 234.87 133.52 231.79 132.66C228.25 131.66 153.36 90.82 154.1 87.92C155.1 84.04 10.1002 5.01003 2.22021 1.37003L3.2402 0.02005Z" fill="#2746CF"/>
</g>
<g opacity="0.1">
<path opacity="0.1" d="M5.49023 0.0399475C21.3802 7.36995 159.29 88.3301 157.29 96.1501C155.77 102.15 225.37 142.74 232.29 144.74C245.96 148.67 391.99 212.1 398.29 204.97C402.29 200.43 481.56 234.46 486.92 233.78C490.27 233.35 548.15 261.88 552.38 264.41C564.5 271.66 717.47 363.41 713.53 375.06C709.59 386.71 852.03 471.74 864.62 476.91C867.62 478.14 913.69 500.24 916.91 499.52C919.43 498.96 961.73 517.93 964.53 516.16C970.19 512.59 1078.11 558.77 1083.62 553.27C1092.76 544.14 1261.75 615.65 1271.62 615.04C1275.79 614.78 1338.23 645.74 1342.13 648.6C1348.5 653.26 1431.19 698.13 1431.34 702.77C1431.59 710.05 1530.8 770.34 1524.76 775.27C1520.23 778.98 1575 811.96 1575.45 814.64C1575.66 815.88 1599.23 828.34 1601.33 829.31C1604.64 830.84 1644.12 849.99 1646.07 849.31C1649.07 848.25 1695.07 867.51 1696.07 864.1C1696.96 861.1 1734.16 876.69 1736.36 875.94C1737.54 875.54 1760.08 886.46 1761.91 887.34C1768.01 890.26 1827.28 927.19 1826.98 928.87C1827.29 929.14 1827.49 929.511 1827.55 929.916C1827.61 930.321 1827.52 930.734 1827.3 931.08L1826.36 930.66C1826.36 930.58 1767.36 891.66 1760.46 888.38C1758.69 887.53 1736.99 877 1735.86 877.38C1733.74 878.1 1697.25 862.82 1696.37 865.8C1695.37 869.25 1648.76 849.7 1645.64 850.8C1645.01 851.02 1634.83 846.3 1634.08 846.3C1632.43 846.3 1602.35 831.51 1600.08 830.44C1597.93 829.44 1573.69 816.62 1573.47 815.34C1573.01 812.58 1517.63 779.26 1522.2 775.53C1528.2 770.62 1429.43 710.53 1429.2 703.36C1429.04 698.76 1346.93 654.21 1340.61 649.58C1336.74 646.75 1274.94 616.1 1270.83 616.36C1261 616.97 1092.61 545.72 1083.5 554.83C1077.98 560.34 969.86 514.07 964.19 517.65C961.44 519.39 919.37 500.52 916.84 501.09C913.52 501.85 866.25 479.21 863.21 477.97C850.48 472.75 707.08 387.09 711.02 375.44C714.96 363.79 562.62 272.49 550.62 265.29C546.43 262.79 489.19 234.57 485.89 234.99C480.61 235.67 401.89 201.9 397.94 206.41C394.84 209.91 327.25 180.86 323.08 183.14C318.34 185.73 236.96 147.52 230.79 145.75C223.71 143.75 153.24 102.3 154.71 96.51C156.71 88.75 20.2602 8.58997 4.49023 1.30997L5.49023 0.0399475Z" fill="#2746CF"/>
</g>
<g opacity="0.14">
<path opacity="0.14" d="M7.74977 0.059967C31.5698 11.06 160.85 93.13 157.86 104.85C155.58 113.79 220.86 154.85 231.26 157.85C251.76 163.75 393.7 219.76 403.14 209.07C409.14 202.27 486.33 232.14 494.36 231.07C499.36 230.43 556.26 258.07 562.61 261.81C580.78 272.69 723.45 366.27 717.54 383.81C711.63 401.35 844.54 487.81 863.43 495.6C867.93 497.45 913.26 518.53 918.09 517.46C921.87 516.62 963.39 533.95 967.6 531.29C976.08 525.94 1081.47 566.54 1089.73 558.29C1103.45 544.6 1268.73 607.14 1283.62 606.21C1289.87 605.83 1351.19 635.86 1357.05 640.15C1366.59 647.15 1446.68 692.15 1446.92 699.15C1447.29 710.08 1537.12 770.59 1528.07 777.98C1521.26 783.54 1570.99 816.55 1571.67 820.58C1571.99 822.43 1594.93 834.83 1598.08 836.29C1603.08 838.58 1641.86 856.95 1644.79 855.93C1649.35 854.35 1693.46 870.65 1694.97 865.53C1696.3 861.01 1731.97 874.21 1735.32 873.08C1737.08 872.48 1759.24 882.96 1761.98 884.27C1771.14 888.66 1826.89 927.27 1826.45 929.75C1826.73 930.061 1826.9 930.451 1826.94 930.865C1826.99 931.279 1826.9 931.697 1826.7 932.06L1825.7 931.65C1825.7 931.53 1770.89 890.28 1760.55 885.33C1757.89 884.05 1736.55 873.95 1734.87 874.53C1731.69 875.61 1696.65 862.69 1695.33 867.16C1693.81 872.33 1649.09 855.78 1644.41 857.41C1643.47 857.73 1633.41 853.33 1632.32 853.33C1629.85 853.33 1600.32 839.02 1596.8 837.41C1593.57 835.92 1569.98 823.16 1569.65 821.24C1568.95 817.11 1518.65 783.76 1525.52 778.16C1534.52 770.8 1445.09 710.54 1444.73 699.71C1444.49 692.81 1364.97 648.12 1355.47 641.17C1349.67 636.92 1288.99 607.17 1282.82 607.59C1268.08 608.5 1103.34 546.21 1089.67 559.86C1081.39 568.13 975.81 527.44 967.31 532.86C963.18 535.47 921.87 518.23 918.08 519.09C913.08 520.23 866.58 498.64 862.02 496.78C842.93 488.95 709.12 401.72 715.02 384.24C720.92 366.76 578.92 273.6 560.89 262.81C554.61 259.04 498.37 231.75 493.41 232.39C485.49 233.39 408.86 203.76 402.9 210.52C398.26 215.78 332.45 190.26 326.2 193.68C319.09 197.56 239.06 161.58 229.81 158.92C219.18 155.86 153.12 113.92 155.34 105.18C158.34 93.53 30.4198 12.26 6.75977 1.32999L7.74977 0.059967Z" fill="#2746CF"/>
</g>
<g opacity="0.19">
<path opacity="0.19" d="M10 0.0799866C41.76 14.75 162.41 97.93 158.42 113.56C155.42 125.48 216.33 167.04 230.21 171.04C257.55 178.91 395.4 227.51 407.98 213.25C415.98 204.18 491.09 229.89 501.8 228.53C508.5 227.68 564.36 254.33 572.8 259.4C597.04 273.9 729.4 369.31 721.52 392.63C713.64 415.95 837 504.05 862.21 514.38C868.21 516.84 912.79 536.91 919.21 535.47C924.21 534.35 964.99 550.05 970.6 546.47C981.92 539.33 1084.77 574.36 1095.79 563.35C1114.07 545.1 1275.72 598.65 1295.53 597.42C1303.86 596.9 1364.06 626 1371.87 631.72C1384.6 641.04 1462.09 686.19 1462.4 695.47C1462.9 710.04 1543.4 770.76 1531.28 780.62C1522.21 788.03 1566.88 821.07 1567.79 826.44C1568.22 828.92 1590.54 841.25 1594.79 843.19C1601.42 846.25 1639.57 863.84 1643.47 862.49C1649.55 860.37 1691.81 873.71 1693.82 866.89C1695.61 860.89 1729.82 871.66 1734.23 870.16C1736.58 869.36 1758.37 879.39 1762.02 881.16C1774.22 887.01 1826.46 927.23 1825.87 930.59C1826.12 930.934 1826.27 931.342 1826.31 931.768C1826.34 932.194 1826.26 932.62 1826.06 933L1825.06 932.6C1825.06 932.44 1774.45 888.83 1760.66 882.23C1757.12 880.53 1736.14 870.86 1733.9 871.62C1729.66 873.06 1696.08 862.51 1694.32 868.47C1692.32 875.36 1649.44 861.81 1643.2 863.98C1641.95 864.41 1632.08 860.32 1630.58 860.32C1627.28 860.32 1598.21 846.49 1593.58 844.32C1589.27 842.32 1566.32 829.64 1565.88 827.07C1564.95 821.56 1519.76 788.19 1528.88 780.72C1540.88 770.9 1460.8 710.43 1460.31 695.98C1460 686.79 1383.05 641.98 1370.39 632.7C1362.66 627.03 1303.08 598.23 1294.87 598.7C1275.21 599.92 1114.12 546.58 1095.87 564.79C1084.87 575.79 981.8 540.71 970.45 547.87C964.95 551.34 924.4 535.74 919.35 536.87C912.71 538.38 866.93 517.87 860.86 515.37C835.4 504.93 711.2 416.13 719.08 392.83C726.96 369.53 595.18 274.62 571.14 260.23C562.76 255.23 507.52 228.85 500.92 229.69C490.36 231.03 415.79 205.52 407.84 214.54C401.65 221.54 337.63 199.54 329.29 204.12C319.81 209.3 241.14 175.55 228.81 172C214.63 167.92 152.99 125.35 155.94 113.77C159.94 98.23 40.56 15.83 9.02002 1.26004L10 0.0799866Z" fill="#2746CF"/>
</g>
<g opacity="0.24">
<path opacity="0.24" d="M12.2502 0.100006C51.9502 18.44 163.97 102.74 158.99 122.27C155.19 137.17 211.8 179.19 229.16 184.19C263.33 194.03 397.09 235.19 412.82 217.39C422.82 206.06 495.82 227.61 509.23 225.91C517.61 224.85 572.46 250.56 583.04 256.91C613.33 275.05 735.39 372.29 725.54 401.43C715.74 430.43 829.54 520.22 861.02 533.13C868.53 536.21 912.37 555.26 920.43 553.47C926.72 552.07 966.69 566.12 973.71 561.69C987.85 552.77 1088.17 582.22 1101.95 568.46C1124.8 545.64 1282.78 590.22 1307.54 588.68C1317.95 588.03 1377.03 616.2 1386.79 623.35C1402.7 635 1477.59 680.28 1477.99 691.88C1478.6 710.09 1549.69 771.04 1534.59 783.36C1523.25 792.62 1562.88 825.7 1564.02 832.36C1564.55 835.45 1586.25 847.72 1591.51 850.15C1599.78 853.98 1637.27 870.79 1642.14 869.09C1649.75 866.45 1690.14 876.83 1692.68 868.3C1694.91 860.76 1727.68 869.16 1733.14 867.3C1736.14 866.3 1757.49 875.88 1762.05 878.07C1777.31 885.37 1826.05 927.25 1825.29 931.44C1825.52 931.817 1825.65 932.244 1825.67 932.684C1825.69 933.123 1825.61 933.562 1825.42 933.96L1824.34 933.56C1824.34 933.36 1777.92 887.4 1760.68 879.15C1756.25 877.02 1735.68 867.78 1732.84 868.74C1727.54 870.54 1695.42 862.34 1693.22 869.8C1690.68 878.41 1649.71 867.8 1641.9 870.57C1640.34 871.11 1630.62 867.32 1628.75 867.32C1624.63 867.32 1596.06 853.98 1590.27 851.32C1584.89 848.83 1562.57 836.2 1562.03 832.99C1560.86 826.11 1520.77 792.7 1532.2 783.37C1547.2 771.1 1476.45 710.37 1475.84 692.37C1475.45 680.87 1401.08 635.92 1385.26 624.37C1375.6 617.29 1317.13 589.37 1306.86 590.05C1282.29 591.58 1124.86 547.19 1102.06 569.95C1088.27 583.72 987.77 554.21 973.58 563.16C966.71 567.5 926.93 553.52 920.58 554.95C912.27 556.84 867.24 537.37 859.65 534.26C827.83 521.26 713.23 430.83 723.08 401.71C732.93 372.59 611.4 275.87 581.35 257.88C570.88 251.61 516.64 226.17 508.35 227.22C495.15 228.9 422.65 207.52 412.7 218.79C404.97 227.55 342.75 209.1 332.32 214.79C320.47 221.26 243.15 189.74 227.73 185.3C210.01 180.2 152.79 137.04 156.48 122.57C161.43 103.15 50.6302 19.6301 11.2002 1.41006L12.2502 0.100006Z" fill="#2746CF"/>
</g>
<g opacity="0.29">
<path opacity="0.29" d="M14.4998 0.120026C62.1498 22.12 165.5 107.54 159.56 130.97C154.99 148.86 207.28 191.34 228.11 197.34C269.11 209.14 398.79 242.92 417.66 221.53C429.66 207.93 500.6 225.33 516.66 223.29C526.71 222.01 580.56 246.79 593.25 254.39C629.6 276.15 741.36 375.22 729.53 410.19C717.77 444.97 822.01 536.35 859.81 551.85C868.81 555.54 911.91 573.58 921.59 571.43C929.13 569.75 968.33 582.16 976.75 576.85C993.75 566.14 1091.52 590.01 1108.05 573.5C1135.47 546.12 1289.78 581.71 1319.49 579.87C1331.98 579.09 1389.94 606.33 1401.65 614.87C1420.75 628.87 1493.04 674.27 1493.51 688.19C1494.25 710.04 1555.96 771.19 1537.85 785.99C1524.24 797.1 1558.85 830.21 1560.18 838.26C1560.82 841.98 1581.9 854.19 1588.18 857.1C1598.11 861.69 1634.93 877.72 1640.78 875.69C1649.9 872.52 1688.48 879.93 1691.5 869.69C1694.18 860.63 1725.41 866.69 1732.02 864.4C1735.55 863.2 1756.57 872.33 1762.02 874.95C1780.33 883.72 1825.55 927.24 1824.65 932.27C1824.85 932.677 1824.96 933.123 1824.97 933.577C1824.99 934.031 1824.9 934.483 1824.72 934.9L1823.62 934.6C1823.68 934.35 1781.4 886.04 1760.71 876.14C1755.39 873.59 1735.15 864.78 1731.78 865.92C1725.43 868.09 1694.78 862.25 1692.13 871.19C1689.13 881.53 1649.98 873.97 1640.61 877.19C1638.73 877.84 1629.18 874.36 1626.94 874.36C1621.99 874.36 1593.94 861.5 1586.94 858.29C1580.48 855.29 1558.8 842.74 1558.15 838.89C1556.75 830.63 1521.76 797.2 1535.47 786C1553.47 771.27 1492.07 710.37 1491.33 688.7C1490.86 674.9 1419.08 629.81 1400.09 615.91C1388.49 607.41 1331.09 580.45 1318.81 581.22C1289.32 583.05 1135.55 547.61 1108.19 574.92C1091.64 591.45 993.68 567.52 976.66 578.26C968.41 583.47 929.39 571.12 921.82 572.84C911.82 575.11 867.57 556.69 858.46 552.95C820.27 537.3 715.28 445.35 727.1 410.4C738.92 375.45 627.7 276.92 591.62 255.34C579.05 247.82 525.81 223.34 515.91 224.56C500.06 226.56 429.63 209.33 417.69 222.85C408.41 233.37 347.98 218.44 335.47 225.28C321.25 233.05 245.28 203.76 226.78 198.43C205.52 192.31 152.7 148.57 157.13 131.2C163.13 107.9 60.8198 23.2501 13.5098 1.40005L14.4998 0.120026Z" fill="#2746CF"/>
</g>
<g opacity="0.33">
<path opacity="0.33" d="M16.75 0.140045C72.34 25.82 167.1 112.34 160.12 139.68C154.8 160.54 202.76 203.49 227.06 210.49C274.9 224.26 400.48 250.63 422.5 225.67C436.5 209.81 505.36 223.05 524.1 220.67C535.84 219.18 588.67 243.03 603.48 251.89C645.88 277.28 747.34 378.19 733.54 418.99C719.82 459.6 814.52 552.5 858.62 570.6C869.13 574.91 911.48 591.93 922.76 589.42C931.57 587.42 970 598.23 979.82 592.04C999.61 579.54 1094.88 597.84 1114.17 578.58C1146.17 546.58 1296.8 573.25 1331.46 571.09C1346.03 570.19 1402.87 596.5 1416.54 606.5C1438.82 622.82 1508.54 668.37 1509.05 684.61C1509.92 710.11 1562.26 771.48 1541.12 788.74C1525.24 801.74 1554.77 834.85 1556.37 844.24C1557.11 848.57 1577.57 860.72 1584.93 864.12C1596.52 869.47 1632.68 884.73 1639.5 882.35C1650.14 878.65 1686.88 883.1 1690.4 871.17C1693.52 860.6 1723.26 864.17 1730.97 861.6C1735.09 860.2 1755.73 868.88 1762.12 871.94C1783.48 882.17 1825.18 927.34 1824.12 933.2C1824.48 934.078 1824.48 935.062 1824.12 935.94L1822.95 935.55C1823.02 935.27 1784.95 884.55 1760.79 873.05C1754.59 870.05 1734.71 861.69 1730.79 863.05C1723.37 865.57 1694.18 862.05 1691.1 872.53C1687.54 884.59 1650.31 880.03 1639.38 883.82C1637.19 884.59 1627.79 881.41 1625.18 881.41C1619.4 881.41 1591.83 869.04 1583.73 865.3C1576.2 861.82 1555.16 849.3 1554.39 844.82C1552.76 835.18 1522.86 801.73 1538.86 788.67C1559.86 771.48 1507.8 710.35 1506.94 685.07C1506.4 668.98 1437.19 623.75 1415.04 607.53C1401.51 597.62 1345.26 571.53 1330.88 572.47C1296.48 574.61 1146.36 548.13 1114.45 579.99C1095.14 599.27 999.71 580.93 979.85 593.46C970.23 599.53 931.97 588.82 923.14 590.82C911.51 593.47 867.97 576.1 857.35 571.74C812.79 553.48 717.41 459.96 731.2 419.19C744.99 378.42 643.96 278.07 601.89 252.89C587.23 244.11 534.99 220.52 523.43 221.99C504.95 224.34 436.58 211.22 422.65 226.99C411.82 239.26 353.18 227.87 338.58 235.84C321.99 244.91 247.38 217.84 225.79 211.63C200.99 204.49 152.59 160.17 157.79 139.9C164.73 112.71 71.01 26.9 15.79 1.44998L16.75 0.140045Z" fill="#2746CF"/>
</g>
<g opacity="0.38">
<path opacity="0.38" d="M19.01 0.160065C82.53 29.5001 168.66 117.16 160.69 148.39C154.62 172.23 198.24 215.6 226.01 223.6C280.68 239.34 402.17 258.29 427.34 229.77C443.34 211.64 510.12 220.77 531.53 218C544.95 216.3 596.77 239.21 613.69 249.34C662.16 278.34 753.31 381.09 737.54 427.72C721.86 474.09 807.01 568.61 857.42 589.27C869.42 594.2 911.04 610.21 923.93 607.34C934 605.1 971.65 614.23 982.87 607.15C1005.5 592.87 1098.23 605.59 1120.28 583.58C1156.84 547.07 1303.8 564.7 1343.42 562.24C1360.08 561.24 1415.79 586.58 1431.42 598.02C1456.88 616.67 1523.97 662.36 1524.6 680.92C1525.6 710.05 1568.6 771.65 1544.4 791.37C1526.25 806.19 1550.73 839.37 1552.55 850.09C1553.4 855.09 1573.24 867.09 1581.65 871.01C1594.9 877.13 1630.39 891.61 1638.19 888.9C1650.35 884.67 1685.25 886.16 1689.27 872.52C1692.84 860.44 1721.08 861.66 1729.89 858.67C1734.6 857.07 1754.89 865.3 1762.16 868.8C1786.58 880.49 1824.76 927.3 1823.56 934.01C1823.87 934.932 1823.85 935.932 1823.5 936.84L1822.28 936.46C1822.37 936.14 1788.45 883.12 1760.87 869.92C1753.78 866.52 1734.27 858.57 1729.78 860.09C1721.3 862.98 1693.57 861.86 1690.05 873.79C1685.98 887.57 1650.62 886 1638.13 890.34C1635.63 891.21 1626.39 888.34 1623.4 888.34C1616.8 888.34 1589.73 876.46 1580.47 872.18C1571.86 868.18 1551.47 855.76 1550.59 850.62C1548.72 839.62 1523.92 806.12 1542.2 791.2C1566.26 771.55 1523.48 710.2 1522.51 681.32C1521.88 662.92 1455.25 617.56 1429.94 599.03C1414.47 587.7 1359.34 562.58 1342.94 563.6C1303.62 566.09 1157.11 548.6 1120.62 584.98C1098.55 606.98 1005.62 594.25 982.97 608.57C971.97 615.57 934.48 606.43 924.38 608.72C911.09 611.72 868.3 595.43 856.16 590.45C805.24 569.58 719.46 474.45 735.22 427.89C750.98 381.33 660.22 279.14 612.12 250.36C595.36 240.36 544.12 217.66 530.91 219.36C509.79 222.05 443.49 213.06 427.57 231.09C415.2 245.09 358.34 237.25 341.66 246.37C322.66 256.73 249.44 231.9 224.77 224.79C196.42 216.63 152.43 171.72 158.34 148.56C166.27 117.49 81.1 30.56 18.02 1.45999L19.01 0.160065Z" fill="#2746CF"/>
</g>
<g opacity="0.43">
<path opacity="0.43" d="M21.2598 0.179962C92.7298 33.18 170.26 121.94 161.26 157.09C154.41 183.92 193.72 227.79 224.96 236.79C286.47 254.49 403.87 266.04 432.19 233.95C450.19 213.56 514.87 218.48 538.97 215.42C554.06 213.5 604.87 235.48 623.91 246.87C678.43 279.51 759.28 384.09 741.54 436.54C723.9 488.71 799.54 584.8 856.22 608.05C869.73 613.59 910.59 628.58 925.1 625.35C936.42 622.83 973.3 630.35 985.93 622.35C1011.38 606.28 1101.58 613.43 1126.38 588.67C1167.52 547.59 1310.81 556.25 1355.38 553.48C1374.12 552.31 1428.71 576.76 1446.28 589.63C1474.93 610.63 1539.42 656.43 1540.12 677.31C1541.23 710.09 1574.82 771.9 1547.65 794.09C1527.23 810.76 1546.65 843.96 1548.72 856.09C1549.72 861.66 1568.9 873.68 1578.35 878.09C1593.25 884.98 1628.08 898.67 1636.86 895.62C1650.54 890.86 1683.59 889.39 1688.12 874.05C1692.12 860.46 1718.88 859.29 1728.79 855.92C1734.09 854.12 1753.98 861.92 1762.19 865.84C1789.65 878.99 1823 927.32 1822.97 934.99C1822.97 936.34 1823.16 937.51 1822.85 937.93L1821.59 937.56C1821.68 937.2 1791.95 881.83 1760.92 866.97C1752.92 863.15 1733.8 855.62 1728.75 857.34C1719.21 860.58 1692.94 861.83 1688.98 875.25C1684.4 890.75 1650.91 892.18 1636.86 897.06C1634.05 898.06 1624.96 895.49 1621.6 895.49C1614.18 895.49 1587.6 884.09 1577.19 879.28C1567.51 874.8 1547.74 862.42 1546.76 856.64C1544.66 844.25 1524.95 810.74 1545.52 793.95C1572.58 771.85 1539.15 710.29 1538.05 677.79C1537.35 657.09 1473.3 611.59 1444.82 590.79C1427.42 578.05 1373.39 553.85 1354.91 555C1310.68 557.75 1167.91 549.17 1126.83 590.14C1102 614.8 1011.62 607.6 986.12 623.73C973.74 631.54 937.02 624.08 925.66 626.66C910.71 630.06 868.66 614.8 855.01 609.2C797.72 585.72 721.54 489.05 739.27 436.6C756.94 384.35 676.48 280.22 622.39 247.84C603.54 236.56 553.29 214.84 538.44 216.7C514.67 219.7 450.44 214.87 432.53 235.15C418.61 250.93 363.53 246.6 344.77 256.85C323.45 268.51 251.54 245.91 223.77 237.91C191.88 228.73 152.31 183.24 158.96 157.18C167.88 122.23 91.2498 34.18 20.2798 1.42996L21.2598 0.179962Z" fill="#2746CF"/>
</g>
<g opacity="0.48">
<path opacity="0.48" d="M23.5098 0.199982C102.92 36.88 171.79 126.74 161.82 165.8C154.22 195.6 189.2 239.94 223.91 249.94C292.25 269.61 405.56 273.74 437.03 238.1C457.03 215.43 519.63 216.2 546.4 212.79C563.17 210.67 612.97 231.71 634.13 244.37C694.71 280.63 765.25 387.04 745.54 445.37C725.93 503.37 792.01 600.99 855.02 626.82C870.02 632.98 910.15 646.96 926.27 643.37C938.85 640.57 974.95 646.37 988.98 637.57C1017.26 619.72 1104.98 621.29 1132.49 593.78C1178.19 548.14 1317.82 547.78 1367.34 544.78C1388.16 543.48 1441.63 567 1461.15 581.3C1492.98 604.6 1554.87 650.57 1555.66 673.77C1556.89 710.19 1581.1 772.22 1550.91 796.87C1528.23 815.39 1542.61 848.63 1544.91 862.04C1545.97 868.23 1564.58 880.2 1575.08 885.04C1591.64 892.69 1625.81 905.61 1635.56 902.22C1650.76 896.93 1681.97 892.49 1687 875.45C1691.45 860.35 1716.72 856.78 1727.73 853.04C1733.61 851.04 1753.12 858.37 1762.24 862.74C1792.76 877.36 1822.67 927.33 1822.41 935.84C1822.41 937.29 1822.52 938.5 1822.23 938.84L1820.92 938.47C1821.02 938.07 1795.48 880.35 1761 863.84C1752.14 859.59 1733.36 852.49 1727.74 854.4C1717.15 858.01 1692.34 861.61 1687.94 876.53C1682.85 893.75 1651.23 898.18 1635.62 903.6C1632.49 904.69 1623.62 902.44 1619.83 902.44C1611.59 902.44 1585.52 891.53 1573.94 886.18C1563.18 881.18 1544.06 868.89 1542.94 862.47C1540.6 848.7 1525.99 815.17 1548.84 796.47C1578.91 771.91 1554.84 710.14 1553.59 674.02C1552.81 651.02 1491.34 605.39 1459.7 582.23C1440.37 568.07 1387.45 544.79 1366.91 546.07C1317.76 549.07 1178.6 549.49 1133.01 595.01C1105.43 622.56 1017.61 621.01 989.25 638.86C975.49 647.54 939.53 641.72 926.91 644.58C910.3 648.36 869 634.15 853.83 627.93C790.19 601.86 723.62 503.6 743.31 445.37C762.95 387.37 692.74 281.37 632.64 245.37C611.69 232.82 562.45 212 545.94 214.1C519.54 217.46 457.36 216.73 437.47 239.27C422 256.8 368.72 256 347.87 267.4C324.17 280.4 253.62 259.97 222.78 251.1C187.34 240.89 152.19 194.81 159.57 165.87C169.48 127.03 101.4 37.87 22.5698 1.45999L23.5098 0.199982Z" fill="#2746CF"/>
</g>
<g opacity="0.52">
<path opacity="0.52" d="M25.7598 0.220001C113.11 40.57 173.35 131.54 162.39 174.51C154.02 207.29 184.68 252.09 222.86 263.09C298.03 284.73 407.26 281.45 441.86 242.24C463.86 217.3 524.38 213.92 553.86 210.17C572.3 207.83 621.09 227.93 644.36 241.86C711 281.75 771.24 389.99 749.56 454.11C727.99 517.86 784.56 617.11 853.84 645.52C870.35 652.29 909.73 665.25 927.46 661.3C941.3 658.23 976.62 662.44 992.06 652.7C1023.17 633.07 1108.31 629.07 1138.62 598.8C1188.89 548.59 1324.85 539.29 1379.32 535.9C1402.22 534.48 1454.57 557.07 1476.05 572.79C1511.05 598.43 1570.35 644.53 1571.21 670.05C1572.56 710.12 1587.41 772.36 1554.21 799.48C1529.21 819.85 1538.59 853.12 1541.1 867.88C1542.26 874.69 1560.25 886.59 1571.81 891.88C1590.02 900.29 1623.52 912.43 1634.25 908.7C1650.97 902.89 1680.33 895.49 1685.87 876.7C1690.77 860.1 1714.54 854.13 1726.65 850.01C1733.12 847.81 1752.25 854.7 1762.29 859.51C1795.85 875.58 1822.29 927.2 1821.84 936.51C1821.76 938.05 1821.84 939.29 1821.6 939.66L1820.24 939.29C1820.35 938.85 1799 878.78 1761.07 860.62C1751.32 855.95 1732.9 849.28 1726.73 851.38C1715.07 855.38 1691.73 861.31 1686.89 877.71C1681.29 896.71 1651.54 904.08 1634.37 910.05C1630.93 911.25 1622.17 909.31 1618.05 909.31C1608.98 909.31 1583.42 898.88 1570.68 893C1558.85 887.53 1540.36 875.27 1539.16 868.21C1536.59 853.07 1527.07 819.5 1552.16 798.98C1585.24 771.98 1570.47 709.98 1569.16 670.25C1568.3 644.95 1509.41 599.19 1474.61 573.7C1453.34 558.13 1401.53 535.77 1378.94 537.17C1324.88 540.53 1189.37 549.86 1139.23 599.93C1108.88 630.23 1023.6 634.22 992.4 653.93C977.27 663.48 942.07 659.28 928.19 662.43C909.91 666.59 869.37 653.43 852.68 646.59C782.68 617.89 725.68 518.08 747.36 454.01C768.96 390.15 709.01 282.36 642.9 242.79C619.9 228.99 571.61 209.09 553.45 211.4C524.45 215.1 464.3 218.5 442.45 243.29C425.45 262.57 373.95 265.29 351.01 277.84C324.94 292.09 255.74 273.94 221.82 264.18C182.82 252.95 152.09 206.29 160.22 174.45C171.12 131.73 111.58 41.45 24.8398 1.39005L25.7598 0.220001Z" fill="#2746CF"/>
</g>
<g opacity="0.57">
<path opacity="0.57" d="M28.01 0.240021C123.3 44.24 174.92 136.34 162.95 183.24C153.83 219 180.16 264.24 221.81 276.24C303.81 299.85 408.95 289.15 446.71 246.38C470.71 219.18 529.15 211.63 561.27 207.55C581.39 205 629.18 224.16 654.56 239.36C727.26 282.87 777.19 392.95 753.56 462.89C730.03 532.44 777.03 633.25 852.64 664.25C870.64 671.64 909.28 683.58 928.64 679.25C943.74 675.89 978.3 678.47 995.13 667.84C1029.07 646.42 1111.68 636.84 1144.75 603.84C1199.59 549.07 1331.87 530.78 1391.3 527.09C1416.3 525.54 1467.51 547.19 1490.94 564.35C1529.13 592.35 1585.82 638.56 1586.76 666.35C1588.24 710.05 1593.76 772.52 1557.48 802.1C1530.26 824.32 1534.55 857.63 1537.28 873.72C1538.55 881.15 1555.92 892.99 1568.53 898.81C1588.4 907.99 1621.24 919.35 1632.93 915.28C1651.18 908.94 1678.7 898.58 1684.74 878.12C1690.08 860.01 1712.36 851.65 1725.57 847.12C1732.64 844.72 1751.38 851.12 1762.33 856.41C1798.95 873.94 1822.01 927.2 1821.27 937.41C1821.3 938.505 1821.2 939.599 1820.97 940.67L1819.56 940.31C1819.69 939.83 1802.51 877.4 1761.14 857.59C1750.5 852.49 1732.45 846.25 1725.72 848.59C1713 852.92 1691.12 861.25 1685.84 879.14C1679.73 899.81 1651.84 910.23 1633.12 916.74C1629.37 918.04 1620.76 916.42 1616.28 916.42C1606.38 916.42 1581.28 906.47 1567.42 900.06C1554.51 894.06 1536.66 881.9 1535.35 874.19C1532.55 857.67 1528.13 824.08 1555.55 801.69C1591.64 772.23 1586.21 710.01 1584.74 666.69C1583.81 639.1 1527.5 593.2 1489.53 565.39C1466.33 548.39 1415.63 526.97 1390.98 528.5C1331.98 532.16 1200.15 550.44 1145.45 605.07C1112.34 638.07 1029.6 647.69 995.57 669.17C979.06 679.59 944.63 677.02 929.49 680.46C909.49 685 869.75 672.9 851.49 665.46C775.1 634.15 727.74 532.76 751.38 462.87C774.94 393.2 725.25 283.59 653.13 240.42C627.99 225.42 580.75 206.42 560.94 208.92C529.25 212.92 471.21 220.48 447.34 247.53C428.77 268.53 379.08 274.83 354.05 288.53C325.62 304.07 257.77 288.15 220.76 277.53C178.24 265.28 151.91 218.04 160.76 183.3C172.66 136.69 121.66 45.3 27.04 1.59L28.01 0.240021Z" fill="#2746CF"/>
</g>
<g opacity="0.62">
<path opacity="0.62" d="M30.2701 0.26004C133.5 47.94 176.48 141.14 163.52 191.92C153.64 230.66 175.64 276.39 220.76 289.39C309.6 314.96 410.65 296.86 451.55 250.52C477.55 221.05 533.91 209.35 568.71 204.93C590.5 202.16 637.28 220.39 664.78 236.85C743.53 284 783.16 395.85 757.54 471.67C732.05 547.02 769.54 649.4 851.41 682.98C870.93 690.98 908.82 701.92 929.77 697.26C946.13 693.62 979.91 694.55 998.14 683.04C1034.91 659.84 1114.99 644.69 1150.82 608.92C1210.23 549.58 1338.82 522.32 1403.22 518.32C1430.28 516.63 1480.39 537.32 1505.77 555.95C1547.15 586.25 1601.24 632.62 1602.26 662.78C1603.86 710.13 1599.95 772.78 1560.71 804.85C1531.21 828.94 1530.45 862.27 1533.42 879.71C1534.79 887.76 1551.54 899.53 1565.2 905.84C1586.72 915.84 1618.9 926.37 1631.57 921.96C1651.34 915.09 1677.01 901.77 1683.57 879.6C1689.36 859.98 1710.14 849.22 1724.46 844.35C1732.11 841.75 1750.46 847.74 1762.33 853.42C1802.01 872.42 1821.65 927.33 1820.66 938.36C1820.66 939.49 1820.54 940.616 1820.3 941.72L1818.84 941.37C1818.98 940.85 1805.99 876.07 1761.17 854.61C1749.65 849.09 1731.96 843.28 1724.67 845.76C1710.89 850.45 1690.47 861.13 1684.74 880.52C1678.14 902.91 1652.13 916.33 1631.83 923.38C1627.77 924.79 1619.32 923.47 1614.46 923.47C1603.74 923.47 1579.17 914.01 1564.12 907.06C1550.12 900.6 1532.93 888.47 1531.51 880.12C1528.51 862.22 1529.14 828.6 1558.85 804.35C1597.94 772.43 1601.85 710 1600.26 663.05C1599.26 633.16 1545.52 587.12 1504.39 557.05C1479.25 538.64 1429.67 518.13 1402.96 519.79C1339.08 523.79 1210.87 550.98 1151.61 610.16C1115.75 645.97 1035.54 661.16 998.67 684.4C980.79 695.68 947.12 694.75 930.72 698.47C909.11 703.38 870.07 692.34 850.33 684.25C767.62 650.28 729.82 547.32 755.43 471.6C780.95 396.13 741.52 284.69 663.43 237.92C636.2 221.62 589.95 203.56 568.49 206.3C534.17 210.66 478.19 222.3 452.33 251.63C432.22 274.41 384.33 284.21 357.2 299.02C326.39 315.86 259.9 302.17 219.81 290.63C173.74 277.36 151.81 229.53 161.43 191.9C174.31 141.41 131.86 48.9 29.3501 1.54996L30.2701 0.26004Z" fill="#2746CF"/>
</g>
<g opacity="0.67">
<path opacity="0.67" d="M32.5198 0.28006C143.69 51.6001 178.04 145.94 164.09 200.6C153.44 242.32 171.09 288.51 219.71 302.5C315.39 330.05 412.34 304.5 456.39 254.63C484.39 222.9 538.66 207.04 576.14 202.27C599.62 199.27 645.38 216.59 674.99 234.27C759.81 285.04 789.13 398.78 761.54 480.38C734.09 561.52 762 665.48 850.21 701.64C871.21 710.25 908.37 720.17 930.94 715.15C948.55 711.23 981.56 710.53 1001.2 698.15C1040.8 673.15 1118.35 652.44 1156.92 613.91C1220.92 550.02 1345.85 513.77 1415.18 509.47C1444.32 507.65 1493.31 527.47 1520.64 547.47C1565.2 580.09 1616.64 626.61 1617.79 659.09C1619.52 710.09 1606.24 772.98 1563.97 807.48C1532.21 833.42 1526.4 866.78 1529.59 885.56C1531.07 894.23 1547.2 905.94 1561.91 912.74C1585.09 923.45 1616.6 933.25 1630.25 928.5C1651.54 921.11 1675.37 904.82 1682.42 880.95C1688.65 859.82 1707.94 846.66 1723.36 841.42C1731.6 838.62 1749.59 844.17 1762.36 850.28C1805.08 870.74 1821.36 927.28 1820.08 939.16C1820.04 940.327 1819.89 941.488 1819.65 942.63L1818.15 942.29C1818.29 941.73 1809.49 874.59 1761.22 851.48C1748.81 845.54 1731.49 840.15 1723.63 842.83C1708.8 847.83 1689.84 860.92 1683.63 881.83C1676.52 905.94 1652.38 922.35 1630.52 929.95C1626.14 931.47 1617.85 930.46 1612.62 930.46C1601.07 930.46 1577.01 921.46 1560.8 914C1545.74 907 1529.17 895 1527.64 886C1524.37 866.73 1530.14 833.08 1562.13 807C1604.23 772.63 1617.48 710 1615.76 659.42C1614.67 627.23 1563.53 581.05 1519.23 548.61C1492.16 528.79 1443.68 509.2 1414.93 510.98C1346.12 515.26 1221.57 551.44 1157.75 615.17C1119.13 653.74 1041.46 674.47 1001.75 699.53C982.5 711.69 949.59 712.38 931.93 716.39C908.66 721.68 870.36 711.69 849.11 702.98C760 666.45 731.85 561.92 759.43 480.37C786.91 399.1 757.74 285.83 673.6 235.46C644.27 217.9 599.03 200.77 575.91 203.72C538.91 208.42 485.04 224.21 457.19 255.77C435.53 280.3 389.41 293.64 360.19 309.59C327.01 327.71 261.87 316.26 218.69 303.83C169.15 289.51 151.62 241.1 161.99 200.6C175.87 146.23 141.99 52.6 31.5698 1.60001L32.5198 0.28006Z" fill="#2746CF"/>
</g>
<g opacity="0.71">
<path opacity="0.71" d="M34.7698 0.299957C153.88 55.3 179.61 150.74 164.65 209.3C153.25 254 166.59 300.65 218.65 315.64C321.16 345.16 414.03 312.23 461.22 258.76C491.22 224.76 543.41 204.76 583.57 199.64C608.72 196.45 653.47 212.81 685.2 231.8C776.07 286.2 795.09 401.8 765.53 489.2C736.12 576.14 754.53 681.67 849 720.41C871.52 729.64 907.92 738.55 932.1 733.17C950.97 728.97 983.2 726.63 1004.24 713.34C1046.67 686.57 1121.69 660.27 1163.02 618.99C1231.58 550.53 1352.85 505.31 1427.13 500.69C1458.35 498.75 1506.22 517.62 1535.51 539.06C1583.25 574.06 1632.14 620.67 1633.31 655.47C1635.16 710.1 1612.51 773.22 1567.22 810.19C1533.22 837.98 1522.34 871.38 1525.76 891.5C1527.34 900.79 1542.85 912.44 1558.61 919.72C1583.45 931.19 1614.3 940.21 1628.92 935.13C1651.73 927.2 1673.72 907.95 1681.26 882.38C1687.95 859.74 1705.74 844.19 1722.26 838.57C1731.09 835.57 1748.7 840.67 1762.38 847.22C1808.16 869.14 1821 927.36 1819.49 940.05C1819.41 941.25 1819.25 942.443 1819 943.62L1817.45 943.28C1817.6 942.68 1812.99 873.19 1761.27 848.43C1747.98 842.06 1731.02 837.11 1722.6 839.97C1706.71 845.38 1689.21 860.79 1682.6 883.15C1674.98 908.98 1652.71 928.4 1629.29 936.54C1624.6 938.17 1616.47 937.46 1610.86 937.46C1598.49 937.46 1574.93 928.98 1557.57 920.96C1541.43 913.5 1525.49 901.49 1523.86 891.86C1520.35 871.21 1531.22 837.54 1565.49 809.55C1610.6 772.72 1633.18 709.86 1631.35 655.68C1630.18 621.19 1581.61 574.88 1534.15 540.13C1505.15 518.89 1457.78 500.22 1426.97 502.13C1353.25 506.71 1232.35 551.84 1163.97 620.13C1122.59 661.45 1047.46 687.77 1004.92 714.62C984.29 727.62 952.15 729.96 933.22 734.26C908.29 739.93 870.74 730.99 847.97 721.66C752.5 682.52 733.97 576.42 763.49 489.05C792.94 401.96 774.03 286.87 683.88 232.9C652.46 214.09 608.21 197.9 583.45 201.04C543.84 206.04 491.99 226.04 462.15 259.81C438.95 286.1 394.62 302.96 363.34 320.05C327.79 339.47 264.01 330.25 217.75 316.93C164.62 301.66 151.52 252.67 162.62 209.25C177.48 150.99 152.12 56.25 33.8398 1.59L34.7698 0.299957Z" fill="#2746CF"/>
</g>
<g opacity="0.76">
<path opacity="0.76" d="M37.02 0.319977C164.08 59.01 181.17 155.54 165.22 218.04C153.05 265.73 162.07 312.84 217.61 328.83C326.96 360.32 415.73 319.98 466.07 262.94C498.07 226.68 548.18 202.5 591.01 197.06C617.84 193.65 661.58 209.06 695.43 229.34C792.36 287.34 801.07 404.76 769.53 498.02C738.17 590.76 747 697.86 847.81 739.19C871.81 749.03 907.49 756.92 933.28 751.19C953.41 746.71 984.86 742.73 1007.28 728.56C1052.53 700.01 1125.02 668.13 1169.11 624.1C1242.23 551.1 1359.83 496.87 1439.11 491.95C1472.42 489.88 1519.11 507.82 1550.4 530.69C1601.32 567.98 1647.61 614.77 1648.87 651.89C1650.87 710.16 1618.81 773.49 1570.51 812.89C1534.21 842.53 1518.3 875.96 1521.95 897.43C1523.64 907.33 1538.53 918.92 1555.34 926.68C1581.84 938.92 1612.02 947.17 1627.62 941.74C1651.94 933.29 1672.09 911.08 1680.14 883.8C1687.27 859.65 1703.58 841.7 1721.14 835.71C1730.56 832.51 1747.79 837.16 1762.39 844.15C1811.21 867.53 1820.65 927.41 1818.88 940.92C1818.78 942.157 1818.59 943.387 1818.33 944.6L1816.73 944.26C1816.89 943.62 1816.46 871.78 1761.3 845.37C1747.12 838.58 1730.53 834.05 1721.55 837.11C1704.55 842.87 1688.55 860.64 1681.55 884.5C1673.42 912.05 1653.02 934.5 1628.04 943.15C1623.04 944.89 1615.04 944.49 1609.04 944.49C1595.85 944.49 1572.79 936.49 1554.27 927.93C1537.05 919.98 1521.76 908.03 1520.01 897.76C1516.27 875.76 1532.23 842.03 1568.79 812.18C1616.91 772.9 1648.79 709.82 1646.87 652.03C1645.62 615.24 1599.63 568.79 1549.01 531.72C1518.07 509.07 1471.82 491.32 1438.95 493.36C1360.32 498.24 1243.07 552.36 1170.14 625.16C1126 669.24 1053.4 701.16 1008.02 729.78C986.02 743.67 954.64 747.63 934.45 752.21C907.86 758.21 871.06 750.37 846.77 740.42C744.93 698.67 735.98 590.99 767.5 497.8C798.92 404.91 790.26 287.98 694.1 230.43C660.58 210.36 617.34 195.07 590.92 198.43C548.68 203.8 498.92 227.86 467.06 263.92C442.31 291.92 399.77 312.36 366.41 330.59C328.49 351.3 266.06 344.31 216.71 330.1C160.01 313.78 151.34 264.19 163.16 217.88C179.02 155.74 162.16 59.88 36.04 1.56998L37.02 0.319977Z" fill="#2746CF"/>
</g>
<g opacity="0.81">
<path opacity="0.81" d="M39.2701 0.339996C174.27 62.7 182.73 160.34 165.79 226.75C152.86 277.41 157.55 324.99 216.56 341.98C332.74 375.43 417.42 327.68 470.91 267.08C504.91 228.55 552.91 200.22 598.45 194.43C626.95 190.82 669.68 205.31 705.64 226.83C808.64 288.48 807.04 407.72 773.53 506.83C740.21 605.36 739.53 714.04 846.61 757.95C872.13 768.41 907.04 775.29 934.45 769.19C955.83 764.43 986.51 758.81 1010.36 743.76C1058.45 713.41 1128.36 675.96 1175.25 629.18C1252.94 551.59 1366.87 488.41 1451.06 483.18C1486.45 480.98 1532.06 497.98 1565.26 522.29C1619.37 561.91 1663.06 608.83 1664.39 648.29C1666.49 710.21 1625.08 773.76 1573.76 815.66C1535.19 847.15 1514.24 880.66 1518.12 903.42C1519.91 913.94 1534.18 925.42 1552.04 933.72C1580.19 946.72 1609.72 954.19 1626.29 948.43C1652.13 939.43 1670.44 914.27 1678.99 885.29C1686.57 859.63 1701.38 839.29 1720.1 832.92C1730.1 829.51 1746.95 833.72 1762.46 841.14C1814.34 865.98 1820.38 927.53 1818.34 941.86C1818.21 943.134 1818 944.399 1817.73 945.65L1816.08 945.32C1816.26 944.64 1820.01 870.45 1761.4 842.38C1746.33 835.16 1730.11 831.06 1720.56 834.31C1702.56 840.44 1687.97 860.57 1680.49 885.92C1671.85 915.19 1653.32 940.6 1626.78 949.83C1621.47 951.67 1613.65 951.59 1607.29 951.59C1593.29 951.59 1570.71 944.07 1551.04 934.98C1532.74 926.53 1518.04 914.65 1516.23 903.73C1512.23 880.33 1533.32 846.6 1572.16 814.88C1623.29 773.14 1664.54 709.88 1662.46 648.45C1661.14 609.36 1617.73 562.77 1563.94 523.39C1531.07 499.32 1485.94 482.49 1451 484.66C1367.46 489.85 1253.86 552.88 1176.37 630.27C1129.47 677.1 1059.37 714.59 1011.2 745.02C987.82 759.78 957.2 765.36 935.75 770.23C907.5 776.65 871.44 769.82 845.64 759.23C737.43 714.84 738.09 605.6 771.62 506.6C805 407.91 806.62 289.15 704.43 228C668.82 206.68 626.57 192.32 598.5 195.89C553.62 201.6 505.9 229.78 472.08 268.1C445.78 297.89 405.08 321.82 369.58 341.19C329.3 363.19 268.22 358.44 215.79 343.34C155.55 326 151.29 275.83 163.85 226.62C180.69 160.62 172.42 63.62 38.3701 1.62003L39.2701 0.339996Z" fill="#2746CF"/>
</g>
<g opacity="0.86">
<path opacity="0.86" d="M41.5298 0.360016C184.46 66.36 184.3 165.14 166.35 235.46C152.67 289.1 153.03 337.14 215.51 355.13C338.51 390.55 419.12 335.39 475.75 271.22C511.75 230.42 557.69 197.94 605.88 191.81C636.06 187.98 677.78 201.53 715.88 224.32C824.88 289.6 813.03 410.67 777.55 515.59C742.27 619.91 732.01 730.16 845.43 776.65C872.43 787.73 906.62 793.59 935.63 787.14C958.28 782.14 988.19 774.83 1013.44 758.9C1064.35 726.77 1131.78 683.74 1181.38 634.21C1263.64 552.06 1373.9 479.89 1463.04 474.36C1500.51 472.02 1545.04 488.1 1580.15 513.84C1637.44 555.84 1678.53 602.84 1679.95 644.61C1682.16 710.16 1631.39 773.93 1577.04 818.3C1536.21 851.64 1510.21 885.14 1514.31 909.3C1516.21 920.44 1529.86 931.9 1548.78 940.64C1578.58 954.41 1607.44 961.1 1624.99 954.99C1652.35 945.48 1668.81 917.35 1677.87 886.66C1685.87 859.49 1699.21 836.75 1719.03 830C1729.63 826.4 1746.09 830.16 1762.52 838C1817.45 864.3 1820.1 927.51 1817.78 942.66C1817.62 943.968 1817.39 945.266 1817.1 946.55L1815.42 946.23C1815.6 945.51 1823.54 868.97 1761.48 839.23C1745.53 831.59 1729.67 827.92 1719.56 831.36C1700.49 837.84 1687.37 860.36 1679.45 887.18C1670.3 918.18 1653.64 946.58 1625.54 956.35C1619.91 958.3 1612.25 958.52 1605.54 958.52C1590.69 958.52 1568.63 951.52 1547.8 941.87C1528.43 932.87 1514.41 921.1 1512.45 909.54C1508.24 884.76 1534.39 851.01 1575.52 817.42C1629.65 773.23 1680.24 709.71 1678.04 644.7C1676.64 603.31 1635.81 556.6 1578.86 514.89C1544.05 489.41 1500.02 473.5 1463.04 475.79C1374.59 481.29 1264.64 553.28 1182.59 635.22C1132.93 684.8 1065.41 727.87 1014.36 760.09C989.6 775.72 959.76 782.93 937.04 788.09C907.13 794.89 871.82 789.09 844.5 777.92C729.93 730.92 740.19 620.13 775.65 515.28C810.99 410.79 822.85 290.2 714.65 225.45C676.94 202.87 635.65 189.45 605.98 193.22C558.45 199.22 512.8 231.58 476.98 272.15C449.14 303.7 410.18 331.15 372.64 351.67C329.98 374.97 270.26 372.44 214.74 356.45C150.96 338.09 151.11 287.34 164.41 235.23C182.25 165.32 182.52 67.23 40.5898 1.62003L41.5298 0.360016Z" fill="#2746CF"/>
</g>
<g opacity="0.9">
<path opacity="0.9" d="M43.78 0.380035C194.62 70.07 185.86 169.94 166.92 244.16C152.47 300.79 148.51 349.29 214.46 368.28C344.31 405.67 420.81 343.09 480.59 275.36C518.59 232.3 562.45 195.66 613.32 189.19C645.17 185.19 685.89 197.76 726.08 221.82C841.19 290.72 818.99 413.63 781.53 524.37C744.29 634.49 724.53 746.31 844.21 795.37C872.73 807.06 906.16 811.91 936.78 805.09C960.69 799.77 989.78 790.87 1016.47 774.09C1070.21 740.17 1135.11 691.57 1187.47 639.29C1274.3 552.57 1380.89 471.43 1474.98 465.58C1514.53 463.12 1557.91 478.27 1594.98 505.43C1655.45 549.71 1693.98 596.91 1695.43 640.99C1697.77 710.19 1637.62 774.18 1580.26 820.99C1537.16 856.18 1506.11 889.71 1510.44 915.2C1512.44 926.96 1525.44 938.36 1545.44 947.58C1576.9 962.12 1605.09 968.03 1623.61 961.58C1652.5 951.58 1667.12 920.44 1676.68 888.05C1685.15 859.37 1696.97 834.23 1717.89 827.11C1729.08 823.31 1745.17 826.62 1762.5 834.92C1820.5 862.68 1819.74 927.55 1817.15 943.53C1816.76 945.91 1816.49 947.36 1816.41 947.53L1814.68 947.22C1814.87 946.45 1827 867.56 1761.49 836.22C1744.65 828.15 1729.16 824.91 1718.49 828.54C1698.36 835.39 1686.7 860.24 1678.34 888.54C1668.68 921.26 1653.9 952.66 1624.23 962.97C1618.29 965.04 1610.79 965.57 1603.69 965.57C1588.02 965.57 1566.46 959.02 1544.47 948.87C1524.02 939.42 1510.65 927.66 1508.57 915.46C1504.13 889.31 1535.38 855.52 1578.79 820.08C1635.93 773.43 1695.85 709.69 1693.53 641.08C1692.05 597.39 1653.8 550.54 1593.69 506.52C1556.95 479.62 1514.02 464.63 1475 467.05C1381.62 472.85 1275.33 553.79 1188.72 640.28C1136.31 692.62 1071.33 741.28 1017.44 775.28C991.3 791.77 962.22 800.62 938.25 806.06C906.67 813.24 872.11 808.52 843.25 796.69C722.31 747.12 742.18 634.69 779.61 524.06C816.91 413.75 839.03 291.34 724.84 222.99C685.04 199.16 644.84 186.65 613.42 190.64C563.26 197.02 519.67 233.47 481.87 276.29C452.48 309.59 415.31 340.58 375.69 362.23C330.69 386.83 272.29 386.52 213.69 369.65C146.36 350.27 150.93 298.93 164.97 243.93C183.8 170.14 192.61 70.93 42.79 1.67996L43.78 0.380035Z" fill="#2746CF"/>
</g>
<g opacity="0.95">
<path opacity="0.95" d="M46.0301 0.400055C204.85 73.7601 187.42 174.74 167.49 252.87C152.28 312.47 143.99 361.44 213.41 381.43C350.09 420.79 422.51 350.8 485.41 279.5C525.41 234.17 567.19 193.37 620.73 186.57C654.26 182.31 693.97 193.99 736.27 219.31C857.44 291.85 824.94 416.58 785.51 533.15C746.31 649.07 716.97 762.46 842.99 814.15C872.99 826.46 905.69 830.29 937.93 823.15C966.861 816.621 994.456 805.171 1019.51 789.3C1076.07 753.6 1138.44 699.42 1193.51 644.39C1284.92 553.11 1387.83 462.98 1486.88 456.83C1528.51 454.24 1570.77 468.46 1609.82 497.05C1673.48 543.66 1709.37 591 1710.93 637.4C1713.4 710.24 1643.87 774.4 1583.49 823.74C1538.12 860.79 1502.02 894.35 1506.58 921.18C1508.69 933.56 1521.11 944.9 1542.12 954.6C1575.24 969.9 1602.77 975.03 1622.26 968.25C1652.67 957.68 1665.45 923.62 1675.51 889.53C1684.42 859.34 1694.75 831.8 1716.78 824.31C1728.55 820.31 1744.26 823.17 1762.5 831.9C1823.5 861.13 1819.41 927.67 1816.5 944.46C1816.08 946.95 1815.75 948.46 1815.7 948.56L1813.92 948.25C1814.12 947.45 1830.44 866.25 1761.48 833.18C1743.75 824.69 1728.62 821.88 1717.4 825.7C1696.2 832.91 1686.01 860.12 1677.21 889.94C1667.04 924.38 1654.13 958.78 1622.9 969.63C1616.65 971.81 1609.3 972.63 1601.83 972.63C1585.33 972.63 1564.28 966.58 1541.13 955.88C1519.61 945.94 1506.87 934.24 1504.69 921.4C1500.01 893.87 1536.35 860.06 1582.05 822.75C1642.2 773.64 1711.46 709.69 1709.05 637.46C1707.5 591.46 1671.83 544.46 1608.55 498.14C1569.88 469.83 1528.06 455.76 1486.98 458.31C1388.69 464.41 1286.05 554.31 1194.88 645.31C1139.77 700.4 1077.33 754.6 1020.62 790.43C995.691 806.119 968.283 817.47 939.56 824C906.32 831.56 872.5 827.89 842.15 815.44C714.85 763.26 744.32 649.29 783.71 532.8C822.98 416.69 855.36 292.45 735.16 220.5C693.26 195.42 654.01 183.83 620.99 188.03C568.19 194.75 526.66 235.32 486.88 280.4C455.94 315.4 420.56 349.98 378.88 372.76C331.44 398.66 274.42 400.6 212.74 382.82C141.86 362.42 150.85 310.5 165.62 252.6C185.44 174.93 202.8 74.6 45.1001 1.69998L46.0301 0.400055Z" fill="#2746CF"/>
</g>
<path opacity="0.3" d="M1600.14 979.6C1582.82 979.6 1562.27 974.03 1537.96 962.8C1515.36 952.36 1503.26 940.73 1500.96 927.24C1496.05 898.33 1537.49 864.5 1585.48 825.32C1648.63 773.76 1727.22 709.59 1724.66 633.74C1723.02 585.45 1689.93 538.33 1623.49 489.68C1582.88 459.95 1542.18 446.8 1499.04 449.47C1395.84 455.89 1296.85 554.73 1201.13 650.33C1143.2 708.18 1083.3 768 1023.73 805.6C956.82 847.83 897.03 857.19 840.96 834.2C707.29 779.41 746.36 663.87 787.73 541.55C828.96 419.6 871.62 293.6 745.4 218.01C701.4 191.68 663.15 181.01 628.48 185.42C573.03 192.42 533.57 237.18 491.8 284.51C459.31 321.32 425.72 359.37 381.93 383.3C332.16 410.49 276.49 414.64 211.73 396C137.31 374.57 150.73 322.07 166.22 261.28C187.04 179.72 212.94 78.21 47.3501 1.72L48.2801 0.419952C215.04 77.42 188.99 179.54 168.05 261.58C152.05 324.16 139.47 373.58 212.36 394.58C355.88 435.9 424.2 358.5 490.27 283.6C532.27 236.01 571.97 191.05 628.19 183.9C663.4 179.43 702.09 190.18 746.51 216.77C873.74 292.93 830.93 419.49 789.51 541.9C748.35 663.61 709.51 778.57 841.78 832.82C897.91 855.82 955.36 846.82 1022.56 804.37C1081.96 766.88 1141.79 707.13 1199.66 649.37C1295.66 553.52 1394.88 454.37 1498.88 447.96C1542.59 445.24 1583.73 458.52 1624.73 488.55C1691.57 537.49 1724.86 584.96 1726.51 633.68C1729.1 710.16 1650.19 774.59 1586.8 826.35C1539.16 865.25 1498.01 898.84 1502.8 927.01C1505.01 940.01 1516.8 951.29 1538.87 961.48C1573.64 977.55 1600.51 981.9 1620.98 974.78C1652.91 963.68 1663.84 926.66 1674.41 890.85C1683.77 859.16 1692.61 829.23 1715.73 821.36C1728.09 817.16 1743.42 819.57 1762.58 828.74C1836.13 863.96 1815.36 948.6 1815.14 949.45L1813.31 949.14C1813.53 948.3 1834.02 864.7 1761.62 830.03C1743.01 821.12 1728.24 818.73 1716.45 822.74C1694.2 830.31 1685.45 859.89 1676.23 891.2C1665.55 927.36 1654.51 964.76 1621.72 976.2C1614.77 978.536 1607.47 979.685 1600.14 979.6Z" fill="#2746CF"/>
</g>
</g>
<defs>
<clipPath id="clip0">
<rect width="1828.91" height="979.6" fill="white"/>
</clipPath>
</defs>
</svg>
