<svg width="47" height="44" viewBox="0 0 47 44" fill="none" xmlns="http://www.w3.org/2000/svg">
<g clip-path="url(#clip0)">
<path d="M11.87 23.74C18.4256 23.74 23.74 18.4256 23.74 11.87C23.74 5.31438 18.4256 0 11.87 0C5.31438 0 0 5.31438 0 11.87C0 18.4256 5.31438 23.74 11.87 23.74Z" fill="#3C34F8"/>
<path d="M24.4901 24.48H46.9102V43.48H40.2002L39.7902 37.9302C36.4602 41.5602 31.1601 43.98 23.6401 43.98C10.6401 43.98 2.64014 37.5201 2.64014 25.8101C2.64014 14.1001 10.6402 7.6304 25.1602 7.6304C39.3002 7.6304 46.3602 13.1404 46.9202 21.9204H37.6802C37.1802 19.2504 34.7502 15.2603 25.1602 15.2603C13.3502 15.2603 11.7301 21.7703 11.7301 26.0103C11.7301 30.2503 13.4002 37.0103 25.1602 37.0103C33.9502 37.0103 37.4802 33.1698 37.6802 30.4898H24.5001L24.4901 24.48Z" fill="black"/>
</g>
<defs>
<clipPath id="clip0">
<rect width="46.91" height="43.93" fill="white"/>
</clipPath>
</defs>
</svg>
