<?xml version="1.0" encoding="utf-8"?>
<!-- Generator: Adobe Illustrator 25.4.1, SVG Export Plug-In . SVG Version: 6.00 Build 0)  -->
<svg version="1.1" id="Слой_1" xmlns="http://www.w3.org/2000/svg" xmlns:xlink="http://www.w3.org/1999/xlink" x="0px" y="0px"
	 viewBox="0 0 544 500" enable-background="new 0 0 544 500" xml:space="preserve">
<g>
	<g>
		<g opacity="0.15">
			<path fill="#1B50B0" d="M38.26,310.384c0-3.076,4.317-5.567,9.642-5.567c5.327,0,9.644,2.491,9.644,5.567
				c0,3.076-4.317,5.567-9.644,5.567C42.577,315.951,38.26,313.46,38.26,310.384z"/>
		</g>
		<g>
			<linearGradient id="SVGID_1_" gradientUnits="userSpaceOnUse" x1="38.2602" y1="291.9904" x2="57.5463" y2="291.9904">
				<stop  offset="0" style="stop-color:#5AD6BA"/>
				<stop  offset="1" style="stop-color:#4681EA"/>
			</linearGradient>
			<path fill="url(#SVGID_1_)" d="M47.902,288.283c-5.325,0-9.642,1.573-9.642,3.515v0.385c0,1.941,4.317,3.515,9.642,3.515
				c5.327,0,9.644-1.574,9.644-3.515v-0.385C57.546,289.856,53.229,288.283,47.902,288.283z"/>
			<path opacity="0.4" d="M47.902,295.313c-5.325,0-9.642-1.573-9.642-3.515v0.385c0,1.941,4.317,3.515,9.642,3.515
				c5.327,0,9.644-1.574,9.644-3.515v-0.385C57.546,293.74,53.229,295.313,47.902,295.313z"/>
		</g>
		
			<linearGradient id="SVGID_00000041285252255140630210000005009886775983829138_" gradientUnits="userSpaceOnUse" x1="42.3202" y1="283.8617" x2="53.4844" y2="283.8617">
			<stop  offset="0" style="stop-color:#5AD6BA"/>
			<stop  offset="1" style="stop-color:#4681EA"/>
		</linearGradient>
		<path fill="url(#SVGID_00000041285252255140630210000005009886775983829138_)" d="M53.484,277.647c0-1.78-2.499-3.223-5.582-3.223
			c-3.081,0-5.581,1.444-5.581,3.223H42.32l0.001,0.009c0,0.14,0.022,0.277,0.052,0.414l1.646,12.987
			c0,1.238,1.74,2.242,3.883,2.242c2.145,0,3.882-1.004,3.882-2.242l1.646-12.986C53.462,277.933,53.484,277.792,53.484,277.647z"/>
		<path opacity="0.2" d="M53.484,277.647c0-1.78-2.499-3.223-5.582-3.223c-3.081,0-5.581,1.444-5.581,3.223H42.32l0.001,0.009
			c0,0.14,0.022,0.277,0.052,0.414l1.646,12.987c0,1.238,1.74,2.242,3.883,2.242c2.145,0,3.882-1.004,3.882-2.242l1.646-12.986
			C53.462,277.933,53.484,277.792,53.484,277.647z"/>
		
			<linearGradient id="SVGID_00000052085883635298316500000016552764415878211754_" gradientUnits="userSpaceOnUse" x1="42.3202" y1="263.483" x2="53.4844" y2="263.483">
			<stop  offset="0" style="stop-color:#5AD6BA"/>
			<stop  offset="1" style="stop-color:#4681EA"/>
		</linearGradient>
		<path fill="url(#SVGID_00000052085883635298316500000016552764415878211754_)" d="M47.902,246.094
			c-3.083,0-5.582,1.442-5.582,3.225v28.329c0,1.781,2.499,3.225,5.582,3.225s5.582-1.444,5.582-3.225v-28.329
			C53.484,247.536,50.985,246.094,47.902,246.094z"/>
		<g>
			
				<linearGradient id="SVGID_00000047763004823746439620000009045419006405848976_" gradientUnits="userSpaceOnUse" x1="32.5" y1="260.6758" x2="63.3065" y2="260.6758">
				<stop  offset="0" style="stop-color:#EEF0FC"/>
				<stop  offset="1" style="stop-color:#C6CBEE"/>
			</linearGradient>
			<path fill="url(#SVGID_00000047763004823746439620000009045419006405848976_)" d="M47.902,254.753
				c-8.507,0-15.402,2.514-15.402,5.614v0.615c0,3.1,6.895,5.616,15.402,5.616s15.404-2.516,15.404-5.616v-0.615
				C63.306,257.268,56.41,254.753,47.902,254.753z"/>
			<path opacity="0.4" d="M47.902,265.984c-8.507,0-15.402-2.514-15.402-5.616v0.615c0,3.1,6.895,5.616,15.402,5.616
				s15.404-2.516,15.404-5.616v-0.615C63.306,263.469,56.41,265.984,47.902,265.984z"/>
		</g>
		
			<linearGradient id="SVGID_00000009583995738336485670000011114228553429680029_" gradientUnits="userSpaceOnUse" x1="41.4441" y1="225.0474" x2="54.3612" y2="225.0474">
			<stop  offset="0" style="stop-color:#EEF0FC"/>
			<stop  offset="1" style="stop-color:#C6CBEE"/>
		</linearGradient>
		<path fill="url(#SVGID_00000009583995738336485670000011114228553429680029_)" d="M54.344,189.756
			c-0.013-0.143-0.038-0.283-0.078-0.42c0-0.003,0-0.003,0-0.006c-0.034-0.116-0.076-0.228-0.126-0.339
			c-0.002-0.001-0.003-0.004-0.005-0.007c-0.05-0.111-0.111-0.219-0.179-0.327c0-0.001-0.002-0.004-0.003-0.004
			c-0.072-0.113-0.152-0.222-0.242-0.329c-0.81-1.104-2.456-2.237-5.296-2.364c-0.167-0.011-0.338-0.018-0.51-0.018
			c-0.001,0-0.003,0-0.003,0l0,0c-0.175,0-0.347,0.007-0.514,0.018c-2.847,0.128-4.492,1.266-5.301,2.371c0,0-0.002,0-0.002,0.001
			c-0.087,0.103-0.164,0.208-0.234,0.316c0,0.003,0,0.003-0.001,0.003c-0.07,0.109-0.13,0.219-0.182,0.333
			c0,0.001-0.002,0.001-0.002,0.004c-0.052,0.113-0.094,0.227-0.128,0.344c0,0,0,0,0,0.002c-0.058,0.199-0.094,0.403-0.094,0.61
			v70.48c0,2.059,2.891,3.73,6.458,3.73c3.567,0,6.459-1.67,6.459-3.73v-70.477c0-0.002,0-0.002,0-0.003
			C54.361,189.887,54.352,189.821,54.344,189.756z"/>
		<g>
			
				<linearGradient id="SVGID_00000039828369841251296470000004246661189955184294_" gradientUnits="userSpaceOnUse" x1="42.3202" y1="227.7344" x2="53.4844" y2="227.7344">
				<stop  offset="0" style="stop-color:#5AD6BA"/>
				<stop  offset="1" style="stop-color:#4681EA"/>
			</linearGradient>
			<path fill="url(#SVGID_00000039828369841251296470000004246661189955184294_)" d="M47.902,191.821
				c-3.083,0-5.582,1.442-5.582,3.223v65.379c0,1.781,2.499,3.223,5.582,3.223s5.582-1.442,5.582-3.223v-65.379
				C53.484,193.263,50.985,191.821,47.902,191.821z"/>
			<path opacity="0.3" d="M53.484,195.045c0,1.781-2.499,3.223-5.582,3.223s-5.582-1.442-5.582-3.223
				c0-1.781,2.499-3.223,5.582-3.223S53.484,193.263,53.484,195.045z"/>
		</g>
		<path opacity="0.3" d="M54.361,189.945c0-0.078-0.008-0.164-0.023-0.256c-0.056-0.484-0.272-0.94-0.618-1.354
			c-0.808-1.109-2.455-2.248-5.306-2.376c-0.167-0.011-0.338-0.018-0.51-0.018c-0.001,0-0.003,0-0.003,0l0,0l0,0
			c-0.175,0-0.347,0.007-0.514,0.018c-2.847,0.128-4.492,1.266-5.301,2.371c-0.348,0.418-0.565,0.876-0.622,1.361
			c-0.014,0.091-0.021,0.176-0.021,0.253c0,2.061,2.891,3.731,6.458,3.731c3.567,0,6.457-1.669,6.459-3.728
			C54.361,189.946,54.361,189.946,54.361,189.945z"/>
		
			<linearGradient id="SVGID_00000129206718578739017550000009685478258022599610_" gradientUnits="userSpaceOnUse" x1="45.2006" y1="184.6503" x2="50.6046" y2="184.6503">
			<stop  offset="0" style="stop-color:#EEF0FC"/>
			<stop  offset="1" style="stop-color:#C6CBEE"/>
		</linearGradient>
		<path fill="url(#SVGID_00000129206718578739017550000009685478258022599610_)" d="M47.902,179.689c-1.492,0-2.701,0.7-2.701,1.561
			v6.799c0,0.861,1.209,1.561,2.701,1.561s2.703-0.7,2.703-1.561v-6.799C50.605,180.389,49.394,179.689,47.902,179.689z"/>
		
			<linearGradient id="SVGID_00000106109046213591664250000012583246204073066672_" gradientUnits="userSpaceOnUse" x1="51.2811" y1="180.8864" x2="44.5242" y2="180.8864">
			<stop  offset="0" style="stop-color:#5AD6BA"/>
			<stop  offset="1" style="stop-color:#4681EA"/>
		</linearGradient>
		<path fill="url(#SVGID_00000106109046213591664250000012583246204073066672_)" d="M47.904,178.573c-1.868,0-3.38,0.873-3.38,1.953
			v0.723c0,1.078,1.512,1.951,3.38,1.951c1.865,0,3.377-0.873,3.377-1.951v-0.723C51.281,179.446,49.769,178.573,47.904,178.573z"/>
		
			<linearGradient id="SVGID_00000155111914367417541630000017687347073662778273_" gradientUnits="userSpaceOnUse" x1="44.8936" y1="173.4513" x2="50.9111" y2="173.4513">
			<stop  offset="0" style="stop-color:#5AD6BA"/>
			<stop  offset="1" style="stop-color:#4681EA"/>
		</linearGradient>
		<path fill="url(#SVGID_00000155111914367417541630000017687347073662778273_)" d="M50.227,165.981c0-0.741-1.04-1.342-2.324-1.342
			c-1.283,0-2.325,0.601-2.325,1.342l-0.684,14.545c0,0.958,1.348,1.737,3.009,1.737c1.662,0,3.009-0.779,3.009-1.737
			L50.227,165.981z"/>
		
			<linearGradient id="SVGID_00000137811664288006212150000009491759663025698455_" gradientUnits="userSpaceOnUse" x1="47.5251" y1="151.8564" x2="48.2814" y2="151.8564">
			<stop  offset="0" style="stop-color:#3E437B"/>
			<stop  offset="1" style="stop-color:#305990"/>
		</linearGradient>
		<path fill="url(#SVGID_00000137811664288006212150000009491759663025698455_)" d="M47.902,165.926
			c-0.209,0-0.377-0.167-0.377-0.377v-27.386c0-0.21,0.169-0.377,0.377-0.377c0.209,0,0.379,0.167,0.379,0.377v27.386
			C48.281,165.759,48.111,165.926,47.902,165.926z"/>
		<g>
			
				<linearGradient id="SVGID_00000157281325198886336440000008656378532750323622_" gradientUnits="userSpaceOnUse" x1="44.1164" y1="176.66" x2="51.6901" y2="176.66">
				<stop  offset="0" style="stop-color:#EEF0FC"/>
				<stop  offset="1" style="stop-color:#C6CBEE"/>
			</linearGradient>
			<path fill="url(#SVGID_00000157281325198886336440000008656378532750323622_)" d="M50.622,174.402L50.622,174.402l0.122,2.559
				c-0.599,0.545-1.644,0.906-2.841,0.906c-1.197,0-2.242-0.362-2.84-0.906l0.118-2.557c-0.657,0.392-1.064,0.925-1.064,1.515v0.811
				c0,1.208,1.694,2.189,3.788,2.189c2.09,0,3.786-0.981,3.786-2.189v-0.811C51.69,175.328,51.281,174.794,50.622,174.402z"/>
			
				<linearGradient id="SVGID_00000163043434755230866210000005235209285697524411_" gradientUnits="userSpaceOnUse" x1="44.5295" y1="156.0271" x2="51.2738" y2="156.0271">
				<stop  offset="0" style="stop-color:#EEF0FC"/>
				<stop  offset="1" style="stop-color:#C6CBEE"/>
			</linearGradient>
			<path opacity="0.6" fill="url(#SVGID_00000163043434755230866210000005235209285697524411_)" d="M50.4,135.628
				c0-0.797-1.118-1.442-2.498-1.442s-2.498,0.645-2.498,1.442L44.53,175.92c0,1.075,1.509,1.947,3.372,1.947
				s3.372-0.872,3.372-1.947L50.4,135.628z"/>
			
				<linearGradient id="SVGID_00000045609892461551861880000014425949369496250799_" gradientUnits="userSpaceOnUse" x1="361.2087" y1="269.6609" x2="365.4306" y2="269.6609" gradientTransform="matrix(-1 0 0 -1 411.2227 405.2881)">
				<stop  offset="0" style="stop-color:#EEF0FC"/>
				<stop  offset="1" style="stop-color:#C6CBEE"/>
			</linearGradient>
			<path fill="url(#SVGID_00000045609892461551861880000014425949369496250799_)" d="M45.791,135.628
				c0-0.674,0.945-1.218,2.111-1.218c1.167,0,2.111,0.545,2.111,1.218c0,0.674-0.944,1.218-2.111,1.218
				C46.736,136.846,45.791,136.302,45.791,135.628z"/>
		</g>
	</g>
	<g>
		<g opacity="0.1">
			<path fill="#1B50B0" d="M401.276,431.247l-154.027-89.041c-2.379-1.375-6.235-1.375-8.618,0c-2.38,1.375-2.382,3.605-0.006,4.977
				c0.004,0.003,0.009,0.003,0.011,0.006l0,0l154.018,89.039c2.378,1.372,6.238,1.372,8.618-0.003
				C403.652,434.849,403.657,432.622,401.276,431.247z"/>
		</g>
		<g>
			<path fill="#FFFFFF" d="M228.646,303.743l0.376-0.216c2.243,2.443,8.819,8.399,15.279,16.534c0.001,0,0.001,0.003,0.001,0.003
				c1.579,1.98,2.272,2.519,3.158,3c0.272,0.137,0.548,0.28,0.831,0.426c0.009,0.003,0.018,0.009,0.027,0.012l0,0
				c21.09,10.864,128.447,76.258,128.447,76.258v6.392l-1.503,0.867c0,0-110.002-68.823-130.021-81.746
				c-0.001,0-0.001-0.003-0.001-0.003c-0.565-0.362-1.08-0.621-1.366-0.97c-7.253-9.19-13.303-17.17-15.422-20.291L228.646,303.743z
				"/>
			<g opacity="0.1">
				<path fill="#1B50B0" d="M228.646,303.743c2.244,2.443,7.692,9.05,14.153,17.185c0.001,0.003,0.001,0.003,0.001,0.003
					c1.579,1.98,2.272,2.522,3.158,2.999c0.272,0.14,0.548,0.28,0.831,0.426c0.009,0.006,0.018,0.009,0.027,0.012l0,0
					c21.09,10.864,129.95,77.125,128.447,76.258v6.392c0,0-110.002-68.823-130.021-81.746c-0.001,0-0.001-0.003-0.001-0.003
					c-0.565-0.362-1.08-0.621-1.366-0.97c-7.253-9.19-13.303-17.17-15.422-20.291L228.646,303.743z"/>
			</g>
		</g>
		<g>
			<path fill="#FFFFFF" d="M220.382,308.516l0.374-0.219c2.243,2.443,7.695,9.051,14.152,17.188c0.002,0,0.004,0,0.004,0.003
				c1.575,1.98,2.272,2.519,3.157,2.996c0.27,0.14,0.548,0.28,0.831,0.426c0.009,0.006,0.018,0.009,0.028,0.015l0,0
				c21.088,10.864,135.959,71.917,135.959,71.917v6.391l-1.503,0.867c0,0-117.514-64.482-137.535-77.408c0,0,0,0-0.001,0
				c-0.565-0.365-1.082-0.624-1.365-0.974c-7.254-9.187-12.178-17.818-14.296-20.939L220.382,308.516z"/>
			<g opacity="0.1">
				<path fill="#1B50B0" d="M220.382,308.516c2.242,2.443,6.565,9.699,13.023,17.836c0.002,0,0.004,0.003,0.004,0.003
					c1.575,1.981,2.272,2.519,3.157,2.997c0.271,0.14,0.548,0.283,0.831,0.426c0.009,0.006,0.018,0.009,0.028,0.015l0,0
					c21.088,10.864,137.462,72.787,135.958,71.917l0.001,6.392c0,0-117.514-64.482-137.535-77.408c0,0,0,0-0.001,0
					c-0.565-0.365-1.082-0.624-1.365-0.974c-7.254-9.187-12.178-17.818-14.296-20.939L220.382,308.516z"/>
			</g>
		</g>
		<g>
			<path fill="#FFFFFF" d="M373.382,401.71l3.383-1.95l31.845,18.387c1.536,0.885,2.781,3.036,2.781,4.801
				c0,0.864-0.299,1.472-0.785,1.768l0.003,0.003l-3.412,1.968l0,0c-0.503,0.292-1.198,0.247-1.966-0.198l-31.848-18.387
				L373.382,401.71z"/>
			<g opacity="0.1">
				<path fill="#1B50B0" d="M373.382,401.71l31.849,18.387c1.535,0.888,2.779,3.036,2.779,4.801c0,1.767-1.244,2.476-2.779,1.591
					l-31.848-18.387L373.382,401.71z"/>
			</g>
		</g>
	</g>
	<g>
		<g opacity="0.1">
			<path fill="#1B50B0" d="M190.64,379.061l1.102-2.038c2.872-5.309,14.269-5.923,25.464-1.381
				c11.191,4.542,17.939,12.525,15.068,17.83l-1.103,2.038c-1.097,2.026-3.444,3.365-6.545,3.994c0,0,12.465,7.782,13.48,8.369
				l30.542,17.632c0.473-0.286,0.951-0.362,1.311-0.155l11.405,6.586c0.549-0.274,1.092-0.335,1.512-0.091l65.976,38.091
				c0.928,0.535,0.928,2.272,0,3.879c-0.93,1.606-2.432,2.477-3.358,1.941l-65.976-38.091c-0.423-0.243-0.642-0.739-0.68-1.354
				l-11.405-6.587c-0.36-0.207-0.531-0.657-0.519-1.211l-30.544-17.632c-1.193-0.691-14.003-11.061-14.003-11.061
				c-4.747,0.42-10.722-0.523-16.655-2.933C194.518,392.346,187.77,384.367,190.64,379.061z"/>
		</g>
		<g>
			<path fill="#FFFFFF" d="M217.713,330.389c11.405,6.65,17.538,17.377,13.696,23.963l-1.474,2.528
				c-3.841,6.586-16.195,6.532-27.6-0.119c-11.407-6.653-17.54-17.377-13.699-23.963l1.473-2.528
				C193.952,323.682,206.306,323.736,217.713,330.389z"/>
			
				<linearGradient id="SVGID_00000072252720623839242460000016907714979525439105_" gradientUnits="userSpaceOnUse" x1="778.611" y1="609.3367" x2="735.3972" y2="609.3367" gradientTransform="matrix(-0.8639 -0.5037 -0.5037 0.8639 1171.6595 197.2074)">
				<stop  offset="0" style="stop-color:#EEF0FC"/>
				<stop  offset="1" style="stop-color:#C6CBEE"/>
			</linearGradient>
			<path fill="url(#SVGID_00000072252720623839242460000016907714979525439105_)" d="M229.425,353.197
				c3.473-5.957-2.072-15.652-12.38-21.663c-10.311-6.011-21.477-6.06-24.95-0.106c-3.471,5.953,2.072,15.649,12.382,21.66
				C214.785,359.099,225.952,359.15,229.425,353.197z"/>
			<g opacity="0.1">
				<path fill="#1B50B0" d="M215.992,333.34c-9.784-5.707-20.334-6.039-24.354-0.97c0.13-0.323,0.278-0.639,0.456-0.943
					c3.473-5.954,14.639-5.905,24.95,0.106c10.308,6.011,15.853,15.707,12.38,21.663c-0.178,0.304-0.38,0.587-0.598,0.861
					C231.26,348.062,225.775,339.044,215.992,333.34z"/>
			</g>
			<g opacity="0.1">
				<path fill="#1B50B0" d="M203.81,354.234c11.404,6.65,23.758,6.705,27.599,0.119l-1.474,2.528
					c-3.841,6.586-16.195,6.532-27.6-0.119c-11.407-6.653-17.54-17.377-13.699-23.963l1.473-2.528
					C186.269,336.857,192.402,347.581,203.81,354.234z"/>
			</g>
		</g>
		<g>
			<path fill="#FFFFFF" d="M219.36,359.634c0.868-0.724,1.064-0.198,1.481,0.301l13.092,13.945c0.865,0.925,0.68,0.958,1.875,1.649
				l39.565,22.841c0.565,0.329,0.565,1.384,0,2.364c-0.566,0.979-1.482,1.509-2.046,1.183l-39.566-22.844
				c-1.406-0.812-2.294-1.655-2.971-2.568l-11.394-15.363C218.978,360.644,218.494,360.358,219.36,359.634z"/>
			
				<linearGradient id="SVGID_00000103969904906898646460000014308827017549977267_" gradientUnits="userSpaceOnUse" x1="-58.1932" y1="854.7965" x2="-64.1519" y2="854.7965" gradientTransform="matrix(0.5 -0.866 -0.866 -0.5 1076.6077 792.7053)">
				<stop  offset="0" style="stop-color:#80E1FA"/>
				<stop  offset="1" style="stop-color:#3565FA"/>
			</linearGradient>
			<path fill="url(#SVGID_00000103969904906898646460000014308827017549977267_)" d="M341.156,438.715
				c-0.823,1.424-2.155,2.193-2.976,1.719l-67.801-39.144c-0.821-0.474-0.821-2.014,0-3.441c0.823-1.424,2.157-2.193,2.98-1.719
				l67.798,39.144C341.979,435.752,341.979,437.288,341.156,438.715z"/>
			<path fill="#FFFFFF" d="M366.36,453.266c-1.094,1.892-2.868,2.918-3.961,2.285l-77.772-44.9c-1.093-0.633-1.093-2.68-0.001-4.575
				c1.094-1.895,2.867-2.917,3.962-2.288l77.772,44.903C367.453,449.323,367.453,451.371,366.36,453.266z"/>
			<g opacity="0.1">
				<path fill="#1B50B0" d="M365.915,449.46c-0.85-0.49-2.225,0.304-3.072,1.774c-0.849,1.47-0.847,3.058,0.001,3.547
					c0.847,0.49,2.223-0.304,3.071-1.774C366.763,451.538,366.763,449.95,365.915,449.46z"/>
			</g>
		</g>
	</g>
	<g>
		<g opacity="0.1">
			<path fill="#1B50B0" d="M434.598,388.477c-3.721,2.148-9.756,2.148-13.48-0.003L197.513,259.373
				c-3.73-2.154-3.733-5.643-0.01-7.785l74.111-42.84c3.715-2.148,9.753-2.148,13.483,0.006l223.609,129.101
				c3.724,2.148,3.724,5.634,0.009,7.782L434.598,388.477z"/>
		</g>
		
			<linearGradient id="SVGID_00000120519667221965144020000005290615615054890664_" gradientUnits="userSpaceOnUse" x1="214.5751" y1="45.0467" x2="405.1489" y2="375.1302" gradientTransform="matrix(1 0 0 1 -14.1457 -30.8645)">
			<stop  offset="0.586" style="stop-color:#EEF0FC"/>
			<stop  offset="0.6129" style="stop-color:#C6CBEE"/>
		</linearGradient>
		<path fill="url(#SVGID_00000120519667221965144020000005290615615054890664_)" d="M182.506,24.535l-6.72,3.879
			c-0.012,0.006-0.018,0.012-0.028,0.012l-0.002,0.003l0,0c-1.211,0.709-1.96,2.212-1.962,4.35l0.002,159.894
			c-0.002,4.296,3.015,9.525,6.742,11.67l223.612,129.098c1.841,1.065,3.508,1.174,4.731,0.496l0.002,0.003l0.037-0.018v-0.006
			l6.726-3.882h0.007c1.22-0.703,1.989-2.209,1.989-4.365l0.003-159.897c-0.009-4.292-3.021-9.519-6.75-11.667L187.285,25.004
			c-1.835-1.056-3.48-1.168-4.697-0.508l-0.006-0.009l-0.058,0.04C182.518,24.523,182.515,24.529,182.506,24.535z"/>
		<path opacity="0.3" d="M182.506,24.535l-1.269,0.733l0.004,0.006c1.217-0.66,2.865-0.548,4.694,0.508L409.546,154.88
			c3.727,2.151,6.742,7.377,6.748,11.67l-0.006,159.894c0.006,2.151-0.76,3.654-1.974,4.356l1.332-0.767h0.007
			c1.22-0.703,1.989-2.209,1.989-4.365l0.003-159.897c-0.009-4.292-3.021-9.519-6.75-11.667L187.285,25.004
			c-1.835-1.056-3.48-1.168-4.697-0.508l-0.006-0.009l-0.058,0.04C182.518,24.523,182.515,24.529,182.506,24.535z"/>
		
			<linearGradient id="SVGID_00000109712997004832208930000016496259519260834699_" gradientUnits="userSpaceOnUse" x1="292.9507" y1="334.3618" x2="292.9507" y2="27.2823">
			<stop  offset="0" style="stop-color:#5AD6BA"/>
			<stop  offset="1" style="stop-color:#4681EA"/>
		</linearGradient>
		<path fill="url(#SVGID_00000109712997004832208930000016496259519260834699_)" d="M405.357,157.302L181.748,28.198
			c-1.835-1.053-3.48-1.165-4.698-0.505l-0.006-0.012l-0.061,0.04c-0.003,0-0.006,0.006-0.015,0.009l-1.15,0.666
			c-0.034,0.018-0.068,0.037-0.103,0.058l-0.017,0.009l0.001,0.003c-1.178,0.718-1.908,2.206-1.908,4.314l0.002,159.894
			c-0.002,4.296,3.015,9.525,6.742,11.67l223.612,129.098c1.811,1.046,3.451,1.168,4.662,0.532
			c-0.013,0.006-0.022,0.021-0.035,0.027l0.115-0.067c0.021-0.009,0.041-0.021,0.061-0.034l1.157-0.669l0.006-0.003
			c1.22-0.7,1.989-2.209,1.989-4.366l0.004-159.894C412.098,164.673,409.084,159.45,405.357,157.302z"/>
		<path opacity="0.5" d="M176.969,27.73l-1.269,0.733l0.003,0.009c1.217-0.66,2.866-0.551,4.698,0.508L404.01,158.075
			c3.727,2.154,6.741,7.38,6.748,11.673l-0.007,159.894c0.003,2.148-0.76,3.654-1.974,4.359l1.333-0.77l0.006-0.003
			c1.22-0.7,1.989-2.209,1.989-4.366l0.004-159.894c-0.01-4.296-3.024-9.519-6.751-11.667L181.748,28.198
			c-1.835-1.053-3.48-1.165-4.698-0.505l-0.006-0.012l-0.061,0.04C176.981,27.721,176.978,27.727,176.969,27.73z"/>
	</g>
	<path opacity="0.3" d="M207.297,211.223v-29.115c-0.003-2.577-1.813-5.71-4.05-7l-29.452-17.006l0.001,34.571
		c-0.001,1.421,0.353,2.936,0.927,4.414l28.527,16.469C205.481,214.846,207.297,213.803,207.297,211.223z"/>
	<path opacity="0.4" d="M409.552,217.805l-46.314-26.738c-2.233-1.29-4.049-0.246-4.049,2.33l0.003,64.969
		c0,2.58,1.81,5.713,4.043,7l46.317,26.741c0.421,0.243,0.819,0.377,1.201,0.461l0.002-73.835
		C410.373,218.374,409.974,218.048,409.552,217.805z"/>
	<path opacity="0.3" d="M232.698,146.359V92.946c0-2.577-1.81-5.713-4.046-7.003l-54.858-31.674l0.001,62.751l54.857,31.672
		C230.884,149.982,232.701,148.939,232.698,146.359z"/>
	<g>
		<path opacity="0.4" d="M251.273,174.746c0-13.123-9.74-21.697-1.142-32.332c8.598-10.632,17.627-1.952,24.187-9.644
			c6.563-7.694,16.883-13.197,26.613-7.992c9.728,5.202,7.354,12.21,21.155,14.018c13.804,1.812,5.657,19.684,4.299,26.926
			c-1.358,7.24-4.299,10.634-0.906,21.948c3.394,11.314,1.496,21.697-2.123,34.139c-3.62,12.445-6.788,0-7.468-4.299
			c-0.678-4.298-3.057-16.467-7.379-12.645c-5.882,5.205-4.977,37.785-16.291,38.917c-3.183,0.318-7.156-12.835-9.275-21.749
			c-2.448-10.301-9.224-15.97-12.843-11.443c-3.621,4.525-8.178,12.128-17.002,14.164c-3.366,0.777-5.889-15.031-4.105-27.383
			C250.845,184.543,251.273,180.856,251.273,174.746z"/>
		<path opacity="0.15" fill="#FFFFFF" d="M282.612,159.406c-3.186,8.044-6.925,13.76-4.057,26.361
			c2.868,12.604-4.82,4.553-4.201-8.401C274.975,164.411,284.853,153.75,282.612,159.406z"/>
		<path opacity="0.15" fill="#FFFFFF" d="M252.058,143.287c-5.473,6.279-3.641,11.087,0,20.138c3.642,9.05-2.225-7.128-1.505-12.671
			C251.423,144.059,255.766,139.034,252.058,143.287z"/>
		<path opacity="0.5" fill="#FFFFFF" d="M283.98,226.148c-0.378-1.424-0.727-2.812-1.037-4.113
			c-2.448-10.301-9.224-15.97-12.843-11.443c-3.621,4.525-8.178,12.128-17.002,14.164c-0.834,0.192-1.617-0.637-2.295-2.178
			c0.003-0.008,0.014-0.027,0.014-0.027c0.743,1.701,7.267-2.117,11.387-7.497c4.319-5.639,4.876-11.32,12.115-10.643
			C280.798,205.019,282.943,217.338,283.98,226.148z M292.218,243.783c-0.095,0.009-0.19,0.004-0.287-0.009
			c-0.034-0.005-0.068-0.017-0.102-0.024c-0.061-0.015-0.124-0.029-0.187-0.052c-0.044-0.017-0.088-0.041-0.133-0.062
			c-0.052-0.024-0.103-0.047-0.155-0.079c-0.052-0.029-0.103-0.065-0.155-0.1c-0.044-0.032-0.09-0.062-0.134-0.097
			c-0.058-0.046-0.116-0.096-0.174-0.148c-0.038-0.033-0.077-0.069-0.114-0.106c-0.064-0.061-0.127-0.125-0.191-0.195
			c-0.032-0.035-0.064-0.07-0.095-0.106c-0.07-0.079-0.139-0.161-0.209-0.248c-0.023-0.03-0.048-0.064-0.073-0.094
			c-0.076-0.099-0.152-0.199-0.229-0.309c-0.002-0.005-0.005-0.008-0.007-0.012c-0.063-0.163-0.13-0.315-0.201-0.438
			c3.701-3.515,3.942-9.04,6.091-16.315c2.714-9.195-2.17-31.957,1.903-40.102c4.073-8.145,14.945-29.389-4.401-31.553
			c-11.74-1.313-16.045,1.871-24.868-7.23c-3.486-3.594,2.576-7.192,5.82-6.866c8.486,0.849,6.608-6.673,9.662-3.31
			c3.054,3.362,12.562,13.41,16.634,3.226c3.291-8.226-5.071-14.774-9.781-16.688c3.316-0.403,6.742,0.119,10.098,1.914
			c9.728,5.202,7.354,12.21,21.155,14.018c13.804,1.812,5.657,19.684,4.299,26.926c-1.358,7.24-4.299,10.634-0.906,21.948
			c3.394,11.314,1.496,21.697-2.123,34.139c-3.62,12.445-6.788,0-7.468-4.299c-0.678-4.298-3.057-16.467-7.379-12.645
			C302.627,210.071,303.532,242.652,292.218,243.783z M314.756,151.207c2.036,5.882,7.466-0.227,8.823-3.17
			c1.359-2.94-1.281-6.655-6.334-7.691c-8.824-1.812-14.934,4.525-13.35,4.75C305.479,145.323,312.718,145.323,314.756,151.207z"/>
	</g>
	<g>
		
			<linearGradient id="SVGID_00000172434989034050556090000011514451457511223941_" gradientUnits="userSpaceOnUse" x1="352.8822" y1="196.7767" x2="409.8911" y2="295.519">
			<stop  offset="0" style="stop-color:#FBD0A6"/>
			<stop  offset="1" style="stop-color:#F64076"/>
		</linearGradient>
		<path fill="url(#SVGID_00000172434989034050556090000011514451457511223941_)" d="M340.583,204.964
			c0.377-1.907,2.011-2.564,3.964-1.436l46.314,26.738c2.233,1.29,4.046,4.429,4.043,7.006l0.003,64.966
			c0,1.29-0.453,2.196-1.186,2.616l1.336-0.77l-0.003-0.003c0.742-0.417,1.205-1.323,1.205-2.619l-0.003-64.969
			c0-2.577-1.811-5.716-4.046-7.006l-46.314-26.738c-1.114-0.645-2.12-0.706-2.85-0.289h-0.003l-1.357,0.782
			C341.137,203.558,340.744,204.145,340.583,204.964z"/>
		<path opacity="0.4" d="M340.583,204.964c0.377-1.907,2.011-2.564,3.964-1.436l46.314,26.738c2.233,1.29,4.046,4.429,4.043,7.006
			l0.003,64.966c0,1.29-0.453,2.196-1.186,2.616l1.336-0.77l-0.003-0.003c0.742-0.417,1.205-1.323,1.205-2.619l-0.003-64.969
			c0-2.577-1.811-5.716-4.046-7.006l-46.314-26.738c-1.114-0.645-2.12-0.706-2.85-0.289h-0.003l-1.357,0.782
			C341.137,203.558,340.744,204.145,340.583,204.964z"/>
		
			<linearGradient id="SVGID_00000176030212121087945090000000039100110764600209_" gradientUnits="userSpaceOnUse" x1="339.1992" y1="204.6782" x2="396.207" y2="303.4186">
			<stop  offset="0" style="stop-color:#FBD0A6"/>
			<stop  offset="1" style="stop-color:#F64076"/>
		</linearGradient>
		<path fill="url(#SVGID_00000176030212121087945090000000039100110764600209_)" d="M394.907,302.237c0,2.58-1.813,3.62-4.046,2.33
			l-46.317-26.741c-2.233-1.287-4.043-4.42-4.043-7l-0.003-64.969c0-2.577,1.816-3.62,4.049-2.33l46.314,26.738
			c2.233,1.29,4.046,4.429,4.043,7.006L394.907,302.237z"/>
		
			<linearGradient id="SVGID_00000100347951488319752820000004545714906885226640_" gradientUnits="userSpaceOnUse" x1="357.7159" y1="239.3045" x2="384.7119" y2="286.0628">
			<stop  offset="0" style="stop-color:#FBD0A6"/>
			<stop  offset="1" style="stop-color:#F64076"/>
		</linearGradient>
		<path fill="url(#SVGID_00000100347951488319752820000004545714906885226640_)" d="M380.278,288.182
			c0.002,0.359-0.155,0.575-0.384,0.648c-0.049,0.046-0.103,0.076-0.167,0.097c-0.052,0.046-0.106,0.076-0.17,0.097
			c-0.049,0.046-0.103,0.076-0.167,0.097c-0.052,0.046-0.103,0.076-0.17,0.097c-0.049,0.046-0.103,0.076-0.167,0.097
			c-0.052,0.046-0.103,0.076-0.167,0.097c-0.052,0.046-0.107,0.076-0.17,0.097l0,0c0.128-0.116,0.216-0.292,0.216-0.55
			c0-0.618-0.435-1.372-0.97-1.683l-29.953-17.292c-0.229-0.131-0.423-0.143-0.587-0.091l0,0c0.052-0.043,0.103-0.076,0.167-0.097
			c0.052-0.043,0.106-0.076,0.17-0.097c0.049-0.043,0.103-0.076,0.167-0.097c0.052-0.043,0.103-0.076,0.17-0.097
			c0.049-0.043,0.103-0.076,0.167-0.097c0.052-0.043,0.106-0.076,0.167-0.097c0.052-0.043,0.106-0.076,0.17-0.097
			c0.176-0.158,0.441-0.189,0.754-0.006l29.953,17.292C379.842,286.813,380.28,287.565,380.278,288.182z M348.599,260.258
			c-0.064,0.021-0.119,0.052-0.167,0.097c-0.067,0.018-0.122,0.052-0.17,0.097c-0.064,0.021-0.119,0.052-0.167,0.097
			c-0.067,0.021-0.122,0.052-0.17,0.097c-0.064,0.018-0.119,0.052-0.167,0.097c-0.064,0.018-0.122,0.052-0.17,0.097
			c-0.064,0.021-0.119,0.052-0.167,0.097l0,0c0.164-0.052,0.362-0.043,0.587,0.088l36.701,21.192c0.535,0.304,0.97,1.059,0.97,1.676
			c0,0.259-0.089,0.435-0.219,0.551l0,0c0.067-0.018,0.122-0.052,0.17-0.097c0.064-0.018,0.119-0.052,0.168-0.097
			c0.064-0.018,0.118-0.052,0.17-0.097c0.064-0.018,0.118-0.052,0.167-0.097c0.064-0.018,0.119-0.052,0.17-0.097
			c0.064-0.018,0.119-0.052,0.168-0.097c0.064-0.018,0.119-0.052,0.17-0.097c0.228-0.073,0.383-0.289,0.383-0.648
			c0-0.618-0.435-1.369-0.97-1.676l-36.698-21.192C349.04,260.07,348.776,260.097,348.599,260.258z M379.31,270.827l-29.956-17.295
			c-0.314-0.182-0.581-0.152-0.757,0.006c-0.064,0.021-0.119,0.052-0.167,0.1c-0.064,0.018-0.119,0.052-0.17,0.094
			c-0.064,0.021-0.119,0.055-0.167,0.097c-0.064,0.021-0.119,0.052-0.17,0.097c-0.061,0.021-0.116,0.055-0.167,0.097
			c-0.064,0.021-0.119,0.055-0.167,0.097c-0.064,0.021-0.119,0.055-0.17,0.097l0,0c0.164-0.052,0.362-0.04,0.59,0.091l29.956,17.295
			c0.532,0.307,0.97,1.062,0.97,1.676c0,0.261-0.088,0.438-0.219,0.554c0.064-0.021,0.122-0.052,0.167-0.097
			c0.067-0.021,0.122-0.052,0.17-0.097c0.064-0.021,0.119-0.052,0.167-0.097c0.067-0.021,0.122-0.052,0.17-0.097
			c0.064-0.021,0.119-0.052,0.167-0.097c0.067-0.021,0.122-0.052,0.17-0.097c0.064-0.021,0.119-0.052,0.167-0.097
			c0.228-0.073,0.386-0.289,0.386-0.651C380.28,271.888,379.842,271.134,379.31,270.827z M348.003,249.833l23.215,13.401
			c0.532,0.31,0.967,1.062,0.97,1.676c0,0.262-0.091,0.438-0.219,0.551l0,0c0.064-0.018,0.119-0.049,0.17-0.094
			c0.061-0.021,0.119-0.052,0.167-0.097c0.064-0.021,0.119-0.052,0.17-0.1c0.061-0.018,0.116-0.049,0.167-0.097
			c0.064-0.018,0.119-0.049,0.167-0.094c0.064-0.021,0.119-0.052,0.17-0.097c0.064-0.021,0.119-0.052,0.167-0.1
			c0.228-0.073,0.386-0.286,0.386-0.648c0-0.614-0.438-1.369-0.97-1.676l-23.212-13.401c-0.314-0.183-0.578-0.155-0.754,0.006
			c-0.064,0.021-0.119,0.052-0.167,0.097c-0.067,0.021-0.122,0.052-0.17,0.097c-0.064,0.021-0.119,0.052-0.17,0.097
			c-0.061,0.021-0.116,0.052-0.167,0.097c-0.064,0.021-0.119,0.052-0.167,0.097c-0.064,0.021-0.119,0.052-0.17,0.097
			c-0.064,0.021-0.119,0.052-0.167,0.097l0,0C347.583,249.69,347.781,249.702,348.003,249.833z M373.536,279.807
			c-0.003-0.618-0.438-1.369-0.967-1.676l-23.215-13.401c-0.314-0.183-0.578-0.155-0.757,0.006
			c-0.064,0.021-0.116,0.052-0.167,0.097c-0.064,0.021-0.119,0.052-0.167,0.097c-0.067,0.021-0.119,0.052-0.17,0.097
			c-0.064,0.021-0.119,0.052-0.167,0.097c-0.064,0.021-0.119,0.052-0.167,0.097c-0.067,0.021-0.122,0.052-0.17,0.097
			c-0.064,0.021-0.119,0.052-0.17,0.097c0.167-0.052,0.365-0.039,0.587,0.091l23.215,13.401c0.532,0.307,0.967,1.059,0.97,1.676
			c0,0.259-0.091,0.435-0.219,0.551c0.064-0.018,0.119-0.052,0.17-0.094c0.064-0.021,0.119-0.055,0.167-0.1
			c0.064-0.018,0.119-0.052,0.167-0.097c0.064-0.018,0.119-0.052,0.17-0.094c0.064-0.021,0.119-0.055,0.167-0.1
			c0.064-0.018,0.119-0.052,0.17-0.097c0.064-0.018,0.119-0.052,0.167-0.097C373.378,280.385,373.536,280.166,373.536,279.807z
			 M373.956,234.521c-0.064,0.021-0.119,0.052-0.167,0.097c-0.064,0.021-0.118,0.052-0.17,0.097
			c-0.064,0.021-0.116,0.052-0.167,0.097c-0.064,0.021-0.119,0.052-0.17,0.097c-0.064,0.021-0.119,0.052-0.167,0.097
			c-0.064,0.018-0.119,0.052-0.167,0.097c-0.064,0.021-0.119,0.052-0.17,0.097l0,0c0.164-0.055,0.362-0.043,0.587,0.088
			l11.341,6.547c0.536,0.31,0.97,1.065,0.97,1.682c0,0.259-0.088,0.435-0.216,0.551c0.004,0,0.004,0,0.004,0
			c0.064-0.018,0.115-0.052,0.167-0.097c0.064-0.021,0.119-0.052,0.168-0.097c0.064-0.021,0.118-0.052,0.17-0.097
			c0.064-0.018,0.118-0.052,0.167-0.097c0.064-0.021,0.119-0.052,0.17-0.097c0.064-0.021,0.116-0.052,0.168-0.097
			c0.064-0.018,0.119-0.052,0.17-0.097c0.228-0.073,0.383-0.289,0.383-0.648c0-0.618-0.438-1.372-0.973-1.682l-11.338-6.547
			C374.4,234.333,374.132,234.36,373.956,234.521z M373.363,230.816l8.016,4.624c0.535,0.313,0.97,1.065,0.97,1.679
			c0,0.259-0.088,0.435-0.216,0.551l0,0c0.064-0.018,0.119-0.049,0.167-0.097c0.064-0.018,0.119-0.049,0.17-0.097
			c0.064-0.018,0.119-0.052,0.167-0.097c0.064-0.018,0.119-0.052,0.17-0.097c0.064-0.018,0.119-0.049,0.167-0.094
			c0.064-0.021,0.119-0.055,0.17-0.1c0.064-0.018,0.119-0.052,0.167-0.097c0.228-0.073,0.383-0.286,0.383-0.648
			c0-0.615-0.435-1.369-0.967-1.679l-8.019-4.624c-0.31-0.182-0.575-0.155-0.754,0.006c-0.064,0.021-0.119,0.052-0.17,0.1
			c-0.061,0.018-0.119,0.052-0.167,0.097c-0.064,0.018-0.118,0.049-0.167,0.094c-0.064,0.021-0.119,0.052-0.17,0.1
			c-0.061,0.018-0.119,0.052-0.167,0.097c-0.064,0.018-0.119,0.052-0.17,0.097c-0.064,0.018-0.116,0.049-0.164,0.094
			C372.94,230.673,373.138,230.685,373.363,230.816z M348.006,245.352l36.697,21.189c0.539,0.307,0.97,1.065,0.97,1.679
			c0,0.262-0.088,0.435-0.216,0.554l0,0c0.064-0.021,0.119-0.055,0.167-0.097c0.067-0.021,0.119-0.052,0.171-0.097
			c0.064-0.021,0.118-0.052,0.167-0.097c0.064-0.021,0.119-0.055,0.17-0.097c0.064-0.021,0.119-0.055,0.168-0.097
			c0.064-0.021,0.118-0.052,0.17-0.097c0.064-0.021,0.119-0.055,0.167-0.097c0.229-0.073,0.387-0.292,0.387-0.654
			c0-0.611-0.435-1.366-0.97-1.676l-36.701-21.189c-0.31-0.18-0.578-0.152-0.754,0.009c-0.064,0.021-0.119,0.052-0.167,0.097
			c-0.067,0.021-0.122,0.052-0.17,0.097c-0.064,0.021-0.119,0.052-0.17,0.097c-0.061,0.021-0.116,0.052-0.167,0.097
			c-0.064,0.021-0.119,0.052-0.167,0.097c-0.067,0.021-0.119,0.052-0.17,0.097c-0.064,0.021-0.119,0.052-0.167,0.097
			C347.583,245.212,347.781,245.221,348.006,245.352z M373.956,247.956c-0.064,0.024-0.119,0.055-0.167,0.097
			c-0.067,0.024-0.118,0.055-0.17,0.1c-0.064,0.021-0.118,0.052-0.167,0.097c-0.064,0.021-0.119,0.052-0.17,0.094
			c-0.064,0.024-0.119,0.055-0.167,0.1c-0.064,0.021-0.119,0.052-0.17,0.097c-0.064,0.021-0.119,0.052-0.167,0.094
			c0.164-0.052,0.362-0.037,0.587,0.091l11.341,6.55c0.536,0.307,0.974,1.059,0.97,1.676c0,0.262-0.088,0.438-0.216,0.554l0,0
			c0.064-0.021,0.119-0.052,0.17-0.097c0.064-0.021,0.119-0.055,0.168-0.097c0.064-0.021,0.118-0.052,0.167-0.097
			c0.067-0.021,0.122-0.052,0.17-0.097c0.064-0.021,0.119-0.055,0.168-0.097c0.064-0.021,0.118-0.052,0.17-0.097
			c0.064-0.021,0.119-0.055,0.167-0.097c0.229-0.073,0.387-0.289,0.387-0.651c0-0.618-0.438-1.369-0.973-1.679l-11.342-6.547
			C374.397,247.77,374.132,247.795,373.956,247.956z M373.363,244.25l5.908,3.407c0.539,0.313,0.97,1.065,0.97,1.682
			c0,0.262-0.085,0.435-0.216,0.554c0.067-0.021,0.119-0.052,0.17-0.1c0.064-0.018,0.119-0.052,0.17-0.097
			c0.064-0.018,0.116-0.049,0.168-0.097c0.064-0.018,0.119-0.049,0.167-0.097c0.064-0.018,0.119-0.052,0.171-0.097
			c0.064-0.018,0.118-0.049,0.167-0.097c0.064-0.018,0.119-0.049,0.167-0.097c0.228-0.073,0.386-0.286,0.386-0.648
			c0-0.618-0.435-1.369-0.97-1.682l-5.908-3.407c-0.314-0.18-0.578-0.152-0.758,0.009c-0.064,0.018-0.115,0.052-0.167,0.097
			c-0.064,0.018-0.118,0.052-0.167,0.097c-0.064,0.018-0.119,0.052-0.17,0.097c-0.064,0.018-0.119,0.052-0.167,0.097
			c-0.064,0.021-0.118,0.052-0.17,0.097c-0.064,0.018-0.119,0.052-0.167,0.097c-0.064,0.018-0.119,0.052-0.17,0.097l0,0
			C372.94,244.107,373.141,244.119,373.363,244.25z M373.956,239.002c-0.064,0.018-0.119,0.052-0.167,0.097
			c-0.064,0.018-0.118,0.049-0.17,0.094c-0.061,0.021-0.116,0.052-0.167,0.097c-0.064,0.021-0.119,0.055-0.17,0.1
			c-0.061,0.018-0.115,0.052-0.167,0.094c-0.064,0.021-0.119,0.052-0.167,0.097c-0.064,0.021-0.119,0.052-0.167,0.097
			c0.161-0.052,0.362-0.039,0.584,0.088l11.341,6.547c0.539,0.31,0.97,1.065,0.97,1.682c0,0.259-0.088,0.435-0.212,0.551
			c0.064-0.021,0.115-0.052,0.167-0.097c0.064-0.018,0.119-0.052,0.168-0.097c0.064-0.018,0.118-0.052,0.167-0.097
			c0.067-0.018,0.122-0.052,0.17-0.097c0.064-0.018,0.119-0.052,0.168-0.097c0.064-0.018,0.118-0.052,0.167-0.097
			c0.067-0.018,0.122-0.052,0.17-0.097c0.229-0.073,0.387-0.289,0.387-0.648c0-0.617-0.435-1.372-0.973-1.679l-11.338-6.55
			C374.4,238.811,374.136,238.838,373.956,239.002z"/>
		<path opacity="0.4" d="M380.278,288.182c0.002,0.359-0.155,0.575-0.384,0.648c-0.049,0.046-0.103,0.076-0.167,0.097
			c-0.052,0.046-0.106,0.076-0.17,0.097c-0.049,0.046-0.103,0.076-0.167,0.097c-0.052,0.046-0.103,0.076-0.17,0.097
			c-0.049,0.046-0.103,0.076-0.167,0.097c-0.052,0.046-0.103,0.076-0.167,0.097c-0.052,0.046-0.107,0.076-0.17,0.097l0,0
			c0.128-0.116,0.216-0.292,0.216-0.55c0-0.618-0.435-1.372-0.97-1.683l-29.953-17.292c-0.229-0.131-0.423-0.143-0.587-0.091l0,0
			c0.052-0.043,0.103-0.076,0.167-0.097c0.052-0.043,0.106-0.076,0.17-0.097c0.049-0.043,0.103-0.076,0.167-0.097
			c0.052-0.043,0.103-0.076,0.17-0.097c0.049-0.043,0.103-0.076,0.167-0.097c0.052-0.043,0.106-0.076,0.167-0.097
			c0.052-0.043,0.106-0.076,0.17-0.097c0.176-0.158,0.441-0.189,0.754-0.006l29.953,17.292
			C379.842,286.813,380.28,287.565,380.278,288.182z M348.599,260.258c-0.064,0.021-0.119,0.052-0.167,0.097
			c-0.067,0.018-0.122,0.052-0.17,0.097c-0.064,0.021-0.119,0.052-0.167,0.097c-0.067,0.021-0.122,0.052-0.17,0.097
			c-0.064,0.018-0.119,0.052-0.167,0.097c-0.064,0.018-0.122,0.052-0.17,0.097c-0.064,0.021-0.119,0.052-0.167,0.097l0,0
			c0.164-0.052,0.362-0.043,0.587,0.088l36.701,21.192c0.535,0.304,0.97,1.059,0.97,1.676c0,0.259-0.089,0.435-0.219,0.551l0,0
			c0.067-0.018,0.122-0.052,0.17-0.097c0.064-0.018,0.119-0.052,0.168-0.097c0.064-0.018,0.118-0.052,0.17-0.097
			c0.064-0.018,0.118-0.052,0.167-0.097c0.064-0.018,0.119-0.052,0.17-0.097c0.064-0.018,0.119-0.052,0.168-0.097
			c0.064-0.018,0.119-0.052,0.17-0.097c0.228-0.073,0.383-0.289,0.383-0.648c0-0.618-0.435-1.369-0.97-1.676l-36.698-21.192
			C349.04,260.07,348.776,260.097,348.599,260.258z M379.31,270.827l-29.956-17.295c-0.314-0.182-0.581-0.152-0.757,0.006
			c-0.064,0.021-0.119,0.052-0.167,0.1c-0.064,0.018-0.119,0.052-0.17,0.094c-0.064,0.021-0.119,0.055-0.167,0.097
			c-0.064,0.021-0.119,0.052-0.17,0.097c-0.061,0.021-0.116,0.055-0.167,0.097c-0.064,0.021-0.119,0.055-0.167,0.097
			c-0.064,0.021-0.119,0.055-0.17,0.097l0,0c0.164-0.052,0.362-0.04,0.59,0.091l29.956,17.295c0.532,0.307,0.97,1.062,0.97,1.676
			c0,0.261-0.088,0.438-0.219,0.554c0.064-0.021,0.122-0.052,0.167-0.097c0.067-0.021,0.122-0.052,0.17-0.097
			c0.064-0.021,0.119-0.052,0.167-0.097c0.067-0.021,0.122-0.052,0.17-0.097c0.064-0.021,0.119-0.052,0.167-0.097
			c0.067-0.021,0.122-0.052,0.17-0.097c0.064-0.021,0.119-0.052,0.167-0.097c0.228-0.073,0.386-0.289,0.386-0.651
			C380.28,271.888,379.842,271.134,379.31,270.827z M348.003,249.833l23.215,13.401c0.532,0.31,0.967,1.062,0.97,1.676
			c0,0.262-0.091,0.438-0.219,0.551l0,0c0.064-0.018,0.119-0.049,0.17-0.094c0.061-0.021,0.119-0.052,0.167-0.097
			c0.064-0.021,0.119-0.052,0.17-0.1c0.061-0.018,0.116-0.049,0.167-0.097c0.064-0.018,0.119-0.049,0.167-0.094
			c0.064-0.021,0.119-0.052,0.17-0.097c0.064-0.021,0.119-0.052,0.167-0.1c0.228-0.073,0.386-0.286,0.386-0.648
			c0-0.614-0.438-1.369-0.97-1.676l-23.212-13.401c-0.314-0.183-0.578-0.155-0.754,0.006c-0.064,0.021-0.119,0.052-0.167,0.097
			c-0.067,0.021-0.122,0.052-0.17,0.097c-0.064,0.021-0.119,0.052-0.17,0.097c-0.061,0.021-0.116,0.052-0.167,0.097
			c-0.064,0.021-0.119,0.052-0.167,0.097c-0.064,0.021-0.119,0.052-0.17,0.097c-0.064,0.021-0.119,0.052-0.167,0.097l0,0
			C347.583,249.69,347.781,249.702,348.003,249.833z M373.536,279.807c-0.003-0.618-0.438-1.369-0.967-1.676l-23.215-13.401
			c-0.314-0.183-0.578-0.155-0.757,0.006c-0.064,0.021-0.116,0.052-0.167,0.097c-0.064,0.021-0.119,0.052-0.167,0.097
			c-0.067,0.021-0.119,0.052-0.17,0.097c-0.064,0.021-0.119,0.052-0.167,0.097c-0.064,0.021-0.119,0.052-0.167,0.097
			c-0.067,0.021-0.122,0.052-0.17,0.097c-0.064,0.021-0.119,0.052-0.17,0.097c0.167-0.052,0.365-0.039,0.587,0.091l23.215,13.401
			c0.532,0.307,0.967,1.059,0.97,1.676c0,0.259-0.091,0.435-0.219,0.551c0.064-0.018,0.119-0.052,0.17-0.094
			c0.064-0.021,0.119-0.055,0.167-0.1c0.064-0.018,0.119-0.052,0.167-0.097c0.064-0.018,0.119-0.052,0.17-0.094
			c0.064-0.021,0.119-0.055,0.167-0.1c0.064-0.018,0.119-0.052,0.17-0.097c0.064-0.018,0.119-0.052,0.167-0.097
			C373.378,280.385,373.536,280.166,373.536,279.807z M373.956,234.521c-0.064,0.021-0.119,0.052-0.167,0.097
			c-0.064,0.021-0.118,0.052-0.17,0.097c-0.064,0.021-0.116,0.052-0.167,0.097c-0.064,0.021-0.119,0.052-0.17,0.097
			c-0.064,0.021-0.119,0.052-0.167,0.097c-0.064,0.018-0.119,0.052-0.167,0.097c-0.064,0.021-0.119,0.052-0.17,0.097l0,0
			c0.164-0.055,0.362-0.043,0.587,0.088l11.341,6.547c0.536,0.31,0.97,1.065,0.97,1.682c0,0.259-0.088,0.435-0.216,0.551
			c0.004,0,0.004,0,0.004,0c0.064-0.018,0.115-0.052,0.167-0.097c0.064-0.021,0.119-0.052,0.168-0.097
			c0.064-0.021,0.118-0.052,0.17-0.097c0.064-0.018,0.118-0.052,0.167-0.097c0.064-0.021,0.119-0.052,0.17-0.097
			c0.064-0.021,0.116-0.052,0.168-0.097c0.064-0.018,0.119-0.052,0.17-0.097c0.228-0.073,0.383-0.289,0.383-0.648
			c0-0.618-0.438-1.372-0.973-1.682l-11.338-6.547C374.4,234.333,374.132,234.36,373.956,234.521z M373.363,230.816l8.016,4.624
			c0.535,0.313,0.97,1.065,0.97,1.679c0,0.259-0.088,0.435-0.216,0.551l0,0c0.064-0.018,0.119-0.049,0.167-0.097
			c0.064-0.018,0.119-0.049,0.17-0.097c0.064-0.018,0.119-0.052,0.167-0.097c0.064-0.018,0.119-0.052,0.17-0.097
			c0.064-0.018,0.119-0.049,0.167-0.094c0.064-0.021,0.119-0.055,0.17-0.1c0.064-0.018,0.119-0.052,0.167-0.097
			c0.228-0.073,0.383-0.286,0.383-0.648c0-0.615-0.435-1.369-0.967-1.679l-8.019-4.624c-0.31-0.182-0.575-0.155-0.754,0.006
			c-0.064,0.021-0.119,0.052-0.17,0.1c-0.061,0.018-0.119,0.052-0.167,0.097c-0.064,0.018-0.118,0.049-0.167,0.094
			c-0.064,0.021-0.119,0.052-0.17,0.1c-0.061,0.018-0.119,0.052-0.167,0.097c-0.064,0.018-0.119,0.052-0.17,0.097
			c-0.064,0.018-0.116,0.049-0.164,0.094C372.94,230.673,373.138,230.685,373.363,230.816z M348.006,245.352l36.697,21.189
			c0.539,0.307,0.97,1.065,0.97,1.679c0,0.262-0.088,0.435-0.216,0.554l0,0c0.064-0.021,0.119-0.055,0.167-0.097
			c0.067-0.021,0.119-0.052,0.171-0.097c0.064-0.021,0.118-0.052,0.167-0.097c0.064-0.021,0.119-0.055,0.17-0.097
			c0.064-0.021,0.119-0.055,0.168-0.097c0.064-0.021,0.118-0.052,0.17-0.097c0.064-0.021,0.119-0.055,0.167-0.097
			c0.229-0.073,0.387-0.292,0.387-0.654c0-0.611-0.435-1.366-0.97-1.676l-36.701-21.189c-0.31-0.18-0.578-0.152-0.754,0.009
			c-0.064,0.021-0.119,0.052-0.167,0.097c-0.067,0.021-0.122,0.052-0.17,0.097c-0.064,0.021-0.119,0.052-0.17,0.097
			c-0.061,0.021-0.116,0.052-0.167,0.097c-0.064,0.021-0.119,0.052-0.167,0.097c-0.067,0.021-0.119,0.052-0.17,0.097
			c-0.064,0.021-0.119,0.052-0.167,0.097C347.583,245.212,347.781,245.221,348.006,245.352z M373.956,247.956
			c-0.064,0.024-0.119,0.055-0.167,0.097c-0.067,0.024-0.118,0.055-0.17,0.1c-0.064,0.021-0.118,0.052-0.167,0.097
			c-0.064,0.021-0.119,0.052-0.17,0.094c-0.064,0.024-0.119,0.055-0.167,0.1c-0.064,0.021-0.119,0.052-0.17,0.097
			c-0.064,0.021-0.119,0.052-0.167,0.094c0.164-0.052,0.362-0.037,0.587,0.091l11.341,6.55c0.536,0.307,0.974,1.059,0.97,1.676
			c0,0.262-0.088,0.438-0.216,0.554l0,0c0.064-0.021,0.119-0.052,0.17-0.097c0.064-0.021,0.119-0.055,0.168-0.097
			c0.064-0.021,0.118-0.052,0.167-0.097c0.067-0.021,0.122-0.052,0.17-0.097c0.064-0.021,0.119-0.055,0.168-0.097
			c0.064-0.021,0.118-0.052,0.17-0.097c0.064-0.021,0.119-0.055,0.167-0.097c0.229-0.073,0.387-0.289,0.387-0.651
			c0-0.618-0.438-1.369-0.973-1.679l-11.342-6.547C374.397,247.77,374.132,247.795,373.956,247.956z M373.363,244.25l5.908,3.407
			c0.539,0.313,0.97,1.065,0.97,1.682c0,0.262-0.085,0.435-0.216,0.554c0.067-0.021,0.119-0.052,0.17-0.1
			c0.064-0.018,0.119-0.052,0.17-0.097c0.064-0.018,0.116-0.049,0.168-0.097c0.064-0.018,0.119-0.049,0.167-0.097
			c0.064-0.018,0.119-0.052,0.171-0.097c0.064-0.018,0.118-0.049,0.167-0.097c0.064-0.018,0.119-0.049,0.167-0.097
			c0.228-0.073,0.386-0.286,0.386-0.648c0-0.618-0.435-1.369-0.97-1.682l-5.908-3.407c-0.314-0.18-0.578-0.152-0.758,0.009
			c-0.064,0.018-0.115,0.052-0.167,0.097c-0.064,0.018-0.118,0.052-0.167,0.097c-0.064,0.018-0.119,0.052-0.17,0.097
			c-0.064,0.018-0.119,0.052-0.167,0.097c-0.064,0.021-0.118,0.052-0.17,0.097c-0.064,0.018-0.119,0.052-0.167,0.097
			c-0.064,0.018-0.119,0.052-0.17,0.097l0,0C372.94,244.107,373.141,244.119,373.363,244.25z M373.956,239.002
			c-0.064,0.018-0.119,0.052-0.167,0.097c-0.064,0.018-0.118,0.049-0.17,0.094c-0.061,0.021-0.116,0.052-0.167,0.097
			c-0.064,0.021-0.119,0.055-0.17,0.1c-0.061,0.018-0.115,0.052-0.167,0.094c-0.064,0.021-0.119,0.052-0.167,0.097
			c-0.064,0.021-0.119,0.052-0.167,0.097c0.161-0.052,0.362-0.039,0.584,0.088l11.341,6.547c0.539,0.31,0.97,1.065,0.97,1.682
			c0,0.259-0.088,0.435-0.212,0.551c0.064-0.021,0.115-0.052,0.167-0.097c0.064-0.018,0.119-0.052,0.168-0.097
			c0.064-0.018,0.118-0.052,0.167-0.097c0.067-0.018,0.122-0.052,0.17-0.097c0.064-0.018,0.119-0.052,0.168-0.097
			c0.064-0.018,0.118-0.052,0.167-0.097c0.067-0.018,0.122-0.052,0.17-0.097c0.229-0.073,0.387-0.289,0.387-0.648
			c0-0.617-0.435-1.372-0.973-1.679l-11.338-6.55C374.4,238.811,374.136,238.838,373.956,239.002z"/>
		<path fill="#FFFFFF" d="M385.674,243.52c0.004,0.618-0.432,0.87-0.97,0.56l-11.338-6.547c-0.539-0.31-0.973-1.065-0.973-1.682l0,0
			c0-0.618,0.435-0.87,0.97-0.56l11.341,6.547C385.239,242.148,385.674,242.903,385.674,243.52L385.674,243.52z M382.349,237.119
			c0-0.614-0.435-1.366-0.97-1.679l-8.016-4.624c-0.535-0.31-0.97-0.061-0.973,0.554l0,0c0.003,0.621,0.438,1.372,0.973,1.682
			l8.016,4.627C381.917,237.99,382.349,237.74,382.349,237.119L382.349,237.119z M385.674,247.998c0,0.621-0.435,0.87-0.97,0.56
			l-11.341-6.547c-0.535-0.31-0.97-1.062-0.97-1.682l0,0c0-0.618,0.435-0.867,0.97-0.56l11.341,6.547
			C385.242,246.626,385.674,247.381,385.674,247.998L385.674,247.998z M385.674,256.954c0.004,0.621-0.435,0.873-0.973,0.563
			l-11.335-6.547c-0.542-0.31-0.973-1.065-0.976-1.685l0,0c0.003-0.618,0.435-0.867,0.973-0.557l11.341,6.55
			C385.239,255.586,385.678,256.337,385.674,256.954L385.674,256.954z M380.241,249.34c0-0.618-0.432-1.369-0.97-1.682l-5.908-3.407
			c-0.535-0.313-0.97-0.061-0.97,0.557l0,0c0,0.621,0.435,1.372,0.97,1.682l5.908,3.41
			C379.809,250.21,380.244,249.961,380.241,249.34L380.241,249.34z M385.674,268.22c0,0.621-0.435,0.87-0.967,0.56l-36.704-21.186
			c-0.536-0.313-0.971-1.065-0.971-1.685l0,0c0-0.615,0.438-0.867,0.974-0.557l36.697,21.189
			C385.242,266.848,385.674,267.605,385.674,268.22L385.674,268.22z M378.933,273.282c-0.003,0.621-0.435,0.873-0.973,0.566
			l-29.953-17.295c-0.536-0.313-0.97-1.065-0.974-1.688l0,0c0.004-0.615,0.435-0.864,0.974-0.554l29.956,17.295
			C378.495,271.913,378.933,272.667,378.933,273.282L378.933,273.282z M372.188,264.91c-0.003-0.615-0.438-1.366-0.97-1.676
			l-23.215-13.401c-0.536-0.31-0.967-0.061-0.967,0.557l0,0c0,0.621,0.432,1.372,0.97,1.682l23.212,13.401
			C371.75,265.78,372.188,265.533,372.188,264.91L372.188,264.91z M385.678,283.896c0,0.621-0.435,0.87-0.974,0.56l-36.697-21.189
			c-0.536-0.31-0.97-1.062-0.97-1.682l0,0c0-0.615,0.432-0.867,0.97-0.557l36.701,21.192
			C385.242,282.524,385.678,283.278,385.678,283.896L385.678,283.896z M378.93,288.961c0.003,0.617-0.435,0.867-0.97,0.56
			l-29.953-17.295c-0.539-0.313-0.974-1.062-0.974-1.682l0,0c0.004-0.618,0.435-0.867,0.974-0.557l29.953,17.292
			C378.495,287.589,378.93,288.344,378.93,288.961L378.93,288.961z M372.188,280.586c-0.003-0.618-0.438-1.369-0.97-1.676
			l-23.215-13.401c-0.536-0.313-0.971-0.064-0.971,0.557l0,0c0,0.618,0.435,1.372,0.971,1.682l23.215,13.401
			C371.75,281.459,372.185,281.207,372.188,280.586L372.188,280.586z"/>
		<path opacity="0.2" d="M357.121,219.876c-4.825-2.784-8.74-0.532-8.737,5.035c0,2.333,0.693,4.88,1.847,7.25
			c1.597,3.289,4.085,6.252,6.891,7.87c2.798,1.618,5.287,1.527,6.887,0.088c1.156-1.04,1.85-2.787,1.85-5.12
			C365.858,229.435,361.945,222.663,357.121,219.876z"/>
		<path opacity="0.4" d="M358.468,239.252c-2.805-1.618-5.29-4.582-6.888-7.867c-1.156-2.376-1.852-4.919-1.852-7.253
			c0.003-2.385,0.724-4.156,1.923-5.19c-1.99,0.7-3.27,2.79-3.267,5.969c0,2.333,0.693,4.88,1.847,7.25
			c1.597,3.289,4.085,6.252,6.891,7.87c2.756,1.591,5.202,1.521,6.802,0.149C362.429,240.703,360.534,240.448,358.468,239.252z"/>
		
			<linearGradient id="SVGID_00000029032803781594840670000011573494004092752535_" gradientUnits="userSpaceOnUse" x1="349.7491" y1="229.9566" x2="364.4887" y2="229.9566">
			<stop  offset="0" style="stop-color:#FBD0A6"/>
			<stop  offset="1" style="stop-color:#F64076"/>
		</linearGradient>
		<path fill="url(#SVGID_00000029032803781594840670000011573494004092752535_)" d="M359.923,234.811l0.003,2.151l-2.702,1.555
			l0.003-5.263L359.923,234.811z M349.749,225.58l4.566,2.638v-3.115l-1.867-1.08L349.749,225.58z M357.224,229.897l4.566,2.634
			v3.355l2.696-1.557l0.003-3.356l-4.57-2.638l0.004-5.263l-2.909-1.676l-2.695,1.558l2.905,1.676V229.897z"/>
		<path opacity="0.4" d="M359.923,234.811l0.003,2.151l-2.702,1.555l0.003-5.263L359.923,234.811z M349.749,225.58l4.566,2.638
			v-3.115l-1.867-1.08L349.749,225.58z M357.224,229.897l4.566,2.634v3.355l2.696-1.557l0.003-3.356l-4.57-2.638l0.004-5.263
			l-2.909-1.676l-2.695,1.558l2.905,1.676V229.897z"/>
		<polygon fill="#FFFFFF" points="361.79,232.532 357.224,229.897 357.224,224.631 354.319,222.955 354.315,228.218 349.749,225.58 
			349.753,228.936 354.315,231.574 354.315,236.836 357.224,238.516 357.227,233.253 361.79,235.887 		"/>
	</g>
	<g>
		
			<linearGradient id="SVGID_00000116923364961800433860000003461075196546299286_" gradientUnits="userSpaceOnUse" x1="151.606" y1="77.7188" x2="198.2176" y2="104.6301" gradientTransform="matrix(-1 0 0 1 364.8086 0)">
			<stop  offset="0" style="stop-color:#5AD6BA"/>
			<stop  offset="1" style="stop-color:#4681EA"/>
		</linearGradient>
		<path fill="url(#SVGID_00000116923364961800433860000003461075196546299286_)" d="M133.826,43.211l84.805,48.962
			c2.236,1.29,4.046,4.426,4.046,7.003v53.413c0.003,1.548-0.66,2.525-1.664,2.796c0.167-0.046,0.335-0.094,0.476-0.179l1.363-0.785
			l-0.002-0.003c0.727-0.426,1.177-1.323,1.177-2.607V98.398c0-2.577-1.813-5.713-4.049-7.003l-84.806-48.964
			c-1.112-0.644-2.123-0.704-2.853-0.288l0,0l-0.005,0.003l0,0l-1.348,0.779C131.696,42.504,132.708,42.566,133.826,43.211z"/>
		<path opacity="0.4" d="M133.826,43.211l84.805,48.962c2.236,1.29,4.046,4.426,4.046,7.003v53.413
			c0.003,1.548-0.66,2.525-1.664,2.796c0.167-0.046,0.335-0.094,0.476-0.179l1.363-0.785l-0.002-0.003
			c0.727-0.426,1.177-1.323,1.177-2.607V98.398c0-2.577-1.813-5.713-4.049-7.003l-84.806-48.964
			c-1.112-0.644-2.123-0.704-2.853-0.288l0,0l-0.005,0.003l0,0l-1.348,0.779C131.696,42.504,132.708,42.566,133.826,43.211z"/>
		
			<linearGradient id="SVGID_00000105417581137391159810000013040263577991591869_" gradientUnits="userSpaceOnUse" x1="152.9549" y1="78.4979" x2="224.205" y2="119.6342" gradientTransform="matrix(-1 0 0 1 364.8086 0)">
			<stop  offset="0" style="stop-color:#5AD6BA"/>
			<stop  offset="1" style="stop-color:#4681EA"/>
		</linearGradient>
		<path fill="url(#SVGID_00000105417581137391159810000013040263577991591869_)" d="M218.631,92.174
			c2.236,1.29,4.046,4.426,4.046,7.003v53.413c0.003,2.58-1.813,3.623-4.046,2.333l-84.805-48.962
			c-2.233-1.293-4.046-4.426-4.046-7.006l-0.003-53.413c0.003-2.578,1.817-3.623,4.049-2.33L218.631,92.174z"/>
		
			<linearGradient id="SVGID_00000018947672659374622540000012642359205697503927_" gradientUnits="userSpaceOnUse" x1="169.4513" y1="101.3116" x2="209.8104" y2="124.6129" gradientTransform="matrix(-1 0 0 1 364.8086 0)">
			<stop  offset="0" style="stop-color:#5AD6BA"/>
			<stop  offset="1" style="stop-color:#4681EA"/>
		</linearGradient>
		<path fill="url(#SVGID_00000018947672659374622540000012642359205697503927_)" d="M164.991,100.339
			c1.813-1.123,2.972-4.536,4.107-7.867c1.366-4.013,2.774-8.132,5.059-7.675c-0.192-0.033-0.38-0.049-0.564-0.021
			c-1.249,1.342-2.208,4.159-3.145,6.918c-1.144,3.362-2.318,6.799-4.155,7.891h0.003L164.991,100.339z M143.437,89.001
			c-1.034,2.163-2.09,4.372-3.617,5.226l0,0l1.317-0.761c0.009-0.003,0.016-0.009,0.025-0.012l0.048-0.03v-0.003
			c1.506-0.873,2.553-3.054,3.578-5.199c0.825-1.731,1.628-3.401,2.61-4.356c0.274-0.055,0.56-0.055,0.864,0.009
			C146.102,83.427,144.803,86.141,143.437,89.001z M137.758,91.638l-1.348,0.779c2.759,1.594,4.232-1.488,5.79-4.746
			c-0.825,1.728-1.631,3.401-2.617,4.356C139.041,92.137,138.439,92.03,137.758,91.638z M145.81,82.451
			c0.928-0.523,2.032-0.548,3.417,0.253c3.514,2.029,5.324,5.491,6.918,8.542c1.545,2.951,3.006,5.744,5.902,7.414
			c1.214,0.7,2.194,0.173,3.042-1.016c-0.137,0.192-0.274,0.371-0.42,0.526c-0.395,0.052-0.815-0.024-1.272-0.289
			c-2.896-1.67-4.359-4.463-5.901-7.414c-1.598-3.051-3.405-6.513-6.921-8.542c-1.314-0.761-2.379-0.77-3.28-0.32l-0.006-0.009
			l-1.481,0.855H145.81z M174.872,83.506c3.69,2.133,5.4,9.124,7.048,15.883c1.503,6.148,3.051,12.51,5.772,14.076
			c2.595,1.497,4.268,1.339,6.044,1.171c1.862-0.173,3.791-0.353,6.784,1.375c3.602,2.081,5.333,6.693,7.003,11.153
			c1.551,4.14,3.015,8.053,5.826,9.674l-0.003,1.554l1.351-0.779v-1.555c-2.808-1.621-4.274-5.534-5.826-9.674
			c-1.67-4.46-3.398-9.072-7.003-11.153c-2.991-1.728-4.922-1.548-6.785-1.375c-1.773,0.167-3.45,0.325-6.044-1.171
			c-2.717-1.567-4.268-7.928-5.771-14.076c-1.649-6.76-3.358-13.751-7.049-15.883c-1.04-0.602-1.92-0.621-2.686-0.249l-0.009-0.018
			l-0.222,0.128c-0.013,0.006-0.028,0.015-0.037,0.021l-1.311,0.757C172.776,82.873,173.728,82.846,174.872,83.506z"/>
		<path opacity="0.4" d="M164.991,100.339c1.813-1.123,2.972-4.536,4.107-7.867c1.366-4.013,2.774-8.132,5.059-7.675
			c-0.192-0.033-0.38-0.049-0.564-0.021c-1.249,1.342-2.208,4.159-3.145,6.918c-1.144,3.362-2.318,6.799-4.155,7.891h0.003
			L164.991,100.339z M143.437,89.001c-1.034,2.163-2.09,4.372-3.617,5.226l0,0l1.317-0.761c0.009-0.003,0.016-0.009,0.025-0.012
			l0.048-0.03v-0.003c1.506-0.873,2.553-3.054,3.578-5.199c0.825-1.731,1.628-3.401,2.61-4.356c0.274-0.055,0.56-0.055,0.864,0.009
			C146.102,83.427,144.803,86.141,143.437,89.001z M137.758,91.638l-1.348,0.779c2.759,1.594,4.232-1.488,5.79-4.746
			c-0.825,1.728-1.631,3.401-2.617,4.356C139.041,92.137,138.439,92.03,137.758,91.638z M145.81,82.451
			c0.928-0.523,2.032-0.548,3.417,0.253c3.514,2.029,5.324,5.491,6.918,8.542c1.545,2.951,3.006,5.744,5.902,7.414
			c1.214,0.7,2.194,0.173,3.042-1.016c-0.137,0.192-0.274,0.371-0.42,0.526c-0.395,0.052-0.815-0.024-1.272-0.289
			c-2.896-1.67-4.359-4.463-5.901-7.414c-1.598-3.051-3.405-6.513-6.921-8.542c-1.314-0.761-2.379-0.77-3.28-0.32l-0.006-0.009
			l-1.481,0.855H145.81z M174.872,83.506c3.69,2.133,5.4,9.124,7.048,15.883c1.503,6.148,3.051,12.51,5.772,14.076
			c2.595,1.497,4.268,1.339,6.044,1.171c1.862-0.173,3.791-0.353,6.784,1.375c3.602,2.081,5.333,6.693,7.003,11.153
			c1.551,4.14,3.015,8.053,5.826,9.674l-0.003,1.554l1.351-0.779v-1.555c-2.808-1.621-4.274-5.534-5.826-9.674
			c-1.67-4.46-3.398-9.072-7.003-11.153c-2.991-1.728-4.922-1.548-6.785-1.375c-1.773,0.167-3.45,0.325-6.044-1.171
			c-2.717-1.567-4.268-7.928-5.771-14.076c-1.649-6.76-3.358-13.751-7.049-15.883c-1.04-0.602-1.92-0.621-2.686-0.249l-0.009-0.018
			l-0.222,0.128c-0.013,0.006-0.028,0.015-0.037,0.021l-1.311,0.757C172.776,82.873,173.728,82.846,174.872,83.506z"/>
		<path fill="#FFFFFF" d="M213.346,138.393c-3.605-2.084-5.333-6.696-7.003-11.159c-1.551-4.137-3.015-8.047-5.823-9.665
			c-2.629-1.518-4.317-1.363-6.106-1.196c-1.853,0.176-3.766,0.356-6.726-1.354c-3.693-2.133-5.4-9.126-7.048-15.883
			c-1.503-6.151-3.051-12.506-5.768-14.076c-2.72-1.57-4.268,2.993-5.774,7.411c-1.649,4.852-3.358,9.878-7.048,7.742
			c-3.514-2.026-5.327-5.485-6.921-8.542c-1.545-2.951-3.003-5.741-5.902-7.414c-2.762-1.594-4.232,1.482-5.79,4.743
			c-1.661,3.48-3.38,7.079-7.031,4.971l0.004-1.555c2.759,1.594,4.232-1.488,5.79-4.746c1.664-3.48,3.38-7.073,7.027-4.968
			c3.514,2.029,5.324,5.491,6.918,8.542c1.545,2.951,3.006,5.744,5.902,7.414c2.714,1.57,4.271-2.997,5.771-7.411
			c1.652-4.855,3.355-9.878,7.055-7.742c3.69,2.133,5.4,9.124,7.048,15.883c1.503,6.148,3.051,12.51,5.772,14.076
			c2.595,1.497,4.268,1.339,6.044,1.171c1.862-0.173,3.791-0.353,6.784,1.375c3.602,2.081,5.333,6.693,7.003,11.153
			c1.551,4.14,3.015,8.053,5.826,9.674L213.346,138.393z"/>
		<path opacity="0.2" d="M167.452,98.492v17.79l-1.348-0.779V99.697l0.192-0.113h-0.003c0.14-0.085,0.267-0.204,0.398-0.31
			c0.052-0.043,0.107-0.076,0.155-0.122c0.179-0.164,0.35-0.356,0.516-0.563C167.391,98.553,167.425,98.529,167.452,98.492z
			 M175.55,85.627l0.003,35.332l1.348,0.779V87.434C176.488,86.692,176.037,86.086,175.55,85.627z M194.448,116.371l0.003,15.5
			l1.348,0.779v-16.373C195.343,116.292,194.899,116.331,194.448,116.371z M185.002,112.164l-0.003,14.253l1.351,0.776v-13.236
			C185.864,113.454,185.416,112.845,185.002,112.164z M137.758,94.492v4.645l1.348,0.779v-5.403
			C138.695,94.616,138.241,94.598,137.758,94.492z M147.544,83.85c0.004,0,0.007,0,0.013,0c0.085-0.009,0.173-0.024,0.261-0.024
			C147.724,83.826,147.636,83.838,147.544,83.85z M203.9,121.454v15.871l1.348,0.779v-13.705
			C204.825,123.353,204.384,122.358,203.9,121.454z M148.262,83.874c-0.25-0.052-0.481-0.052-0.706-0.024
			c-0.034,0.003-0.067,0.003-0.1,0.009c0,0,0,0,0.002,0c-0.015,0.003-0.027,0.012-0.042,0.015c-0.031,0.024-0.058,0.046-0.089,0.073
			c-0.043,0.046-0.082,0.103-0.125,0.152v20.495l1.351,0.779V83.963C148.454,83.932,148.357,83.893,148.262,83.874z M156.655,94.455
			v15.594l1.348,0.779V96.499C157.511,95.839,157.066,95.152,156.655,94.455z M176.22,82.727c0.237,0.137,0.462,0.292,0.681,0.466
			c0,0,0,0,0.002,0v-6.02l-1.35-0.779v6.017C175.766,82.49,175.989,82.597,176.22,82.727z M167.452,92.317V71.718l-1.348-0.779
			v24.873C166.582,94.768,167.023,93.561,167.452,92.317z M156.677,88.934c0.28,0.514,0.554,1.031,0.819,1.533
			c0.173,0.325,0.341,0.645,0.511,0.964V66.262l-1.352-0.779v23.408C156.662,88.906,156.671,88.918,156.677,88.934z M147.288,81.596
			l0.006,0.009c0.013-0.003,0.025-0.006,0.037-0.012c0.194-0.091,0.395-0.164,0.605-0.21c0.106-0.027,0.219-0.03,0.326-0.04
			c0.097-0.012,0.188-0.036,0.292-0.036V60.806l-1.348-0.777l-0.004,21.613L147.288,81.596z M137.758,91.638
			c0.225,0.131,0.441,0.219,0.651,0.289c0.034,0.012,0.07,0.021,0.106,0.03c0.204,0.058,0.402,0.097,0.591,0.103l0.003-36.71
			l-1.351-0.779V91.638z M185.011,105.258c0.125,0.417,0.259,0.803,0.39,1.202c0.088,0.268,0.173,0.545,0.261,0.8
			c0.167,0.472,0.347,0.903,0.523,1.333c0.055,0.134,0.11,0.283,0.164,0.414V82.63l-1.348-0.779v23.373
			C185.005,105.237,185.009,105.249,185.011,105.258z M204.515,117.573c0.204,0.243,0.398,0.499,0.587,0.764
			c0.046,0.064,0.094,0.119,0.14,0.186c0.004,0.003,0.006,0.006,0.01,0.012V93.539l-1.351-0.779v24.118
			C204.11,117.101,204.32,117.329,204.515,117.573z M213.922,135.503c0.25,0.201,0.502,0.396,0.775,0.557V98.997l-1.348-0.782
			l-0.003,36.768C213.532,135.166,213.724,135.339,213.922,135.503z M213.349,142.782l1.348,0.779v-5.946l-1.348,0.779V142.782z
			 M195.084,113.858c0.237-0.021,0.475-0.043,0.715-0.061V88.085l-1.348-0.779l-0.003,26.61
			C194.661,113.898,194.874,113.883,195.084,113.858z"/>
	</g>
	<g>
		<g opacity="0.1">
			<path fill="#1B50B0" d="M86.864,414.013c0.015-8.044,5.342-16.084,15.974-22.223c21.283-12.287,55.772-12.303,77.025-0.034
				c10.641,6.148,15.95,14.201,15.935,22.257c-0.018,8.041-5.342,16.081-15.977,22.22c-21.283,12.287-55.769,12.302-77.031,0.03
				c-10.63-6.139-15.938-14.186-15.929-22.232v-0.018H86.864z"/>
		</g>
		<g>
			
				<linearGradient id="SVGID_00000097498092644628533110000014395328866971960471_" gradientUnits="userSpaceOnUse" x1="151.9084" y1="149.6845" x2="193.3922" y2="221.5366">
				<stop  offset="0" style="stop-color:#FBD0A6"/>
				<stop  offset="1" style="stop-color:#F64076"/>
			</linearGradient>
			<path fill="url(#SVGID_00000097498092644628533110000014395328866971960471_)" d="M138.004,157.834
				c0.727-0.821,1.958-0.928,3.354-0.122l46.313,26.741c2.237,1.29,4.047,4.423,4.05,7v29.115c0,1.29-0.453,2.193-1.184,2.616l0,0
				l1.265-0.73l-0.008-0.015c0.782-0.398,1.275-1.311,1.275-2.651v-29.113c0-2.577-1.812-5.713-4.048-7l-46.314-26.741
				c-1.12-0.645-2.13-0.706-2.864-0.283l0,0l-1.345,0.776C138.315,157.533,138.149,157.667,138.004,157.834z"/>
			<path opacity="0.4" d="M138.004,157.834c0.727-0.821,1.958-0.928,3.354-0.122l46.313,26.741c2.237,1.29,4.047,4.423,4.05,7
				v29.115c0,1.29-0.453,2.193-1.184,2.616l0,0l1.265-0.73l-0.008-0.015c0.782-0.398,1.275-1.311,1.275-2.651v-29.113
				c0-2.577-1.812-5.713-4.048-7l-46.314-26.741c-1.12-0.645-2.13-0.706-2.864-0.283l0,0l-1.345,0.776
				C138.315,157.533,138.149,157.667,138.004,157.834z"/>
			
				<linearGradient id="SVGID_00000039853364599214499070000018320923882562988419_" gradientUnits="userSpaceOnUse" x1="143.775" y1="154.381" x2="185.2584" y2="226.2322">
				<stop  offset="0" style="stop-color:#FBD0A6"/>
				<stop  offset="1" style="stop-color:#F64076"/>
			</linearGradient>
			<path fill="url(#SVGID_00000039853364599214499070000018320923882562988419_)" d="M191.721,220.568
				c0,2.58-1.816,3.623-4.047,2.333l-46.316-26.739c-2.234-1.293-4.043-4.429-4.043-7.006l-0.003-29.114
				c0.002-2.577,1.812-3.62,4.046-2.33l46.313,26.741c2.237,1.29,4.047,4.423,4.05,7V220.568z"/>
			
				<linearGradient id="SVGID_00000029009885487415392550000011560191635226777256_" gradientUnits="userSpaceOnUse" x1="168.6845" y1="185.418" x2="183.4647" y2="211.018">
				<stop  offset="0" style="stop-color:#FBD0A6"/>
				<stop  offset="1" style="stop-color:#F64076"/>
			</linearGradient>
			<path fill="url(#SVGID_00000029009885487415392550000011560191635226777256_)" d="M178.019,203.394
				c-0.049,0.046-0.104,0.076-0.169,0.097c-0.05,0.046-0.103,0.076-0.169,0.097c-0.049,0.046-0.104,0.076-0.167,0.097
				c-0.049,0.046-0.104,0.076-0.17,0.097c-0.049,0.046-0.104,0.076-0.167,0.097c-0.049,0.046-0.104,0.076-0.167,0.097
				c-0.053,0.046-0.105,0.076-0.169,0.097c0.127-0.116,0.215-0.292,0.215-0.551c0.001-0.618-0.432-1.369-0.971-1.679l-5.906-3.41
				c-0.226-0.131-0.425-0.143-0.589-0.091c0.052-0.046,0.104-0.076,0.167-0.097c0.053-0.046,0.107-0.076,0.171-0.094
				c0.049-0.046,0.104-0.079,0.169-0.1c0.048-0.046,0.105-0.076,0.169-0.097c0.049-0.046,0.104-0.076,0.167-0.097
				c0.049-0.043,0.104-0.076,0.17-0.097c0.049-0.043,0.104-0.076,0.168-0.097c0.178-0.161,0.444-0.189,0.756-0.006l5.907,3.41
				c0.538,0.31,0.973,1.062,0.97,1.679C178.404,203.105,178.249,203.321,178.019,203.394z M170.77,188.706
				c-0.064,0.021-0.119,0.052-0.171,0.097c-0.064,0.021-0.116,0.052-0.167,0.097c-0.064,0.021-0.118,0.052-0.169,0.097
				c-0.062,0.021-0.119,0.052-0.169,0.097c-0.064,0.021-0.119,0.052-0.167,0.097c-0.065,0.021-0.118,0.052-0.171,0.097
				c-0.062,0.021-0.118,0.052-0.167,0.097l0,0c0.164-0.052,0.361-0.043,0.587,0.088l11.34,6.547c0.537,0.31,0.972,1.065,0.972,1.679
				c0,0.258-0.088,0.435-0.217,0.551c0.064-0.018,0.119-0.052,0.169-0.094c0.065-0.021,0.119-0.052,0.168-0.097
				c0.064-0.021,0.12-0.055,0.168-0.097c0.064-0.021,0.121-0.055,0.171-0.097c0.064-0.021,0.118-0.052,0.165-0.097
				c0.065-0.021,0.121-0.055,0.169-0.097c0.065-0.021,0.122-0.055,0.17-0.097c0.229-0.073,0.384-0.289,0.384-0.651
				c0-0.615-0.434-1.369-0.972-1.679l-11.339-6.547C171.212,188.518,170.948,188.545,170.77,188.706z M170.77,202.144
				c-0.064,0.021-0.119,0.052-0.168,0.097c-0.065,0.021-0.119,0.052-0.17,0.097c-0.064,0.021-0.118,0.052-0.169,0.097
				c-0.064,0.021-0.119,0.052-0.169,0.097c-0.064,0.021-0.119,0.052-0.167,0.097c-0.064,0.021-0.118,0.052-0.171,0.097
				c-0.064,0.021-0.118,0.052-0.167,0.097c0.165-0.055,0.361-0.043,0.587,0.088l11.34,6.547c0.537,0.31,0.972,1.065,0.972,1.679
				c0,0.259-0.088,0.438-0.218,0.554c0.001,0,0.001,0,0.001,0c0.064-0.021,0.119-0.052,0.169-0.097
				c0.064-0.021,0.117-0.055,0.168-0.097c0.062-0.021,0.12-0.052,0.168-0.097c0.064-0.021,0.119-0.052,0.171-0.097
				c0.064-0.021,0.118-0.052,0.167-0.1c0.064-0.018,0.119-0.049,0.167-0.094c0.064-0.021,0.118-0.052,0.17-0.097
				c0.229-0.073,0.384-0.292,0.384-0.651c-0.001-0.618-0.434-1.369-0.972-1.679l-11.337-6.547
				C171.212,201.955,170.946,201.982,170.77,202.144z M170.176,184.998l8.016,4.627c0.536,0.31,0.971,1.062,0.971,1.679
				c0,0.258-0.088,0.435-0.216,0.554l0,0c0.064-0.021,0.119-0.052,0.169-0.1c0.065-0.018,0.118-0.052,0.169-0.097
				c0.064-0.018,0.117-0.052,0.167-0.094c0.064-0.021,0.119-0.052,0.168-0.097c0.066-0.021,0.121-0.055,0.17-0.1
				c0.065-0.018,0.119-0.052,0.167-0.097c0.067-0.018,0.119-0.049,0.17-0.094c0.229-0.076,0.386-0.292,0.385-0.651
				c-0.001-0.618-0.436-1.369-0.97-1.679l-8.018-4.627c-0.313-0.179-0.578-0.152-0.754,0.009c-0.064,0.021-0.119,0.052-0.169,0.097
				c-0.064,0.021-0.118,0.052-0.169,0.097c-0.064,0.021-0.118,0.052-0.17,0.097c-0.062,0.021-0.119,0.052-0.167,0.097
				c-0.064,0.021-0.119,0.052-0.167,0.097c-0.065,0.021-0.118,0.052-0.171,0.097c-0.064,0.021-0.118,0.052-0.167,0.097
				C169.753,184.858,169.95,184.87,170.176,184.998z M170.77,193.184c-0.064,0.021-0.119,0.052-0.168,0.097
				c-0.065,0.021-0.118,0.052-0.17,0.097c-0.064,0.021-0.118,0.052-0.169,0.097c-0.064,0.021-0.118,0.052-0.169,0.097
				c-0.064,0.021-0.117,0.052-0.167,0.097c-0.064,0.021-0.118,0.052-0.171,0.097c-0.062,0.021-0.118,0.052-0.167,0.097
				c0.165-0.052,0.361-0.04,0.587,0.091l11.341,6.544c0.537,0.31,0.971,1.065,0.971,1.682c0,0.259-0.088,0.435-0.217,0.551l0,0
				c0.064-0.021,0.119-0.052,0.169-0.097c0.064-0.021,0.117-0.052,0.168-0.097c0.062-0.021,0.12-0.052,0.168-0.097
				c0.064-0.021,0.121-0.052,0.169-0.097c0.065-0.021,0.12-0.052,0.169-0.097c0.064-0.018,0.119-0.052,0.167-0.097
				c0.064-0.021,0.122-0.052,0.17-0.097c0.229-0.073,0.386-0.289,0.386-0.651c-0.002-0.615-0.436-1.366-0.974-1.679l-11.339-6.544
				C171.212,192.996,170.948,193.023,170.77,193.184z"/>
			<path opacity="0.4" d="M178.019,203.394c-0.049,0.046-0.104,0.076-0.169,0.097c-0.05,0.046-0.103,0.076-0.169,0.097
				c-0.049,0.046-0.104,0.076-0.167,0.097c-0.049,0.046-0.104,0.076-0.17,0.097c-0.049,0.046-0.104,0.076-0.167,0.097
				c-0.049,0.046-0.104,0.076-0.167,0.097c-0.053,0.046-0.105,0.076-0.169,0.097c0.127-0.116,0.215-0.292,0.215-0.551
				c0.001-0.618-0.432-1.369-0.971-1.679l-5.906-3.41c-0.226-0.131-0.425-0.143-0.589-0.091c0.052-0.046,0.104-0.076,0.167-0.097
				c0.053-0.046,0.107-0.076,0.171-0.094c0.049-0.046,0.104-0.079,0.169-0.1c0.048-0.046,0.105-0.076,0.169-0.097
				c0.049-0.046,0.104-0.076,0.167-0.097c0.049-0.043,0.104-0.076,0.17-0.097c0.049-0.043,0.104-0.076,0.168-0.097
				c0.178-0.161,0.444-0.189,0.756-0.006l5.907,3.41c0.538,0.31,0.973,1.062,0.97,1.679
				C178.404,203.105,178.249,203.321,178.019,203.394z M170.77,188.706c-0.064,0.021-0.119,0.052-0.171,0.097
				c-0.064,0.021-0.116,0.052-0.167,0.097c-0.064,0.021-0.118,0.052-0.169,0.097c-0.062,0.021-0.119,0.052-0.169,0.097
				c-0.064,0.021-0.119,0.052-0.167,0.097c-0.065,0.021-0.118,0.052-0.171,0.097c-0.062,0.021-0.118,0.052-0.167,0.097l0,0
				c0.164-0.052,0.361-0.043,0.587,0.088l11.34,6.547c0.537,0.31,0.972,1.065,0.972,1.679c0,0.258-0.088,0.435-0.217,0.551
				c0.064-0.018,0.119-0.052,0.169-0.094c0.065-0.021,0.119-0.052,0.168-0.097c0.064-0.021,0.12-0.055,0.168-0.097
				c0.064-0.021,0.121-0.055,0.171-0.097c0.064-0.021,0.118-0.052,0.165-0.097c0.065-0.021,0.121-0.055,0.169-0.097
				c0.065-0.021,0.122-0.055,0.17-0.097c0.229-0.073,0.384-0.289,0.384-0.651c0-0.615-0.434-1.369-0.972-1.679l-11.339-6.547
				C171.212,188.518,170.948,188.545,170.77,188.706z M170.77,202.144c-0.064,0.021-0.119,0.052-0.168,0.097
				c-0.065,0.021-0.119,0.052-0.17,0.097c-0.064,0.021-0.118,0.052-0.169,0.097c-0.064,0.021-0.119,0.052-0.169,0.097
				c-0.064,0.021-0.119,0.052-0.167,0.097c-0.064,0.021-0.118,0.052-0.171,0.097c-0.064,0.021-0.118,0.052-0.167,0.097
				c0.165-0.055,0.361-0.043,0.587,0.088l11.34,6.547c0.537,0.31,0.972,1.065,0.972,1.679c0,0.259-0.088,0.438-0.218,0.554
				c0.001,0,0.001,0,0.001,0c0.064-0.021,0.119-0.052,0.169-0.097c0.064-0.021,0.117-0.055,0.168-0.097
				c0.062-0.021,0.12-0.052,0.168-0.097c0.064-0.021,0.119-0.052,0.171-0.097c0.064-0.021,0.118-0.052,0.167-0.1
				c0.064-0.018,0.119-0.049,0.167-0.094c0.064-0.021,0.118-0.052,0.17-0.097c0.229-0.073,0.384-0.292,0.384-0.651
				c-0.001-0.618-0.434-1.369-0.972-1.679l-11.337-6.547C171.212,201.955,170.946,201.982,170.77,202.144z M170.176,184.998
				l8.016,4.627c0.536,0.31,0.971,1.062,0.971,1.679c0,0.258-0.088,0.435-0.216,0.554l0,0c0.064-0.021,0.119-0.052,0.169-0.1
				c0.065-0.018,0.118-0.052,0.169-0.097c0.064-0.018,0.117-0.052,0.167-0.094c0.064-0.021,0.119-0.052,0.168-0.097
				c0.066-0.021,0.121-0.055,0.17-0.1c0.065-0.018,0.119-0.052,0.167-0.097c0.067-0.018,0.119-0.049,0.17-0.094
				c0.229-0.076,0.386-0.292,0.385-0.651c-0.001-0.618-0.436-1.369-0.97-1.679l-8.018-4.627c-0.313-0.179-0.578-0.152-0.754,0.009
				c-0.064,0.021-0.119,0.052-0.169,0.097c-0.064,0.021-0.118,0.052-0.169,0.097c-0.064,0.021-0.118,0.052-0.17,0.097
				c-0.062,0.021-0.119,0.052-0.167,0.097c-0.064,0.021-0.119,0.052-0.167,0.097c-0.065,0.021-0.118,0.052-0.171,0.097
				c-0.064,0.021-0.118,0.052-0.167,0.097C169.753,184.858,169.95,184.87,170.176,184.998z M170.77,193.184
				c-0.064,0.021-0.119,0.052-0.168,0.097c-0.065,0.021-0.118,0.052-0.17,0.097c-0.064,0.021-0.118,0.052-0.169,0.097
				c-0.064,0.021-0.118,0.052-0.169,0.097c-0.064,0.021-0.117,0.052-0.167,0.097c-0.064,0.021-0.118,0.052-0.171,0.097
				c-0.062,0.021-0.118,0.052-0.167,0.097c0.165-0.052,0.361-0.04,0.587,0.091l11.341,6.544c0.537,0.31,0.971,1.065,0.971,1.682
				c0,0.259-0.088,0.435-0.217,0.551l0,0c0.064-0.021,0.119-0.052,0.169-0.097c0.064-0.021,0.117-0.052,0.168-0.097
				c0.062-0.021,0.12-0.052,0.168-0.097c0.064-0.021,0.121-0.052,0.169-0.097c0.065-0.021,0.12-0.052,0.169-0.097
				c0.064-0.018,0.119-0.052,0.167-0.097c0.064-0.021,0.122-0.052,0.17-0.097c0.229-0.073,0.386-0.289,0.386-0.651
				c-0.002-0.615-0.436-1.366-0.974-1.679l-11.339-6.544C171.212,192.996,170.948,193.023,170.77,193.184z"/>
			<path fill="#FFFFFF" d="M182.488,197.702c0,0.621-0.435,0.87-0.972,0.56l-11.34-6.547c-0.537-0.31-0.97-1.062-0.973-1.682l0,0
				c0.003-0.615,0.435-0.867,0.973-0.557l11.34,6.547C182.053,196.333,182.488,197.088,182.488,197.702L182.488,197.702z
				 M179.163,191.304c0-0.618-0.435-1.369-0.971-1.679l-8.016-4.627c-0.539-0.31-0.973-0.058-0.97,0.557l0,0
				c-0.003,0.621,0.434,1.375,0.97,1.685l8.014,4.624C178.728,192.177,179.163,191.925,179.163,191.304L179.163,191.304z
				 M182.488,202.183c0,0.618-0.434,0.87-0.972,0.56l-11.34-6.547c-0.535-0.31-0.973-1.065-0.97-1.682l0,0
				c0-0.618,0.435-0.87,0.97-0.557l11.341,6.544C182.055,200.811,182.488,201.566,182.488,202.183L182.488,202.183z
				 M182.488,211.139c0,0.621-0.432,0.87-0.973,0.563l-11.336-6.55c-0.538-0.31-0.976-1.062-0.973-1.682l0,0
				c-0.003-0.615,0.432-0.867,0.97-0.557l11.34,6.547C182.053,209.77,182.488,210.525,182.488,211.139L182.488,211.139z
				 M177.055,203.525c0.001-0.618-0.432-1.369-0.971-1.679l-5.906-3.41c-0.537-0.313-0.972-0.061-0.975,0.557l0,0
				c0.003,0.621,0.438,1.372,0.973,1.682l5.908,3.41C176.622,204.392,177.058,204.145,177.055,203.525L177.055,203.525z"/>
			<path opacity="0.2" d="M153.935,174.064c-4.826-2.784-8.74-0.532-8.739,5.035c0,2.333,0.696,4.88,1.848,7.25
				c1.598,3.289,4.086,6.252,6.891,7.87c2.799,1.618,5.287,1.527,6.887,0.088c1.155-1.04,1.848-2.787,1.85-5.12
				C162.672,183.623,158.758,176.851,153.935,174.064z"/>
			<path opacity="0.4" d="M155.281,193.44c-2.804-1.618-5.291-4.582-6.887-7.867c-1.156-2.376-1.853-4.919-1.853-7.253
				c0.003-2.385,0.724-4.156,1.923-5.19c-1.989,0.7-3.27,2.79-3.269,5.969c0,2.333,0.696,4.88,1.848,7.25
				c1.598,3.289,4.086,6.252,6.891,7.87c2.754,1.591,5.202,1.521,6.801,0.149C159.242,194.891,157.348,194.635,155.281,193.44z"/>
			
				<linearGradient id="SVGID_00000023244072964120431140000002727854947311982771_" gradientUnits="userSpaceOnUse" x1="146.5629" y1="184.1445" x2="161.3013" y2="184.1445">
				<stop  offset="0" style="stop-color:#FBD0A6"/>
				<stop  offset="1" style="stop-color:#F64076"/>
			</linearGradient>
			<path fill="url(#SVGID_00000023244072964120431140000002727854947311982771_)" d="M156.736,188.998l0.001,2.151l-2.7,1.555
				l0.002-5.263L156.736,188.998z M146.563,179.768l4.566,2.638v-3.115l-1.867-1.08L146.563,179.768z M154.038,184.085l4.566,2.634
				v3.356l2.696-1.558l0.002-3.356l-4.568-2.638l0.003-5.263l-2.909-1.676l-2.698,1.558l2.907,1.676V184.085z"/>
			<path opacity="0.4" d="M156.736,188.998l0.001,2.151l-2.7,1.555l0.002-5.263L156.736,188.998z M146.563,179.768l4.566,2.638
				v-3.115l-1.867-1.08L146.563,179.768z M154.038,184.085l4.566,2.634v3.356l2.696-1.558l0.002-3.356l-4.568-2.638l0.003-5.263
				l-2.909-1.676l-2.698,1.558l2.907,1.676V184.085z"/>
			<polygon fill="#FFFFFF" points="158.604,186.72 154.038,184.085 154.038,178.819 151.13,177.143 151.129,182.406 
				146.563,179.768 146.565,183.124 151.129,185.762 151.129,191.024 154.038,192.704 154.039,187.441 158.604,190.075 			"/>
		</g>
		<g>
			<path opacity="0.3" d="M138.457,187.809c0.39-0.615,0.326-1.101,1.29-1.685c0.966-0.584,1.761-1.591,2.118-2.823
				c0.357-1.232-0.259-1.883-0.934-1.831c0,0-0.459,1.15-0.849,1.734c-0.326,0.487-1.526,0.59-2.77,0.453v9.823
				c0.221-0.286,0.452-0.63,0.692-1.086C139.138,190.227,138.068,188.426,138.457,187.809z"/>
			<g>
				<path fill="#FDB5A0" d="M137.312,181.944c0,0-2.025,0.691-3.068,2.443c-1.045,1.752-3.302,4.682-4.355,6.468
					c-5.713,9.698,3.152,6.93,4.562,4.667c1.763-2.829,0.898-1.46,2.035-2.23c1.135-0.767,1.442-2.178,1.32-3.559
					c-0.123-1.384-0.35-1.494-0.061-1.843c0.603-0.736,0.167-0.967,0.49-1.29c0.323-0.323,3.38-1.752,3.38-3.839
					c0-2.087-1.375-1.098-1.599-0.8c-1.275,1.728-2.712,2.263-2.712,2.263L137.312,181.944z"/>
				<g opacity="0.12">
					<path fill="#6D667F" d="M134.451,195.521c1.763-2.829,0.898-1.46,2.035-2.23c1.135-0.767,1.442-2.178,1.32-3.559
						c-0.123-1.384-0.35-1.494-0.061-1.843c0.603-0.736,0.167-0.967,0.49-1.29c0.323-0.323,3.38-1.752,3.38-3.839
						c0-1.482-0.688-1.408-1.171-1.138c0.31,0.116,0.602,1.704-0.335,2.562c-0.942,0.861-3.113,1.576-4.156,2.68
						c-1.045,1.107-1.064,3.687-2.642,4.813c-1.139,0.812-2.431,2.622-2.353,2.735C132.105,195.785,133.704,196.716,134.451,195.521
						z"/>
				</g>
				<g opacity="0.1">
					<path fill="#6D667F" d="M136.649,183.179c-0.368,0.143-1.084,0.39-1.577,1.022c-0.489,0.636-0.54,1.19,0.201,0.861
						c0.742-0.326,1.497-0.572,2.032-0.84l0.007-2.279C137.233,182.497,137.017,183.036,136.649,183.179z"/>
				</g>
				<g opacity="0.05">
					<path fill="#6D667F" d="M135.811,190.118c-0.718,0.268-1.115,0.472-0.539,0.472c0.578,0,1.316,0.636,0.701,1.311
						c-0.614,0.675-0.348,1.375-2.077,2.294c-0.011,0.006-0.014,0.012-0.026,0.018c1.264-0.599,1.786-0.359,2.617-0.922
						c1.135-0.767,1.442-2.178,1.32-3.559c-0.11-1.247-0.301-1.46-0.127-1.746c0,0-0.002,0-0.004,0
						C137.228,188.624,136.526,189.853,135.811,190.118z"/>
				</g>
			</g>
		</g>
		<g>
			<path opacity="0.3" d="M191.437,208.925c-0.462-0.17-0.219-1.193-0.389-3.164c-0.17-1.971-1.412-2.288-2.191-2.391
				c0,0,0.262,4.265,0.457,6.863c0.194,2.595-3.051,10.642-0.91,11.615c1.022,0.465,2.786,0.268,4.665-0.268v-13.413
				C192.529,208.912,191.744,209.04,191.437,208.925z"/>
			<g>
				<path fill="#FDB5A0" d="M185.913,217.616c0.77-1.643,1.306-2.422,1.192-3.313c-0.115-0.891-0.399-2.826,0.014-4.49
					c0.413-1.664,0.591-2.939,0.619-4.177c0.029-1.238,0.184-2.285,0.996-2.282c0.814-0.003,1.74,1.314,1.74,2.784
					c0,1.472-0.155,3.909,1.314,3.447c0.482-0.152,0.819-0.122,1.007-0.465c0.389-0.703,0.268-1.895,0.268-1.895
					s1.243,0.386,1.706,0.967c0.462,0.581,1.509,1.278,1.625,2.169c0.116,0.888,0.813,1.083,0.735,1.895
					c-0.077,0.812-0.464,1.083-0.272,1.624c0.194,0.542-0.233,1.123-0.619,1.625c-0.388,0.505-0.272,1.393-1.588,2.361
					c-1.316,0.967-2.245,1.123-4.838,3.87C187.216,224.479,184.939,219.694,185.913,217.616z"/>
				<g opacity="0.12">
					<path fill="#6D667F" d="M189.811,221.735c2.593-2.747,3.523-2.902,4.838-3.87c1.316-0.967,1.2-1.856,1.588-2.361
						c0.386-0.502,0.813-1.083,0.619-1.625c-0.191-0.541,0.195-0.812,0.272-1.624c0.078-0.812-0.619-1.007-0.735-1.895
						c-0.115-0.891-1.162-1.588-1.625-2.169c-0.464-0.581-1.706-0.967-1.706-0.967s0.121,1.193-0.268,1.895
						c-0.188,0.344-0.525,0.313-1.007,0.465c-1.469,0.463-1.314-1.974-1.314-3.447c0-1.469-0.927-2.787-1.74-2.784
						c-0.125-0.003-0.23,0.03-0.326,0.076c0.347-0.027,0.907,0.401,0.849,1.78c-0.061,1.393-0.438,4.642,0.17,6.735
						c0.608,2.087,0.994,2.86,0.618,4.296c-0.243,0.925-2.51,2.705-4.745,4.156c0.008,0.012,0.014,0.027,0.02,0.036
						c0.002,0.003,0.002,0.003,0.002,0.006C186.405,222.058,188.352,223.278,189.811,221.735z"/>
				</g>
				<g opacity="0.05">
					<path fill="#6D667F" d="M194.649,217.865c-0.567,0.417-1.068,0.691-1.656,1.077c0.004,0,0.006-0.003,0.009-0.006
						c0.814-0.584,0.545-1.098,1.184-1.999c0.639-0.897,0.465-2.379,1.01-3.048c0.543-0.666-0.166-1.974,0.414-2.583
						c0.581-0.608,0.173-2.023-0.414-2.662c0,0,0,0,0-0.003c0.497,0.487,1.11,1.046,1.198,1.719
						c0.116,0.888,0.813,1.083,0.735,1.895c-0.077,0.812-0.464,1.083-0.272,1.624c0.194,0.542-0.233,1.123-0.619,1.625
						C195.849,216.01,195.965,216.898,194.649,217.865z M192.534,209.883c2.796-1.11,0.709-1.98,0.53-2.659
						c0,0,0.121,1.193-0.268,1.895c-0.188,0.344-0.525,0.313-1.007,0.465c-0.706,0.222-1.031-0.231-1.185-0.919
						c0.002,0.003-0.001,0.006-0.001,0.012C190.698,209.63,191.11,210.449,192.534,209.883z"/>
				</g>
			</g>
		</g>
		
			<linearGradient id="SVGID_00000012457204619843867770000018436596619350966173_" gradientUnits="userSpaceOnUse" x1="157.4953" y1="431.0853" x2="157.4953" y2="410.6773">
			<stop  offset="0" style="stop-color:#252748"/>
			<stop  offset="1" style="stop-color:#203A5F"/>
		</linearGradient>
		<path fill="url(#SVGID_00000012457204619843867770000018436596619350966173_)" d="M155.333,411.044
			c4.271-0.116,12.362-0.983,15.83,0.444c3.469,1.421,6.758,6.045,2.757,9.069c-4.002,3.024-6.67,5.424-11.828,6.048
			c-5.159,0.621-5.959,0.621-10.938,2.936c-4.981,2.312-11.918,2.4-11.918-2.315c0-4.709,0-10.225,1.601-11.916
			C142.437,413.62,149.281,411.202,155.333,411.044z"/>
		
			<linearGradient id="SVGID_00000076605950082180380190000016545058337473628860_" gradientUnits="userSpaceOnUse" x1="125.9955" y1="414.2035" x2="125.9955" y2="389.7209">
			<stop  offset="0" style="stop-color:#252748"/>
			<stop  offset="1" style="stop-color:#203A5F"/>
		</linearGradient>
		<path fill="url(#SVGID_00000076605950082180380190000016545058337473628860_)" d="M127.166,391.677
			c3.088-1.414,7.683-4.064,10.951,1.062c3.269,5.123,4.947,5.743,1.854,7.772c-3.092,2.032-4.302,2.887-9.538,4.859
			c-5.388,2.029-6.602,3.979-8.303,6.27c-2.357,3.182-11.746,3.976-11.746-0.971s2.913-10.687,3.62-13.16
			C114.711,395.036,123.821,393.213,127.166,391.677z"/>
		
			<linearGradient id="SVGID_00000090995045663498994550000010168165419426829700_" gradientUnits="userSpaceOnUse" x1="148.0129" y1="423.0908" x2="148.0129" y2="334.5358">
			<stop  offset="0" style="stop-color:#4CD4EB"/>
			<stop  offset="1" style="stop-color:#1B50B0"/>
		</linearGradient>
		<path fill="url(#SVGID_00000090995045663498994550000010168165419426829700_)" d="M159.765,345.926
			c-1.01,12.214-2.251,33.181-2.626,48.93c-0.374,15.747,3.187,16.872,0,20.246c-3.187,3.377-14.06,11.81-18.559,5.999
			c-4.5-5.811-0.937-10.499-1.501-29.619c-0.561-19.123-1.873-43.871,0.564-51.933C140.079,331.488,160.847,332.823,159.765,345.926
			z"/>
		
			<linearGradient id="SVGID_00000088114948249437602950000003192624971610131338_" gradientUnits="userSpaceOnUse" x1="121.3038" y1="407.0371" x2="121.3038" y2="330.7011">
			<stop  offset="0" style="stop-color:#4CD4EB"/>
			<stop  offset="1" style="stop-color:#1B50B0"/>
		</linearGradient>
		<path fill="url(#SVGID_00000088114948249437602950000003192624971610131338_)" d="M112.943,334.092
			c-0.033,6.906-3.797,19.893-3.608,38.265c0.187,18.375-3.001,34.681,6.561,34.681c9.562,0,12.373-8.433,11.998-12.369
			c-0.375-3.937,1.313-13.124,2.625-21.371c1.312-8.25,3.717-20.812,2.984-27.748C132.768,338.61,112.989,324.132,112.943,334.092z"
			/>
		<path opacity="0.3" d="M133.502,345.549c-0.319-3.018-4.236-7.453-8.566-10.693c-4.433,2.111-6.489,8.819-6.489,8.819
			c4.37,2.431,9.352,6.063,10.91,10.231c1.558,4.165,2.676,10.109,1.812,15.412C132.482,361.395,134.125,351.444,133.502,345.549z"
			/>
		
			<linearGradient id="SVGID_00000113327367826694516630000011784633633911255189_" gradientUnits="userSpaceOnUse" x1="186.2856" y1="200.9794" x2="186.2856" y2="232.4718" gradientTransform="matrix(0.9735 -0.2288 0.2288 0.9735 -105.9847 39.4943)">
			<stop  offset="0" style="stop-color:#EEF0FC"/>
			<stop  offset="1" style="stop-color:#C6CBEE"/>
		</linearGradient>
		<path fill="url(#SVGID_00000113327367826694516630000011784633633911255189_)" d="M124.38,222.123
			c2.852-3.509,5.68-10.324,8.344-17.423c2.667-7.094,3.751-9.855,3.414-10.062c-0.338-0.21-5.991-4.18-6.629-4.031
			c-0.638,0.149-6.406,9.212-10.588,12.312c-4.182,3.103-8.614,14.152-4.251,18.379C119.033,225.524,120.633,226.735,124.38,222.123
			z"/>
		
			<linearGradient id="SVGID_00000143581744947256661780000002761078764994351496_" gradientUnits="userSpaceOnUse" x1="128.8547" y1="224.3456" x2="135.3992" y2="224.3456">
			<stop  offset="0" style="stop-color:#EEF0FC"/>
			<stop  offset="1" style="stop-color:#C6CBEE"/>
		</linearGradient>
		<path fill="url(#SVGID_00000143581744947256661780000002761078764994351496_)" d="M134.28,222.286
			c-1.24-1.092-1.747-1.734-4.3-2.79c-2.555-1.056-0.376,9.771,2.718,9.771C135.79,229.268,136.098,223.889,134.28,222.286z"/>
		<path opacity="0.7" d="M134.28,222.286c-1.24-1.092-1.747-1.734-4.3-2.79c-2.555-1.056-0.376,9.771,2.718,9.771
			C135.79,229.268,136.098,223.889,134.28,222.286z"/>
		<path fill="#FFFFFF" d="M186.76,215.441c-1.032,0-1.311,2.248-3.468,7.219c-2.155,4.968-10.124,16.778-10.498,17.061
			c-0.375,0.28-1.406,0.56-9.093,0c-7.686-0.563-16.216-5.211-19.613-7.322c-0.014-0.009-0.03-0.018-0.045-0.027
			c-6.626-4.539-14.304-9.26-20.284-12.661c-10.136-5.771-16.687-6.924-23.331,0c-6.732,7.012,0.844,20.106,5.408,30.793
			c4.565,10.684,6.638,21.484,4.246,36.932c-2.437,15.743,2.438,40.683,2.251,47.616c-0.188,6.939,7.875,9.75,22.517,16.875
			c14.645,7.125,32.242-7.155,34.1-8.436c1.59-1.095-3.703-51.37-5.249-66.414c-0.737-7.164-1.193-14.286-2.16-20.443
			c3.232-0.256,6.652-0.377,10.597-0.508c10.614-0.35,10.217-4.125,16.498-16.781c6.279-12.652,5.905-14.435,6.187-17.715
			C195.103,218.346,187.792,215.441,186.76,215.441z"/>
		<g opacity="0.15">
			<path fill="#1B50B0" d="M161.545,256.632c-5.466,0.429-10.395,1.229-16.404,3.054c-1.168,0.356-2.2,0.688-3.117,0.961h-0.001
				c3.878-0.006,13.855-1.159,15.684,1.853c2.175,3.581,5.898,14.609,7.17,27.182c0.112,1.107,0.253,2.057,0.411,2.887
				c-0.645-6.392-1.221-11.934-1.587-15.494C162.965,269.914,162.512,262.789,161.545,256.632z"/>
		</g>
		<path fill="#FDB5A0" d="M133.892,227.348c-1.144-3.991-2.085-6.796-1.781-13.687c0.305-6.887-15.747-8.999-16.403-1.688
			c-0.656,7.313-0.281,8.904-2.626,10.593c-2.343,1.685-0.562,7.499,4.781,9.093c5.343,1.594,10.875,2.622,13.874,0
			C134.737,229.033,135.119,231.619,133.892,227.348z"/>
		<g opacity="0.12">
			<path fill="#6D667F" d="M133.892,227.348c-1.144-3.991-2.085-6.796-1.781-13.687c0.305-6.887-15.747-8.999-16.403-1.688
				c-0.656,7.313-0.281,8.904-2.626,10.593c-2.343,1.685-0.562,7.499,4.781,9.093c5.343,1.594,10.875,2.622,13.874,0
				C134.737,229.033,135.119,231.619,133.892,227.348z"/>
		</g>
		<path fill="#FFFFFF" d="M134.28,222.286c0,0,1.298,2.437-1.325,3.937c-2.623,1.5-4.966,4.031-11.06,3.468
			c-6.094-0.563-8.906-1.968-6.843-9.279c0,0-5.906-0.846-5.906,2.902c0,3.754,5.437,12.655,16.873,12.655
			c7.401,0,10.592-4.779,10.592-7.405C136.611,225.939,136.542,223.691,134.28,222.286z"/>
		<path fill="#FDB5A0" d="M133.284,196.415c1.503,2.421,2.202,3.514,1.875,7.027c-0.329,3.517,1.171,2.345,1.03,5.485
			c-0.141,3.139,0.308,4.828-1.908,6.559c-2.215,1.737-2.309,2.765-8.636,1.643C119.317,216.004,130.752,192.336,133.284,196.415z"
			/>
		
			<linearGradient id="SVGID_00000005947346806513899660000002694103661387694498_" gradientUnits="userSpaceOnUse" x1="105.837" y1="206.1432" x2="134.2812" y2="206.1432">
			<stop  offset="0" style="stop-color:#252748"/>
			<stop  offset="1" style="stop-color:#203A5F"/>
		</linearGradient>
		<path fill="url(#SVGID_00000005947346806513899660000002694103661387694498_)" d="M109.99,194.398
			c-5.45,4.944-5.623,17.997,0,21.934c5.625,3.937,5.343,8.436,10.124,8.716c4.78,0.283,7.499-2.482,7.686-5.576
			c0.173-2.86-1.409-4.968,0.021-6.17c1.772-1.485,2.744,0.079,2.744,0.079l1.313-2.251c0,0-0.798-1.123,0.538-4.356
			c1.336-3.234,4.29-13.288-2.038-17.718C124.05,184.627,116.035,188.913,109.99,194.398z"/>
	</g>
</g>
</svg>
