<svg width="108" height="27" viewBox="0 0 108 27" fill="none" xmlns="http://www.w3.org/2000/svg">
<g clip-path="url(#clip0)">
<path d="M51.0102 1.60965H41.6802V12.47H51.0102C54.3402 12.47 57.2602 10.7401 57.2602 7.05008C57.2602 3.36008 54.3402 1.60965 51.0102 1.60965ZM49.7602 10.1204H44.9902V3.95047H49.7502C52.2502 3.95047 53.9402 4.40031 53.9402 7.04031C53.9402 9.68031 52.2602 10.1204 49.7502 10.1204H49.7602Z" fill="#74899C"/>
<path d="M58.4502 12.46H72.0502V10.24H61.7602V8.03999H72.0502V6.02999H61.7602V3.82999H72.0502V1.60999H58.4502V12.46Z" fill="#74899C"/>
<path d="M86.5002 9.76999L77.7202 1.60999H73.2402V12.46H76.5502V4.31999L85.3102 12.46H89.8102V1.60999H86.5002V9.76999Z" fill="#74899C"/>
<path d="M106.69 1.60999H90.8901V3.94999H97.1401V12.46H100.44V3.94999H106.69V1.60999Z" fill="#74899C"/>
<path d="M62.8398 14.01H59.5298V24.86H72.7498V22.52H62.8398V14.01Z" fill="#74899C"/>
<path d="M74.04 24.86H87.63V22.65H77.35V20.45H87.63V18.43H77.35V16.23H87.63V14.01H74.04V24.86Z" fill="#74899C"/>
<path d="M47.6202 14.01L40.9902 24.8596H44.6302L46.0102 22.5598H53.7502L55.1302 24.8596H58.7502L52.1002 14.01H47.6202ZM47.2402 20.4798L49.8602 16.0804L52.4702 20.4798H47.2402Z" fill="#74899C"/>
<path d="M107.38 14.01H102.8L97.8999 17.7298L92.9699 14.01H88.4199L95.6599 19.4397L88.4199 24.8596H92.9699L99.1199 20.2102C98.9434 20.6113 98.9086 21.0602 99.0213 21.4837C99.134 21.9071 99.3874 22.28 99.7399 22.5403L102.8 24.8596H107.38L100.14 19.4397L107.38 14.01Z" fill="#74899C"/>
<path d="M0 26.47V23.25H24.69V3.23H0V0H27.92V26.47H0Z" fill="#74899C"/>
<path d="M16.62 13.06L13.87 10.97L7.84002 6.38H2.27002L11.12 13.07L2.27002 19.77H7.84002L13.86 15.18L13.87 15.19L16.62 13.09L16.64 13.07L16.62 13.06Z" fill="#74899C"/>
</g>
<defs>
<clipPath id="clip0">
<rect width="107.38" height="26.47" fill="white"/>
</clipPath>
</defs>
</svg>
