<svg width="108" height="27" viewBox="0 0 108 27" fill="none" xmlns="http://www.w3.org/2000/svg">
<g clip-path="url(#clip0)">
<path d="M51.0202 1.60999H41.6802V12.43H51.0202C54.3402 12.43 57.2602 10.7 57.2602 7.00998C57.2602 3.31998 54.3802 1.60999 51.0202 1.60999ZM49.7702 10.12H44.9902V3.94999H49.7702C52.2602 3.94999 53.9502 4.39999 53.9502 7.03999C53.9502 9.67999 52.2602 10.12 49.7702 10.12Z" fill="black"/>
<path d="M58.4502 12.46H72.0502V10.24H61.7602V8.03999H72.0502V6.02999H61.7602V3.82999H72.0502V1.60999H58.4502V12.46Z" fill="black"/>
<path d="M86.5002 9.76999L77.7202 1.60999H73.2402V12.46H76.5502V4.31999L85.3102 12.46H89.8102V1.60999H86.5002V9.76999Z" fill="black"/>
<path d="M106.69 1.60999H90.8901V3.94999H97.1401V12.46H100.44V3.94999H106.69V1.60999Z" fill="black"/>
<path d="M62.8398 14.01H59.5298V24.86H72.7498V22.52H62.8398V14.01Z" fill="black"/>
<path d="M74.04 24.86H87.63V22.65H77.35V20.45H87.63V18.43H77.35V16.23H87.63V14.01H74.04V24.86Z" fill="black"/>
<path d="M47.6302 14.01L40.9902 24.86H44.6302L46.0102 22.55H53.7102L55.0802 24.86H58.7402L52.0902 14.01H47.6302ZM47.2402 20.48L49.8702 16.07L52.4802 20.48H47.2402Z" fill="black"/>
<path d="M107.38 14.01H102.81L97.8999 17.73L92.9799 14.01H88.3799L95.6599 19.43L88.3799 24.86H92.9399L99.0899 20.21C98.9105 20.6097 98.8731 21.0587 98.9841 21.4826C99.0951 21.9064 99.3476 22.2795 99.6999 22.54L102.77 24.86H107.38L100.14 19.43L107.38 14.01Z" fill="black"/>
<path d="M0 26.47V23.25H24.69V3.23H0V0H27.92V26.47H0Z" fill="url(#paint0_linear)"/>
<path d="M16.62 13.06L13.87 10.97L7.84002 6.38H2.27002L11.12 13.07L2.27002 19.77H7.84002L13.86 15.18L13.87 15.19L16.62 13.09L16.64 13.07L16.62 13.06Z" fill="black"/>
</g>
<defs>
<linearGradient id="paint0_linear" x1="0" y1="13.24" x2="27.92" y2="13.24" gradientUnits="userSpaceOnUse">
<stop stop-color="white" stop-opacity="0.1"/>
<stop offset="0.02" stop-opacity="0.12"/>
<stop offset="1"/>
</linearGradient>
<clipPath id="clip0">
<rect width="107.38" height="26.47" fill="white"/>
</clipPath>
</defs>
</svg>
