<?xml version="1.0" standalone="no"?>
<!DOCTYPE svg PUBLIC "-//W3C//DTD SVG 20010904//EN"
 "http://www.w3.org/TR/2001/REC-SVG-20010904/DTD/svg10.dtd">
<svg version="1.0" xmlns="http://www.w3.org/2000/svg"
 width="700.000000pt" height="700.000000pt" viewBox="0 0 700.000000 700.000000"
 preserveAspectRatio="xMidYMid meet">
<metadata>
Created by potrace 1.14, written by Peter Selinger 2001-2017
</metadata>
<g transform="translate(0.000000,700.000000) scale(0.100000,-0.100000)"
fill="#000000" stroke="none">
<path d="M3280 6994 c-19 -2 -84 -9 -145 -14 -639 -62 -1264 -315 -1795 -726
-149 -115 -481 -446 -595 -594 -410 -532 -653 -1132 -727 -1795 -17 -155 -17
-575 0 -730 75 -673 332 -1300 748 -1820 114 -143 339 -372 484 -494 537 -451
1163 -717 1885 -803 142 -17 586 -17 730 0 682 79 1268 318 1802 734 138 107
389 351 512 498 451 538 717 1162 803 1885 16 139 16 595 0 730 -77 629 -275
1158 -620 1649 -234 333 -577 668 -917 896 -460 308 -968 495 -1535 566 -117
15 -552 27 -630 18z m510 -1444 c181 -37 344 -102 492 -198 l58 -37 0 -248 0
-249 -132 137 c-72 75 -170 165 -217 200 -216 162 -484 245 -698 215 -86 -11
-191 -43 -258 -78 -70 -35 -141 -126 -200 -255 -117 -255 -92 -534 66 -738
119 -153 187 -206 549 -424 293 -177 575 -359 680 -440 140 -108 279 -281 354
-440 83 -175 110 -317 104 -542 -5 -133 -10 -172 -32 -246 -83 -276 -273 -487
-573 -636 -404 -200 -855 -196 -1266 10 -81 41 -193 118 -240 167 l-37 38 2
253 3 254 50 -64 c76 -98 219 -235 340 -327 332 -252 701 -317 1030 -182 99
41 145 86 204 198 87 169 117 302 108 490 -8 185 -62 312 -200 473 -89 103
-173 166 -527 397 -168 109 -375 247 -460 307 -330 231 -500 462 -562 764 -27
131 -21 368 11 481 49 167 144 326 258 430 167 153 437 278 668 309 105 15
304 6 425 -19z"/>
</g>
</svg>
